G04 #@! TF.GenerationSoftware,KiCad,Pcbnew,5.1.5+dfsg1-2build2*
G04 #@! TF.CreationDate,2023-03-02T23:39:50+01:00*
G04 #@! TF.ProjectId,RSensHub,5253656e-7348-4756-922e-6b696361645f,rev?*
G04 #@! TF.SameCoordinates,Original*
G04 #@! TF.FileFunction,Legend,Bot*
G04 #@! TF.FilePolarity,Positive*
%FSLAX46Y46*%
G04 Gerber Fmt 4.6, Leading zero omitted, Abs format (unit mm)*
G04 Created by KiCad (PCBNEW 5.1.5+dfsg1-2build2) date 2023-03-02 23:39:50*
%MOMM*%
%LPD*%
G04 APERTURE LIST*
%ADD10C,0.100000*%
%ADD11C,0.010000*%
%ADD12C,0.120000*%
%ADD13C,0.150000*%
G04 APERTURE END LIST*
D10*
G36*
X334645000Y-85090000D02*
G01*
X322580000Y-85090000D01*
X322580000Y-48895000D01*
X334645000Y-48895000D01*
X334645000Y-85090000D01*
G37*
X334645000Y-85090000D02*
X322580000Y-85090000D01*
X322580000Y-48895000D01*
X334645000Y-48895000D01*
X334645000Y-85090000D01*
G36*
X321310000Y-85090000D02*
G01*
X309245000Y-85090000D01*
X309245000Y-48895000D01*
X321310000Y-48895000D01*
X321310000Y-85090000D01*
G37*
X321310000Y-85090000D02*
X309245000Y-85090000D01*
X309245000Y-48895000D01*
X321310000Y-48895000D01*
X321310000Y-85090000D01*
D11*
G36*
X382906840Y-44346142D02*
G01*
X382926878Y-44552095D01*
X382963654Y-44702252D01*
X383029787Y-44837123D01*
X383087234Y-44925276D01*
X383276819Y-45134868D01*
X383498267Y-45255087D01*
X383733315Y-45289838D01*
X383848045Y-45276608D01*
X383915942Y-45224422D01*
X383948422Y-45114544D01*
X383956904Y-44928233D01*
X383956907Y-44922868D01*
X383910191Y-44628396D01*
X383775872Y-44350450D01*
X383562695Y-44102542D01*
X383302302Y-43911357D01*
X383171314Y-43818845D01*
X383118461Y-43743546D01*
X383120142Y-43723376D01*
X383158654Y-43714462D01*
X383252767Y-43755793D01*
X383408267Y-43850649D01*
X383630941Y-44002310D01*
X383707890Y-44056664D01*
X383932963Y-44216492D01*
X384151043Y-44371138D01*
X384339742Y-44504741D01*
X384476672Y-44601438D01*
X384495532Y-44614711D01*
X384720875Y-44773156D01*
X384967860Y-44591852D01*
X385108528Y-44475003D01*
X385188022Y-44379324D01*
X385200110Y-44334031D01*
X385158087Y-44284804D01*
X385048564Y-44189369D01*
X384883010Y-44056796D01*
X384672896Y-43896155D01*
X384429691Y-43716516D01*
X384308454Y-43628990D01*
X384053426Y-43445762D01*
X383824858Y-43280712D01*
X383634373Y-43142300D01*
X383493593Y-43038987D01*
X383414142Y-42979234D01*
X383401265Y-42968578D01*
X383399412Y-42907925D01*
X383436278Y-42812094D01*
X383501561Y-42687498D01*
X384464244Y-43367995D01*
X384733612Y-43557730D01*
X384978318Y-43728807D01*
X385186931Y-43873340D01*
X385348022Y-43983442D01*
X385450160Y-44051227D01*
X385480718Y-44069378D01*
X385534102Y-44045931D01*
X385625460Y-43969760D01*
X385732889Y-43863685D01*
X385834483Y-43750525D01*
X385908340Y-43653097D01*
X385932998Y-43598202D01*
X385895298Y-43560846D01*
X385789062Y-43475744D01*
X385624589Y-43350619D01*
X385412177Y-43193197D01*
X385162124Y-43011203D01*
X384897960Y-42821781D01*
X384621646Y-42623923D01*
X384373045Y-42443819D01*
X384162459Y-42289101D01*
X384000186Y-42167402D01*
X383896526Y-42086352D01*
X383861717Y-42053907D01*
X383888678Y-41998080D01*
X383944858Y-41923173D01*
X383972570Y-41893752D01*
X384003977Y-41878205D01*
X384048905Y-41882042D01*
X384117176Y-41910773D01*
X384218614Y-41969907D01*
X384363043Y-42064954D01*
X384560286Y-42201425D01*
X384820167Y-42384828D01*
X385017249Y-42524660D01*
X385292019Y-42719177D01*
X385544033Y-42896556D01*
X385761622Y-43048667D01*
X385933117Y-43167380D01*
X386046850Y-43244563D01*
X386087859Y-43270653D01*
X386144109Y-43280930D01*
X386206696Y-43239555D01*
X386291986Y-43133037D01*
X386340895Y-43062097D01*
X386429549Y-42925337D01*
X386491195Y-42820461D01*
X386511366Y-42774117D01*
X386473662Y-42737905D01*
X386367542Y-42654133D01*
X386203498Y-42530609D01*
X385992020Y-42375141D01*
X385743601Y-42195538D01*
X385511272Y-42029757D01*
X385237095Y-41834991D01*
X384988106Y-41657633D01*
X384775379Y-41505612D01*
X384609989Y-41386857D01*
X384503013Y-41309295D01*
X384466528Y-41281891D01*
X384459569Y-41224986D01*
X384507603Y-41149915D01*
X384582345Y-41087054D01*
X384655509Y-41066780D01*
X384664523Y-41069261D01*
X384720321Y-41103089D01*
X384842685Y-41184882D01*
X385019807Y-41306492D01*
X385239874Y-41459768D01*
X385491078Y-41636561D01*
X385651452Y-41750265D01*
X385915756Y-41937293D01*
X386156109Y-42105724D01*
X386360674Y-42247394D01*
X386517614Y-42354143D01*
X386615092Y-42417809D01*
X386640069Y-42431916D01*
X386689587Y-42404707D01*
X386756008Y-42312971D01*
X386826143Y-42183757D01*
X386886802Y-42044114D01*
X386924796Y-41921093D01*
X386927343Y-41842764D01*
X386882846Y-41798682D01*
X386770944Y-41708303D01*
X386603309Y-41580458D01*
X386391612Y-41423976D01*
X386147525Y-41247686D01*
X386033214Y-41166360D01*
X385780427Y-40985873D01*
X385556449Y-40823153D01*
X385372536Y-40686609D01*
X385239946Y-40584650D01*
X385169933Y-40525688D01*
X385161841Y-40515342D01*
X385201212Y-40468058D01*
X385305497Y-40389290D01*
X385453953Y-40291768D01*
X385625837Y-40188224D01*
X385800405Y-40091386D01*
X385956914Y-40013985D01*
X386026114Y-39984942D01*
X386221811Y-39919634D01*
X386373057Y-39900919D01*
X386513979Y-39933237D01*
X386678704Y-40021026D01*
X386773154Y-40082114D01*
X386918893Y-40172422D01*
X387034450Y-40231910D01*
X387096490Y-40248692D01*
X387098486Y-40247807D01*
X387137036Y-40191584D01*
X387100273Y-40111257D01*
X386983802Y-40000764D01*
X386843168Y-39895628D01*
X386683468Y-39787620D01*
X386568424Y-39727665D01*
X386466624Y-39704604D01*
X386346659Y-39707279D01*
X386319806Y-39709720D01*
X386153881Y-39743002D01*
X385951267Y-39807587D01*
X385783166Y-39877250D01*
X385595887Y-39975346D01*
X385400950Y-40093336D01*
X385215419Y-40218774D01*
X385056360Y-40339215D01*
X384940838Y-40442214D01*
X384885917Y-40515327D01*
X384884474Y-40532645D01*
X384927409Y-40576494D01*
X385037542Y-40667260D01*
X385203424Y-40796125D01*
X385413603Y-40954276D01*
X385656630Y-41132894D01*
X385781311Y-41223114D01*
X386036185Y-41406953D01*
X386264504Y-41572277D01*
X386454729Y-41710676D01*
X386595320Y-41813744D01*
X386674739Y-41873073D01*
X386687780Y-41883583D01*
X386699987Y-41947889D01*
X386680702Y-42045310D01*
X386643231Y-42129759D01*
X386608837Y-42157011D01*
X386558440Y-42130196D01*
X386441046Y-42054868D01*
X386267983Y-41938700D01*
X386050580Y-41789369D01*
X385800163Y-41614549D01*
X385612886Y-41482248D01*
X385345318Y-41294037D01*
X385101892Y-41126043D01*
X384894149Y-40985968D01*
X384733625Y-40881513D01*
X384631859Y-40820381D01*
X384601975Y-40807486D01*
X384540904Y-40842900D01*
X384448021Y-40931599D01*
X384345881Y-41047265D01*
X384257037Y-41163580D01*
X384204043Y-41254229D01*
X384197894Y-41278991D01*
X384235705Y-41319649D01*
X384342244Y-41407604D01*
X384507175Y-41535014D01*
X384720159Y-41694036D01*
X384970859Y-41876827D01*
X385234137Y-42065068D01*
X385510684Y-42262059D01*
X385759336Y-42441211D01*
X385969803Y-42594943D01*
X386131798Y-42715679D01*
X386235033Y-42795841D01*
X386269308Y-42827558D01*
X386241238Y-42881966D01*
X386184963Y-42958127D01*
X386158319Y-42987718D01*
X386128173Y-43003945D01*
X386084998Y-43001391D01*
X386019268Y-42974637D01*
X385921455Y-42918267D01*
X385782033Y-42826862D01*
X385591474Y-42695005D01*
X385340251Y-42517278D01*
X385065446Y-42321496D01*
X384786418Y-42123902D01*
X384531656Y-41946093D01*
X384312060Y-41795467D01*
X384138531Y-41679423D01*
X384021969Y-41605360D01*
X383973981Y-41580627D01*
X383922192Y-41617199D01*
X383842872Y-41710965D01*
X383754800Y-41834578D01*
X383676757Y-41960690D01*
X383627523Y-42061955D01*
X383619526Y-42096790D01*
X383657271Y-42137520D01*
X383763628Y-42225723D01*
X383928282Y-42353534D01*
X384140915Y-42513090D01*
X384391212Y-42696526D01*
X384654675Y-42885884D01*
X385689825Y-43623145D01*
X385587642Y-43731914D01*
X385511803Y-43803579D01*
X385452125Y-43809730D01*
X385361975Y-43754726D01*
X385359798Y-43753211D01*
X385283444Y-43699764D01*
X385142058Y-43600518D01*
X384949431Y-43465162D01*
X384719350Y-43303387D01*
X384465607Y-43124883D01*
X384391233Y-43072546D01*
X384137640Y-42895624D01*
X383907275Y-42737821D01*
X383712904Y-42607646D01*
X383567287Y-42513608D01*
X383483190Y-42464214D01*
X383471122Y-42459163D01*
X383411895Y-42477226D01*
X383344549Y-42568764D01*
X383271591Y-42719719D01*
X383211409Y-42870938D01*
X383175720Y-42986989D01*
X383171661Y-43038728D01*
X383215876Y-43076505D01*
X383327470Y-43161324D01*
X383494977Y-43284775D01*
X383706927Y-43438449D01*
X383951854Y-43613933D01*
X384086441Y-43709595D01*
X384978829Y-44342201D01*
X384865496Y-44429369D01*
X384775556Y-44492108D01*
X384723206Y-44517609D01*
X384675613Y-44491425D01*
X384564955Y-44418825D01*
X384406214Y-44309966D01*
X384214372Y-44175003D01*
X384148910Y-44128298D01*
X383922329Y-43967122D01*
X383697677Y-43809096D01*
X383499525Y-43671398D01*
X383352446Y-43571200D01*
X383341276Y-43563760D01*
X383199113Y-43471980D01*
X383113663Y-43429159D01*
X383062354Y-43429430D01*
X383022613Y-43466928D01*
X383013849Y-43478678D01*
X382950021Y-43626147D01*
X382911115Y-43850736D01*
X382899171Y-44135926D01*
X382906840Y-44346142D01*
G37*
X382906840Y-44346142D02*
X382926878Y-44552095D01*
X382963654Y-44702252D01*
X383029787Y-44837123D01*
X383087234Y-44925276D01*
X383276819Y-45134868D01*
X383498267Y-45255087D01*
X383733315Y-45289838D01*
X383848045Y-45276608D01*
X383915942Y-45224422D01*
X383948422Y-45114544D01*
X383956904Y-44928233D01*
X383956907Y-44922868D01*
X383910191Y-44628396D01*
X383775872Y-44350450D01*
X383562695Y-44102542D01*
X383302302Y-43911357D01*
X383171314Y-43818845D01*
X383118461Y-43743546D01*
X383120142Y-43723376D01*
X383158654Y-43714462D01*
X383252767Y-43755793D01*
X383408267Y-43850649D01*
X383630941Y-44002310D01*
X383707890Y-44056664D01*
X383932963Y-44216492D01*
X384151043Y-44371138D01*
X384339742Y-44504741D01*
X384476672Y-44601438D01*
X384495532Y-44614711D01*
X384720875Y-44773156D01*
X384967860Y-44591852D01*
X385108528Y-44475003D01*
X385188022Y-44379324D01*
X385200110Y-44334031D01*
X385158087Y-44284804D01*
X385048564Y-44189369D01*
X384883010Y-44056796D01*
X384672896Y-43896155D01*
X384429691Y-43716516D01*
X384308454Y-43628990D01*
X384053426Y-43445762D01*
X383824858Y-43280712D01*
X383634373Y-43142300D01*
X383493593Y-43038987D01*
X383414142Y-42979234D01*
X383401265Y-42968578D01*
X383399412Y-42907925D01*
X383436278Y-42812094D01*
X383501561Y-42687498D01*
X384464244Y-43367995D01*
X384733612Y-43557730D01*
X384978318Y-43728807D01*
X385186931Y-43873340D01*
X385348022Y-43983442D01*
X385450160Y-44051227D01*
X385480718Y-44069378D01*
X385534102Y-44045931D01*
X385625460Y-43969760D01*
X385732889Y-43863685D01*
X385834483Y-43750525D01*
X385908340Y-43653097D01*
X385932998Y-43598202D01*
X385895298Y-43560846D01*
X385789062Y-43475744D01*
X385624589Y-43350619D01*
X385412177Y-43193197D01*
X385162124Y-43011203D01*
X384897960Y-42821781D01*
X384621646Y-42623923D01*
X384373045Y-42443819D01*
X384162459Y-42289101D01*
X384000186Y-42167402D01*
X383896526Y-42086352D01*
X383861717Y-42053907D01*
X383888678Y-41998080D01*
X383944858Y-41923173D01*
X383972570Y-41893752D01*
X384003977Y-41878205D01*
X384048905Y-41882042D01*
X384117176Y-41910773D01*
X384218614Y-41969907D01*
X384363043Y-42064954D01*
X384560286Y-42201425D01*
X384820167Y-42384828D01*
X385017249Y-42524660D01*
X385292019Y-42719177D01*
X385544033Y-42896556D01*
X385761622Y-43048667D01*
X385933117Y-43167380D01*
X386046850Y-43244563D01*
X386087859Y-43270653D01*
X386144109Y-43280930D01*
X386206696Y-43239555D01*
X386291986Y-43133037D01*
X386340895Y-43062097D01*
X386429549Y-42925337D01*
X386491195Y-42820461D01*
X386511366Y-42774117D01*
X386473662Y-42737905D01*
X386367542Y-42654133D01*
X386203498Y-42530609D01*
X385992020Y-42375141D01*
X385743601Y-42195538D01*
X385511272Y-42029757D01*
X385237095Y-41834991D01*
X384988106Y-41657633D01*
X384775379Y-41505612D01*
X384609989Y-41386857D01*
X384503013Y-41309295D01*
X384466528Y-41281891D01*
X384459569Y-41224986D01*
X384507603Y-41149915D01*
X384582345Y-41087054D01*
X384655509Y-41066780D01*
X384664523Y-41069261D01*
X384720321Y-41103089D01*
X384842685Y-41184882D01*
X385019807Y-41306492D01*
X385239874Y-41459768D01*
X385491078Y-41636561D01*
X385651452Y-41750265D01*
X385915756Y-41937293D01*
X386156109Y-42105724D01*
X386360674Y-42247394D01*
X386517614Y-42354143D01*
X386615092Y-42417809D01*
X386640069Y-42431916D01*
X386689587Y-42404707D01*
X386756008Y-42312971D01*
X386826143Y-42183757D01*
X386886802Y-42044114D01*
X386924796Y-41921093D01*
X386927343Y-41842764D01*
X386882846Y-41798682D01*
X386770944Y-41708303D01*
X386603309Y-41580458D01*
X386391612Y-41423976D01*
X386147525Y-41247686D01*
X386033214Y-41166360D01*
X385780427Y-40985873D01*
X385556449Y-40823153D01*
X385372536Y-40686609D01*
X385239946Y-40584650D01*
X385169933Y-40525688D01*
X385161841Y-40515342D01*
X385201212Y-40468058D01*
X385305497Y-40389290D01*
X385453953Y-40291768D01*
X385625837Y-40188224D01*
X385800405Y-40091386D01*
X385956914Y-40013985D01*
X386026114Y-39984942D01*
X386221811Y-39919634D01*
X386373057Y-39900919D01*
X386513979Y-39933237D01*
X386678704Y-40021026D01*
X386773154Y-40082114D01*
X386918893Y-40172422D01*
X387034450Y-40231910D01*
X387096490Y-40248692D01*
X387098486Y-40247807D01*
X387137036Y-40191584D01*
X387100273Y-40111257D01*
X386983802Y-40000764D01*
X386843168Y-39895628D01*
X386683468Y-39787620D01*
X386568424Y-39727665D01*
X386466624Y-39704604D01*
X386346659Y-39707279D01*
X386319806Y-39709720D01*
X386153881Y-39743002D01*
X385951267Y-39807587D01*
X385783166Y-39877250D01*
X385595887Y-39975346D01*
X385400950Y-40093336D01*
X385215419Y-40218774D01*
X385056360Y-40339215D01*
X384940838Y-40442214D01*
X384885917Y-40515327D01*
X384884474Y-40532645D01*
X384927409Y-40576494D01*
X385037542Y-40667260D01*
X385203424Y-40796125D01*
X385413603Y-40954276D01*
X385656630Y-41132894D01*
X385781311Y-41223114D01*
X386036185Y-41406953D01*
X386264504Y-41572277D01*
X386454729Y-41710676D01*
X386595320Y-41813744D01*
X386674739Y-41873073D01*
X386687780Y-41883583D01*
X386699987Y-41947889D01*
X386680702Y-42045310D01*
X386643231Y-42129759D01*
X386608837Y-42157011D01*
X386558440Y-42130196D01*
X386441046Y-42054868D01*
X386267983Y-41938700D01*
X386050580Y-41789369D01*
X385800163Y-41614549D01*
X385612886Y-41482248D01*
X385345318Y-41294037D01*
X385101892Y-41126043D01*
X384894149Y-40985968D01*
X384733625Y-40881513D01*
X384631859Y-40820381D01*
X384601975Y-40807486D01*
X384540904Y-40842900D01*
X384448021Y-40931599D01*
X384345881Y-41047265D01*
X384257037Y-41163580D01*
X384204043Y-41254229D01*
X384197894Y-41278991D01*
X384235705Y-41319649D01*
X384342244Y-41407604D01*
X384507175Y-41535014D01*
X384720159Y-41694036D01*
X384970859Y-41876827D01*
X385234137Y-42065068D01*
X385510684Y-42262059D01*
X385759336Y-42441211D01*
X385969803Y-42594943D01*
X386131798Y-42715679D01*
X386235033Y-42795841D01*
X386269308Y-42827558D01*
X386241238Y-42881966D01*
X386184963Y-42958127D01*
X386158319Y-42987718D01*
X386128173Y-43003945D01*
X386084998Y-43001391D01*
X386019268Y-42974637D01*
X385921455Y-42918267D01*
X385782033Y-42826862D01*
X385591474Y-42695005D01*
X385340251Y-42517278D01*
X385065446Y-42321496D01*
X384786418Y-42123902D01*
X384531656Y-41946093D01*
X384312060Y-41795467D01*
X384138531Y-41679423D01*
X384021969Y-41605360D01*
X383973981Y-41580627D01*
X383922192Y-41617199D01*
X383842872Y-41710965D01*
X383754800Y-41834578D01*
X383676757Y-41960690D01*
X383627523Y-42061955D01*
X383619526Y-42096790D01*
X383657271Y-42137520D01*
X383763628Y-42225723D01*
X383928282Y-42353534D01*
X384140915Y-42513090D01*
X384391212Y-42696526D01*
X384654675Y-42885884D01*
X385689825Y-43623145D01*
X385587642Y-43731914D01*
X385511803Y-43803579D01*
X385452125Y-43809730D01*
X385361975Y-43754726D01*
X385359798Y-43753211D01*
X385283444Y-43699764D01*
X385142058Y-43600518D01*
X384949431Y-43465162D01*
X384719350Y-43303387D01*
X384465607Y-43124883D01*
X384391233Y-43072546D01*
X384137640Y-42895624D01*
X383907275Y-42737821D01*
X383712904Y-42607646D01*
X383567287Y-42513608D01*
X383483190Y-42464214D01*
X383471122Y-42459163D01*
X383411895Y-42477226D01*
X383344549Y-42568764D01*
X383271591Y-42719719D01*
X383211409Y-42870938D01*
X383175720Y-42986989D01*
X383171661Y-43038728D01*
X383215876Y-43076505D01*
X383327470Y-43161324D01*
X383494977Y-43284775D01*
X383706927Y-43438449D01*
X383951854Y-43613933D01*
X384086441Y-43709595D01*
X384978829Y-44342201D01*
X384865496Y-44429369D01*
X384775556Y-44492108D01*
X384723206Y-44517609D01*
X384675613Y-44491425D01*
X384564955Y-44418825D01*
X384406214Y-44309966D01*
X384214372Y-44175003D01*
X384148910Y-44128298D01*
X383922329Y-43967122D01*
X383697677Y-43809096D01*
X383499525Y-43671398D01*
X383352446Y-43571200D01*
X383341276Y-43563760D01*
X383199113Y-43471980D01*
X383113663Y-43429159D01*
X383062354Y-43429430D01*
X383022613Y-43466928D01*
X383013849Y-43478678D01*
X382950021Y-43626147D01*
X382911115Y-43850736D01*
X382899171Y-44135926D01*
X382906840Y-44346142D01*
G36*
X379067150Y-38482639D02*
G01*
X379085392Y-38576347D01*
X379187156Y-38846041D01*
X379347292Y-39107600D01*
X379542827Y-39327883D01*
X379680523Y-39434822D01*
X379894928Y-39570465D01*
X379672692Y-39683511D01*
X379525243Y-39772660D01*
X379404651Y-39869870D01*
X379367736Y-39911304D01*
X379332198Y-39965895D01*
X379324434Y-40012825D01*
X379355042Y-40067811D01*
X379434619Y-40146568D01*
X379573763Y-40264816D01*
X379647012Y-40325483D01*
X380015048Y-40662656D01*
X380380246Y-41057538D01*
X380711000Y-41475837D01*
X380724306Y-41494298D01*
X380888618Y-41723235D01*
X381885188Y-41723235D01*
X382219801Y-41721683D01*
X382553173Y-41717365D01*
X382861655Y-41710788D01*
X383121594Y-41702458D01*
X383309340Y-41692882D01*
X383312648Y-41692650D01*
X383743540Y-41662064D01*
X383934569Y-41398423D01*
X384088166Y-41204524D01*
X384291292Y-40973161D01*
X384520115Y-40729315D01*
X384750804Y-40497965D01*
X384959527Y-40304093D01*
X385056722Y-40222173D01*
X385264886Y-40055897D01*
X385092870Y-39800282D01*
X385002458Y-39652324D01*
X384940156Y-39524348D01*
X384920854Y-39454116D01*
X384942052Y-39376585D01*
X384999572Y-39235075D01*
X385084300Y-39050626D01*
X385173890Y-38869966D01*
X385284993Y-38648795D01*
X385358439Y-38484534D01*
X385402581Y-38349392D01*
X385425776Y-38215575D01*
X385436378Y-38055291D01*
X385438613Y-37989365D01*
X385414954Y-37536156D01*
X385357631Y-37257605D01*
X385175580Y-36754920D01*
X384913995Y-36289729D01*
X384583020Y-35876028D01*
X384192799Y-35527815D01*
X384015359Y-35405526D01*
X383793443Y-35264791D01*
X383949865Y-35264791D01*
X384161099Y-35225970D01*
X384352494Y-35122951D01*
X384460054Y-35013355D01*
X384512904Y-34875956D01*
X384532938Y-34688085D01*
X384519860Y-34490016D01*
X384473375Y-34322019D01*
X384465252Y-34305239D01*
X384425567Y-34236557D01*
X384378269Y-34181216D01*
X384313491Y-34138059D01*
X384221370Y-34105929D01*
X384092041Y-34083667D01*
X383915637Y-34070116D01*
X383682295Y-34064117D01*
X383382149Y-34064514D01*
X383005333Y-34070147D01*
X382544508Y-34079804D01*
X382492632Y-34080860D01*
X382492632Y-36870166D01*
X382964547Y-36922982D01*
X383369619Y-37034473D01*
X383705002Y-37202857D01*
X383967853Y-37426348D01*
X384155327Y-37703162D01*
X384264579Y-38031515D01*
X384293818Y-38343829D01*
X384286382Y-38550198D01*
X384266461Y-38745360D01*
X384239275Y-38883338D01*
X384126095Y-39120530D01*
X383948326Y-39334506D01*
X383735050Y-39491695D01*
X383695231Y-39511323D01*
X383628216Y-39537985D01*
X383550344Y-39558815D01*
X383449433Y-39574531D01*
X383313304Y-39585849D01*
X383129773Y-39593487D01*
X382886661Y-39598161D01*
X382571786Y-39600588D01*
X382172966Y-39601486D01*
X382163233Y-39601493D01*
X380827434Y-39602552D01*
X380653971Y-39450249D01*
X380452525Y-39215442D01*
X380299006Y-38919837D01*
X380202396Y-38590816D01*
X380171681Y-38255760D01*
X380192191Y-38042869D01*
X380269580Y-37734387D01*
X380382412Y-37484095D01*
X380540042Y-37285817D01*
X380751822Y-37133376D01*
X381027109Y-37020596D01*
X381375254Y-36941302D01*
X381805613Y-36889316D01*
X381956717Y-36877812D01*
X382492632Y-36870166D01*
X382492632Y-34080860D01*
X382170405Y-34087420D01*
X381830306Y-34092957D01*
X381535343Y-34096341D01*
X381296647Y-34097503D01*
X381125350Y-34096369D01*
X381032586Y-34092870D01*
X381019264Y-34089594D01*
X381069728Y-34070304D01*
X381201636Y-34026896D01*
X381404050Y-33962779D01*
X381666032Y-33881359D01*
X381976645Y-33786043D01*
X382324950Y-33680240D01*
X382584806Y-33601920D01*
X383028376Y-33468012D01*
X383389127Y-33356654D01*
X383676765Y-33263348D01*
X383900992Y-33183594D01*
X384071512Y-33112895D01*
X384198030Y-33046752D01*
X384290250Y-32980668D01*
X384357874Y-32910143D01*
X384410608Y-32830680D01*
X384458154Y-32737780D01*
X384460756Y-32732309D01*
X384511413Y-32557964D01*
X384533112Y-32338378D01*
X384524012Y-32120812D01*
X384490368Y-31971926D01*
X384428695Y-31867057D01*
X384325526Y-31740346D01*
X384276115Y-31689344D01*
X384222100Y-31641656D01*
X384157135Y-31597075D01*
X384070800Y-31551783D01*
X383952677Y-31501961D01*
X383792345Y-31443792D01*
X383579387Y-31373457D01*
X383303383Y-31287138D01*
X382953914Y-31181017D01*
X382597968Y-31074378D01*
X382229861Y-30964296D01*
X381888454Y-30861870D01*
X381585488Y-30770649D01*
X381332706Y-30694181D01*
X381141850Y-30636014D01*
X381024664Y-30599696D01*
X380994738Y-30589920D01*
X381018545Y-30582659D01*
X381128564Y-30577239D01*
X381314628Y-30573727D01*
X381566570Y-30572193D01*
X381874222Y-30572705D01*
X382227418Y-30575331D01*
X382562876Y-30579375D01*
X384225442Y-30602787D01*
X384358783Y-30487774D01*
X384489235Y-30316718D01*
X384547686Y-30108617D01*
X384534742Y-29889832D01*
X384451009Y-29686724D01*
X384337378Y-29556504D01*
X384190498Y-29432913D01*
X382191613Y-29432913D01*
X381684292Y-29432920D01*
X381263933Y-29433718D01*
X380921103Y-29436466D01*
X380646370Y-29442326D01*
X380430300Y-29452460D01*
X380263461Y-29468029D01*
X380136421Y-29490194D01*
X380039748Y-29520116D01*
X379964008Y-29558957D01*
X379899769Y-29607877D01*
X379837599Y-29668039D01*
X379778230Y-29730034D01*
X379591020Y-29988793D01*
X379491314Y-30273665D01*
X379479518Y-30569452D01*
X379556041Y-30860959D01*
X379721293Y-31132987D01*
X379739943Y-31155308D01*
X379790312Y-31212001D01*
X379842624Y-31261885D01*
X379905993Y-31308441D01*
X379989537Y-31355155D01*
X380102370Y-31405511D01*
X380253608Y-31462992D01*
X380452368Y-31531083D01*
X380707764Y-31613268D01*
X381028912Y-31713031D01*
X381424929Y-31833856D01*
X381860323Y-31965735D01*
X382166699Y-32059067D01*
X382443892Y-32144753D01*
X382677961Y-32218381D01*
X382854965Y-32275542D01*
X382960964Y-32311825D01*
X382983605Y-32321092D01*
X382955099Y-32342918D01*
X382843452Y-32388451D01*
X382658091Y-32454506D01*
X382408443Y-32537899D01*
X382103935Y-32635445D01*
X381753994Y-32743960D01*
X381537685Y-32809539D01*
X381120878Y-32935346D01*
X380785876Y-33037943D01*
X380522004Y-33121315D01*
X380318587Y-33189449D01*
X380164951Y-33246331D01*
X380050422Y-33295947D01*
X379964326Y-33342283D01*
X379895987Y-33389325D01*
X379834732Y-33441059D01*
X379826519Y-33448533D01*
X379633419Y-33682209D01*
X379520583Y-33943308D01*
X379483199Y-34216712D01*
X379516457Y-34487304D01*
X379615545Y-34739968D01*
X379775653Y-34959588D01*
X379991969Y-35131045D01*
X380259683Y-35239225D01*
X380404368Y-35264168D01*
X380644242Y-35288890D01*
X380371256Y-35476481D01*
X379989671Y-35792327D01*
X379651824Y-36178086D01*
X379374922Y-36610996D01*
X379182999Y-37048093D01*
X379119113Y-37296144D01*
X379073515Y-37596047D01*
X379048274Y-37915380D01*
X379045462Y-38221719D01*
X379067150Y-38482639D01*
G37*
X379067150Y-38482639D02*
X379085392Y-38576347D01*
X379187156Y-38846041D01*
X379347292Y-39107600D01*
X379542827Y-39327883D01*
X379680523Y-39434822D01*
X379894928Y-39570465D01*
X379672692Y-39683511D01*
X379525243Y-39772660D01*
X379404651Y-39869870D01*
X379367736Y-39911304D01*
X379332198Y-39965895D01*
X379324434Y-40012825D01*
X379355042Y-40067811D01*
X379434619Y-40146568D01*
X379573763Y-40264816D01*
X379647012Y-40325483D01*
X380015048Y-40662656D01*
X380380246Y-41057538D01*
X380711000Y-41475837D01*
X380724306Y-41494298D01*
X380888618Y-41723235D01*
X381885188Y-41723235D01*
X382219801Y-41721683D01*
X382553173Y-41717365D01*
X382861655Y-41710788D01*
X383121594Y-41702458D01*
X383309340Y-41692882D01*
X383312648Y-41692650D01*
X383743540Y-41662064D01*
X383934569Y-41398423D01*
X384088166Y-41204524D01*
X384291292Y-40973161D01*
X384520115Y-40729315D01*
X384750804Y-40497965D01*
X384959527Y-40304093D01*
X385056722Y-40222173D01*
X385264886Y-40055897D01*
X385092870Y-39800282D01*
X385002458Y-39652324D01*
X384940156Y-39524348D01*
X384920854Y-39454116D01*
X384942052Y-39376585D01*
X384999572Y-39235075D01*
X385084300Y-39050626D01*
X385173890Y-38869966D01*
X385284993Y-38648795D01*
X385358439Y-38484534D01*
X385402581Y-38349392D01*
X385425776Y-38215575D01*
X385436378Y-38055291D01*
X385438613Y-37989365D01*
X385414954Y-37536156D01*
X385357631Y-37257605D01*
X385175580Y-36754920D01*
X384913995Y-36289729D01*
X384583020Y-35876028D01*
X384192799Y-35527815D01*
X384015359Y-35405526D01*
X383793443Y-35264791D01*
X383949865Y-35264791D01*
X384161099Y-35225970D01*
X384352494Y-35122951D01*
X384460054Y-35013355D01*
X384512904Y-34875956D01*
X384532938Y-34688085D01*
X384519860Y-34490016D01*
X384473375Y-34322019D01*
X384465252Y-34305239D01*
X384425567Y-34236557D01*
X384378269Y-34181216D01*
X384313491Y-34138059D01*
X384221370Y-34105929D01*
X384092041Y-34083667D01*
X383915637Y-34070116D01*
X383682295Y-34064117D01*
X383382149Y-34064514D01*
X383005333Y-34070147D01*
X382544508Y-34079804D01*
X382492632Y-34080860D01*
X382492632Y-36870166D01*
X382964547Y-36922982D01*
X383369619Y-37034473D01*
X383705002Y-37202857D01*
X383967853Y-37426348D01*
X384155327Y-37703162D01*
X384264579Y-38031515D01*
X384293818Y-38343829D01*
X384286382Y-38550198D01*
X384266461Y-38745360D01*
X384239275Y-38883338D01*
X384126095Y-39120530D01*
X383948326Y-39334506D01*
X383735050Y-39491695D01*
X383695231Y-39511323D01*
X383628216Y-39537985D01*
X383550344Y-39558815D01*
X383449433Y-39574531D01*
X383313304Y-39585849D01*
X383129773Y-39593487D01*
X382886661Y-39598161D01*
X382571786Y-39600588D01*
X382172966Y-39601486D01*
X382163233Y-39601493D01*
X380827434Y-39602552D01*
X380653971Y-39450249D01*
X380452525Y-39215442D01*
X380299006Y-38919837D01*
X380202396Y-38590816D01*
X380171681Y-38255760D01*
X380192191Y-38042869D01*
X380269580Y-37734387D01*
X380382412Y-37484095D01*
X380540042Y-37285817D01*
X380751822Y-37133376D01*
X381027109Y-37020596D01*
X381375254Y-36941302D01*
X381805613Y-36889316D01*
X381956717Y-36877812D01*
X382492632Y-36870166D01*
X382492632Y-34080860D01*
X382170405Y-34087420D01*
X381830306Y-34092957D01*
X381535343Y-34096341D01*
X381296647Y-34097503D01*
X381125350Y-34096369D01*
X381032586Y-34092870D01*
X381019264Y-34089594D01*
X381069728Y-34070304D01*
X381201636Y-34026896D01*
X381404050Y-33962779D01*
X381666032Y-33881359D01*
X381976645Y-33786043D01*
X382324950Y-33680240D01*
X382584806Y-33601920D01*
X383028376Y-33468012D01*
X383389127Y-33356654D01*
X383676765Y-33263348D01*
X383900992Y-33183594D01*
X384071512Y-33112895D01*
X384198030Y-33046752D01*
X384290250Y-32980668D01*
X384357874Y-32910143D01*
X384410608Y-32830680D01*
X384458154Y-32737780D01*
X384460756Y-32732309D01*
X384511413Y-32557964D01*
X384533112Y-32338378D01*
X384524012Y-32120812D01*
X384490368Y-31971926D01*
X384428695Y-31867057D01*
X384325526Y-31740346D01*
X384276115Y-31689344D01*
X384222100Y-31641656D01*
X384157135Y-31597075D01*
X384070800Y-31551783D01*
X383952677Y-31501961D01*
X383792345Y-31443792D01*
X383579387Y-31373457D01*
X383303383Y-31287138D01*
X382953914Y-31181017D01*
X382597968Y-31074378D01*
X382229861Y-30964296D01*
X381888454Y-30861870D01*
X381585488Y-30770649D01*
X381332706Y-30694181D01*
X381141850Y-30636014D01*
X381024664Y-30599696D01*
X380994738Y-30589920D01*
X381018545Y-30582659D01*
X381128564Y-30577239D01*
X381314628Y-30573727D01*
X381566570Y-30572193D01*
X381874222Y-30572705D01*
X382227418Y-30575331D01*
X382562876Y-30579375D01*
X384225442Y-30602787D01*
X384358783Y-30487774D01*
X384489235Y-30316718D01*
X384547686Y-30108617D01*
X384534742Y-29889832D01*
X384451009Y-29686724D01*
X384337378Y-29556504D01*
X384190498Y-29432913D01*
X382191613Y-29432913D01*
X381684292Y-29432920D01*
X381263933Y-29433718D01*
X380921103Y-29436466D01*
X380646370Y-29442326D01*
X380430300Y-29452460D01*
X380263461Y-29468029D01*
X380136421Y-29490194D01*
X380039748Y-29520116D01*
X379964008Y-29558957D01*
X379899769Y-29607877D01*
X379837599Y-29668039D01*
X379778230Y-29730034D01*
X379591020Y-29988793D01*
X379491314Y-30273665D01*
X379479518Y-30569452D01*
X379556041Y-30860959D01*
X379721293Y-31132987D01*
X379739943Y-31155308D01*
X379790312Y-31212001D01*
X379842624Y-31261885D01*
X379905993Y-31308441D01*
X379989537Y-31355155D01*
X380102370Y-31405511D01*
X380253608Y-31462992D01*
X380452368Y-31531083D01*
X380707764Y-31613268D01*
X381028912Y-31713031D01*
X381424929Y-31833856D01*
X381860323Y-31965735D01*
X382166699Y-32059067D01*
X382443892Y-32144753D01*
X382677961Y-32218381D01*
X382854965Y-32275542D01*
X382960964Y-32311825D01*
X382983605Y-32321092D01*
X382955099Y-32342918D01*
X382843452Y-32388451D01*
X382658091Y-32454506D01*
X382408443Y-32537899D01*
X382103935Y-32635445D01*
X381753994Y-32743960D01*
X381537685Y-32809539D01*
X381120878Y-32935346D01*
X380785876Y-33037943D01*
X380522004Y-33121315D01*
X380318587Y-33189449D01*
X380164951Y-33246331D01*
X380050422Y-33295947D01*
X379964326Y-33342283D01*
X379895987Y-33389325D01*
X379834732Y-33441059D01*
X379826519Y-33448533D01*
X379633419Y-33682209D01*
X379520583Y-33943308D01*
X379483199Y-34216712D01*
X379516457Y-34487304D01*
X379615545Y-34739968D01*
X379775653Y-34959588D01*
X379991969Y-35131045D01*
X380259683Y-35239225D01*
X380404368Y-35264168D01*
X380644242Y-35288890D01*
X380371256Y-35476481D01*
X379989671Y-35792327D01*
X379651824Y-36178086D01*
X379374922Y-36610996D01*
X379182999Y-37048093D01*
X379119113Y-37296144D01*
X379073515Y-37596047D01*
X379048274Y-37915380D01*
X379045462Y-38221719D01*
X379067150Y-38482639D01*
G36*
X380223717Y-47993336D02*
G01*
X380259325Y-47969860D01*
X380321694Y-47874305D01*
X380389877Y-47751822D01*
X380599955Y-47428625D01*
X380851949Y-47147784D01*
X381124600Y-46931484D01*
X381238727Y-46865945D01*
X381433396Y-46775320D01*
X381572680Y-46735919D01*
X381681568Y-46745753D01*
X381785050Y-46802835D01*
X381808398Y-46820610D01*
X382059545Y-46962513D01*
X382326314Y-47011927D01*
X382595706Y-46968412D01*
X382821562Y-46854978D01*
X382950018Y-46776071D01*
X383054338Y-46744776D01*
X383166514Y-46761432D01*
X383318538Y-46826378D01*
X383387882Y-46860987D01*
X383672303Y-47049551D01*
X383940453Y-47310741D01*
X384169556Y-47621008D01*
X384237869Y-47739772D01*
X384319065Y-47886851D01*
X384383096Y-47993151D01*
X384416814Y-48036924D01*
X384417608Y-48037087D01*
X384443177Y-47998008D01*
X384429281Y-47894829D01*
X384381567Y-47748639D01*
X384305679Y-47580529D01*
X384284796Y-47540912D01*
X384142612Y-47326491D01*
X383952377Y-47104924D01*
X383737545Y-46898590D01*
X383521572Y-46729868D01*
X383327911Y-46621138D01*
X383315835Y-46616367D01*
X383186773Y-46561747D01*
X383129720Y-46513652D01*
X383124926Y-46449066D01*
X383135257Y-46405930D01*
X383146351Y-46258291D01*
X383111439Y-46116304D01*
X383042270Y-46016053D01*
X383000981Y-45993533D01*
X382803558Y-45955389D01*
X382547097Y-45932282D01*
X382268072Y-45926200D01*
X382003482Y-45939087D01*
X381816026Y-45959514D01*
X381700201Y-45983888D01*
X381631418Y-46021921D01*
X381585085Y-46083323D01*
X381570728Y-46109987D01*
X381524463Y-46271784D01*
X381527846Y-46386750D01*
X381537047Y-46472725D01*
X381507534Y-46528518D01*
X381418929Y-46577432D01*
X381330311Y-46612643D01*
X381138245Y-46714161D01*
X380933738Y-46869272D01*
X380730641Y-47061442D01*
X380542804Y-47274143D01*
X380384077Y-47490842D01*
X380268311Y-47695008D01*
X380209354Y-47870110D01*
X380206889Y-47953534D01*
X380223717Y-47993336D01*
G37*
X380223717Y-47993336D02*
X380259325Y-47969860D01*
X380321694Y-47874305D01*
X380389877Y-47751822D01*
X380599955Y-47428625D01*
X380851949Y-47147784D01*
X381124600Y-46931484D01*
X381238727Y-46865945D01*
X381433396Y-46775320D01*
X381572680Y-46735919D01*
X381681568Y-46745753D01*
X381785050Y-46802835D01*
X381808398Y-46820610D01*
X382059545Y-46962513D01*
X382326314Y-47011927D01*
X382595706Y-46968412D01*
X382821562Y-46854978D01*
X382950018Y-46776071D01*
X383054338Y-46744776D01*
X383166514Y-46761432D01*
X383318538Y-46826378D01*
X383387882Y-46860987D01*
X383672303Y-47049551D01*
X383940453Y-47310741D01*
X384169556Y-47621008D01*
X384237869Y-47739772D01*
X384319065Y-47886851D01*
X384383096Y-47993151D01*
X384416814Y-48036924D01*
X384417608Y-48037087D01*
X384443177Y-47998008D01*
X384429281Y-47894829D01*
X384381567Y-47748639D01*
X384305679Y-47580529D01*
X384284796Y-47540912D01*
X384142612Y-47326491D01*
X383952377Y-47104924D01*
X383737545Y-46898590D01*
X383521572Y-46729868D01*
X383327911Y-46621138D01*
X383315835Y-46616367D01*
X383186773Y-46561747D01*
X383129720Y-46513652D01*
X383124926Y-46449066D01*
X383135257Y-46405930D01*
X383146351Y-46258291D01*
X383111439Y-46116304D01*
X383042270Y-46016053D01*
X383000981Y-45993533D01*
X382803558Y-45955389D01*
X382547097Y-45932282D01*
X382268072Y-45926200D01*
X382003482Y-45939087D01*
X381816026Y-45959514D01*
X381700201Y-45983888D01*
X381631418Y-46021921D01*
X381585085Y-46083323D01*
X381570728Y-46109987D01*
X381524463Y-46271784D01*
X381527846Y-46386750D01*
X381537047Y-46472725D01*
X381507534Y-46528518D01*
X381418929Y-46577432D01*
X381330311Y-46612643D01*
X381138245Y-46714161D01*
X380933738Y-46869272D01*
X380730641Y-47061442D01*
X380542804Y-47274143D01*
X380384077Y-47490842D01*
X380268311Y-47695008D01*
X380209354Y-47870110D01*
X380206889Y-47953534D01*
X380223717Y-47993336D01*
G36*
X381023606Y-45707230D02*
G01*
X381154207Y-45831618D01*
X381258933Y-45881532D01*
X381365765Y-45862441D01*
X381478876Y-45796218D01*
X381556658Y-45747248D01*
X381633339Y-45713655D01*
X381728643Y-45692558D01*
X381862295Y-45681075D01*
X382054020Y-45676322D01*
X382305590Y-45675417D01*
X382601104Y-45678541D01*
X382817779Y-45689020D01*
X382973004Y-45708520D01*
X383084164Y-45738705D01*
X383118219Y-45753205D01*
X383224436Y-45813851D01*
X383279848Y-45865487D01*
X383282144Y-45873698D01*
X383311058Y-45919433D01*
X383388536Y-45899852D01*
X383500681Y-45823059D01*
X383633596Y-45697158D01*
X383687242Y-45637448D01*
X383747283Y-45561807D01*
X383735590Y-45534475D01*
X383649546Y-45530825D01*
X383480877Y-45502662D01*
X383287759Y-45431179D01*
X383118850Y-45335884D01*
X383073941Y-45300050D01*
X382928761Y-45111750D01*
X382820473Y-44853834D01*
X382754532Y-44547815D01*
X382736395Y-44215200D01*
X382749596Y-44021453D01*
X382763838Y-43858060D01*
X382756302Y-43763612D01*
X382722876Y-43712293D01*
X382697788Y-43696121D01*
X382598269Y-43671409D01*
X382437479Y-43658811D01*
X382249791Y-43658431D01*
X382069578Y-43670375D01*
X381934613Y-43693783D01*
X381878546Y-43713619D01*
X381844479Y-43748225D01*
X381827907Y-43817614D01*
X381824323Y-43941803D01*
X381829221Y-44140805D01*
X381829804Y-44159273D01*
X381829290Y-44388609D01*
X381815751Y-44612986D01*
X381791935Y-44792178D01*
X381784189Y-44827237D01*
X381682231Y-45067347D01*
X381515207Y-45282762D01*
X381307063Y-45448167D01*
X381120001Y-45529401D01*
X380909850Y-45585599D01*
X381023606Y-45707230D01*
G37*
X381023606Y-45707230D02*
X381154207Y-45831618D01*
X381258933Y-45881532D01*
X381365765Y-45862441D01*
X381478876Y-45796218D01*
X381556658Y-45747248D01*
X381633339Y-45713655D01*
X381728643Y-45692558D01*
X381862295Y-45681075D01*
X382054020Y-45676322D01*
X382305590Y-45675417D01*
X382601104Y-45678541D01*
X382817779Y-45689020D01*
X382973004Y-45708520D01*
X383084164Y-45738705D01*
X383118219Y-45753205D01*
X383224436Y-45813851D01*
X383279848Y-45865487D01*
X383282144Y-45873698D01*
X383311058Y-45919433D01*
X383388536Y-45899852D01*
X383500681Y-45823059D01*
X383633596Y-45697158D01*
X383687242Y-45637448D01*
X383747283Y-45561807D01*
X383735590Y-45534475D01*
X383649546Y-45530825D01*
X383480877Y-45502662D01*
X383287759Y-45431179D01*
X383118850Y-45335884D01*
X383073941Y-45300050D01*
X382928761Y-45111750D01*
X382820473Y-44853834D01*
X382754532Y-44547815D01*
X382736395Y-44215200D01*
X382749596Y-44021453D01*
X382763838Y-43858060D01*
X382756302Y-43763612D01*
X382722876Y-43712293D01*
X382697788Y-43696121D01*
X382598269Y-43671409D01*
X382437479Y-43658811D01*
X382249791Y-43658431D01*
X382069578Y-43670375D01*
X381934613Y-43693783D01*
X381878546Y-43713619D01*
X381844479Y-43748225D01*
X381827907Y-43817614D01*
X381824323Y-43941803D01*
X381829221Y-44140805D01*
X381829804Y-44159273D01*
X381829290Y-44388609D01*
X381815751Y-44612986D01*
X381791935Y-44792178D01*
X381784189Y-44827237D01*
X381682231Y-45067347D01*
X381515207Y-45282762D01*
X381307063Y-45448167D01*
X381120001Y-45529401D01*
X380909850Y-45585599D01*
X381023606Y-45707230D01*
G36*
X381181957Y-42125538D02*
G01*
X381236371Y-42250727D01*
X381314090Y-42413364D01*
X381337121Y-42459448D01*
X381440452Y-42678402D01*
X381541552Y-42915790D01*
X381617485Y-43117290D01*
X381722188Y-43426905D01*
X382281450Y-43430573D01*
X382840711Y-43434241D01*
X382995530Y-43024563D01*
X383085347Y-42797665D01*
X383183761Y-42565794D01*
X383272317Y-42372120D01*
X383288543Y-42339126D01*
X383359930Y-42192988D01*
X383409847Y-42083761D01*
X383426736Y-42037892D01*
X383380758Y-42030721D01*
X383251697Y-42024331D01*
X383052864Y-42019021D01*
X382797569Y-42015091D01*
X382499123Y-42012840D01*
X382294099Y-42012419D01*
X381887040Y-42014505D01*
X381568211Y-42020702D01*
X381339666Y-42030921D01*
X381203462Y-42045072D01*
X381161461Y-42061820D01*
X381181957Y-42125538D01*
G37*
X381181957Y-42125538D02*
X381236371Y-42250727D01*
X381314090Y-42413364D01*
X381337121Y-42459448D01*
X381440452Y-42678402D01*
X381541552Y-42915790D01*
X381617485Y-43117290D01*
X381722188Y-43426905D01*
X382281450Y-43430573D01*
X382840711Y-43434241D01*
X382995530Y-43024563D01*
X383085347Y-42797665D01*
X383183761Y-42565794D01*
X383272317Y-42372120D01*
X383288543Y-42339126D01*
X383359930Y-42192988D01*
X383409847Y-42083761D01*
X383426736Y-42037892D01*
X383380758Y-42030721D01*
X383251697Y-42024331D01*
X383052864Y-42019021D01*
X382797569Y-42015091D01*
X382499123Y-42012840D01*
X382294099Y-42012419D01*
X381887040Y-42014505D01*
X381568211Y-42020702D01*
X381339666Y-42030921D01*
X381203462Y-42045072D01*
X381161461Y-42061820D01*
X381181957Y-42125538D01*
G36*
X377455277Y-40230296D02*
G01*
X377582580Y-40187600D01*
X377774724Y-40077851D01*
X377800955Y-40060427D01*
X377980174Y-39953329D01*
X378132190Y-39904935D01*
X378290063Y-39912766D01*
X378486854Y-39974348D01*
X378559957Y-40003564D01*
X378712217Y-40074526D01*
X378885689Y-40167931D01*
X379059645Y-40270874D01*
X379213353Y-40370451D01*
X379326084Y-40453756D01*
X379377107Y-40507886D01*
X379378160Y-40512912D01*
X379340550Y-40549260D01*
X379235227Y-40632476D01*
X379073447Y-40754153D01*
X378866467Y-40905882D01*
X378625545Y-41079256D01*
X378507419Y-41163255D01*
X378252853Y-41345543D01*
X378025515Y-41512015D01*
X377837094Y-41653808D01*
X377699276Y-41762064D01*
X377623750Y-41827922D01*
X377613290Y-41841116D01*
X377619102Y-41912207D01*
X377656179Y-42033678D01*
X377712248Y-42176584D01*
X377775035Y-42311983D01*
X377832264Y-42410932D01*
X377869340Y-42444895D01*
X377917760Y-42417758D01*
X378033571Y-42342113D01*
X378205736Y-42225499D01*
X378423219Y-42075454D01*
X378674983Y-41899516D01*
X378892471Y-41746033D01*
X379163240Y-41555029D01*
X379408099Y-41383982D01*
X379616098Y-41240405D01*
X379776288Y-41131810D01*
X379877721Y-41065709D01*
X379909194Y-41048472D01*
X379972099Y-41080758D01*
X380036473Y-41153971D01*
X380077454Y-41232646D01*
X380071764Y-41280352D01*
X379940936Y-41369902D01*
X379761567Y-41495491D01*
X379546304Y-41647987D01*
X379307793Y-41818254D01*
X379058683Y-41997159D01*
X378811618Y-42175568D01*
X378579248Y-42344347D01*
X378374217Y-42494363D01*
X378209175Y-42616481D01*
X378096766Y-42701567D01*
X378049639Y-42740488D01*
X378049199Y-42741096D01*
X378058531Y-42803213D01*
X378112305Y-42918091D01*
X378193756Y-43052823D01*
X378294083Y-43195171D01*
X378363884Y-43266804D01*
X378419375Y-43281309D01*
X378451555Y-43268808D01*
X378512684Y-43228818D01*
X378640718Y-43141187D01*
X378823951Y-43014063D01*
X379050677Y-42855593D01*
X379309191Y-42673925D01*
X379522752Y-42523212D01*
X379826639Y-42308666D01*
X380061714Y-42144342D01*
X380237821Y-42024740D01*
X380364803Y-41944358D01*
X380452504Y-41897694D01*
X380510768Y-41879248D01*
X380549439Y-41883518D01*
X380578360Y-41905002D01*
X380595143Y-41923884D01*
X380657452Y-42007740D01*
X380678604Y-42053907D01*
X380640647Y-42088932D01*
X380534202Y-42171679D01*
X380369666Y-42294472D01*
X380157434Y-42449632D01*
X379907903Y-42629484D01*
X379657829Y-42807675D01*
X379382213Y-43004585D01*
X379133511Y-43185208D01*
X378922360Y-43341577D01*
X378759399Y-43465728D01*
X378655268Y-43549695D01*
X378620671Y-43584232D01*
X378641863Y-43644999D01*
X378714169Y-43751088D01*
X378813335Y-43869705D01*
X379023268Y-44101583D01*
X379260960Y-43938109D01*
X379376383Y-43857765D01*
X379552966Y-43733648D01*
X379773404Y-43577977D01*
X380020392Y-43402973D01*
X380266358Y-43228163D01*
X380554584Y-43025928D01*
X380772909Y-42879741D01*
X380927206Y-42786066D01*
X381023346Y-42741364D01*
X381067201Y-42742100D01*
X381069020Y-42744683D01*
X381100637Y-42810221D01*
X381111054Y-42870214D01*
X381092125Y-42933274D01*
X381035705Y-43008014D01*
X380933646Y-43103048D01*
X380777803Y-43226988D01*
X380560031Y-43388447D01*
X380272183Y-43596037D01*
X380246176Y-43614686D01*
X379989328Y-43801698D01*
X379760144Y-43974055D01*
X379570003Y-44122748D01*
X379430280Y-44238771D01*
X379352354Y-44313115D01*
X379340073Y-44332072D01*
X379370308Y-44407791D01*
X379474389Y-44514724D01*
X379568114Y-44588896D01*
X379811074Y-44767245D01*
X380586288Y-44227272D01*
X380874111Y-44029474D01*
X381092704Y-43885814D01*
X381249473Y-43791955D01*
X381351821Y-43743561D01*
X381407152Y-43736295D01*
X381415704Y-43741501D01*
X381424196Y-43789320D01*
X381372571Y-43867996D01*
X381252975Y-43988149D01*
X381193380Y-44042168D01*
X380974821Y-44258632D01*
X380833102Y-44458406D01*
X380757062Y-44664132D01*
X380735538Y-44898457D01*
X380737499Y-44966969D01*
X380747566Y-45130596D01*
X380765808Y-45221249D01*
X380804107Y-45262278D01*
X380874346Y-45277034D01*
X380896376Y-45279176D01*
X381100147Y-45251952D01*
X381290917Y-45139944D01*
X381451556Y-44954674D01*
X381497372Y-44874888D01*
X381558859Y-44737229D01*
X381597678Y-44595820D01*
X381619800Y-44419697D01*
X381631099Y-44181300D01*
X381631211Y-43901006D01*
X381612084Y-43700151D01*
X381573815Y-43566783D01*
X381516150Y-43462982D01*
X381465804Y-43411399D01*
X381459698Y-43410142D01*
X381438185Y-43413491D01*
X381404869Y-43427848D01*
X381350008Y-43459677D01*
X381263858Y-43515445D01*
X381136675Y-43601615D01*
X380958717Y-43724654D01*
X380720240Y-43891025D01*
X380452893Y-44078193D01*
X380215493Y-44243943D01*
X380043410Y-44360798D01*
X379923090Y-44435280D01*
X379840978Y-44473911D01*
X379783521Y-44483214D01*
X379737164Y-44469712D01*
X379693785Y-44443488D01*
X379607573Y-44382870D01*
X379570960Y-44348928D01*
X379570949Y-44348731D01*
X379608429Y-44317947D01*
X379713498Y-44239475D01*
X379875100Y-44121367D01*
X380082181Y-43971675D01*
X380323684Y-43798451D01*
X380462600Y-43699326D01*
X380791368Y-43461742D01*
X381041752Y-43272978D01*
X381216917Y-43130459D01*
X381320026Y-43031608D01*
X381354245Y-42973849D01*
X381354251Y-42973371D01*
X381333646Y-42871474D01*
X381281925Y-42738006D01*
X381214229Y-42602825D01*
X381145698Y-42495792D01*
X381091473Y-42446765D01*
X381086936Y-42446195D01*
X381032214Y-42472946D01*
X380912165Y-42547513D01*
X380739672Y-42661367D01*
X380527622Y-42805981D01*
X380288898Y-42972825D01*
X380254452Y-42997209D01*
X379999068Y-43178051D01*
X379756004Y-43349754D01*
X379541791Y-43500671D01*
X379372961Y-43619155D01*
X379266046Y-43693560D01*
X379265457Y-43693966D01*
X379053627Y-43839709D01*
X378949780Y-43729169D01*
X378845932Y-43618628D01*
X379883203Y-42884037D01*
X380160291Y-42685900D01*
X380409469Y-42504066D01*
X380620402Y-42346375D01*
X380782756Y-42220666D01*
X380886193Y-42134781D01*
X380920475Y-42097201D01*
X380895034Y-42022779D01*
X380831101Y-41907408D01*
X380747255Y-41778632D01*
X380662080Y-41663992D01*
X380594154Y-41591031D01*
X380570627Y-41578643D01*
X380519066Y-41605355D01*
X380399902Y-41680595D01*
X380224085Y-41797021D01*
X380002565Y-41947292D01*
X379746290Y-42124065D01*
X379489662Y-42303490D01*
X379211746Y-42496752D01*
X378958701Y-42668426D01*
X378741376Y-42811498D01*
X378570619Y-42918953D01*
X378457279Y-42983779D01*
X378412922Y-42999667D01*
X378352974Y-42936104D01*
X378319611Y-42883321D01*
X378313707Y-42850603D01*
X378333490Y-42807909D01*
X378387073Y-42748499D01*
X378482567Y-42665635D01*
X378628086Y-42552579D01*
X378831743Y-42402592D01*
X379101651Y-42208936D01*
X379307397Y-42062868D01*
X379584230Y-41864628D01*
X379833115Y-41682202D01*
X380043692Y-41523528D01*
X380205600Y-41396540D01*
X380308480Y-41309177D01*
X380342106Y-41270253D01*
X380311175Y-41196901D01*
X380233828Y-41087897D01*
X380133236Y-40969756D01*
X380032570Y-40868991D01*
X379955003Y-40812116D01*
X379937688Y-40807486D01*
X379883165Y-40834226D01*
X379761725Y-40909354D01*
X379584892Y-41025226D01*
X379364189Y-41174201D01*
X379111138Y-41348636D01*
X378920285Y-41482248D01*
X378652927Y-41669640D01*
X378411532Y-41837034D01*
X378207266Y-41976833D01*
X378051296Y-42081441D01*
X377954787Y-42143260D01*
X377928450Y-42157011D01*
X377893645Y-42116646D01*
X377862339Y-42026118D01*
X377846585Y-41931280D01*
X377855663Y-41880140D01*
X377900267Y-41846045D01*
X378011685Y-41764069D01*
X378178439Y-41642564D01*
X378389051Y-41489880D01*
X378632042Y-41314369D01*
X378758689Y-41223114D01*
X379013392Y-41037815D01*
X379240732Y-40868761D01*
X379429260Y-40724769D01*
X379567523Y-40614655D01*
X379644072Y-40547235D01*
X379655526Y-40532645D01*
X379627637Y-40475744D01*
X379533178Y-40383124D01*
X379389020Y-40267328D01*
X379212035Y-40140901D01*
X379019096Y-40016384D01*
X378827074Y-39906322D01*
X378780798Y-39882337D01*
X378583884Y-39799522D01*
X378373460Y-39736298D01*
X378243132Y-39712573D01*
X378106296Y-39702888D01*
X378002197Y-39714831D01*
X377898268Y-39759106D01*
X377761942Y-39846416D01*
X377695807Y-39892446D01*
X377513080Y-40037017D01*
X377415460Y-40146911D01*
X377397882Y-40214036D01*
X377455277Y-40230296D01*
G37*
X377455277Y-40230296D02*
X377582580Y-40187600D01*
X377774724Y-40077851D01*
X377800955Y-40060427D01*
X377980174Y-39953329D01*
X378132190Y-39904935D01*
X378290063Y-39912766D01*
X378486854Y-39974348D01*
X378559957Y-40003564D01*
X378712217Y-40074526D01*
X378885689Y-40167931D01*
X379059645Y-40270874D01*
X379213353Y-40370451D01*
X379326084Y-40453756D01*
X379377107Y-40507886D01*
X379378160Y-40512912D01*
X379340550Y-40549260D01*
X379235227Y-40632476D01*
X379073447Y-40754153D01*
X378866467Y-40905882D01*
X378625545Y-41079256D01*
X378507419Y-41163255D01*
X378252853Y-41345543D01*
X378025515Y-41512015D01*
X377837094Y-41653808D01*
X377699276Y-41762064D01*
X377623750Y-41827922D01*
X377613290Y-41841116D01*
X377619102Y-41912207D01*
X377656179Y-42033678D01*
X377712248Y-42176584D01*
X377775035Y-42311983D01*
X377832264Y-42410932D01*
X377869340Y-42444895D01*
X377917760Y-42417758D01*
X378033571Y-42342113D01*
X378205736Y-42225499D01*
X378423219Y-42075454D01*
X378674983Y-41899516D01*
X378892471Y-41746033D01*
X379163240Y-41555029D01*
X379408099Y-41383982D01*
X379616098Y-41240405D01*
X379776288Y-41131810D01*
X379877721Y-41065709D01*
X379909194Y-41048472D01*
X379972099Y-41080758D01*
X380036473Y-41153971D01*
X380077454Y-41232646D01*
X380071764Y-41280352D01*
X379940936Y-41369902D01*
X379761567Y-41495491D01*
X379546304Y-41647987D01*
X379307793Y-41818254D01*
X379058683Y-41997159D01*
X378811618Y-42175568D01*
X378579248Y-42344347D01*
X378374217Y-42494363D01*
X378209175Y-42616481D01*
X378096766Y-42701567D01*
X378049639Y-42740488D01*
X378049199Y-42741096D01*
X378058531Y-42803213D01*
X378112305Y-42918091D01*
X378193756Y-43052823D01*
X378294083Y-43195171D01*
X378363884Y-43266804D01*
X378419375Y-43281309D01*
X378451555Y-43268808D01*
X378512684Y-43228818D01*
X378640718Y-43141187D01*
X378823951Y-43014063D01*
X379050677Y-42855593D01*
X379309191Y-42673925D01*
X379522752Y-42523212D01*
X379826639Y-42308666D01*
X380061714Y-42144342D01*
X380237821Y-42024740D01*
X380364803Y-41944358D01*
X380452504Y-41897694D01*
X380510768Y-41879248D01*
X380549439Y-41883518D01*
X380578360Y-41905002D01*
X380595143Y-41923884D01*
X380657452Y-42007740D01*
X380678604Y-42053907D01*
X380640647Y-42088932D01*
X380534202Y-42171679D01*
X380369666Y-42294472D01*
X380157434Y-42449632D01*
X379907903Y-42629484D01*
X379657829Y-42807675D01*
X379382213Y-43004585D01*
X379133511Y-43185208D01*
X378922360Y-43341577D01*
X378759399Y-43465728D01*
X378655268Y-43549695D01*
X378620671Y-43584232D01*
X378641863Y-43644999D01*
X378714169Y-43751088D01*
X378813335Y-43869705D01*
X379023268Y-44101583D01*
X379260960Y-43938109D01*
X379376383Y-43857765D01*
X379552966Y-43733648D01*
X379773404Y-43577977D01*
X380020392Y-43402973D01*
X380266358Y-43228163D01*
X380554584Y-43025928D01*
X380772909Y-42879741D01*
X380927206Y-42786066D01*
X381023346Y-42741364D01*
X381067201Y-42742100D01*
X381069020Y-42744683D01*
X381100637Y-42810221D01*
X381111054Y-42870214D01*
X381092125Y-42933274D01*
X381035705Y-43008014D01*
X380933646Y-43103048D01*
X380777803Y-43226988D01*
X380560031Y-43388447D01*
X380272183Y-43596037D01*
X380246176Y-43614686D01*
X379989328Y-43801698D01*
X379760144Y-43974055D01*
X379570003Y-44122748D01*
X379430280Y-44238771D01*
X379352354Y-44313115D01*
X379340073Y-44332072D01*
X379370308Y-44407791D01*
X379474389Y-44514724D01*
X379568114Y-44588896D01*
X379811074Y-44767245D01*
X380586288Y-44227272D01*
X380874111Y-44029474D01*
X381092704Y-43885814D01*
X381249473Y-43791955D01*
X381351821Y-43743561D01*
X381407152Y-43736295D01*
X381415704Y-43741501D01*
X381424196Y-43789320D01*
X381372571Y-43867996D01*
X381252975Y-43988149D01*
X381193380Y-44042168D01*
X380974821Y-44258632D01*
X380833102Y-44458406D01*
X380757062Y-44664132D01*
X380735538Y-44898457D01*
X380737499Y-44966969D01*
X380747566Y-45130596D01*
X380765808Y-45221249D01*
X380804107Y-45262278D01*
X380874346Y-45277034D01*
X380896376Y-45279176D01*
X381100147Y-45251952D01*
X381290917Y-45139944D01*
X381451556Y-44954674D01*
X381497372Y-44874888D01*
X381558859Y-44737229D01*
X381597678Y-44595820D01*
X381619800Y-44419697D01*
X381631099Y-44181300D01*
X381631211Y-43901006D01*
X381612084Y-43700151D01*
X381573815Y-43566783D01*
X381516150Y-43462982D01*
X381465804Y-43411399D01*
X381459698Y-43410142D01*
X381438185Y-43413491D01*
X381404869Y-43427848D01*
X381350008Y-43459677D01*
X381263858Y-43515445D01*
X381136675Y-43601615D01*
X380958717Y-43724654D01*
X380720240Y-43891025D01*
X380452893Y-44078193D01*
X380215493Y-44243943D01*
X380043410Y-44360798D01*
X379923090Y-44435280D01*
X379840978Y-44473911D01*
X379783521Y-44483214D01*
X379737164Y-44469712D01*
X379693785Y-44443488D01*
X379607573Y-44382870D01*
X379570960Y-44348928D01*
X379570949Y-44348731D01*
X379608429Y-44317947D01*
X379713498Y-44239475D01*
X379875100Y-44121367D01*
X380082181Y-43971675D01*
X380323684Y-43798451D01*
X380462600Y-43699326D01*
X380791368Y-43461742D01*
X381041752Y-43272978D01*
X381216917Y-43130459D01*
X381320026Y-43031608D01*
X381354245Y-42973849D01*
X381354251Y-42973371D01*
X381333646Y-42871474D01*
X381281925Y-42738006D01*
X381214229Y-42602825D01*
X381145698Y-42495792D01*
X381091473Y-42446765D01*
X381086936Y-42446195D01*
X381032214Y-42472946D01*
X380912165Y-42547513D01*
X380739672Y-42661367D01*
X380527622Y-42805981D01*
X380288898Y-42972825D01*
X380254452Y-42997209D01*
X379999068Y-43178051D01*
X379756004Y-43349754D01*
X379541791Y-43500671D01*
X379372961Y-43619155D01*
X379266046Y-43693560D01*
X379265457Y-43693966D01*
X379053627Y-43839709D01*
X378949780Y-43729169D01*
X378845932Y-43618628D01*
X379883203Y-42884037D01*
X380160291Y-42685900D01*
X380409469Y-42504066D01*
X380620402Y-42346375D01*
X380782756Y-42220666D01*
X380886193Y-42134781D01*
X380920475Y-42097201D01*
X380895034Y-42022779D01*
X380831101Y-41907408D01*
X380747255Y-41778632D01*
X380662080Y-41663992D01*
X380594154Y-41591031D01*
X380570627Y-41578643D01*
X380519066Y-41605355D01*
X380399902Y-41680595D01*
X380224085Y-41797021D01*
X380002565Y-41947292D01*
X379746290Y-42124065D01*
X379489662Y-42303490D01*
X379211746Y-42496752D01*
X378958701Y-42668426D01*
X378741376Y-42811498D01*
X378570619Y-42918953D01*
X378457279Y-42983779D01*
X378412922Y-42999667D01*
X378352974Y-42936104D01*
X378319611Y-42883321D01*
X378313707Y-42850603D01*
X378333490Y-42807909D01*
X378387073Y-42748499D01*
X378482567Y-42665635D01*
X378628086Y-42552579D01*
X378831743Y-42402592D01*
X379101651Y-42208936D01*
X379307397Y-42062868D01*
X379584230Y-41864628D01*
X379833115Y-41682202D01*
X380043692Y-41523528D01*
X380205600Y-41396540D01*
X380308480Y-41309177D01*
X380342106Y-41270253D01*
X380311175Y-41196901D01*
X380233828Y-41087897D01*
X380133236Y-40969756D01*
X380032570Y-40868991D01*
X379955003Y-40812116D01*
X379937688Y-40807486D01*
X379883165Y-40834226D01*
X379761725Y-40909354D01*
X379584892Y-41025226D01*
X379364189Y-41174201D01*
X379111138Y-41348636D01*
X378920285Y-41482248D01*
X378652927Y-41669640D01*
X378411532Y-41837034D01*
X378207266Y-41976833D01*
X378051296Y-42081441D01*
X377954787Y-42143260D01*
X377928450Y-42157011D01*
X377893645Y-42116646D01*
X377862339Y-42026118D01*
X377846585Y-41931280D01*
X377855663Y-41880140D01*
X377900267Y-41846045D01*
X378011685Y-41764069D01*
X378178439Y-41642564D01*
X378389051Y-41489880D01*
X378632042Y-41314369D01*
X378758689Y-41223114D01*
X379013392Y-41037815D01*
X379240732Y-40868761D01*
X379429260Y-40724769D01*
X379567523Y-40614655D01*
X379644072Y-40547235D01*
X379655526Y-40532645D01*
X379627637Y-40475744D01*
X379533178Y-40383124D01*
X379389020Y-40267328D01*
X379212035Y-40140901D01*
X379019096Y-40016384D01*
X378827074Y-39906322D01*
X378780798Y-39882337D01*
X378583884Y-39799522D01*
X378373460Y-39736298D01*
X378243132Y-39712573D01*
X378106296Y-39702888D01*
X378002197Y-39714831D01*
X377898268Y-39759106D01*
X377761942Y-39846416D01*
X377695807Y-39892446D01*
X377513080Y-40037017D01*
X377415460Y-40146911D01*
X377397882Y-40214036D01*
X377455277Y-40230296D01*
G36*
X359027550Y-114550674D02*
G01*
X359140800Y-114911477D01*
X359273256Y-115208520D01*
X359392828Y-115429991D01*
X359518803Y-115626986D01*
X359638718Y-115782943D01*
X359740110Y-115881299D01*
X359799106Y-115907382D01*
X359876035Y-115873411D01*
X359994703Y-115784138D01*
X360135385Y-115658519D01*
X360278357Y-115515509D01*
X360403897Y-115374065D01*
X360492280Y-115253144D01*
X360506869Y-115227150D01*
X360602178Y-115093464D01*
X360702757Y-115040028D01*
X360794416Y-115071126D01*
X360836803Y-115127520D01*
X360847211Y-115243131D01*
X360787806Y-115398876D01*
X360668634Y-115580898D01*
X360499739Y-115775340D01*
X360291165Y-115968347D01*
X360144515Y-116082530D01*
X360002751Y-116185382D01*
X360284378Y-116365536D01*
X360759586Y-116615329D01*
X361262968Y-116779633D01*
X361781836Y-116857644D01*
X362303499Y-116848559D01*
X362815269Y-116751574D01*
X363304456Y-116565886D01*
X363320964Y-116557795D01*
X363512744Y-116455693D01*
X363692868Y-116347355D01*
X363824965Y-116254782D01*
X363833538Y-116247738D01*
X363998387Y-116109496D01*
X363877894Y-115979830D01*
X363781287Y-115885900D01*
X363637879Y-115758043D01*
X363476609Y-115621961D01*
X363456167Y-115605271D01*
X363279100Y-115448245D01*
X363182332Y-115326600D01*
X363160924Y-115230702D01*
X363209935Y-115150917D01*
X363219111Y-115142961D01*
X363303409Y-115133824D01*
X363442850Y-115193354D01*
X363629951Y-115316942D01*
X363857224Y-115499977D01*
X363988255Y-115616621D01*
X364128846Y-115743067D01*
X364217623Y-115811839D01*
X364272778Y-115831528D01*
X364312503Y-115810726D01*
X364337235Y-115781428D01*
X364637995Y-115314971D01*
X364847338Y-114833248D01*
X364914110Y-114626274D01*
X364955418Y-114448139D01*
X364976955Y-114261466D01*
X364984419Y-114028874D01*
X364984761Y-113931290D01*
X364979988Y-113668605D01*
X364962337Y-113463809D01*
X364926122Y-113278665D01*
X364865658Y-113074937D01*
X364850823Y-113030567D01*
X364775946Y-112840590D01*
X364677577Y-112634264D01*
X364566853Y-112430250D01*
X364454907Y-112247211D01*
X364446217Y-112234998D01*
X364446217Y-112745823D01*
X364548740Y-112774421D01*
X364591202Y-112843240D01*
X364591606Y-112908017D01*
X364578109Y-112968404D01*
X364542231Y-113011203D01*
X364465244Y-113045051D01*
X364342308Y-113075179D01*
X364342308Y-113420884D01*
X364499898Y-113441411D01*
X364592220Y-113485911D01*
X364599068Y-113494917D01*
X364629688Y-113592885D01*
X364580046Y-113665693D01*
X364445469Y-113716172D01*
X364221285Y-113747153D01*
X364177245Y-113750458D01*
X363924049Y-113783603D01*
X363692623Y-113842602D01*
X363570832Y-113892816D01*
X363570832Y-114080913D01*
X363664656Y-114128945D01*
X363676913Y-114136129D01*
X363827560Y-114200361D01*
X363996217Y-114216215D01*
X364211695Y-114185019D01*
X364297515Y-114164745D01*
X364437023Y-114134882D01*
X364516712Y-114138113D01*
X364568417Y-114177676D01*
X364580633Y-114193529D01*
X364622706Y-114294307D01*
X364581816Y-114377336D01*
X364452661Y-114449209D01*
X364346108Y-114485181D01*
X364034863Y-114548781D01*
X363777900Y-114539835D01*
X363691418Y-114504655D01*
X363691418Y-114785897D01*
X363793556Y-114794294D01*
X363959029Y-114806280D01*
X364154962Y-114819491D01*
X364188077Y-114821633D01*
X364383770Y-114841001D01*
X364529622Y-114868788D01*
X364603594Y-114900641D01*
X364606441Y-114904278D01*
X364617359Y-114999306D01*
X364552785Y-115090678D01*
X364431435Y-115154331D01*
X364407113Y-115160532D01*
X364272133Y-115170412D01*
X364092745Y-115158350D01*
X363898735Y-115129556D01*
X363719890Y-115089241D01*
X363585996Y-115042614D01*
X363533917Y-115007785D01*
X363502756Y-114913303D01*
X363546394Y-114830063D01*
X363644756Y-114786350D01*
X363691418Y-114785897D01*
X363691418Y-114504655D01*
X363579204Y-114459006D01*
X363461496Y-114337960D01*
X363420883Y-114247309D01*
X363450298Y-114165668D01*
X363464762Y-114145171D01*
X363516936Y-114085779D01*
X363570832Y-114080913D01*
X363570832Y-113892816D01*
X363506068Y-113919518D01*
X363387487Y-114006416D01*
X363372247Y-114026996D01*
X363305447Y-114064848D01*
X363224385Y-114075882D01*
X363133870Y-114054605D01*
X363106960Y-113973059D01*
X363106736Y-113958832D01*
X363133356Y-113842039D01*
X363221420Y-113736276D01*
X363383234Y-113629993D01*
X363539730Y-113552421D01*
X363718161Y-113490098D01*
X363927416Y-113446532D01*
X364143472Y-113423026D01*
X364342308Y-113420884D01*
X364342308Y-113075179D01*
X364328421Y-113078583D01*
X364143299Y-113114754D01*
X363910821Y-113155619D01*
X363754594Y-113173433D01*
X363657000Y-113167073D01*
X363600424Y-113135412D01*
X363567506Y-113078001D01*
X363560094Y-112998589D01*
X363613152Y-112933366D01*
X363737507Y-112875741D01*
X363943984Y-112819125D01*
X364021139Y-112801874D01*
X364273671Y-112755592D01*
X364446217Y-112745823D01*
X364446217Y-112234998D01*
X364352877Y-112103810D01*
X364271896Y-112018709D01*
X364237945Y-112003397D01*
X364177812Y-112037668D01*
X364074110Y-112128496D01*
X363944399Y-112257902D01*
X363806235Y-112407908D01*
X363677177Y-112560535D01*
X363614272Y-112642012D01*
X363488403Y-112775125D01*
X363373672Y-112822727D01*
X363371258Y-112822752D01*
X363264734Y-112793831D01*
X363231558Y-112710728D01*
X363269371Y-112578936D01*
X363375814Y-112403943D01*
X363548530Y-112191241D01*
X363720184Y-112010228D01*
X363979907Y-111750505D01*
X363869087Y-111632543D01*
X363752175Y-111539717D01*
X363568470Y-111429413D01*
X363342916Y-111313750D01*
X363100459Y-111204850D01*
X362938045Y-111142482D01*
X362938045Y-111400930D01*
X363082637Y-111400930D01*
X363177259Y-111410830D01*
X363226306Y-111458677D01*
X363254564Y-111571691D01*
X363258185Y-111593719D01*
X363273971Y-111757586D01*
X363272232Y-111907566D01*
X363270235Y-111925076D01*
X363255499Y-112085070D01*
X363251328Y-112202211D01*
X363220483Y-112346169D01*
X363142499Y-112452060D01*
X363073930Y-112483292D01*
X363073930Y-115423035D01*
X363107462Y-115437457D01*
X363122649Y-115485778D01*
X363159925Y-115592785D01*
X363177642Y-115642296D01*
X363223245Y-115820830D01*
X363246474Y-116022209D01*
X363247419Y-116218246D01*
X363226167Y-116380751D01*
X363182807Y-116481535D01*
X363174992Y-116489103D01*
X363077341Y-116526681D01*
X362997066Y-116483920D01*
X362952801Y-116376865D01*
X362950599Y-116295885D01*
X362946207Y-116168424D01*
X362922165Y-115990003D01*
X362890080Y-115828558D01*
X362856766Y-115662399D01*
X362840401Y-115532904D01*
X362844223Y-115469443D01*
X362896861Y-115443165D01*
X362988634Y-115425849D01*
X363073930Y-115423035D01*
X363073930Y-112483292D01*
X363039207Y-112499109D01*
X362956808Y-112482515D01*
X362888084Y-112423346D01*
X362887207Y-112333392D01*
X362896193Y-112300670D01*
X362915076Y-112191086D01*
X362929342Y-112019263D01*
X362936311Y-111819335D01*
X362936572Y-111786509D01*
X362938045Y-111400930D01*
X362938045Y-111142482D01*
X362866043Y-111114832D01*
X362698982Y-111064028D01*
X362531485Y-111035825D01*
X362531485Y-111370128D01*
X362517877Y-111934651D01*
X362509788Y-112183698D01*
X362497930Y-112353371D01*
X362479627Y-112460686D01*
X362452204Y-112522657D01*
X362420828Y-112551702D01*
X362356492Y-112569812D01*
X362356492Y-115336678D01*
X362454507Y-115342314D01*
X362521619Y-115408701D01*
X362559576Y-115543440D01*
X362570127Y-115754135D01*
X362555021Y-116048389D01*
X362545395Y-116157843D01*
X362511142Y-116373271D01*
X362457817Y-116494432D01*
X362385144Y-116521603D01*
X362292849Y-116455063D01*
X362273327Y-116432165D01*
X362223149Y-116349397D01*
X362205857Y-116246842D01*
X362216730Y-116090468D01*
X362221092Y-116055687D01*
X362242392Y-115855513D01*
X362256725Y-115652942D01*
X362259666Y-115570857D01*
X362270550Y-115430349D01*
X362304060Y-115360004D01*
X362356492Y-115336678D01*
X362356492Y-112569812D01*
X362335366Y-112575760D01*
X362257953Y-112524796D01*
X362223251Y-112478285D01*
X362203630Y-112411158D01*
X362197902Y-112304102D01*
X362204877Y-112137802D01*
X362220901Y-111923146D01*
X362263283Y-111400930D01*
X362531485Y-111370128D01*
X362531485Y-111035825D01*
X362405570Y-111014623D01*
X362060380Y-110995191D01*
X361721140Y-111005140D01*
X361721140Y-111385539D01*
X361776364Y-111400411D01*
X361808958Y-111439569D01*
X361825039Y-111524044D01*
X361830727Y-111674868D01*
X361831498Y-111764891D01*
X361837985Y-111970243D01*
X361861374Y-112119922D01*
X361911608Y-112254398D01*
X361985428Y-112391457D01*
X362080566Y-112563274D01*
X362127433Y-112675157D01*
X362130471Y-112747875D01*
X362094123Y-112802198D01*
X362076602Y-112817682D01*
X362052886Y-112825902D01*
X362052886Y-115007205D01*
X362114092Y-115036013D01*
X362181448Y-115122138D01*
X362167350Y-115214268D01*
X362068972Y-115329794D01*
X362065914Y-115332661D01*
X361925163Y-115488573D01*
X361844879Y-115650423D01*
X361815623Y-115847411D01*
X361825037Y-116077934D01*
X361833649Y-116307661D01*
X361808179Y-116451941D01*
X361746239Y-116516362D01*
X361645441Y-116506510D01*
X361642410Y-116505364D01*
X361570827Y-116442793D01*
X361523544Y-116313345D01*
X361498198Y-116107111D01*
X361492125Y-115875385D01*
X361496968Y-115681878D01*
X361518009Y-115547578D01*
X361565020Y-115435513D01*
X361638357Y-115322043D01*
X361791111Y-115137442D01*
X361931952Y-115030894D01*
X362052886Y-115007205D01*
X362052886Y-112825902D01*
X361979076Y-112851487D01*
X361872377Y-112794947D01*
X361752481Y-112645868D01*
X361747639Y-112638394D01*
X361622134Y-112423029D01*
X361550521Y-112237097D01*
X361520059Y-112040378D01*
X361516224Y-111907872D01*
X361530135Y-111649757D01*
X361572863Y-111480284D01*
X361645898Y-111395658D01*
X361721140Y-111385539D01*
X361721140Y-111005140D01*
X361703227Y-111005666D01*
X361373929Y-111045984D01*
X361275968Y-111066342D01*
X361028878Y-111140546D01*
X361008959Y-111148381D01*
X361008959Y-111376831D01*
X361083631Y-111383774D01*
X361124056Y-111419002D01*
X361139000Y-111504114D01*
X361137231Y-111660710D01*
X361136128Y-111690114D01*
X361146818Y-111861841D01*
X361182637Y-112051548D01*
X361196252Y-112099791D01*
X361232784Y-112278293D01*
X361206823Y-112387775D01*
X361116109Y-112434471D01*
X361086820Y-112436354D01*
X361086820Y-115387604D01*
X361156766Y-115427086D01*
X361197025Y-115475112D01*
X361218635Y-115550003D01*
X361224205Y-115673597D01*
X361216345Y-115867734D01*
X361214049Y-115906265D01*
X361198774Y-116104474D01*
X361180141Y-116271843D01*
X361161480Y-116380146D01*
X361156063Y-116397678D01*
X361082663Y-116487402D01*
X360983750Y-116512420D01*
X360908938Y-116475471D01*
X360879158Y-116393104D01*
X360866402Y-116244086D01*
X360868575Y-116054648D01*
X360883585Y-115851016D01*
X360909336Y-115659421D01*
X360943735Y-115506091D01*
X360984689Y-115417254D01*
X360994062Y-115409161D01*
X361086820Y-115387604D01*
X361086820Y-112436354D01*
X361074087Y-112437173D01*
X360986386Y-112391040D01*
X360908858Y-112260683D01*
X360847078Y-112058161D01*
X360816060Y-111878943D01*
X360807724Y-111648081D01*
X360848631Y-111483157D01*
X360935639Y-111392345D01*
X361008959Y-111376831D01*
X361008959Y-111148381D01*
X360755764Y-111247979D01*
X360489083Y-111373733D01*
X360261291Y-111502897D01*
X360143138Y-111586719D01*
X359999084Y-111704217D01*
X360444371Y-112149504D01*
X360658279Y-112371121D01*
X360799970Y-112537955D01*
X360872215Y-112655796D01*
X360877782Y-112730433D01*
X360819442Y-112767657D01*
X360743352Y-112774554D01*
X360668341Y-112762890D01*
X360584220Y-112720619D01*
X360476559Y-112636826D01*
X360330926Y-112500592D01*
X360177033Y-112346157D01*
X359757021Y-111917760D01*
X359602973Y-112118558D01*
X359572387Y-112165051D01*
X359572387Y-112756459D01*
X359687584Y-112756608D01*
X359871580Y-112781345D01*
X359979180Y-112800301D01*
X360171250Y-112836753D01*
X360329840Y-112868817D01*
X360428655Y-112891108D01*
X360443833Y-112895459D01*
X360490438Y-112953850D01*
X360502106Y-113052369D01*
X360478631Y-113141889D01*
X360444991Y-113171796D01*
X360361686Y-113175181D01*
X360213822Y-113160951D01*
X360029857Y-113134068D01*
X359838248Y-113099495D01*
X359835550Y-113098906D01*
X359835550Y-113418483D01*
X360061378Y-113454029D01*
X360310284Y-113519085D01*
X360551940Y-113604533D01*
X360756016Y-113701255D01*
X360879037Y-113787148D01*
X360949373Y-113893011D01*
X360940536Y-113988597D01*
X360872916Y-114042292D01*
X360803727Y-114035709D01*
X360671392Y-113998561D01*
X360501351Y-113938286D01*
X360454916Y-113920069D01*
X360229893Y-113843134D01*
X359991447Y-113782209D01*
X359794352Y-113750640D01*
X359618930Y-113729680D01*
X359586234Y-113719600D01*
X359586234Y-114149399D01*
X359769791Y-114156962D01*
X359849723Y-114171511D01*
X360057531Y-114198460D01*
X360266895Y-114200512D01*
X360339420Y-114193252D01*
X360495860Y-114180014D01*
X360581347Y-114201378D01*
X360602440Y-114223655D01*
X360616777Y-114323558D01*
X360547982Y-114418705D01*
X360408784Y-114494213D01*
X360357380Y-114510226D01*
X360217875Y-114529752D01*
X360217875Y-114714845D01*
X360407206Y-114731274D01*
X360515280Y-114789440D01*
X360545341Y-114890255D01*
X360543519Y-114907753D01*
X360527011Y-114962554D01*
X360482969Y-114998699D01*
X360391244Y-115023499D01*
X360231686Y-115044267D01*
X360142599Y-115053255D01*
X359944405Y-115072489D01*
X359771137Y-115089210D01*
X359655312Y-115100280D01*
X359642841Y-115101452D01*
X359528959Y-115076733D01*
X359474967Y-115028684D01*
X359452855Y-114933297D01*
X359521251Y-114854124D01*
X359681803Y-114790149D01*
X359936160Y-114740356D01*
X359944045Y-114739241D01*
X360217875Y-114714845D01*
X360217875Y-114529752D01*
X360185186Y-114534328D01*
X359989908Y-114527933D01*
X359794870Y-114496485D01*
X359623396Y-114445427D01*
X359498811Y-114380203D01*
X359444437Y-114306258D01*
X359443738Y-114296976D01*
X359478758Y-114195697D01*
X359586234Y-114149399D01*
X359586234Y-113719600D01*
X359518413Y-113698689D01*
X359471343Y-113650180D01*
X359465909Y-113636034D01*
X359456485Y-113531754D01*
X359517614Y-113464918D01*
X359661921Y-113421796D01*
X359663131Y-113421568D01*
X359835550Y-113418483D01*
X359835550Y-113098906D01*
X359667450Y-113062196D01*
X359545920Y-113027133D01*
X359507251Y-113008251D01*
X359447487Y-112910712D01*
X359480208Y-112809118D01*
X359509255Y-112780180D01*
X359572387Y-112756459D01*
X359572387Y-112165051D01*
X359317500Y-112552499D01*
X359121365Y-112999932D01*
X359007640Y-113479297D01*
X358976266Y-113786698D01*
X358975216Y-114187765D01*
X359027550Y-114550674D01*
G37*
X359027550Y-114550674D02*
X359140800Y-114911477D01*
X359273256Y-115208520D01*
X359392828Y-115429991D01*
X359518803Y-115626986D01*
X359638718Y-115782943D01*
X359740110Y-115881299D01*
X359799106Y-115907382D01*
X359876035Y-115873411D01*
X359994703Y-115784138D01*
X360135385Y-115658519D01*
X360278357Y-115515509D01*
X360403897Y-115374065D01*
X360492280Y-115253144D01*
X360506869Y-115227150D01*
X360602178Y-115093464D01*
X360702757Y-115040028D01*
X360794416Y-115071126D01*
X360836803Y-115127520D01*
X360847211Y-115243131D01*
X360787806Y-115398876D01*
X360668634Y-115580898D01*
X360499739Y-115775340D01*
X360291165Y-115968347D01*
X360144515Y-116082530D01*
X360002751Y-116185382D01*
X360284378Y-116365536D01*
X360759586Y-116615329D01*
X361262968Y-116779633D01*
X361781836Y-116857644D01*
X362303499Y-116848559D01*
X362815269Y-116751574D01*
X363304456Y-116565886D01*
X363320964Y-116557795D01*
X363512744Y-116455693D01*
X363692868Y-116347355D01*
X363824965Y-116254782D01*
X363833538Y-116247738D01*
X363998387Y-116109496D01*
X363877894Y-115979830D01*
X363781287Y-115885900D01*
X363637879Y-115758043D01*
X363476609Y-115621961D01*
X363456167Y-115605271D01*
X363279100Y-115448245D01*
X363182332Y-115326600D01*
X363160924Y-115230702D01*
X363209935Y-115150917D01*
X363219111Y-115142961D01*
X363303409Y-115133824D01*
X363442850Y-115193354D01*
X363629951Y-115316942D01*
X363857224Y-115499977D01*
X363988255Y-115616621D01*
X364128846Y-115743067D01*
X364217623Y-115811839D01*
X364272778Y-115831528D01*
X364312503Y-115810726D01*
X364337235Y-115781428D01*
X364637995Y-115314971D01*
X364847338Y-114833248D01*
X364914110Y-114626274D01*
X364955418Y-114448139D01*
X364976955Y-114261466D01*
X364984419Y-114028874D01*
X364984761Y-113931290D01*
X364979988Y-113668605D01*
X364962337Y-113463809D01*
X364926122Y-113278665D01*
X364865658Y-113074937D01*
X364850823Y-113030567D01*
X364775946Y-112840590D01*
X364677577Y-112634264D01*
X364566853Y-112430250D01*
X364454907Y-112247211D01*
X364446217Y-112234998D01*
X364446217Y-112745823D01*
X364548740Y-112774421D01*
X364591202Y-112843240D01*
X364591606Y-112908017D01*
X364578109Y-112968404D01*
X364542231Y-113011203D01*
X364465244Y-113045051D01*
X364342308Y-113075179D01*
X364342308Y-113420884D01*
X364499898Y-113441411D01*
X364592220Y-113485911D01*
X364599068Y-113494917D01*
X364629688Y-113592885D01*
X364580046Y-113665693D01*
X364445469Y-113716172D01*
X364221285Y-113747153D01*
X364177245Y-113750458D01*
X363924049Y-113783603D01*
X363692623Y-113842602D01*
X363570832Y-113892816D01*
X363570832Y-114080913D01*
X363664656Y-114128945D01*
X363676913Y-114136129D01*
X363827560Y-114200361D01*
X363996217Y-114216215D01*
X364211695Y-114185019D01*
X364297515Y-114164745D01*
X364437023Y-114134882D01*
X364516712Y-114138113D01*
X364568417Y-114177676D01*
X364580633Y-114193529D01*
X364622706Y-114294307D01*
X364581816Y-114377336D01*
X364452661Y-114449209D01*
X364346108Y-114485181D01*
X364034863Y-114548781D01*
X363777900Y-114539835D01*
X363691418Y-114504655D01*
X363691418Y-114785897D01*
X363793556Y-114794294D01*
X363959029Y-114806280D01*
X364154962Y-114819491D01*
X364188077Y-114821633D01*
X364383770Y-114841001D01*
X364529622Y-114868788D01*
X364603594Y-114900641D01*
X364606441Y-114904278D01*
X364617359Y-114999306D01*
X364552785Y-115090678D01*
X364431435Y-115154331D01*
X364407113Y-115160532D01*
X364272133Y-115170412D01*
X364092745Y-115158350D01*
X363898735Y-115129556D01*
X363719890Y-115089241D01*
X363585996Y-115042614D01*
X363533917Y-115007785D01*
X363502756Y-114913303D01*
X363546394Y-114830063D01*
X363644756Y-114786350D01*
X363691418Y-114785897D01*
X363691418Y-114504655D01*
X363579204Y-114459006D01*
X363461496Y-114337960D01*
X363420883Y-114247309D01*
X363450298Y-114165668D01*
X363464762Y-114145171D01*
X363516936Y-114085779D01*
X363570832Y-114080913D01*
X363570832Y-113892816D01*
X363506068Y-113919518D01*
X363387487Y-114006416D01*
X363372247Y-114026996D01*
X363305447Y-114064848D01*
X363224385Y-114075882D01*
X363133870Y-114054605D01*
X363106960Y-113973059D01*
X363106736Y-113958832D01*
X363133356Y-113842039D01*
X363221420Y-113736276D01*
X363383234Y-113629993D01*
X363539730Y-113552421D01*
X363718161Y-113490098D01*
X363927416Y-113446532D01*
X364143472Y-113423026D01*
X364342308Y-113420884D01*
X364342308Y-113075179D01*
X364328421Y-113078583D01*
X364143299Y-113114754D01*
X363910821Y-113155619D01*
X363754594Y-113173433D01*
X363657000Y-113167073D01*
X363600424Y-113135412D01*
X363567506Y-113078001D01*
X363560094Y-112998589D01*
X363613152Y-112933366D01*
X363737507Y-112875741D01*
X363943984Y-112819125D01*
X364021139Y-112801874D01*
X364273671Y-112755592D01*
X364446217Y-112745823D01*
X364446217Y-112234998D01*
X364352877Y-112103810D01*
X364271896Y-112018709D01*
X364237945Y-112003397D01*
X364177812Y-112037668D01*
X364074110Y-112128496D01*
X363944399Y-112257902D01*
X363806235Y-112407908D01*
X363677177Y-112560535D01*
X363614272Y-112642012D01*
X363488403Y-112775125D01*
X363373672Y-112822727D01*
X363371258Y-112822752D01*
X363264734Y-112793831D01*
X363231558Y-112710728D01*
X363269371Y-112578936D01*
X363375814Y-112403943D01*
X363548530Y-112191241D01*
X363720184Y-112010228D01*
X363979907Y-111750505D01*
X363869087Y-111632543D01*
X363752175Y-111539717D01*
X363568470Y-111429413D01*
X363342916Y-111313750D01*
X363100459Y-111204850D01*
X362938045Y-111142482D01*
X362938045Y-111400930D01*
X363082637Y-111400930D01*
X363177259Y-111410830D01*
X363226306Y-111458677D01*
X363254564Y-111571691D01*
X363258185Y-111593719D01*
X363273971Y-111757586D01*
X363272232Y-111907566D01*
X363270235Y-111925076D01*
X363255499Y-112085070D01*
X363251328Y-112202211D01*
X363220483Y-112346169D01*
X363142499Y-112452060D01*
X363073930Y-112483292D01*
X363073930Y-115423035D01*
X363107462Y-115437457D01*
X363122649Y-115485778D01*
X363159925Y-115592785D01*
X363177642Y-115642296D01*
X363223245Y-115820830D01*
X363246474Y-116022209D01*
X363247419Y-116218246D01*
X363226167Y-116380751D01*
X363182807Y-116481535D01*
X363174992Y-116489103D01*
X363077341Y-116526681D01*
X362997066Y-116483920D01*
X362952801Y-116376865D01*
X362950599Y-116295885D01*
X362946207Y-116168424D01*
X362922165Y-115990003D01*
X362890080Y-115828558D01*
X362856766Y-115662399D01*
X362840401Y-115532904D01*
X362844223Y-115469443D01*
X362896861Y-115443165D01*
X362988634Y-115425849D01*
X363073930Y-115423035D01*
X363073930Y-112483292D01*
X363039207Y-112499109D01*
X362956808Y-112482515D01*
X362888084Y-112423346D01*
X362887207Y-112333392D01*
X362896193Y-112300670D01*
X362915076Y-112191086D01*
X362929342Y-112019263D01*
X362936311Y-111819335D01*
X362936572Y-111786509D01*
X362938045Y-111400930D01*
X362938045Y-111142482D01*
X362866043Y-111114832D01*
X362698982Y-111064028D01*
X362531485Y-111035825D01*
X362531485Y-111370128D01*
X362517877Y-111934651D01*
X362509788Y-112183698D01*
X362497930Y-112353371D01*
X362479627Y-112460686D01*
X362452204Y-112522657D01*
X362420828Y-112551702D01*
X362356492Y-112569812D01*
X362356492Y-115336678D01*
X362454507Y-115342314D01*
X362521619Y-115408701D01*
X362559576Y-115543440D01*
X362570127Y-115754135D01*
X362555021Y-116048389D01*
X362545395Y-116157843D01*
X362511142Y-116373271D01*
X362457817Y-116494432D01*
X362385144Y-116521603D01*
X362292849Y-116455063D01*
X362273327Y-116432165D01*
X362223149Y-116349397D01*
X362205857Y-116246842D01*
X362216730Y-116090468D01*
X362221092Y-116055687D01*
X362242392Y-115855513D01*
X362256725Y-115652942D01*
X362259666Y-115570857D01*
X362270550Y-115430349D01*
X362304060Y-115360004D01*
X362356492Y-115336678D01*
X362356492Y-112569812D01*
X362335366Y-112575760D01*
X362257953Y-112524796D01*
X362223251Y-112478285D01*
X362203630Y-112411158D01*
X362197902Y-112304102D01*
X362204877Y-112137802D01*
X362220901Y-111923146D01*
X362263283Y-111400930D01*
X362531485Y-111370128D01*
X362531485Y-111035825D01*
X362405570Y-111014623D01*
X362060380Y-110995191D01*
X361721140Y-111005140D01*
X361721140Y-111385539D01*
X361776364Y-111400411D01*
X361808958Y-111439569D01*
X361825039Y-111524044D01*
X361830727Y-111674868D01*
X361831498Y-111764891D01*
X361837985Y-111970243D01*
X361861374Y-112119922D01*
X361911608Y-112254398D01*
X361985428Y-112391457D01*
X362080566Y-112563274D01*
X362127433Y-112675157D01*
X362130471Y-112747875D01*
X362094123Y-112802198D01*
X362076602Y-112817682D01*
X362052886Y-112825902D01*
X362052886Y-115007205D01*
X362114092Y-115036013D01*
X362181448Y-115122138D01*
X362167350Y-115214268D01*
X362068972Y-115329794D01*
X362065914Y-115332661D01*
X361925163Y-115488573D01*
X361844879Y-115650423D01*
X361815623Y-115847411D01*
X361825037Y-116077934D01*
X361833649Y-116307661D01*
X361808179Y-116451941D01*
X361746239Y-116516362D01*
X361645441Y-116506510D01*
X361642410Y-116505364D01*
X361570827Y-116442793D01*
X361523544Y-116313345D01*
X361498198Y-116107111D01*
X361492125Y-115875385D01*
X361496968Y-115681878D01*
X361518009Y-115547578D01*
X361565020Y-115435513D01*
X361638357Y-115322043D01*
X361791111Y-115137442D01*
X361931952Y-115030894D01*
X362052886Y-115007205D01*
X362052886Y-112825902D01*
X361979076Y-112851487D01*
X361872377Y-112794947D01*
X361752481Y-112645868D01*
X361747639Y-112638394D01*
X361622134Y-112423029D01*
X361550521Y-112237097D01*
X361520059Y-112040378D01*
X361516224Y-111907872D01*
X361530135Y-111649757D01*
X361572863Y-111480284D01*
X361645898Y-111395658D01*
X361721140Y-111385539D01*
X361721140Y-111005140D01*
X361703227Y-111005666D01*
X361373929Y-111045984D01*
X361275968Y-111066342D01*
X361028878Y-111140546D01*
X361008959Y-111148381D01*
X361008959Y-111376831D01*
X361083631Y-111383774D01*
X361124056Y-111419002D01*
X361139000Y-111504114D01*
X361137231Y-111660710D01*
X361136128Y-111690114D01*
X361146818Y-111861841D01*
X361182637Y-112051548D01*
X361196252Y-112099791D01*
X361232784Y-112278293D01*
X361206823Y-112387775D01*
X361116109Y-112434471D01*
X361086820Y-112436354D01*
X361086820Y-115387604D01*
X361156766Y-115427086D01*
X361197025Y-115475112D01*
X361218635Y-115550003D01*
X361224205Y-115673597D01*
X361216345Y-115867734D01*
X361214049Y-115906265D01*
X361198774Y-116104474D01*
X361180141Y-116271843D01*
X361161480Y-116380146D01*
X361156063Y-116397678D01*
X361082663Y-116487402D01*
X360983750Y-116512420D01*
X360908938Y-116475471D01*
X360879158Y-116393104D01*
X360866402Y-116244086D01*
X360868575Y-116054648D01*
X360883585Y-115851016D01*
X360909336Y-115659421D01*
X360943735Y-115506091D01*
X360984689Y-115417254D01*
X360994062Y-115409161D01*
X361086820Y-115387604D01*
X361086820Y-112436354D01*
X361074087Y-112437173D01*
X360986386Y-112391040D01*
X360908858Y-112260683D01*
X360847078Y-112058161D01*
X360816060Y-111878943D01*
X360807724Y-111648081D01*
X360848631Y-111483157D01*
X360935639Y-111392345D01*
X361008959Y-111376831D01*
X361008959Y-111148381D01*
X360755764Y-111247979D01*
X360489083Y-111373733D01*
X360261291Y-111502897D01*
X360143138Y-111586719D01*
X359999084Y-111704217D01*
X360444371Y-112149504D01*
X360658279Y-112371121D01*
X360799970Y-112537955D01*
X360872215Y-112655796D01*
X360877782Y-112730433D01*
X360819442Y-112767657D01*
X360743352Y-112774554D01*
X360668341Y-112762890D01*
X360584220Y-112720619D01*
X360476559Y-112636826D01*
X360330926Y-112500592D01*
X360177033Y-112346157D01*
X359757021Y-111917760D01*
X359602973Y-112118558D01*
X359572387Y-112165051D01*
X359572387Y-112756459D01*
X359687584Y-112756608D01*
X359871580Y-112781345D01*
X359979180Y-112800301D01*
X360171250Y-112836753D01*
X360329840Y-112868817D01*
X360428655Y-112891108D01*
X360443833Y-112895459D01*
X360490438Y-112953850D01*
X360502106Y-113052369D01*
X360478631Y-113141889D01*
X360444991Y-113171796D01*
X360361686Y-113175181D01*
X360213822Y-113160951D01*
X360029857Y-113134068D01*
X359838248Y-113099495D01*
X359835550Y-113098906D01*
X359835550Y-113418483D01*
X360061378Y-113454029D01*
X360310284Y-113519085D01*
X360551940Y-113604533D01*
X360756016Y-113701255D01*
X360879037Y-113787148D01*
X360949373Y-113893011D01*
X360940536Y-113988597D01*
X360872916Y-114042292D01*
X360803727Y-114035709D01*
X360671392Y-113998561D01*
X360501351Y-113938286D01*
X360454916Y-113920069D01*
X360229893Y-113843134D01*
X359991447Y-113782209D01*
X359794352Y-113750640D01*
X359618930Y-113729680D01*
X359586234Y-113719600D01*
X359586234Y-114149399D01*
X359769791Y-114156962D01*
X359849723Y-114171511D01*
X360057531Y-114198460D01*
X360266895Y-114200512D01*
X360339420Y-114193252D01*
X360495860Y-114180014D01*
X360581347Y-114201378D01*
X360602440Y-114223655D01*
X360616777Y-114323558D01*
X360547982Y-114418705D01*
X360408784Y-114494213D01*
X360357380Y-114510226D01*
X360217875Y-114529752D01*
X360217875Y-114714845D01*
X360407206Y-114731274D01*
X360515280Y-114789440D01*
X360545341Y-114890255D01*
X360543519Y-114907753D01*
X360527011Y-114962554D01*
X360482969Y-114998699D01*
X360391244Y-115023499D01*
X360231686Y-115044267D01*
X360142599Y-115053255D01*
X359944405Y-115072489D01*
X359771137Y-115089210D01*
X359655312Y-115100280D01*
X359642841Y-115101452D01*
X359528959Y-115076733D01*
X359474967Y-115028684D01*
X359452855Y-114933297D01*
X359521251Y-114854124D01*
X359681803Y-114790149D01*
X359936160Y-114740356D01*
X359944045Y-114739241D01*
X360217875Y-114714845D01*
X360217875Y-114529752D01*
X360185186Y-114534328D01*
X359989908Y-114527933D01*
X359794870Y-114496485D01*
X359623396Y-114445427D01*
X359498811Y-114380203D01*
X359444437Y-114306258D01*
X359443738Y-114296976D01*
X359478758Y-114195697D01*
X359586234Y-114149399D01*
X359586234Y-113719600D01*
X359518413Y-113698689D01*
X359471343Y-113650180D01*
X359465909Y-113636034D01*
X359456485Y-113531754D01*
X359517614Y-113464918D01*
X359661921Y-113421796D01*
X359663131Y-113421568D01*
X359835550Y-113418483D01*
X359835550Y-113098906D01*
X359667450Y-113062196D01*
X359545920Y-113027133D01*
X359507251Y-113008251D01*
X359447487Y-112910712D01*
X359480208Y-112809118D01*
X359509255Y-112780180D01*
X359572387Y-112756459D01*
X359572387Y-112165051D01*
X359317500Y-112552499D01*
X359121365Y-112999932D01*
X359007640Y-113479297D01*
X358976266Y-113786698D01*
X358975216Y-114187765D01*
X359027550Y-114550674D01*
G36*
X360941426Y-118140618D02*
G01*
X360975320Y-118183344D01*
X361093318Y-118251089D01*
X361212113Y-118225322D01*
X361325001Y-118108634D01*
X361370261Y-118030751D01*
X361433526Y-117925835D01*
X361509278Y-117856144D01*
X361617576Y-117814628D01*
X361778479Y-117794236D01*
X362012045Y-117787920D01*
X362061692Y-117787736D01*
X362249677Y-117788926D01*
X362359320Y-117796769D01*
X362408665Y-117816450D01*
X362415753Y-117853155D01*
X362406778Y-117886927D01*
X362414360Y-118001180D01*
X362485242Y-118107552D01*
X362590941Y-118168708D01*
X362624763Y-118172657D01*
X362720410Y-118136308D01*
X362813476Y-118052489D01*
X362864185Y-117959044D01*
X362865749Y-117943367D01*
X362896844Y-117869520D01*
X362941488Y-117814619D01*
X362996709Y-117779947D01*
X363091078Y-117757200D01*
X363241625Y-117744310D01*
X363465379Y-117739208D01*
X363565320Y-117738881D01*
X363803977Y-117737611D01*
X363965149Y-117731638D01*
X364067734Y-117717712D01*
X364130632Y-117692583D01*
X364172741Y-117653004D01*
X364188443Y-117631762D01*
X364249110Y-117534700D01*
X364253087Y-117467659D01*
X364201720Y-117383689D01*
X364195779Y-117375544D01*
X364156120Y-117334187D01*
X364097337Y-117308357D01*
X364000060Y-117295452D01*
X363844923Y-117292873D01*
X363617411Y-117297875D01*
X363106736Y-117312783D01*
X363106736Y-117194352D01*
X363071997Y-117060554D01*
X362985220Y-116986348D01*
X362872562Y-116974959D01*
X362760183Y-117029614D01*
X362679244Y-117141637D01*
X362613233Y-117291452D01*
X362047647Y-117317511D01*
X361746090Y-117337032D01*
X361521056Y-117368007D01*
X361352798Y-117416928D01*
X361221571Y-117490287D01*
X361107631Y-117594578D01*
X361068173Y-117639600D01*
X360948311Y-117825004D01*
X360905200Y-117997059D01*
X360941426Y-118140618D01*
G37*
X360941426Y-118140618D02*
X360975320Y-118183344D01*
X361093318Y-118251089D01*
X361212113Y-118225322D01*
X361325001Y-118108634D01*
X361370261Y-118030751D01*
X361433526Y-117925835D01*
X361509278Y-117856144D01*
X361617576Y-117814628D01*
X361778479Y-117794236D01*
X362012045Y-117787920D01*
X362061692Y-117787736D01*
X362249677Y-117788926D01*
X362359320Y-117796769D01*
X362408665Y-117816450D01*
X362415753Y-117853155D01*
X362406778Y-117886927D01*
X362414360Y-118001180D01*
X362485242Y-118107552D01*
X362590941Y-118168708D01*
X362624763Y-118172657D01*
X362720410Y-118136308D01*
X362813476Y-118052489D01*
X362864185Y-117959044D01*
X362865749Y-117943367D01*
X362896844Y-117869520D01*
X362941488Y-117814619D01*
X362996709Y-117779947D01*
X363091078Y-117757200D01*
X363241625Y-117744310D01*
X363465379Y-117739208D01*
X363565320Y-117738881D01*
X363803977Y-117737611D01*
X363965149Y-117731638D01*
X364067734Y-117717712D01*
X364130632Y-117692583D01*
X364172741Y-117653004D01*
X364188443Y-117631762D01*
X364249110Y-117534700D01*
X364253087Y-117467659D01*
X364201720Y-117383689D01*
X364195779Y-117375544D01*
X364156120Y-117334187D01*
X364097337Y-117308357D01*
X364000060Y-117295452D01*
X363844923Y-117292873D01*
X363617411Y-117297875D01*
X363106736Y-117312783D01*
X363106736Y-117194352D01*
X363071997Y-117060554D01*
X362985220Y-116986348D01*
X362872562Y-116974959D01*
X362760183Y-117029614D01*
X362679244Y-117141637D01*
X362613233Y-117291452D01*
X362047647Y-117317511D01*
X361746090Y-117337032D01*
X361521056Y-117368007D01*
X361352798Y-117416928D01*
X361221571Y-117490287D01*
X361107631Y-117594578D01*
X361068173Y-117639600D01*
X360948311Y-117825004D01*
X360905200Y-117997059D01*
X360941426Y-118140618D01*
G36*
X360285233Y-120094080D02*
G01*
X360344763Y-120167892D01*
X360454046Y-120195922D01*
X360488509Y-120196945D01*
X360575511Y-120174769D01*
X360652878Y-120099698D01*
X360729024Y-119958919D01*
X360812365Y-119739617D01*
X360836704Y-119666774D01*
X360905939Y-119460106D01*
X360965529Y-119327070D01*
X361038212Y-119250508D01*
X361146727Y-119213261D01*
X361313813Y-119198172D01*
X361465786Y-119192072D01*
X361900899Y-119175244D01*
X361829054Y-119378871D01*
X361767908Y-119613877D01*
X361774451Y-119780366D01*
X361848667Y-119878283D01*
X361977836Y-119907761D01*
X362063665Y-119893510D01*
X362130265Y-119839056D01*
X362190630Y-119726846D01*
X362257756Y-119539327D01*
X362263283Y-119522182D01*
X362318000Y-119366335D01*
X362369315Y-119244269D01*
X362396055Y-119196850D01*
X362457389Y-119168132D01*
X362593116Y-119149047D01*
X362811097Y-119138856D01*
X363036899Y-119136604D01*
X363300303Y-119134167D01*
X363483842Y-119125615D01*
X363603950Y-119109087D01*
X363677065Y-119082723D01*
X363705760Y-119060865D01*
X363774070Y-118939343D01*
X363759491Y-118815179D01*
X363707117Y-118749294D01*
X363637192Y-118731027D01*
X363486710Y-118716671D01*
X363271425Y-118706158D01*
X363007092Y-118699422D01*
X362709466Y-118696393D01*
X362394301Y-118697005D01*
X362077353Y-118701189D01*
X361774377Y-118708877D01*
X361501126Y-118720003D01*
X361273357Y-118734498D01*
X361106824Y-118752294D01*
X361059179Y-118760683D01*
X360845763Y-118833222D01*
X360676302Y-118957559D01*
X360538396Y-119147387D01*
X360419645Y-119416400D01*
X360391292Y-119498248D01*
X360309885Y-119769227D01*
X360274070Y-119964514D01*
X360285233Y-120094080D01*
G37*
X360285233Y-120094080D02*
X360344763Y-120167892D01*
X360454046Y-120195922D01*
X360488509Y-120196945D01*
X360575511Y-120174769D01*
X360652878Y-120099698D01*
X360729024Y-119958919D01*
X360812365Y-119739617D01*
X360836704Y-119666774D01*
X360905939Y-119460106D01*
X360965529Y-119327070D01*
X361038212Y-119250508D01*
X361146727Y-119213261D01*
X361313813Y-119198172D01*
X361465786Y-119192072D01*
X361900899Y-119175244D01*
X361829054Y-119378871D01*
X361767908Y-119613877D01*
X361774451Y-119780366D01*
X361848667Y-119878283D01*
X361977836Y-119907761D01*
X362063665Y-119893510D01*
X362130265Y-119839056D01*
X362190630Y-119726846D01*
X362257756Y-119539327D01*
X362263283Y-119522182D01*
X362318000Y-119366335D01*
X362369315Y-119244269D01*
X362396055Y-119196850D01*
X362457389Y-119168132D01*
X362593116Y-119149047D01*
X362811097Y-119138856D01*
X363036899Y-119136604D01*
X363300303Y-119134167D01*
X363483842Y-119125615D01*
X363603950Y-119109087D01*
X363677065Y-119082723D01*
X363705760Y-119060865D01*
X363774070Y-118939343D01*
X363759491Y-118815179D01*
X363707117Y-118749294D01*
X363637192Y-118731027D01*
X363486710Y-118716671D01*
X363271425Y-118706158D01*
X363007092Y-118699422D01*
X362709466Y-118696393D01*
X362394301Y-118697005D01*
X362077353Y-118701189D01*
X361774377Y-118708877D01*
X361501126Y-118720003D01*
X361273357Y-118734498D01*
X361106824Y-118752294D01*
X361059179Y-118760683D01*
X360845763Y-118833222D01*
X360676302Y-118957559D01*
X360538396Y-119147387D01*
X360419645Y-119416400D01*
X360391292Y-119498248D01*
X360309885Y-119769227D01*
X360274070Y-119964514D01*
X360285233Y-120094080D01*
D12*
X405050000Y-88630000D02*
X406450000Y-88630000D01*
X407150000Y-87930000D02*
X407150000Y-87330000D01*
X406450000Y-86630000D02*
X405050000Y-86630000D01*
X404350000Y-87330000D02*
X404350000Y-87930000D01*
X404350000Y-87930000D02*
G75*
G03X405050000Y-88630000I700000J0D01*
G01*
X405050000Y-86630000D02*
G75*
G03X404350000Y-87330000I0J-700000D01*
G01*
X407150000Y-87330000D02*
G75*
G03X406450000Y-86630000I-700000J0D01*
G01*
X406450000Y-88630000D02*
G75*
G03X407150000Y-87930000I0J700000D01*
G01*
X335965000Y-44720000D02*
X334565000Y-44720000D01*
X333865000Y-45420000D02*
X333865000Y-46020000D01*
X334565000Y-46720000D02*
X335965000Y-46720000D01*
X336665000Y-46020000D02*
X336665000Y-45420000D01*
X336665000Y-45420000D02*
G75*
G03X335965000Y-44720000I-700000J0D01*
G01*
X335965000Y-46720000D02*
G75*
G03X336665000Y-46020000I0J700000D01*
G01*
X333865000Y-46020000D02*
G75*
G03X334565000Y-46720000I700000J0D01*
G01*
X334565000Y-44720000D02*
G75*
G03X333865000Y-45420000I0J-700000D01*
G01*
X371110000Y-67230000D02*
X371110000Y-68630000D01*
X371810000Y-69330000D02*
X372410000Y-69330000D01*
X373110000Y-68630000D02*
X373110000Y-67230000D01*
X372410000Y-66530000D02*
X371810000Y-66530000D01*
X371810000Y-66530000D02*
G75*
G03X371110000Y-67230000I0J-700000D01*
G01*
X373110000Y-67230000D02*
G75*
G03X372410000Y-66530000I-700000J0D01*
G01*
X372410000Y-69330000D02*
G75*
G03X373110000Y-68630000I0J700000D01*
G01*
X371110000Y-68630000D02*
G75*
G03X371810000Y-69330000I700000J0D01*
G01*
D13*
X406583333Y-88882380D02*
X406583333Y-89596666D01*
X406630952Y-89739523D01*
X406726190Y-89834761D01*
X406869047Y-89882380D01*
X406964285Y-89882380D01*
X406107142Y-89882380D02*
X406107142Y-88882380D01*
X405726190Y-88882380D01*
X405630952Y-88930000D01*
X405583333Y-88977619D01*
X405535714Y-89072857D01*
X405535714Y-89215714D01*
X405583333Y-89310952D01*
X405630952Y-89358571D01*
X405726190Y-89406190D01*
X406107142Y-89406190D01*
X404678571Y-88882380D02*
X404869047Y-88882380D01*
X404964285Y-88930000D01*
X405011904Y-88977619D01*
X405107142Y-89120476D01*
X405154761Y-89310952D01*
X405154761Y-89691904D01*
X405107142Y-89787142D01*
X405059523Y-89834761D01*
X404964285Y-89882380D01*
X404773809Y-89882380D01*
X404678571Y-89834761D01*
X404630952Y-89787142D01*
X404583333Y-89691904D01*
X404583333Y-89453809D01*
X404630952Y-89358571D01*
X404678571Y-89310952D01*
X404773809Y-89263333D01*
X404964285Y-89263333D01*
X405059523Y-89310952D01*
X405107142Y-89358571D01*
X405154761Y-89453809D01*
X332938333Y-45172380D02*
X332938333Y-45886666D01*
X332985952Y-46029523D01*
X333081190Y-46124761D01*
X333224047Y-46172380D01*
X333319285Y-46172380D01*
X332462142Y-46172380D02*
X332462142Y-45172380D01*
X332081190Y-45172380D01*
X331985952Y-45220000D01*
X331938333Y-45267619D01*
X331890714Y-45362857D01*
X331890714Y-45505714D01*
X331938333Y-45600952D01*
X331985952Y-45648571D01*
X332081190Y-45696190D01*
X332462142Y-45696190D01*
X331509761Y-45267619D02*
X331462142Y-45220000D01*
X331366904Y-45172380D01*
X331128809Y-45172380D01*
X331033571Y-45220000D01*
X330985952Y-45267619D01*
X330938333Y-45362857D01*
X330938333Y-45458095D01*
X330985952Y-45600952D01*
X331557380Y-46172380D01*
X330938333Y-46172380D01*
X371562380Y-63936666D02*
X372276666Y-63936666D01*
X372419523Y-63889047D01*
X372514761Y-63793809D01*
X372562380Y-63650952D01*
X372562380Y-63555714D01*
X372562380Y-64412857D02*
X371562380Y-64412857D01*
X371562380Y-64793809D01*
X371610000Y-64889047D01*
X371657619Y-64936666D01*
X371752857Y-64984285D01*
X371895714Y-64984285D01*
X371990952Y-64936666D01*
X372038571Y-64889047D01*
X372086190Y-64793809D01*
X372086190Y-64412857D01*
X372562380Y-65936666D02*
X372562380Y-65365238D01*
X372562380Y-65650952D02*
X371562380Y-65650952D01*
X371705238Y-65555714D01*
X371800476Y-65460476D01*
X371848095Y-65365238D01*
M02*
