M48
INCH,TZ
T1C0.0157
T2C0.0197
T3C0.0315
T4C0.0354
T5C0.0394
T6C0.0433
T7C0.0472
T8C0.0591
T9C0.0606
T10C0.0669
T11C0.1260
T12C0.1378
%
G90
G05
T1
X119500Y-10000
X119500Y-10500
X119500Y-27500
X120000Y-10000
X120000Y-10500
X120000Y-27500
X122000Y-19750
X122000Y-20250
X122500Y-19750
X122500Y-20250
X125500Y-10000
X125500Y-10500
X126000Y-10000
X126000Y-10500
X126000Y-29750
X126000Y-30250
X126500Y-29750
X126500Y-30250
X129250Y-19750
X129250Y-20250
X129250Y-20750
X129250Y-27500
X129250Y-28000
X129250Y-28500
X129750Y-19750
X129750Y-20250
X129750Y-20750
X129750Y-27500
X129750Y-28000
X129750Y-28500
X131750Y-13000
X131750Y-13500
X132250Y-13000
X132250Y-13500
X137000Y-43750
X137500Y-26750
X137500Y-43750
X137750Y-46000
X137750Y-46500
X137750Y-48000
X137750Y-48500
X138000Y-12500
X138000Y-13000
X138000Y-26750
X138250Y-21000
X138500Y-12500
X138500Y-13000
X138500Y-26750
X138625Y-20625
X139000Y-20250
X140000Y-21000
X140000Y-22750
X140250Y-43000
X140375Y-20625
X140500Y-22250
X140500Y-47750
X140500Y-48250
X140750Y-20250
X140750Y-43000
X141000Y-47750
X141000Y-48250
X142000Y-14500
X142000Y-15000
X142000Y-15500
X142250Y-43000
X142750Y-21750
X142750Y-43000
X143250Y-21250
X143750Y-47750
X143750Y-48250
X144000Y-25750
X144250Y-47750
X144250Y-48250
X144500Y-25750
X145000Y-25750
X151500Y-20750
X151500Y-21250
X151500Y-23250
X151500Y-23750
X152000Y-20750
X152000Y-21250
X152000Y-23250
X152000Y-23750
X152000Y-47000
X152000Y-47500
X152000Y-48000
X152500Y-20750
X152500Y-21250
X152500Y-23250
X152500Y-23750
X156000Y-42500
X156500Y-42500
X157000Y-42500
X158250Y-22000
X158250Y-22500
X158250Y-24750
X158250Y-25250
X158750Y-22000
X158750Y-22500
X158750Y-24750
X158750Y-25250
X161450Y-41800
X161500Y-42500
X161950Y-41800
X162000Y-42500
X162450Y-41800
X162450Y-41800
X162500Y-21500
X162500Y-22000
X162500Y-22500
X162500Y-42500
X162750Y-9750
X162750Y-10250
X162750Y-10750
X163000Y-21500
X163000Y-22000
X163000Y-22500
X163250Y-9750
X163250Y-10250
X163250Y-10750
T2
X142114Y-10500
X142374Y-9874
X142374Y-11126
X143000Y-9614
X143000Y-11386
X143626Y-9874
X143626Y-11126
X143886Y-10500
X119074Y-30680
X119334Y-30054
X119334Y-31306
X119960Y-29794
X119960Y-31566
X120586Y-30054
X120586Y-31306
X120846Y-30680
T3
X139000Y-35250
X139000Y-36234
X139000Y-39766
X139000Y-40750
T4
X150250Y-23750
X150250Y-27293
X139000Y-41957
X139000Y-45500
X143492Y-12758
X143500Y-28900
X144492Y-12758
X144500Y-28900
X145492Y-12758
X145500Y-28900
X146492Y-12758
X146500Y-28900
X147500Y-35750
X147500Y-38750
X148500Y-35750
X148500Y-38750
X128457Y-48250
X132000Y-48250
X149600Y-38750
X153143Y-38750
X152000Y-29957
X152000Y-33500
X148750Y-23750
X148750Y-27293
X149950Y-44500
X150450Y-43500
X150950Y-44500
X151450Y-43500
X151950Y-44500
X152450Y-43500
X152950Y-44500
X153450Y-43500
X157250Y-44500
X157750Y-43500
X158250Y-44500
X158750Y-43500
X159250Y-44500
X159750Y-43500
X160250Y-44500
X160750Y-43500
X119250Y-35500
X119250Y-39043
X137250Y-18250
X140793Y-18250
X128457Y-46250
X132000Y-46250
X137750Y-38457
X137750Y-42000
X147750Y-30750
X147750Y-34293
X149750Y-34750
X149750Y-35750
X152750Y-34750
X152750Y-35750
X133750Y-27500
X137293Y-27500
X155750Y-11500
X155750Y-12500
X155750Y-13500
X155750Y-14500
X155750Y-15500
X155750Y-16500
X155750Y-17500
X155750Y-18500
X155750Y-19500
X155750Y-20500
X158750Y-11500
X158750Y-12500
X158750Y-13500
X158750Y-14500
X158750Y-15500
X158750Y-16500
X158750Y-17500
X158750Y-18500
X158750Y-19500
X158750Y-20500
X154000Y-31000
X154000Y-34543
X149600Y-40250
X153143Y-40250
X137250Y-15750
X140793Y-15750
X149600Y-37250
X153143Y-37250
X137750Y-33957
X137750Y-37500
X158250Y-32750
X158250Y-33750
X161250Y-32750
X161250Y-33750
X156500Y-31000
X156500Y-34543
T5
X123250Y-12250
X125219Y-12250
X149750Y-30000
X150750Y-30000
X160000Y-10250
X161000Y-10250
X160250Y-12500
X160250Y-13500
X160250Y-14500
X160250Y-15500
X160250Y-16500
X160250Y-17500
X160250Y-18500
X160250Y-19500
X160250Y-20500
X134000Y-32750
X134000Y-33750
X134000Y-34750
X134000Y-35750
X134000Y-36750
X134000Y-37750
X134000Y-38750
X134000Y-39750
X134000Y-40750
X134000Y-41750
X134000Y-42750
X134000Y-43750
X133750Y-17000
X133750Y-18000
X133750Y-19000
X133750Y-20000
X133750Y-21000
X133750Y-22000
X133750Y-23000
X133750Y-24000
X133750Y-25000
X154750Y-10250
X155750Y-10250
T6
X120750Y-35250
X120750Y-39250
X128000Y-10250
X137800Y-10250
X154200Y-37720
X154200Y-38720
X154200Y-39720
X136000Y-30750
X136000Y-31750
X136000Y-32750
X136000Y-33750
X136000Y-34750
X136000Y-35750
X136000Y-36750
X136000Y-37750
X136000Y-38750
X136000Y-39750
X136000Y-40750
X136000Y-41750
X136000Y-42750
X136000Y-43750
X136000Y-44750
X136000Y-45750
X136000Y-46750
X136000Y-47750
X136000Y-48750
X146000Y-30750
X146000Y-31750
X146000Y-32750
X146000Y-33750
X146000Y-34750
X146000Y-35750
X146000Y-36750
X146000Y-37750
X146000Y-38750
X146000Y-39750
X146000Y-40750
X146000Y-41750
X146000Y-42750
X146000Y-43750
X146000Y-44750
X146000Y-45750
X146000Y-46750
X146000Y-47750
X146000Y-48750
T7
X123200Y-16300
X123200Y-38500
X125200Y-16300
X125200Y-38500
T8
X157813Y-28516
X157813Y-30484
X161750Y-29500
T9
X155750Y-23250
X155750Y-25250
X120000Y-41250
X122000Y-41250
X124000Y-41250
X126000Y-41250
T10
X148650Y-48200
X154750Y-48200
X155950Y-48200
X162050Y-48200
T11
X143000Y-10500
X119960Y-30680
X160800Y-38720
T12
X130200Y-34700
X130200Y-37100
X131500Y-35900
X134600Y-13850
X153250Y-27900
T0
M30
