G04 #@! TF.GenerationSoftware,KiCad,Pcbnew,5.1.5+dfsg1-2build2*
G04 #@! TF.CreationDate,2023-03-02T23:39:50+01:00*
G04 #@! TF.ProjectId,RSensHub,5253656e-7348-4756-922e-6b696361645f,rev?*
G04 #@! TF.SameCoordinates,Original*
G04 #@! TF.FileFunction,Copper,L1,Top*
G04 #@! TF.FilePolarity,Positive*
%FSLAX46Y46*%
G04 Gerber Fmt 4.6, Leading zero omitted, Abs format (unit mm)*
G04 Created by KiCad (PCBNEW 5.1.5+dfsg1-2build2) date 2023-03-02 23:39:50*
%MOMM*%
%LPD*%
G04 APERTURE LIST*
%ADD10C,0.800000*%
%ADD11C,6.500000*%
%ADD12O,4.500000X3.000000*%
%ADD13O,4.000000X2.200000*%
%ADD14O,1.800000X3.000000*%
%ADD15O,2.500000X1.800000*%
%ADD16C,4.000000*%
%ADD17O,2.500000X3.500000*%
%ADD18O,1.800000X2.500000*%
%ADD19O,2.800000X1.800000*%
%ADD20O,1.800000X2.800000*%
%ADD21O,2.200000X3.500000*%
%ADD22C,5.000000*%
%ADD23O,3.000000X1.800000*%
%ADD24C,0.150000*%
%ADD25O,5.000000X5.000000*%
%ADD26O,2.500000X1.700000*%
%ADD27O,2.200000X3.200000*%
%ADD28O,1.700000X2.500000*%
%ADD29O,3.000000X4.500000*%
%ADD30O,1.800000X2.300000*%
%ADD31C,2.000000*%
%ADD32R,2.000000X2.000000*%
%ADD33O,3.000000X3.000000*%
%ADD34C,2.500000*%
%ADD35C,2.000000*%
%ADD36C,1.000000*%
%ADD37C,1.500000*%
%ADD38C,0.800000*%
%ADD39C,0.900000*%
G04 APERTURE END LIST*
D10*
X306948400Y-77927200D03*
X303107410Y-79518190D03*
X306289390Y-76336210D03*
X304698400Y-75677200D03*
X304698400Y-80177200D03*
X306289390Y-79518190D03*
X303107410Y-76336210D03*
X302448400Y-77927200D03*
D11*
X304698400Y-77927200D03*
D10*
X363220000Y-24420000D03*
X364810990Y-28260990D03*
X361629010Y-25079010D03*
X360970000Y-26670000D03*
X365470000Y-26670000D03*
X364810990Y-25079010D03*
X361629010Y-28260990D03*
X363220000Y-28920000D03*
D11*
X363220000Y-26670000D03*
D12*
X396355000Y-59055000D03*
X396355000Y-64135000D03*
D13*
X392165000Y-122428000D03*
X378471000Y-122428000D03*
D14*
X389763000Y-110490000D03*
X388493000Y-113780000D03*
X387223000Y-110490000D03*
X385953000Y-113780000D03*
X384683000Y-110490000D03*
X383413000Y-113780000D03*
X382143000Y-110490000D03*
X380873000Y-113780000D03*
D15*
X380484000Y-98425000D03*
X388484000Y-98425000D03*
X326780000Y-122555000D03*
X334780000Y-122555000D03*
D16*
X334010000Y-91186000D03*
X330708000Y-88138000D03*
X330708000Y-94234000D03*
D17*
X318008000Y-41402000D03*
X312928000Y-41402000D03*
X318008000Y-97790000D03*
X312928000Y-97790000D03*
D18*
X375285000Y-78605000D03*
X375285000Y-86605000D03*
D19*
X402455000Y-85725000D03*
X409075000Y-83185000D03*
X402455000Y-83185000D03*
X409075000Y-85725000D03*
X387485000Y-88265000D03*
X380865000Y-90805000D03*
X387485000Y-90805000D03*
X380865000Y-88265000D03*
D20*
X377190000Y-97925000D03*
X374650000Y-91305000D03*
X374650000Y-97925000D03*
X377190000Y-91305000D03*
D21*
X400845000Y-77430000D03*
X410845000Y-74930000D03*
X400845000Y-72430000D03*
D18*
X391160000Y-79240000D03*
X391160000Y-87240000D03*
X397510000Y-79240000D03*
X397510000Y-87240000D03*
D15*
X388484000Y-94615000D03*
X380484000Y-94615000D03*
X380484000Y-102235000D03*
X388484000Y-102235000D03*
D18*
X386080000Y-76590000D03*
X386080000Y-84590000D03*
D22*
X408432000Y-98348800D03*
D23*
X392168000Y-100888800D03*
X392168000Y-98348800D03*
X392168000Y-95808800D03*
G04 #@! TA.AperFunction,SMDPad,CuDef*
D24*
G36*
X411604738Y-92759485D02*
G01*
X411618542Y-92761532D01*
X411632078Y-92764923D01*
X411645218Y-92769624D01*
X411657833Y-92775591D01*
X411669802Y-92782765D01*
X411681011Y-92791078D01*
X411691351Y-92800449D01*
X411700722Y-92810789D01*
X411709035Y-92821998D01*
X411716209Y-92833967D01*
X411722176Y-92846582D01*
X411726877Y-92859722D01*
X411730268Y-92873258D01*
X411732315Y-92887062D01*
X411733000Y-92901000D01*
X411733000Y-103796600D01*
X411732315Y-103810538D01*
X411730268Y-103824342D01*
X411726877Y-103837878D01*
X411722176Y-103851018D01*
X411716209Y-103863633D01*
X411709035Y-103875602D01*
X411700722Y-103886811D01*
X411691351Y-103897151D01*
X411681011Y-103906522D01*
X411669802Y-103914835D01*
X411657833Y-103922009D01*
X411645218Y-103927976D01*
X411632078Y-103932677D01*
X411618542Y-103936068D01*
X411604738Y-103938115D01*
X411590800Y-103938800D01*
X404765200Y-103938800D01*
X404751262Y-103938115D01*
X404737458Y-103936068D01*
X404723922Y-103932677D01*
X404710782Y-103927976D01*
X404698167Y-103922009D01*
X404686198Y-103914835D01*
X404674989Y-103906522D01*
X404664649Y-103897151D01*
X404655278Y-103886811D01*
X404646965Y-103875602D01*
X404639791Y-103863633D01*
X404633824Y-103851018D01*
X404629123Y-103837878D01*
X404625732Y-103824342D01*
X404623685Y-103810538D01*
X404623000Y-103796600D01*
X404623000Y-92901000D01*
X404623685Y-92887062D01*
X404625732Y-92873258D01*
X404629123Y-92859722D01*
X404633824Y-92846582D01*
X404639791Y-92833967D01*
X404646965Y-92821998D01*
X404655278Y-92810789D01*
X404664649Y-92800449D01*
X404674989Y-92791078D01*
X404686198Y-92782765D01*
X404698167Y-92775591D01*
X404710782Y-92769624D01*
X404723922Y-92764923D01*
X404737458Y-92761532D01*
X404751262Y-92759485D01*
X404765200Y-92758800D01*
X411590800Y-92758800D01*
X411604738Y-92759485D01*
G37*
G04 #@! TD.AperFunction*
D25*
X389255000Y-70866000D03*
X341884000Y-35179000D03*
D23*
X340225000Y-63500000D03*
X340225000Y-60960000D03*
X340225000Y-58420000D03*
X340225000Y-55880000D03*
X340225000Y-53340000D03*
X340225000Y-50800000D03*
X340225000Y-48260000D03*
X340225000Y-45720000D03*
X340225000Y-43180000D03*
D18*
X349885000Y-94750000D03*
X349885000Y-86750000D03*
X349885000Y-106180000D03*
X349885000Y-98180000D03*
X367030000Y-73406000D03*
X369570000Y-73406000D03*
X364490000Y-73406000D03*
X372110000Y-73406000D03*
X364470000Y-32406000D03*
X367010000Y-32406000D03*
X369550000Y-32406000D03*
X372090000Y-32406000D03*
D23*
X370840000Y-90805000D03*
X370840000Y-108585000D03*
X370840000Y-88265000D03*
X370840000Y-83185000D03*
X370840000Y-85725000D03*
X370840000Y-113665000D03*
X370840000Y-118745000D03*
X370840000Y-111125000D03*
G04 #@! TA.AperFunction,ComponentPad*
D24*
G36*
X371934108Y-77207167D02*
G01*
X371977791Y-77213647D01*
X372020628Y-77224377D01*
X372062208Y-77239254D01*
X372102129Y-77258135D01*
X372140007Y-77280839D01*
X372175477Y-77307145D01*
X372208198Y-77336802D01*
X372237855Y-77369523D01*
X372264161Y-77404993D01*
X372286865Y-77442871D01*
X372305746Y-77482792D01*
X372320623Y-77524372D01*
X372331353Y-77567209D01*
X372337833Y-77610892D01*
X372340000Y-77655000D01*
X372340000Y-78555000D01*
X372337833Y-78599108D01*
X372331353Y-78642791D01*
X372320623Y-78685628D01*
X372305746Y-78727208D01*
X372286865Y-78767129D01*
X372264161Y-78805007D01*
X372237855Y-78840477D01*
X372208198Y-78873198D01*
X372175477Y-78902855D01*
X372140007Y-78929161D01*
X372102129Y-78951865D01*
X372062208Y-78970746D01*
X372020628Y-78985623D01*
X371977791Y-78996353D01*
X371934108Y-79002833D01*
X371890000Y-79005000D01*
X369790000Y-79005000D01*
X369745892Y-79002833D01*
X369702209Y-78996353D01*
X369659372Y-78985623D01*
X369617792Y-78970746D01*
X369577871Y-78951865D01*
X369539993Y-78929161D01*
X369504523Y-78902855D01*
X369471802Y-78873198D01*
X369442145Y-78840477D01*
X369415839Y-78805007D01*
X369393135Y-78767129D01*
X369374254Y-78727208D01*
X369359377Y-78685628D01*
X369348647Y-78642791D01*
X369342167Y-78599108D01*
X369340000Y-78555000D01*
X369340000Y-77655000D01*
X369342167Y-77610892D01*
X369348647Y-77567209D01*
X369359377Y-77524372D01*
X369374254Y-77482792D01*
X369393135Y-77442871D01*
X369415839Y-77404993D01*
X369442145Y-77369523D01*
X369471802Y-77336802D01*
X369504523Y-77307145D01*
X369539993Y-77280839D01*
X369577871Y-77258135D01*
X369617792Y-77239254D01*
X369659372Y-77224377D01*
X369702209Y-77213647D01*
X369745892Y-77207167D01*
X369790000Y-77205000D01*
X371890000Y-77205000D01*
X371934108Y-77207167D01*
G37*
G04 #@! TD.AperFunction*
D23*
X370840000Y-123825000D03*
X370840000Y-121285000D03*
X370840000Y-100965000D03*
X370840000Y-95885000D03*
X370840000Y-98425000D03*
X370840000Y-106045000D03*
X370840000Y-116205000D03*
X370840000Y-103505000D03*
G04 #@! TA.AperFunction,ComponentPad*
D24*
G36*
X371934108Y-92447167D02*
G01*
X371977791Y-92453647D01*
X372020628Y-92464377D01*
X372062208Y-92479254D01*
X372102129Y-92498135D01*
X372140007Y-92520839D01*
X372175477Y-92547145D01*
X372208198Y-92576802D01*
X372237855Y-92609523D01*
X372264161Y-92644993D01*
X372286865Y-92682871D01*
X372305746Y-92722792D01*
X372320623Y-92764372D01*
X372331353Y-92807209D01*
X372337833Y-92850892D01*
X372340000Y-92895000D01*
X372340000Y-93795000D01*
X372337833Y-93839108D01*
X372331353Y-93882791D01*
X372320623Y-93925628D01*
X372305746Y-93967208D01*
X372286865Y-94007129D01*
X372264161Y-94045007D01*
X372237855Y-94080477D01*
X372208198Y-94113198D01*
X372175477Y-94142855D01*
X372140007Y-94169161D01*
X372102129Y-94191865D01*
X372062208Y-94210746D01*
X372020628Y-94225623D01*
X371977791Y-94236353D01*
X371934108Y-94242833D01*
X371890000Y-94245000D01*
X369790000Y-94245000D01*
X369745892Y-94242833D01*
X369702209Y-94236353D01*
X369659372Y-94225623D01*
X369617792Y-94210746D01*
X369577871Y-94191865D01*
X369539993Y-94169161D01*
X369504523Y-94142855D01*
X369471802Y-94113198D01*
X369442145Y-94080477D01*
X369415839Y-94045007D01*
X369393135Y-94007129D01*
X369374254Y-93967208D01*
X369359377Y-93925628D01*
X369348647Y-93882791D01*
X369342167Y-93839108D01*
X369340000Y-93795000D01*
X369340000Y-92895000D01*
X369342167Y-92850892D01*
X369348647Y-92807209D01*
X369359377Y-92764372D01*
X369374254Y-92722792D01*
X369393135Y-92682871D01*
X369415839Y-92644993D01*
X369442145Y-92609523D01*
X369471802Y-92576802D01*
X369504523Y-92547145D01*
X369539993Y-92520839D01*
X369577871Y-92498135D01*
X369617792Y-92479254D01*
X369659372Y-92464377D01*
X369702209Y-92453647D01*
X369745892Y-92447167D01*
X369790000Y-92445000D01*
X371890000Y-92445000D01*
X371934108Y-92447167D01*
G37*
G04 #@! TD.AperFunction*
D23*
X370840000Y-80645000D03*
X345440000Y-90805000D03*
X345440000Y-80645000D03*
X345440000Y-93345000D03*
X345440000Y-95885000D03*
X345440000Y-98425000D03*
X345440000Y-78105000D03*
X345440000Y-83185000D03*
X345440000Y-85725000D03*
X345440000Y-88265000D03*
X345440000Y-121285000D03*
X345440000Y-123825000D03*
X345440000Y-116205000D03*
X345440000Y-118745000D03*
G04 #@! TA.AperFunction,ComponentPad*
D24*
G36*
X346534108Y-110227167D02*
G01*
X346577791Y-110233647D01*
X346620628Y-110244377D01*
X346662208Y-110259254D01*
X346702129Y-110278135D01*
X346740007Y-110300839D01*
X346775477Y-110327145D01*
X346808198Y-110356802D01*
X346837855Y-110389523D01*
X346864161Y-110424993D01*
X346886865Y-110462871D01*
X346905746Y-110502792D01*
X346920623Y-110544372D01*
X346931353Y-110587209D01*
X346937833Y-110630892D01*
X346940000Y-110675000D01*
X346940000Y-111575000D01*
X346937833Y-111619108D01*
X346931353Y-111662791D01*
X346920623Y-111705628D01*
X346905746Y-111747208D01*
X346886865Y-111787129D01*
X346864161Y-111825007D01*
X346837855Y-111860477D01*
X346808198Y-111893198D01*
X346775477Y-111922855D01*
X346740007Y-111949161D01*
X346702129Y-111971865D01*
X346662208Y-111990746D01*
X346620628Y-112005623D01*
X346577791Y-112016353D01*
X346534108Y-112022833D01*
X346490000Y-112025000D01*
X344390000Y-112025000D01*
X344345892Y-112022833D01*
X344302209Y-112016353D01*
X344259372Y-112005623D01*
X344217792Y-111990746D01*
X344177871Y-111971865D01*
X344139993Y-111949161D01*
X344104523Y-111922855D01*
X344071802Y-111893198D01*
X344042145Y-111860477D01*
X344015839Y-111825007D01*
X343993135Y-111787129D01*
X343974254Y-111747208D01*
X343959377Y-111705628D01*
X343948647Y-111662791D01*
X343942167Y-111619108D01*
X343940000Y-111575000D01*
X343940000Y-110675000D01*
X343942167Y-110630892D01*
X343948647Y-110587209D01*
X343959377Y-110544372D01*
X343974254Y-110502792D01*
X343993135Y-110462871D01*
X344015839Y-110424993D01*
X344042145Y-110389523D01*
X344071802Y-110356802D01*
X344104523Y-110327145D01*
X344139993Y-110300839D01*
X344177871Y-110278135D01*
X344217792Y-110259254D01*
X344259372Y-110244377D01*
X344302209Y-110233647D01*
X344345892Y-110227167D01*
X344390000Y-110225000D01*
X346490000Y-110225000D01*
X346534108Y-110227167D01*
G37*
G04 #@! TD.AperFunction*
D23*
X345440000Y-113665000D03*
X345440000Y-100965000D03*
X345440000Y-103505000D03*
X345440000Y-106045000D03*
X345440000Y-108585000D03*
D26*
X340360000Y-111125000D03*
X340360000Y-108585000D03*
X340360000Y-106045000D03*
X340360000Y-103505000D03*
X340360000Y-100965000D03*
X340360000Y-98425000D03*
X340360000Y-95885000D03*
X340360000Y-93345000D03*
X340360000Y-90805000D03*
X340360000Y-88265000D03*
X340360000Y-85725000D03*
X340360000Y-83185000D03*
D27*
X306705000Y-90035000D03*
X306705000Y-99195000D03*
D19*
X402725000Y-52070000D03*
X402725000Y-49530000D03*
X402725000Y-46990000D03*
X402725000Y-44450000D03*
X402725000Y-41910000D03*
X402725000Y-39370000D03*
X402725000Y-36830000D03*
X402725000Y-34290000D03*
X402725000Y-31750000D03*
X402725000Y-29210000D03*
X396105000Y-52070000D03*
X396105000Y-49530000D03*
X396105000Y-46990000D03*
X396105000Y-44450000D03*
X396105000Y-41910000D03*
X396105000Y-39370000D03*
X396105000Y-36830000D03*
X396105000Y-34290000D03*
X396105000Y-31750000D03*
X396105000Y-29210000D03*
D26*
X407035000Y-52070000D03*
X407035000Y-49530000D03*
X407035000Y-46990000D03*
X407035000Y-44450000D03*
X407035000Y-41910000D03*
X407035000Y-39370000D03*
X407035000Y-36830000D03*
X407035000Y-34290000D03*
X407035000Y-31750000D03*
D15*
X349115000Y-40005000D03*
X357115000Y-40005000D03*
X340225000Y-69850000D03*
X348225000Y-69850000D03*
D18*
X381635000Y-60825000D03*
X381635000Y-68825000D03*
X377825000Y-60825000D03*
X377825000Y-68825000D03*
D15*
X357115000Y-46355000D03*
X349115000Y-46355000D03*
D18*
X353060000Y-107070000D03*
X353060000Y-115070000D03*
D15*
X334780000Y-117475000D03*
X326780000Y-117475000D03*
D18*
X302895000Y-90670000D03*
X302895000Y-98670000D03*
D28*
X382905000Y-76200000D03*
X380365000Y-76200000D03*
X393065000Y-26035000D03*
X395605000Y-26035000D03*
X408940000Y-26035000D03*
X406400000Y-26035000D03*
D29*
X320040000Y-105525000D03*
X314960000Y-105525000D03*
X309880000Y-105525000D03*
X304800000Y-105525000D03*
D13*
X410707000Y-122428000D03*
X397013000Y-122428000D03*
D14*
X408305000Y-110490000D03*
X407035000Y-113780000D03*
X405765000Y-110490000D03*
X404495000Y-113780000D03*
X403225000Y-110490000D03*
X401955000Y-113780000D03*
X400685000Y-110490000D03*
X399415000Y-113780000D03*
D30*
X353060000Y-103905000D03*
X353060000Y-100605000D03*
X353060000Y-89135000D03*
X353060000Y-92435000D03*
D31*
X318055000Y-31115000D03*
D32*
X313055000Y-31115000D03*
D33*
X325120000Y-26035000D03*
X350012000Y-26035000D03*
D10*
X329565000Y-50165000D03*
X329565000Y-51435000D03*
X328295000Y-51435000D03*
X328295000Y-50165000D03*
X329565000Y-72390000D03*
X328295000Y-72390000D03*
X328295000Y-71120000D03*
X329565000Y-71120000D03*
X329565000Y-52705000D03*
X329565000Y-69850000D03*
X321310000Y-76835000D03*
X321310000Y-75565000D03*
X320040000Y-75565000D03*
X320040000Y-76835000D03*
X303530000Y-69850000D03*
X304800000Y-69850000D03*
X328295000Y-52705000D03*
X328295000Y-69850000D03*
X309880000Y-50165000D03*
X311150000Y-50165000D03*
X311150000Y-51435000D03*
X309880000Y-51435000D03*
X303530000Y-25400000D03*
X304800000Y-25400000D03*
X303530000Y-26670000D03*
X304800000Y-26670000D03*
X320040000Y-25400000D03*
X320040000Y-26670000D03*
X318770000Y-26670000D03*
X318770000Y-25400000D03*
X335915000Y-34290000D03*
X335915000Y-33020000D03*
X334645000Y-33020000D03*
X334645000Y-34290000D03*
X350520000Y-31750000D03*
X351790000Y-31750000D03*
X350520000Y-33020000D03*
X351790000Y-33020000D03*
X384810000Y-60325000D03*
X386080000Y-60325000D03*
X386080000Y-59055000D03*
X384810000Y-59055000D03*
X387350000Y-59055000D03*
X387350000Y-60325000D03*
X387350000Y-52705000D03*
X387350000Y-53975000D03*
X386080000Y-53975000D03*
X386080000Y-52705000D03*
X384810000Y-52705000D03*
X384810000Y-53975000D03*
X401955000Y-64135000D03*
X401955000Y-62865000D03*
X403225000Y-62865000D03*
X403225000Y-64135000D03*
X414655000Y-24765000D03*
X413385000Y-24765000D03*
X413385000Y-26035000D03*
X414655000Y-26035000D03*
X414655000Y-27305000D03*
X413385000Y-27305000D03*
X401955000Y-55880000D03*
X403225000Y-55880000D03*
X403225000Y-57150000D03*
X401955000Y-57150000D03*
X414020000Y-55880000D03*
X412750000Y-55880000D03*
X412750000Y-57150000D03*
X414020000Y-57150000D03*
X412750000Y-54610000D03*
X414020000Y-54610000D03*
X356870000Y-122555000D03*
X356870000Y-121285000D03*
X358140000Y-121285000D03*
X358140000Y-122555000D03*
X366395000Y-122555000D03*
X366395000Y-121285000D03*
X365125000Y-121285000D03*
X365125000Y-122555000D03*
X361315000Y-109220000D03*
X362585000Y-109220000D03*
X356235000Y-109220000D03*
X357505000Y-109220000D03*
X349885000Y-123190000D03*
X349885000Y-121920000D03*
X349885000Y-118110000D03*
X349885000Y-116840000D03*
X347980000Y-111125000D03*
X349250000Y-111125000D03*
X398780000Y-107950000D03*
X397510000Y-107950000D03*
X396240000Y-107950000D03*
X411480000Y-107950000D03*
X412750000Y-107950000D03*
X410210000Y-107950000D03*
X411353000Y-106172000D03*
X412623000Y-106172000D03*
X412623000Y-106172000D03*
X410083000Y-106172000D03*
X386080000Y-119380000D03*
X386080000Y-120650000D03*
X386080000Y-121920000D03*
X349250000Y-67945000D03*
X350520000Y-67945000D03*
X351790000Y-67945000D03*
X357505000Y-51435000D03*
X356552500Y-52387500D03*
X355600000Y-53340000D03*
X356870000Y-56515000D03*
X355600000Y-57785000D03*
X360680000Y-36830000D03*
X360680000Y-38100000D03*
X360680000Y-39370000D03*
X363855000Y-53975000D03*
X362585000Y-55245000D03*
X353060000Y-51435000D03*
X352107500Y-52387500D03*
X351155000Y-53340000D03*
X368300000Y-65405000D03*
X367030000Y-65405000D03*
X365760000Y-65405000D03*
D34*
X318135000Y-97917000D02*
X318008000Y-97790000D01*
D35*
X340360000Y-111125000D02*
X345440000Y-111125000D01*
X318008000Y-47498000D02*
X318008000Y-41402000D01*
X318770000Y-48260000D02*
X318008000Y-47498000D01*
X336550000Y-54610000D02*
X337820000Y-53340000D01*
X337820000Y-72390000D02*
X336550000Y-71120000D01*
X343535000Y-72390000D02*
X337820000Y-72390000D01*
X339725000Y-53340000D02*
X337820000Y-53340000D01*
X337820000Y-53340000D02*
X336550000Y-52070000D01*
X336550000Y-52070000D02*
X336550000Y-49530000D01*
X336550000Y-49530000D02*
X337820000Y-48260000D01*
X339725000Y-48260000D02*
X337820000Y-48260000D01*
X336550000Y-49530000D02*
X335280000Y-48260000D01*
X335280000Y-48260000D02*
X318770000Y-48260000D01*
D36*
X349885000Y-109220000D02*
X347980000Y-111125000D01*
D35*
X367030000Y-79375000D02*
X368300000Y-78105000D01*
X367030000Y-92075000D02*
X367030000Y-79375000D01*
X368300000Y-93345000D02*
X367030000Y-92075000D01*
X370840000Y-93345000D02*
X368300000Y-93345000D01*
X368300000Y-78105000D02*
X370840000Y-78105000D01*
X368300000Y-93345000D02*
X367030000Y-94615000D01*
X365125000Y-111125000D02*
X365442500Y-110807500D01*
X345440000Y-111125000D02*
X349250000Y-111125000D01*
X367030000Y-94615000D02*
X367030000Y-109220000D01*
D36*
X349885000Y-109220000D02*
X349885000Y-106680000D01*
D35*
X336550000Y-71120000D02*
X336550000Y-54610000D01*
D36*
X344170000Y-70485000D02*
X344170000Y-72390000D01*
X343535000Y-69850000D02*
X344170000Y-70485000D01*
X339725000Y-69850000D02*
X343535000Y-69850000D01*
D35*
X343535000Y-72390000D02*
X344170000Y-72390000D01*
D34*
X318008000Y-100457000D02*
X318008000Y-97790000D01*
X314960000Y-103505000D02*
X318008000Y-100457000D01*
X314960000Y-104775000D02*
X314960000Y-103505000D01*
X309880000Y-104775000D02*
X314960000Y-104775000D01*
D37*
X386080000Y-76090000D02*
X386080000Y-78105000D01*
X386080000Y-78105000D02*
X384810000Y-79375000D01*
X384810000Y-79375000D02*
X379095000Y-79375000D01*
X377825000Y-78105000D02*
X375285000Y-78105000D01*
X379095000Y-79375000D02*
X377825000Y-78105000D01*
D36*
X394335000Y-60325000D02*
X395605000Y-59055000D01*
X381635000Y-60325000D02*
X384810000Y-60325000D01*
X406400000Y-26035000D02*
X400050000Y-26035000D01*
X400050000Y-26035000D02*
X399415000Y-26670000D01*
X399415000Y-26670000D02*
X399415000Y-58420000D01*
X398780000Y-59055000D02*
X395605000Y-59055000D01*
X399415000Y-58420000D02*
X398780000Y-59055000D01*
X399415000Y-26670000D02*
X398780000Y-26035000D01*
X398780000Y-26035000D02*
X395605000Y-26035000D01*
D35*
X363474000Y-72390000D02*
X364490000Y-73406000D01*
X344170000Y-72390000D02*
X363474000Y-72390000D01*
X367030000Y-79196000D02*
X367030000Y-79375000D01*
X364490000Y-76656000D02*
X367030000Y-79196000D01*
X364490000Y-73406000D02*
X364490000Y-76656000D01*
X370840000Y-78105000D02*
X375285000Y-78105000D01*
D37*
X391160000Y-83185000D02*
X401955000Y-83185000D01*
X386080000Y-78105000D02*
X391160000Y-83185000D01*
D36*
X400845000Y-82075000D02*
X401955000Y-83185000D01*
X400845000Y-77430000D02*
X400845000Y-82075000D01*
X384810000Y-60325000D02*
X386080000Y-60325000D01*
X386080000Y-60325000D02*
X387350000Y-60325000D01*
X387350000Y-60325000D02*
X394335000Y-60325000D01*
D35*
X366395000Y-109855000D02*
X367030000Y-109220000D01*
X365442500Y-110807500D02*
X366395000Y-109855000D01*
D36*
X347980000Y-111125000D02*
X347980000Y-111125000D01*
D35*
X349250000Y-111125000D02*
X365125000Y-111125000D01*
D34*
X335280000Y-117475000D02*
X335280000Y-122555000D01*
X335280000Y-122555000D02*
X335280000Y-125730000D01*
X335280000Y-125730000D02*
X336550000Y-127000000D01*
D37*
X353060000Y-125095000D02*
X351155000Y-127000000D01*
X353060000Y-115570000D02*
X353060000Y-125095000D01*
D34*
X336550000Y-127000000D02*
X351155000Y-127000000D01*
X374650000Y-125095000D02*
X372745000Y-127000000D01*
X372745000Y-127000000D02*
X351155000Y-127000000D01*
X374650000Y-125095000D02*
X374650000Y-107315000D01*
X376555000Y-105410000D02*
X385809000Y-105410000D01*
X385809000Y-105410000D02*
X388984000Y-102235000D01*
X374650000Y-107315000D02*
X376555000Y-105410000D01*
D37*
X377190000Y-104775000D02*
X376555000Y-105410000D01*
X377190000Y-98425000D02*
X377190000Y-104775000D01*
D35*
X391668000Y-100888800D02*
X391668000Y-101727000D01*
X391160000Y-102235000D02*
X388984000Y-102235000D01*
X391668000Y-101727000D02*
X391160000Y-102235000D01*
D36*
X304800000Y-104775000D02*
X304800000Y-103505000D01*
X304800000Y-104775000D02*
X304800000Y-102870000D01*
X302895000Y-100965000D02*
X302895000Y-99170000D01*
X304800000Y-102870000D02*
X302895000Y-100965000D01*
X348725000Y-69850000D02*
X366395000Y-69850000D01*
X366395000Y-69850000D02*
X367030000Y-70485000D01*
X396240000Y-107950000D02*
X404495000Y-107950000D01*
X405765000Y-110490000D02*
X405765000Y-108585000D01*
X405765000Y-108585000D02*
X405130000Y-107950000D01*
X405130000Y-107950000D02*
X404495000Y-107950000D01*
X367030000Y-73406000D02*
X367030000Y-70485000D01*
X367035000Y-70485000D02*
X367030000Y-70485000D01*
X374050000Y-63500000D02*
X367050000Y-70500000D01*
X389890000Y-63500000D02*
X374050000Y-63500000D01*
X393700000Y-67310000D02*
X389890000Y-63500000D01*
X415290000Y-69850000D02*
X412750000Y-67310000D01*
X412750000Y-67310000D02*
X393700000Y-67310000D01*
X415290000Y-106680000D02*
X415290000Y-69850000D01*
X367050000Y-70500000D02*
X367035000Y-70485000D01*
X414020000Y-107950000D02*
X415290000Y-106680000D01*
X410210000Y-107950000D02*
X414020000Y-107950000D01*
X410083000Y-106172000D02*
X412623000Y-106172000D01*
X381635000Y-69325000D02*
X377825000Y-69325000D01*
X377825000Y-67310000D02*
X379730000Y-65405000D01*
X377825000Y-69325000D02*
X377825000Y-67310000D01*
X374685000Y-65405000D02*
X379730000Y-65405000D01*
X369570000Y-70520000D02*
X374685000Y-65405000D01*
X369570000Y-73406000D02*
X369570000Y-70520000D01*
X385445000Y-65405000D02*
X379730000Y-65405000D01*
X389255000Y-65405000D02*
X385445000Y-65405000D01*
X393065000Y-69215000D02*
X389255000Y-65405000D01*
X412115000Y-69215000D02*
X393065000Y-69215000D01*
X413385000Y-70485000D02*
X412115000Y-69215000D01*
X413385000Y-105410000D02*
X413385000Y-70485000D01*
X412623000Y-106172000D02*
X413385000Y-105410000D01*
X345440000Y-78105000D02*
X343535000Y-78105000D01*
X343535000Y-78105000D02*
X342900000Y-78740000D01*
X342900000Y-78740000D02*
X342900000Y-82550000D01*
X342900000Y-82550000D02*
X342265000Y-83185000D01*
X342265000Y-83185000D02*
X340360000Y-83185000D01*
X339725000Y-58420000D02*
X342265000Y-58420000D01*
X342265000Y-58420000D02*
X342900000Y-57785000D01*
X342900000Y-57785000D02*
X342900000Y-46990000D01*
X343535000Y-46355000D02*
X348615000Y-46355000D01*
X342900000Y-46990000D02*
X343535000Y-46355000D01*
D38*
X347980000Y-82550000D02*
X347345000Y-83185000D01*
X347980000Y-76835000D02*
X347980000Y-82550000D01*
X347345000Y-76200000D02*
X347980000Y-76835000D01*
X325755000Y-76200000D02*
X347345000Y-76200000D01*
X325120000Y-76835000D02*
X325755000Y-76200000D01*
X347345000Y-83185000D02*
X345440000Y-83185000D01*
X325120000Y-86360000D02*
X325120000Y-76835000D01*
D36*
X324485000Y-86995000D02*
X325120000Y-86360000D01*
X303530000Y-86995000D02*
X324485000Y-86995000D01*
X302895000Y-87630000D02*
X303530000Y-86995000D01*
X302895000Y-90170000D02*
X302895000Y-87630000D01*
X349885000Y-97680000D02*
X349885000Y-102870000D01*
X350520000Y-103505000D02*
X353060000Y-103505000D01*
X349885000Y-102870000D02*
X350520000Y-103505000D01*
X345440000Y-85725000D02*
X347345000Y-85725000D01*
X349885000Y-97680000D02*
X349140000Y-97680000D01*
X349140000Y-97680000D02*
X347980000Y-96520000D01*
X347980000Y-86360000D02*
X347345000Y-85725000D01*
X347980000Y-96520000D02*
X347980000Y-86360000D01*
D37*
X353060000Y-106570000D02*
X353060000Y-103505000D01*
D35*
X404495000Y-126365000D02*
X404495000Y-113030000D01*
X386715000Y-127000000D02*
X403860000Y-127000000D01*
X386080000Y-126365000D02*
X386715000Y-127000000D01*
X403860000Y-127000000D02*
X404495000Y-126365000D01*
X386080000Y-119380000D02*
X386080000Y-126365000D01*
X383413000Y-113030000D02*
X383413000Y-115443000D01*
X383413000Y-115443000D02*
X384549999Y-116579999D01*
X401955000Y-115570000D02*
X401955000Y-113030000D01*
X400945001Y-116579999D02*
X401955000Y-115570000D01*
X384549999Y-116579999D02*
X400945001Y-116579999D01*
D36*
X339725000Y-60960000D02*
X341630000Y-60960000D01*
X341630000Y-60960000D02*
X342900000Y-62230000D01*
X342900000Y-62230000D02*
X342900000Y-66675000D01*
X342900000Y-66675000D02*
X344170000Y-67945000D01*
X344170000Y-67945000D02*
X349250000Y-67945000D01*
X349250000Y-67945000D02*
X350520000Y-67945000D01*
X350520000Y-67945000D02*
X351790000Y-67945000D01*
X355600000Y-53340000D02*
X357505000Y-51435000D01*
X357505000Y-51435000D02*
X370840000Y-51435000D01*
X377825000Y-44450000D02*
X395605000Y-44450000D01*
X370840000Y-51435000D02*
X377825000Y-44450000D01*
D38*
X356870000Y-56515000D02*
X356870000Y-56515000D01*
X355600000Y-57785000D02*
X355600000Y-57785000D01*
X360680000Y-39370000D02*
X360680000Y-36830000D01*
D36*
X380365000Y-49530000D02*
X373380000Y-56515000D01*
X395605000Y-49530000D02*
X380365000Y-49530000D01*
X356870000Y-56515000D02*
X355600000Y-57785000D01*
X373380000Y-56515000D02*
X356870000Y-56515000D01*
D38*
X372090000Y-33040000D02*
X372090000Y-32406000D01*
X370205000Y-34925000D02*
X372090000Y-33040000D01*
X361950000Y-34925000D02*
X370205000Y-34925000D01*
X360680000Y-36195000D02*
X361950000Y-34925000D01*
X360680000Y-36830000D02*
X360680000Y-36195000D01*
X363855000Y-53975000D02*
X363855000Y-53975000D01*
D36*
X362585000Y-55245000D02*
X363855000Y-53975000D01*
X363855000Y-53975000D02*
X372110000Y-53975000D01*
X379095000Y-46990000D02*
X395605000Y-46990000D01*
X372110000Y-53975000D02*
X379095000Y-46990000D01*
D38*
X355600000Y-48895000D02*
X350520000Y-53975000D01*
D36*
X355600000Y-48895000D02*
X369570000Y-48895000D01*
X376555000Y-41910000D02*
X395605000Y-41910000D01*
X369570000Y-48895000D02*
X376555000Y-41910000D01*
X351155000Y-53340000D02*
X355600000Y-48895000D01*
D35*
X313055000Y-41275000D02*
X312928000Y-41402000D01*
X313055000Y-31115000D02*
X313055000Y-41275000D01*
X368300000Y-65405000D02*
X368300000Y-65405000D01*
X367030000Y-65405000D02*
X368300000Y-65405000D01*
X365760000Y-65405000D02*
X367030000Y-65405000D01*
X365760000Y-65405000D02*
X354330000Y-65405000D01*
X312928000Y-40132000D02*
X312928000Y-41402000D01*
X314608010Y-38451990D02*
X312928000Y-40132000D01*
X337536990Y-38451990D02*
X314608010Y-38451990D01*
X339090000Y-40005000D02*
X337536990Y-38451990D01*
X348615000Y-40005000D02*
X339090000Y-40005000D01*
X347345000Y-65405000D02*
X354330000Y-65405000D01*
X345440000Y-63500000D02*
X347345000Y-65405000D01*
X345440000Y-50800000D02*
X345440000Y-63500000D01*
X351790000Y-49530000D02*
X346710000Y-49530000D01*
X353060000Y-48260000D02*
X351790000Y-49530000D01*
X351790000Y-40005000D02*
X353060000Y-41275000D01*
X346710000Y-49530000D02*
X345440000Y-50800000D01*
X353060000Y-41275000D02*
X353060000Y-48260000D01*
X348615000Y-40005000D02*
X351790000Y-40005000D01*
D37*
X345440000Y-123825000D02*
X344170000Y-123825000D01*
X337820000Y-113665000D02*
X338455000Y-114300000D01*
X337820000Y-86360000D02*
X337820000Y-113665000D01*
X338455000Y-85725000D02*
X337820000Y-86360000D01*
X340360000Y-85725000D02*
X338455000Y-85725000D01*
X342440000Y-123825000D02*
X341630000Y-123015000D01*
X345440000Y-123825000D02*
X342440000Y-123825000D01*
X341630000Y-123015000D02*
X341630000Y-115570000D01*
X341630000Y-115570000D02*
X340360000Y-114300000D01*
X338455000Y-114300000D02*
X340360000Y-114300000D01*
D35*
X350012000Y-26035000D02*
X325120000Y-26035000D01*
D34*
X306705000Y-99695000D02*
X306705000Y-98425000D01*
X307340000Y-97790000D02*
X312928000Y-97790000D01*
X306705000Y-98425000D02*
X307340000Y-97790000D01*
D38*
X403225000Y-31750000D02*
X403225000Y-29210000D01*
D36*
X357615000Y-44975000D02*
X358140000Y-44450000D01*
X357615000Y-46355000D02*
X357615000Y-44975000D01*
X358140000Y-44450000D02*
X369570000Y-44450000D01*
X382270000Y-31750000D02*
X395605000Y-31750000D01*
X369570000Y-44450000D02*
X382270000Y-31750000D01*
X357615000Y-41385000D02*
X357615000Y-40005000D01*
X358140000Y-41910000D02*
X357615000Y-41385000D01*
X358140000Y-41910000D02*
X368300000Y-41910000D01*
X381000000Y-29210000D02*
X395605000Y-29210000D01*
X368300000Y-41910000D02*
X381000000Y-29210000D01*
X408940000Y-26035000D02*
X408940000Y-31115000D01*
X408305000Y-31750000D02*
X407035000Y-31750000D01*
X408940000Y-31115000D02*
X408305000Y-31750000D01*
D37*
X403225000Y-52070000D02*
X407035000Y-52070000D01*
X403225000Y-49530000D02*
X407035000Y-49530000D01*
X403225000Y-46990000D02*
X407035000Y-46990000D01*
X403225000Y-44450000D02*
X407035000Y-44450000D01*
X403225000Y-41910000D02*
X407035000Y-41910000D01*
X403225000Y-39370000D02*
X407035000Y-39370000D01*
X403225000Y-36830000D02*
X407035000Y-36830000D01*
X403225000Y-34290000D02*
X407035000Y-34290000D01*
D36*
X372110000Y-80645000D02*
X370840000Y-80645000D01*
X372745000Y-81280000D02*
X372110000Y-80645000D01*
X377825000Y-81280000D02*
X372745000Y-81280000D01*
X380365000Y-83820000D02*
X377825000Y-81280000D01*
X380365000Y-88265000D02*
X380365000Y-83820000D01*
X377190000Y-83185000D02*
X377825000Y-83820000D01*
X370840000Y-83185000D02*
X377190000Y-83185000D01*
X377825000Y-90170000D02*
X377190000Y-90805000D01*
X377825000Y-83820000D02*
X377825000Y-90170000D01*
X410845000Y-81915000D02*
X409575000Y-83185000D01*
X410845000Y-74930000D02*
X410845000Y-81915000D01*
D34*
X306705000Y-89535000D02*
X323215000Y-89535000D01*
X323215000Y-89535000D02*
X324485000Y-90805000D01*
X324485000Y-90805000D02*
X324485000Y-116205000D01*
X325755000Y-117475000D02*
X326280000Y-117475000D01*
X324485000Y-116205000D02*
X325755000Y-117475000D01*
D36*
X340360000Y-108585000D02*
X345440000Y-108585000D01*
X340360000Y-106045000D02*
X345440000Y-106045000D01*
X345440000Y-103505000D02*
X340360000Y-103505000D01*
X340360000Y-100965000D02*
X345440000Y-100965000D01*
X345440000Y-98425000D02*
X340360000Y-98425000D01*
X340360000Y-95885000D02*
X345440000Y-95885000D01*
X345440000Y-93345000D02*
X340360000Y-93345000D01*
X340360000Y-90805000D02*
X345440000Y-90805000D01*
X345440000Y-88265000D02*
X340360000Y-88265000D01*
D35*
X408305000Y-110490000D02*
X408305000Y-112395000D01*
X407670000Y-113030000D02*
X408305000Y-112395000D01*
X407035000Y-113030000D02*
X407670000Y-113030000D01*
X388493000Y-113030000D02*
X389255000Y-113030000D01*
X389763000Y-112522000D02*
X389763000Y-110490000D01*
X389255000Y-113030000D02*
X389763000Y-112522000D01*
X397510000Y-103886000D02*
X397510000Y-104140000D01*
X397510000Y-104775000D02*
X398780000Y-106045000D01*
X398780000Y-106045000D02*
X407035000Y-106045000D01*
X389763000Y-107442000D02*
X389763000Y-110490000D01*
X391160000Y-106045000D02*
X389763000Y-107442000D01*
X395986000Y-106045000D02*
X391160000Y-106045000D01*
X397510000Y-104521000D02*
X395986000Y-106045000D01*
X407035000Y-106045000D02*
X408305000Y-107315000D01*
X408305000Y-110490000D02*
X408305000Y-107315000D01*
D34*
X397510000Y-87740000D02*
X397510000Y-104521000D01*
D36*
X388984000Y-98425000D02*
X388984000Y-97426000D01*
X390601200Y-95808800D02*
X391668000Y-95808800D01*
X388984000Y-97426000D02*
X390601200Y-95808800D01*
X374650000Y-90805000D02*
X374650000Y-87630000D01*
X374650000Y-87630000D02*
X375285000Y-87105000D01*
X374650000Y-87740000D02*
X374650000Y-87630000D01*
X380365000Y-90805000D02*
X381087755Y-90805000D01*
X386080000Y-85812755D02*
X386080000Y-85090000D01*
X381087755Y-90805000D02*
X386080000Y-85812755D01*
X374650000Y-98425000D02*
X374650000Y-95250000D01*
X374650000Y-95250000D02*
X375666000Y-94234000D01*
X379603000Y-94234000D02*
X379984000Y-94615000D01*
X375666000Y-94234000D02*
X379603000Y-94234000D01*
X379984000Y-94615000D02*
X379984000Y-98425000D01*
X379984000Y-102235000D02*
X379984000Y-98425000D01*
X386080000Y-88265000D02*
X387985000Y-88265000D01*
X384810000Y-89535000D02*
X386080000Y-88265000D01*
X384810000Y-93345000D02*
X384810000Y-89535000D01*
X386080000Y-94615000D02*
X384810000Y-93345000D01*
X388984000Y-94615000D02*
X386080000Y-94615000D01*
X401955000Y-85725000D02*
X400685000Y-85725000D01*
X400685000Y-85725000D02*
X400050000Y-85090000D01*
X400050000Y-85090000D02*
X389255000Y-85090000D01*
X387985000Y-86360000D02*
X387985000Y-88265000D01*
X389255000Y-85090000D02*
X387985000Y-86360000D01*
D34*
X326280000Y-122555000D02*
X321945000Y-122555000D01*
X320040000Y-120650000D02*
X320040000Y-104775000D01*
X321945000Y-122555000D02*
X320040000Y-120650000D01*
D39*
G36*
X321321797Y-24882828D02*
G01*
X321170000Y-25645959D01*
X321170000Y-26424041D01*
X321321797Y-27187172D01*
X321619556Y-27906026D01*
X322051835Y-28552978D01*
X322602022Y-29103165D01*
X323248974Y-29535444D01*
X323967828Y-29833203D01*
X324730959Y-29985000D01*
X325509041Y-29985000D01*
X326272172Y-29833203D01*
X326991026Y-29535444D01*
X327066521Y-29485000D01*
X348065479Y-29485000D01*
X348140974Y-29535444D01*
X348859828Y-29833203D01*
X349622959Y-29985000D01*
X350401041Y-29985000D01*
X351164172Y-29833203D01*
X351883026Y-29535444D01*
X352529978Y-29103165D01*
X353080165Y-28552978D01*
X353512444Y-27906026D01*
X353810203Y-27187172D01*
X353962000Y-26424041D01*
X353962000Y-25645959D01*
X353810203Y-24882828D01*
X353641275Y-24475000D01*
X355658000Y-24475000D01*
X355658000Y-30607000D01*
X355666647Y-30694791D01*
X355692254Y-30779208D01*
X355733839Y-30857007D01*
X355789802Y-30925198D01*
X355857993Y-30981161D01*
X355935792Y-31022746D01*
X356020209Y-31048353D01*
X356108000Y-31057000D01*
X359545983Y-31057000D01*
X359586462Y-31097479D01*
X360520037Y-31721275D01*
X361120000Y-31969787D01*
X361120000Y-32198537D01*
X360854075Y-32279204D01*
X360358964Y-32543846D01*
X359924995Y-32899995D01*
X359835742Y-33008750D01*
X358763750Y-34080743D01*
X358654996Y-34169995D01*
X358298846Y-34603964D01*
X358034204Y-35099075D01*
X357871238Y-35636302D01*
X357846619Y-35886260D01*
X357816211Y-36195000D01*
X357830000Y-36335002D01*
X357830000Y-36674740D01*
X357629572Y-36655000D01*
X356600428Y-36655000D01*
X356108285Y-36703472D01*
X355476808Y-36895028D01*
X354894834Y-37206100D01*
X354384731Y-37624731D01*
X354342182Y-37676577D01*
X354241322Y-37553678D01*
X353715991Y-37122550D01*
X353116646Y-36802193D01*
X352466318Y-36604919D01*
X351959486Y-36555000D01*
X351959478Y-36555000D01*
X351790000Y-36538308D01*
X351620522Y-36555000D01*
X346657273Y-36555000D01*
X346834000Y-35666532D01*
X346834000Y-34691468D01*
X346643774Y-33735138D01*
X346270633Y-32834296D01*
X345728916Y-32023559D01*
X345039441Y-31334084D01*
X344228704Y-30792367D01*
X343327862Y-30419226D01*
X342371532Y-30229000D01*
X341396468Y-30229000D01*
X340440138Y-30419226D01*
X339539296Y-30792367D01*
X338728559Y-31334084D01*
X338039084Y-32023559D01*
X337497367Y-32834296D01*
X337124226Y-33735138D01*
X336934000Y-34691468D01*
X336934000Y-35001990D01*
X316505000Y-35001990D01*
X316505000Y-32735713D01*
X316606309Y-32634404D01*
X316648707Y-33135661D01*
X317069940Y-33371189D01*
X317529029Y-33520013D01*
X318008330Y-33576413D01*
X318489424Y-33538223D01*
X318953825Y-33406910D01*
X319383683Y-33187520D01*
X319461293Y-33135661D01*
X319503691Y-32634402D01*
X318055000Y-31185711D01*
X318040858Y-31199853D01*
X317970147Y-31129142D01*
X317984289Y-31115000D01*
X318125711Y-31115000D01*
X319574402Y-32563691D01*
X320075661Y-32521293D01*
X320311189Y-32100060D01*
X320460013Y-31640971D01*
X320516413Y-31161670D01*
X320478223Y-30680576D01*
X320346910Y-30216175D01*
X320127520Y-29786317D01*
X320075661Y-29708707D01*
X319574402Y-29666309D01*
X318125711Y-31115000D01*
X317984289Y-31115000D01*
X317970147Y-31100858D01*
X318040858Y-31030147D01*
X318055000Y-31044289D01*
X319503691Y-29595598D01*
X319461293Y-29094339D01*
X319040060Y-28858811D01*
X318580971Y-28709987D01*
X318101670Y-28653587D01*
X317620576Y-28691777D01*
X317156175Y-28823090D01*
X316726317Y-29042480D01*
X316648707Y-29094339D01*
X316606309Y-29595596D01*
X316392967Y-29382254D01*
X316329457Y-29172889D01*
X316101957Y-28747267D01*
X315795794Y-28374206D01*
X315422733Y-28068043D01*
X314997111Y-27840543D01*
X314535284Y-27700450D01*
X314055000Y-27653146D01*
X313104131Y-27653146D01*
X313055000Y-27648307D01*
X313005869Y-27653146D01*
X312055000Y-27653146D01*
X311574716Y-27700450D01*
X311112889Y-27840543D01*
X310687267Y-28068043D01*
X310314206Y-28374206D01*
X310008043Y-28747267D01*
X309780543Y-29172889D01*
X309640450Y-29634716D01*
X309593146Y-30115000D01*
X309593146Y-32115000D01*
X309605000Y-32235357D01*
X309605001Y-39201578D01*
X309557091Y-39359514D01*
X309493106Y-39479222D01*
X309281536Y-40176674D01*
X309228000Y-40720238D01*
X309228000Y-42083763D01*
X309281536Y-42627327D01*
X309493106Y-43324779D01*
X309836677Y-43967556D01*
X310299046Y-44530954D01*
X310862445Y-44993323D01*
X311505222Y-45336894D01*
X312202674Y-45548464D01*
X312928000Y-45619902D01*
X313653327Y-45548464D01*
X314350779Y-45336894D01*
X314993556Y-44993323D01*
X315556954Y-44530954D01*
X316019323Y-43967556D01*
X316103341Y-43810370D01*
X316134166Y-43846544D01*
X316549533Y-44174747D01*
X317020948Y-44415610D01*
X317530295Y-44559876D01*
X317536315Y-44560479D01*
X317958000Y-44238965D01*
X317958000Y-41901990D01*
X318058000Y-41901990D01*
X318058000Y-44238965D01*
X318479685Y-44560479D01*
X318485705Y-44559876D01*
X318995052Y-44415610D01*
X319466467Y-44174747D01*
X319881834Y-43846544D01*
X320225190Y-43443613D01*
X320483341Y-42981439D01*
X320646366Y-42477783D01*
X320708000Y-41952000D01*
X320708000Y-41901990D01*
X336107954Y-41901990D01*
X336417914Y-42211950D01*
X336323472Y-42523285D01*
X336258791Y-43180000D01*
X336323472Y-43836715D01*
X336509510Y-44450000D01*
X336323472Y-45063285D01*
X336258791Y-45720000D01*
X336323472Y-46376715D01*
X336515028Y-47008192D01*
X336826100Y-47590166D01*
X337244731Y-48100269D01*
X337439364Y-48260000D01*
X337244731Y-48419731D01*
X336826100Y-48929834D01*
X336515028Y-49511808D01*
X336323472Y-50143285D01*
X336258791Y-50800000D01*
X336323472Y-51456715D01*
X336515028Y-52088192D01*
X336826100Y-52670166D01*
X337244731Y-53180269D01*
X337439364Y-53340000D01*
X337244731Y-53499731D01*
X336826100Y-54009834D01*
X336515028Y-54591808D01*
X336323472Y-55223285D01*
X336258791Y-55880000D01*
X336323472Y-56536715D01*
X336509510Y-57150000D01*
X336323472Y-57763285D01*
X336258791Y-58420000D01*
X336323472Y-59076715D01*
X336509510Y-59690000D01*
X336323472Y-60303285D01*
X336258791Y-60960000D01*
X336323472Y-61616715D01*
X336509510Y-62230000D01*
X336323472Y-62843285D01*
X336258791Y-63500000D01*
X336323472Y-64156715D01*
X336515028Y-64788192D01*
X336826100Y-65370166D01*
X337244731Y-65880269D01*
X337754834Y-66298900D01*
X338336808Y-66609972D01*
X338968285Y-66801528D01*
X339460428Y-66850000D01*
X339952963Y-66850000D01*
X339992685Y-67253300D01*
X340067521Y-67500000D01*
X339825000Y-67500000D01*
X339367498Y-67554909D01*
X338929499Y-67698017D01*
X338527835Y-67923825D01*
X338177942Y-68223655D01*
X337893266Y-68585984D01*
X337684747Y-68996889D01*
X337562280Y-69433078D01*
X337888129Y-69800000D01*
X340175000Y-69800000D01*
X340175000Y-69780000D01*
X340275000Y-69780000D01*
X340275000Y-69800000D01*
X340295000Y-69800000D01*
X340295000Y-69900000D01*
X340275000Y-69900000D01*
X340275000Y-72200000D01*
X340625000Y-72200000D01*
X341082502Y-72145091D01*
X341520501Y-72001983D01*
X341922165Y-71776175D01*
X342272058Y-71476345D01*
X342556734Y-71114016D01*
X342765253Y-70703111D01*
X342805289Y-70560516D01*
X343035622Y-70683631D01*
X343402757Y-70795000D01*
X343591698Y-70852315D01*
X344169999Y-70909273D01*
X344314914Y-70895000D01*
X344691257Y-70895000D01*
X344765028Y-71138192D01*
X345076100Y-71720166D01*
X345494731Y-72230269D01*
X346004834Y-72648900D01*
X346586808Y-72959972D01*
X347218285Y-73151528D01*
X347710428Y-73200000D01*
X348739572Y-73200000D01*
X349231715Y-73151528D01*
X349863192Y-72959972D01*
X350162478Y-72800000D01*
X362164724Y-72800000D01*
X362140000Y-73006000D01*
X362140000Y-73356000D01*
X363680000Y-73356000D01*
X363680000Y-73456000D01*
X362140000Y-73456000D01*
X362140000Y-73806000D01*
X362194909Y-74263502D01*
X362338017Y-74701501D01*
X362563825Y-75103165D01*
X362863655Y-75453058D01*
X363225984Y-75737734D01*
X363636889Y-75946253D01*
X364073078Y-76068720D01*
X364374566Y-75800980D01*
X364649731Y-76136269D01*
X365159835Y-76554900D01*
X365741809Y-76865972D01*
X366373286Y-77057528D01*
X367030000Y-77122209D01*
X367686715Y-77057528D01*
X367904000Y-76991615D01*
X367882984Y-77205000D01*
X367890000Y-77692500D01*
X368190651Y-77993151D01*
X367859731Y-78264731D01*
X367441100Y-78774834D01*
X367130028Y-79356808D01*
X366938472Y-79988285D01*
X366873791Y-80645000D01*
X366938472Y-81301715D01*
X367124510Y-81915000D01*
X366938472Y-82528285D01*
X366873791Y-83185000D01*
X366938472Y-83841715D01*
X367124510Y-84455000D01*
X366938472Y-85068285D01*
X366873791Y-85725000D01*
X366938472Y-86381715D01*
X367124510Y-86995000D01*
X366938472Y-87608285D01*
X366873791Y-88265000D01*
X366938472Y-88921715D01*
X367124510Y-89535000D01*
X366938472Y-90148285D01*
X366873791Y-90805000D01*
X366938472Y-91461715D01*
X367130028Y-92093192D01*
X367441100Y-92675166D01*
X367859731Y-93185269D01*
X368054364Y-93345000D01*
X367859731Y-93504731D01*
X367441100Y-94014834D01*
X367130028Y-94596808D01*
X366938472Y-95228285D01*
X366873791Y-95885000D01*
X366938472Y-96541715D01*
X367124510Y-97155000D01*
X366938472Y-97768285D01*
X366873791Y-98425000D01*
X366938472Y-99081715D01*
X367124510Y-99695000D01*
X366938472Y-100308285D01*
X366873791Y-100965000D01*
X366938472Y-101621715D01*
X367124510Y-102235000D01*
X366938472Y-102848285D01*
X366873791Y-103505000D01*
X366938472Y-104161715D01*
X367124510Y-104775000D01*
X366938472Y-105388285D01*
X366873791Y-106045000D01*
X366938472Y-106701715D01*
X367124510Y-107315000D01*
X366938472Y-107928285D01*
X366873791Y-108585000D01*
X366938472Y-109241715D01*
X367124510Y-109855000D01*
X366938472Y-110468285D01*
X366873791Y-111125000D01*
X366938472Y-111781715D01*
X367124510Y-112395000D01*
X366938472Y-113008285D01*
X366873791Y-113665000D01*
X366938472Y-114321715D01*
X367124510Y-114935000D01*
X366938472Y-115548285D01*
X366873791Y-116205000D01*
X366938472Y-116861715D01*
X367124510Y-117475000D01*
X366938472Y-118088285D01*
X366873791Y-118745000D01*
X366938472Y-119401715D01*
X367124510Y-120015000D01*
X366938472Y-120628285D01*
X366873791Y-121285000D01*
X366938472Y-121941715D01*
X367124510Y-122555000D01*
X366938472Y-123168285D01*
X366925499Y-123300000D01*
X356260000Y-123300000D01*
X356260000Y-116411408D01*
X356361528Y-116076714D01*
X356410000Y-115584571D01*
X356410000Y-114555428D01*
X356361528Y-114063285D01*
X356169972Y-113431808D01*
X355858900Y-112849834D01*
X355440269Y-112339731D01*
X354930165Y-111921100D01*
X354348191Y-111610028D01*
X353716714Y-111418472D01*
X353060000Y-111353791D01*
X352403285Y-111418472D01*
X351771808Y-111610028D01*
X351189834Y-111921100D01*
X350679731Y-112339731D01*
X350261100Y-112849835D01*
X349950028Y-113431809D01*
X349758472Y-114063286D01*
X349710000Y-114555429D01*
X349710000Y-115584572D01*
X349758472Y-116076715D01*
X349860000Y-116411409D01*
X349860001Y-123300000D01*
X349354501Y-123300000D01*
X349341528Y-123168285D01*
X349155490Y-122555000D01*
X349341528Y-121941715D01*
X349406209Y-121285000D01*
X349341528Y-120628285D01*
X349155490Y-120015000D01*
X349341528Y-119401715D01*
X349406209Y-118745000D01*
X349341528Y-118088285D01*
X349155490Y-117475000D01*
X349341528Y-116861715D01*
X349406209Y-116205000D01*
X349341528Y-115548285D01*
X349155490Y-114935000D01*
X349341528Y-114321715D01*
X349406209Y-113665000D01*
X349341528Y-113008285D01*
X349149972Y-112376808D01*
X348838900Y-111794834D01*
X348420269Y-111284731D01*
X348225636Y-111125000D01*
X348420269Y-110965269D01*
X348838900Y-110455166D01*
X349149972Y-109873192D01*
X349341528Y-109241715D01*
X349383174Y-108818882D01*
X349468078Y-108842720D01*
X349835000Y-108516871D01*
X349835000Y-108328995D01*
X349950028Y-108708192D01*
X350261100Y-109290166D01*
X350679731Y-109800269D01*
X351189835Y-110218900D01*
X351771809Y-110529972D01*
X352403286Y-110721528D01*
X353060000Y-110786209D01*
X353716715Y-110721528D01*
X354348192Y-110529972D01*
X354930166Y-110218900D01*
X355440269Y-109800269D01*
X355858900Y-109290166D01*
X356169972Y-108708191D01*
X356361528Y-108076714D01*
X356410000Y-107584571D01*
X356410000Y-106555428D01*
X356361528Y-106063285D01*
X356260000Y-105728591D01*
X356260000Y-105146408D01*
X356361528Y-104811714D01*
X356410000Y-104319571D01*
X356410000Y-103490428D01*
X356361528Y-102998285D01*
X356169972Y-102366808D01*
X355858900Y-101784834D01*
X355440269Y-101274731D01*
X355372318Y-101218965D01*
X355410000Y-100905000D01*
X355410000Y-100655000D01*
X354553934Y-100655000D01*
X354366847Y-100555000D01*
X355410000Y-100555000D01*
X355410000Y-100305000D01*
X355355091Y-99847498D01*
X355211983Y-99409499D01*
X354986175Y-99007835D01*
X354686345Y-98657942D01*
X354324016Y-98373266D01*
X353913111Y-98164747D01*
X353476922Y-98042280D01*
X353235000Y-98257121D01*
X353235000Y-97665429D01*
X353186528Y-97173286D01*
X352994972Y-96541809D01*
X352683900Y-95959834D01*
X352265269Y-95449731D01*
X352204966Y-95400242D01*
X352235000Y-95150000D01*
X352235000Y-94883146D01*
X352643078Y-94997720D01*
X353010000Y-94671871D01*
X353010000Y-92746284D01*
X353060000Y-92751209D01*
X353110000Y-92746284D01*
X353110000Y-94671871D01*
X353476922Y-94997720D01*
X353913111Y-94875253D01*
X354324016Y-94666734D01*
X354686345Y-94382058D01*
X354986175Y-94032165D01*
X355211983Y-93630501D01*
X355355091Y-93192502D01*
X355410000Y-92735000D01*
X355410000Y-92485000D01*
X354366847Y-92485000D01*
X354553934Y-92385000D01*
X355410000Y-92385000D01*
X355410000Y-92135000D01*
X355372318Y-91821035D01*
X355440269Y-91765269D01*
X355858900Y-91255166D01*
X356169972Y-90673192D01*
X356361528Y-90041715D01*
X356410000Y-89549572D01*
X356410000Y-88720429D01*
X356361528Y-88228286D01*
X356169972Y-87596809D01*
X355858900Y-87014834D01*
X355440269Y-86504731D01*
X354930166Y-86086100D01*
X354348192Y-85775028D01*
X353716715Y-85583472D01*
X353120228Y-85524723D01*
X352994972Y-85111809D01*
X352683900Y-84529834D01*
X352265269Y-84019731D01*
X351755166Y-83601100D01*
X351173192Y-83290028D01*
X350770785Y-83167960D01*
X350788762Y-83108698D01*
X350830000Y-82690002D01*
X350843789Y-82550000D01*
X350830000Y-82409998D01*
X350830000Y-76975002D01*
X350843789Y-76835000D01*
X350788762Y-76276302D01*
X350740590Y-76117500D01*
X350625796Y-75739075D01*
X350361154Y-75243964D01*
X350005004Y-74809995D01*
X349896250Y-74720743D01*
X349459262Y-74283755D01*
X349370005Y-74174995D01*
X348936036Y-73818846D01*
X348440925Y-73554204D01*
X347903698Y-73391238D01*
X347485002Y-73350000D01*
X347345000Y-73336211D01*
X347204998Y-73350000D01*
X325895002Y-73350000D01*
X325755000Y-73336211D01*
X325614998Y-73350000D01*
X325196302Y-73391238D01*
X324659075Y-73554204D01*
X324163964Y-73818846D01*
X323729995Y-74174995D01*
X323640738Y-74283755D01*
X323203750Y-74720743D01*
X323094996Y-74809995D01*
X322738847Y-75243964D01*
X322654609Y-75401563D01*
X322474204Y-75739076D01*
X322311238Y-76276303D01*
X322256211Y-76835000D01*
X322270001Y-76975012D01*
X322270001Y-77655000D01*
X310398400Y-77655000D01*
X310398400Y-77365799D01*
X310179352Y-76264571D01*
X309749675Y-75227237D01*
X309125879Y-74293662D01*
X309060000Y-74227783D01*
X309060000Y-70866000D01*
X309051353Y-70778209D01*
X309025746Y-70693792D01*
X308984161Y-70615993D01*
X308928198Y-70547802D01*
X308860007Y-70491839D01*
X308782208Y-70450254D01*
X308697791Y-70424647D01*
X308610000Y-70416000D01*
X302830000Y-70416000D01*
X302830000Y-70266922D01*
X337562280Y-70266922D01*
X337684747Y-70703111D01*
X337893266Y-71114016D01*
X338177942Y-71476345D01*
X338527835Y-71776175D01*
X338929499Y-72001983D01*
X339367498Y-72145091D01*
X339825000Y-72200000D01*
X340175000Y-72200000D01*
X340175000Y-69900000D01*
X337888129Y-69900000D01*
X337562280Y-70266922D01*
X302830000Y-70266922D01*
X302830000Y-24475000D01*
X321490725Y-24475000D01*
X321321797Y-24882828D01*
G37*
X321321797Y-24882828D02*
X321170000Y-25645959D01*
X321170000Y-26424041D01*
X321321797Y-27187172D01*
X321619556Y-27906026D01*
X322051835Y-28552978D01*
X322602022Y-29103165D01*
X323248974Y-29535444D01*
X323967828Y-29833203D01*
X324730959Y-29985000D01*
X325509041Y-29985000D01*
X326272172Y-29833203D01*
X326991026Y-29535444D01*
X327066521Y-29485000D01*
X348065479Y-29485000D01*
X348140974Y-29535444D01*
X348859828Y-29833203D01*
X349622959Y-29985000D01*
X350401041Y-29985000D01*
X351164172Y-29833203D01*
X351883026Y-29535444D01*
X352529978Y-29103165D01*
X353080165Y-28552978D01*
X353512444Y-27906026D01*
X353810203Y-27187172D01*
X353962000Y-26424041D01*
X353962000Y-25645959D01*
X353810203Y-24882828D01*
X353641275Y-24475000D01*
X355658000Y-24475000D01*
X355658000Y-30607000D01*
X355666647Y-30694791D01*
X355692254Y-30779208D01*
X355733839Y-30857007D01*
X355789802Y-30925198D01*
X355857993Y-30981161D01*
X355935792Y-31022746D01*
X356020209Y-31048353D01*
X356108000Y-31057000D01*
X359545983Y-31057000D01*
X359586462Y-31097479D01*
X360520037Y-31721275D01*
X361120000Y-31969787D01*
X361120000Y-32198537D01*
X360854075Y-32279204D01*
X360358964Y-32543846D01*
X359924995Y-32899995D01*
X359835742Y-33008750D01*
X358763750Y-34080743D01*
X358654996Y-34169995D01*
X358298846Y-34603964D01*
X358034204Y-35099075D01*
X357871238Y-35636302D01*
X357846619Y-35886260D01*
X357816211Y-36195000D01*
X357830000Y-36335002D01*
X357830000Y-36674740D01*
X357629572Y-36655000D01*
X356600428Y-36655000D01*
X356108285Y-36703472D01*
X355476808Y-36895028D01*
X354894834Y-37206100D01*
X354384731Y-37624731D01*
X354342182Y-37676577D01*
X354241322Y-37553678D01*
X353715991Y-37122550D01*
X353116646Y-36802193D01*
X352466318Y-36604919D01*
X351959486Y-36555000D01*
X351959478Y-36555000D01*
X351790000Y-36538308D01*
X351620522Y-36555000D01*
X346657273Y-36555000D01*
X346834000Y-35666532D01*
X346834000Y-34691468D01*
X346643774Y-33735138D01*
X346270633Y-32834296D01*
X345728916Y-32023559D01*
X345039441Y-31334084D01*
X344228704Y-30792367D01*
X343327862Y-30419226D01*
X342371532Y-30229000D01*
X341396468Y-30229000D01*
X340440138Y-30419226D01*
X339539296Y-30792367D01*
X338728559Y-31334084D01*
X338039084Y-32023559D01*
X337497367Y-32834296D01*
X337124226Y-33735138D01*
X336934000Y-34691468D01*
X336934000Y-35001990D01*
X316505000Y-35001990D01*
X316505000Y-32735713D01*
X316606309Y-32634404D01*
X316648707Y-33135661D01*
X317069940Y-33371189D01*
X317529029Y-33520013D01*
X318008330Y-33576413D01*
X318489424Y-33538223D01*
X318953825Y-33406910D01*
X319383683Y-33187520D01*
X319461293Y-33135661D01*
X319503691Y-32634402D01*
X318055000Y-31185711D01*
X318040858Y-31199853D01*
X317970147Y-31129142D01*
X317984289Y-31115000D01*
X318125711Y-31115000D01*
X319574402Y-32563691D01*
X320075661Y-32521293D01*
X320311189Y-32100060D01*
X320460013Y-31640971D01*
X320516413Y-31161670D01*
X320478223Y-30680576D01*
X320346910Y-30216175D01*
X320127520Y-29786317D01*
X320075661Y-29708707D01*
X319574402Y-29666309D01*
X318125711Y-31115000D01*
X317984289Y-31115000D01*
X317970147Y-31100858D01*
X318040858Y-31030147D01*
X318055000Y-31044289D01*
X319503691Y-29595598D01*
X319461293Y-29094339D01*
X319040060Y-28858811D01*
X318580971Y-28709987D01*
X318101670Y-28653587D01*
X317620576Y-28691777D01*
X317156175Y-28823090D01*
X316726317Y-29042480D01*
X316648707Y-29094339D01*
X316606309Y-29595596D01*
X316392967Y-29382254D01*
X316329457Y-29172889D01*
X316101957Y-28747267D01*
X315795794Y-28374206D01*
X315422733Y-28068043D01*
X314997111Y-27840543D01*
X314535284Y-27700450D01*
X314055000Y-27653146D01*
X313104131Y-27653146D01*
X313055000Y-27648307D01*
X313005869Y-27653146D01*
X312055000Y-27653146D01*
X311574716Y-27700450D01*
X311112889Y-27840543D01*
X310687267Y-28068043D01*
X310314206Y-28374206D01*
X310008043Y-28747267D01*
X309780543Y-29172889D01*
X309640450Y-29634716D01*
X309593146Y-30115000D01*
X309593146Y-32115000D01*
X309605000Y-32235357D01*
X309605001Y-39201578D01*
X309557091Y-39359514D01*
X309493106Y-39479222D01*
X309281536Y-40176674D01*
X309228000Y-40720238D01*
X309228000Y-42083763D01*
X309281536Y-42627327D01*
X309493106Y-43324779D01*
X309836677Y-43967556D01*
X310299046Y-44530954D01*
X310862445Y-44993323D01*
X311505222Y-45336894D01*
X312202674Y-45548464D01*
X312928000Y-45619902D01*
X313653327Y-45548464D01*
X314350779Y-45336894D01*
X314993556Y-44993323D01*
X315556954Y-44530954D01*
X316019323Y-43967556D01*
X316103341Y-43810370D01*
X316134166Y-43846544D01*
X316549533Y-44174747D01*
X317020948Y-44415610D01*
X317530295Y-44559876D01*
X317536315Y-44560479D01*
X317958000Y-44238965D01*
X317958000Y-41901990D01*
X318058000Y-41901990D01*
X318058000Y-44238965D01*
X318479685Y-44560479D01*
X318485705Y-44559876D01*
X318995052Y-44415610D01*
X319466467Y-44174747D01*
X319881834Y-43846544D01*
X320225190Y-43443613D01*
X320483341Y-42981439D01*
X320646366Y-42477783D01*
X320708000Y-41952000D01*
X320708000Y-41901990D01*
X336107954Y-41901990D01*
X336417914Y-42211950D01*
X336323472Y-42523285D01*
X336258791Y-43180000D01*
X336323472Y-43836715D01*
X336509510Y-44450000D01*
X336323472Y-45063285D01*
X336258791Y-45720000D01*
X336323472Y-46376715D01*
X336515028Y-47008192D01*
X336826100Y-47590166D01*
X337244731Y-48100269D01*
X337439364Y-48260000D01*
X337244731Y-48419731D01*
X336826100Y-48929834D01*
X336515028Y-49511808D01*
X336323472Y-50143285D01*
X336258791Y-50800000D01*
X336323472Y-51456715D01*
X336515028Y-52088192D01*
X336826100Y-52670166D01*
X337244731Y-53180269D01*
X337439364Y-53340000D01*
X337244731Y-53499731D01*
X336826100Y-54009834D01*
X336515028Y-54591808D01*
X336323472Y-55223285D01*
X336258791Y-55880000D01*
X336323472Y-56536715D01*
X336509510Y-57150000D01*
X336323472Y-57763285D01*
X336258791Y-58420000D01*
X336323472Y-59076715D01*
X336509510Y-59690000D01*
X336323472Y-60303285D01*
X336258791Y-60960000D01*
X336323472Y-61616715D01*
X336509510Y-62230000D01*
X336323472Y-62843285D01*
X336258791Y-63500000D01*
X336323472Y-64156715D01*
X336515028Y-64788192D01*
X336826100Y-65370166D01*
X337244731Y-65880269D01*
X337754834Y-66298900D01*
X338336808Y-66609972D01*
X338968285Y-66801528D01*
X339460428Y-66850000D01*
X339952963Y-66850000D01*
X339992685Y-67253300D01*
X340067521Y-67500000D01*
X339825000Y-67500000D01*
X339367498Y-67554909D01*
X338929499Y-67698017D01*
X338527835Y-67923825D01*
X338177942Y-68223655D01*
X337893266Y-68585984D01*
X337684747Y-68996889D01*
X337562280Y-69433078D01*
X337888129Y-69800000D01*
X340175000Y-69800000D01*
X340175000Y-69780000D01*
X340275000Y-69780000D01*
X340275000Y-69800000D01*
X340295000Y-69800000D01*
X340295000Y-69900000D01*
X340275000Y-69900000D01*
X340275000Y-72200000D01*
X340625000Y-72200000D01*
X341082502Y-72145091D01*
X341520501Y-72001983D01*
X341922165Y-71776175D01*
X342272058Y-71476345D01*
X342556734Y-71114016D01*
X342765253Y-70703111D01*
X342805289Y-70560516D01*
X343035622Y-70683631D01*
X343402757Y-70795000D01*
X343591698Y-70852315D01*
X344169999Y-70909273D01*
X344314914Y-70895000D01*
X344691257Y-70895000D01*
X344765028Y-71138192D01*
X345076100Y-71720166D01*
X345494731Y-72230269D01*
X346004834Y-72648900D01*
X346586808Y-72959972D01*
X347218285Y-73151528D01*
X347710428Y-73200000D01*
X348739572Y-73200000D01*
X349231715Y-73151528D01*
X349863192Y-72959972D01*
X350162478Y-72800000D01*
X362164724Y-72800000D01*
X362140000Y-73006000D01*
X362140000Y-73356000D01*
X363680000Y-73356000D01*
X363680000Y-73456000D01*
X362140000Y-73456000D01*
X362140000Y-73806000D01*
X362194909Y-74263502D01*
X362338017Y-74701501D01*
X362563825Y-75103165D01*
X362863655Y-75453058D01*
X363225984Y-75737734D01*
X363636889Y-75946253D01*
X364073078Y-76068720D01*
X364374566Y-75800980D01*
X364649731Y-76136269D01*
X365159835Y-76554900D01*
X365741809Y-76865972D01*
X366373286Y-77057528D01*
X367030000Y-77122209D01*
X367686715Y-77057528D01*
X367904000Y-76991615D01*
X367882984Y-77205000D01*
X367890000Y-77692500D01*
X368190651Y-77993151D01*
X367859731Y-78264731D01*
X367441100Y-78774834D01*
X367130028Y-79356808D01*
X366938472Y-79988285D01*
X366873791Y-80645000D01*
X366938472Y-81301715D01*
X367124510Y-81915000D01*
X366938472Y-82528285D01*
X366873791Y-83185000D01*
X366938472Y-83841715D01*
X367124510Y-84455000D01*
X366938472Y-85068285D01*
X366873791Y-85725000D01*
X366938472Y-86381715D01*
X367124510Y-86995000D01*
X366938472Y-87608285D01*
X366873791Y-88265000D01*
X366938472Y-88921715D01*
X367124510Y-89535000D01*
X366938472Y-90148285D01*
X366873791Y-90805000D01*
X366938472Y-91461715D01*
X367130028Y-92093192D01*
X367441100Y-92675166D01*
X367859731Y-93185269D01*
X368054364Y-93345000D01*
X367859731Y-93504731D01*
X367441100Y-94014834D01*
X367130028Y-94596808D01*
X366938472Y-95228285D01*
X366873791Y-95885000D01*
X366938472Y-96541715D01*
X367124510Y-97155000D01*
X366938472Y-97768285D01*
X366873791Y-98425000D01*
X366938472Y-99081715D01*
X367124510Y-99695000D01*
X366938472Y-100308285D01*
X366873791Y-100965000D01*
X366938472Y-101621715D01*
X367124510Y-102235000D01*
X366938472Y-102848285D01*
X366873791Y-103505000D01*
X366938472Y-104161715D01*
X367124510Y-104775000D01*
X366938472Y-105388285D01*
X366873791Y-106045000D01*
X366938472Y-106701715D01*
X367124510Y-107315000D01*
X366938472Y-107928285D01*
X366873791Y-108585000D01*
X366938472Y-109241715D01*
X367124510Y-109855000D01*
X366938472Y-110468285D01*
X366873791Y-111125000D01*
X366938472Y-111781715D01*
X367124510Y-112395000D01*
X366938472Y-113008285D01*
X366873791Y-113665000D01*
X366938472Y-114321715D01*
X367124510Y-114935000D01*
X366938472Y-115548285D01*
X366873791Y-116205000D01*
X366938472Y-116861715D01*
X367124510Y-117475000D01*
X366938472Y-118088285D01*
X366873791Y-118745000D01*
X366938472Y-119401715D01*
X367124510Y-120015000D01*
X366938472Y-120628285D01*
X366873791Y-121285000D01*
X366938472Y-121941715D01*
X367124510Y-122555000D01*
X366938472Y-123168285D01*
X366925499Y-123300000D01*
X356260000Y-123300000D01*
X356260000Y-116411408D01*
X356361528Y-116076714D01*
X356410000Y-115584571D01*
X356410000Y-114555428D01*
X356361528Y-114063285D01*
X356169972Y-113431808D01*
X355858900Y-112849834D01*
X355440269Y-112339731D01*
X354930165Y-111921100D01*
X354348191Y-111610028D01*
X353716714Y-111418472D01*
X353060000Y-111353791D01*
X352403285Y-111418472D01*
X351771808Y-111610028D01*
X351189834Y-111921100D01*
X350679731Y-112339731D01*
X350261100Y-112849835D01*
X349950028Y-113431809D01*
X349758472Y-114063286D01*
X349710000Y-114555429D01*
X349710000Y-115584572D01*
X349758472Y-116076715D01*
X349860000Y-116411409D01*
X349860001Y-123300000D01*
X349354501Y-123300000D01*
X349341528Y-123168285D01*
X349155490Y-122555000D01*
X349341528Y-121941715D01*
X349406209Y-121285000D01*
X349341528Y-120628285D01*
X349155490Y-120015000D01*
X349341528Y-119401715D01*
X349406209Y-118745000D01*
X349341528Y-118088285D01*
X349155490Y-117475000D01*
X349341528Y-116861715D01*
X349406209Y-116205000D01*
X349341528Y-115548285D01*
X349155490Y-114935000D01*
X349341528Y-114321715D01*
X349406209Y-113665000D01*
X349341528Y-113008285D01*
X349149972Y-112376808D01*
X348838900Y-111794834D01*
X348420269Y-111284731D01*
X348225636Y-111125000D01*
X348420269Y-110965269D01*
X348838900Y-110455166D01*
X349149972Y-109873192D01*
X349341528Y-109241715D01*
X349383174Y-108818882D01*
X349468078Y-108842720D01*
X349835000Y-108516871D01*
X349835000Y-108328995D01*
X349950028Y-108708192D01*
X350261100Y-109290166D01*
X350679731Y-109800269D01*
X351189835Y-110218900D01*
X351771809Y-110529972D01*
X352403286Y-110721528D01*
X353060000Y-110786209D01*
X353716715Y-110721528D01*
X354348192Y-110529972D01*
X354930166Y-110218900D01*
X355440269Y-109800269D01*
X355858900Y-109290166D01*
X356169972Y-108708191D01*
X356361528Y-108076714D01*
X356410000Y-107584571D01*
X356410000Y-106555428D01*
X356361528Y-106063285D01*
X356260000Y-105728591D01*
X356260000Y-105146408D01*
X356361528Y-104811714D01*
X356410000Y-104319571D01*
X356410000Y-103490428D01*
X356361528Y-102998285D01*
X356169972Y-102366808D01*
X355858900Y-101784834D01*
X355440269Y-101274731D01*
X355372318Y-101218965D01*
X355410000Y-100905000D01*
X355410000Y-100655000D01*
X354553934Y-100655000D01*
X354366847Y-100555000D01*
X355410000Y-100555000D01*
X355410000Y-100305000D01*
X355355091Y-99847498D01*
X355211983Y-99409499D01*
X354986175Y-99007835D01*
X354686345Y-98657942D01*
X354324016Y-98373266D01*
X353913111Y-98164747D01*
X353476922Y-98042280D01*
X353235000Y-98257121D01*
X353235000Y-97665429D01*
X353186528Y-97173286D01*
X352994972Y-96541809D01*
X352683900Y-95959834D01*
X352265269Y-95449731D01*
X352204966Y-95400242D01*
X352235000Y-95150000D01*
X352235000Y-94883146D01*
X352643078Y-94997720D01*
X353010000Y-94671871D01*
X353010000Y-92746284D01*
X353060000Y-92751209D01*
X353110000Y-92746284D01*
X353110000Y-94671871D01*
X353476922Y-94997720D01*
X353913111Y-94875253D01*
X354324016Y-94666734D01*
X354686345Y-94382058D01*
X354986175Y-94032165D01*
X355211983Y-93630501D01*
X355355091Y-93192502D01*
X355410000Y-92735000D01*
X355410000Y-92485000D01*
X354366847Y-92485000D01*
X354553934Y-92385000D01*
X355410000Y-92385000D01*
X355410000Y-92135000D01*
X355372318Y-91821035D01*
X355440269Y-91765269D01*
X355858900Y-91255166D01*
X356169972Y-90673192D01*
X356361528Y-90041715D01*
X356410000Y-89549572D01*
X356410000Y-88720429D01*
X356361528Y-88228286D01*
X356169972Y-87596809D01*
X355858900Y-87014834D01*
X355440269Y-86504731D01*
X354930166Y-86086100D01*
X354348192Y-85775028D01*
X353716715Y-85583472D01*
X353120228Y-85524723D01*
X352994972Y-85111809D01*
X352683900Y-84529834D01*
X352265269Y-84019731D01*
X351755166Y-83601100D01*
X351173192Y-83290028D01*
X350770785Y-83167960D01*
X350788762Y-83108698D01*
X350830000Y-82690002D01*
X350843789Y-82550000D01*
X350830000Y-82409998D01*
X350830000Y-76975002D01*
X350843789Y-76835000D01*
X350788762Y-76276302D01*
X350740590Y-76117500D01*
X350625796Y-75739075D01*
X350361154Y-75243964D01*
X350005004Y-74809995D01*
X349896250Y-74720743D01*
X349459262Y-74283755D01*
X349370005Y-74174995D01*
X348936036Y-73818846D01*
X348440925Y-73554204D01*
X347903698Y-73391238D01*
X347485002Y-73350000D01*
X347345000Y-73336211D01*
X347204998Y-73350000D01*
X325895002Y-73350000D01*
X325755000Y-73336211D01*
X325614998Y-73350000D01*
X325196302Y-73391238D01*
X324659075Y-73554204D01*
X324163964Y-73818846D01*
X323729995Y-74174995D01*
X323640738Y-74283755D01*
X323203750Y-74720743D01*
X323094996Y-74809995D01*
X322738847Y-75243964D01*
X322654609Y-75401563D01*
X322474204Y-75739076D01*
X322311238Y-76276303D01*
X322256211Y-76835000D01*
X322270001Y-76975012D01*
X322270001Y-77655000D01*
X310398400Y-77655000D01*
X310398400Y-77365799D01*
X310179352Y-76264571D01*
X309749675Y-75227237D01*
X309125879Y-74293662D01*
X309060000Y-74227783D01*
X309060000Y-70866000D01*
X309051353Y-70778209D01*
X309025746Y-70693792D01*
X308984161Y-70615993D01*
X308928198Y-70547802D01*
X308860007Y-70491839D01*
X308782208Y-70450254D01*
X308697791Y-70424647D01*
X308610000Y-70416000D01*
X302830000Y-70416000D01*
X302830000Y-70266922D01*
X337562280Y-70266922D01*
X337684747Y-70703111D01*
X337893266Y-71114016D01*
X338177942Y-71476345D01*
X338527835Y-71776175D01*
X338929499Y-72001983D01*
X339367498Y-72145091D01*
X339825000Y-72200000D01*
X340175000Y-72200000D01*
X340175000Y-69900000D01*
X337888129Y-69900000D01*
X337562280Y-70266922D01*
X302830000Y-70266922D01*
X302830000Y-24475000D01*
X321490725Y-24475000D01*
X321321797Y-24882828D01*
G36*
X414880000Y-65255301D02*
G01*
X414846058Y-65213942D01*
X414396862Y-64845297D01*
X413884378Y-64571369D01*
X413328301Y-64402685D01*
X412894915Y-64360000D01*
X412750000Y-64345727D01*
X412605085Y-64360000D01*
X401051952Y-64360000D01*
X401074112Y-64135000D01*
X400997847Y-63360665D01*
X400771981Y-62616087D01*
X400405196Y-61929880D01*
X399911586Y-61328414D01*
X399389407Y-60899873D01*
X399585613Y-60652358D01*
X399849578Y-60137722D01*
X400008070Y-59581477D01*
X400010440Y-59565800D01*
X399692017Y-59105000D01*
X396405000Y-59105000D01*
X396405000Y-59125000D01*
X396305000Y-59125000D01*
X396305000Y-59105000D01*
X393017983Y-59105000D01*
X392699560Y-59565800D01*
X392701930Y-59581477D01*
X392860422Y-60137722D01*
X393124387Y-60652358D01*
X393320593Y-60899873D01*
X392798414Y-61328414D01*
X392389097Y-61827168D01*
X392078444Y-61516515D01*
X391986058Y-61403942D01*
X391536862Y-61035297D01*
X391024378Y-60761369D01*
X390468301Y-60592685D01*
X390034915Y-60550000D01*
X389890000Y-60535727D01*
X389745085Y-60550000D01*
X383985000Y-60550000D01*
X383985000Y-60425000D01*
X383930091Y-59967498D01*
X383786983Y-59529499D01*
X383561175Y-59127835D01*
X383261345Y-58777942D01*
X382963844Y-58544200D01*
X392699560Y-58544200D01*
X393017983Y-59005000D01*
X396305000Y-59005000D01*
X396305000Y-56105000D01*
X396405000Y-56105000D01*
X396405000Y-59005000D01*
X399692017Y-59005000D01*
X400010440Y-58544200D01*
X400008070Y-58528523D01*
X399849578Y-57972278D01*
X399585613Y-57457642D01*
X399226320Y-57004391D01*
X398785505Y-56629944D01*
X398280110Y-56348690D01*
X397729556Y-56171438D01*
X397155000Y-56105000D01*
X396405000Y-56105000D01*
X396305000Y-56105000D01*
X395555000Y-56105000D01*
X394980444Y-56171438D01*
X394429890Y-56348690D01*
X393924495Y-56629944D01*
X393483680Y-57004391D01*
X393124387Y-57457642D01*
X392860422Y-57972278D01*
X392701930Y-58528523D01*
X392699560Y-58544200D01*
X382963844Y-58544200D01*
X382899016Y-58493266D01*
X382488111Y-58284747D01*
X382051922Y-58162280D01*
X381685000Y-58488129D01*
X381685000Y-60550000D01*
X381585000Y-60550000D01*
X381585000Y-58488129D01*
X381218078Y-58162280D01*
X380781889Y-58284747D01*
X380484898Y-58435459D01*
X380205269Y-58094731D01*
X379695165Y-57676100D01*
X379113191Y-57365028D01*
X378481714Y-57173472D01*
X377825000Y-57108791D01*
X377168285Y-57173472D01*
X376773788Y-57293141D01*
X381586930Y-52480000D01*
X392279173Y-52480000D01*
X392303472Y-52726715D01*
X392495028Y-53358192D01*
X392806100Y-53940166D01*
X393224731Y-54450269D01*
X393734834Y-54868900D01*
X394316808Y-55179972D01*
X394948285Y-55371528D01*
X395440428Y-55420000D01*
X396769572Y-55420000D01*
X397261715Y-55371528D01*
X397893192Y-55179972D01*
X398475166Y-54868900D01*
X398985269Y-54450269D01*
X399403900Y-53940166D01*
X399415000Y-53919399D01*
X399426100Y-53940166D01*
X399844731Y-54450269D01*
X400354834Y-54868900D01*
X400936808Y-55179972D01*
X401568285Y-55371528D01*
X402060428Y-55420000D01*
X403389572Y-55420000D01*
X403881715Y-55371528D01*
X404216409Y-55270000D01*
X405815836Y-55270000D01*
X405988087Y-55322252D01*
X406472883Y-55370000D01*
X407597117Y-55370000D01*
X408081913Y-55322252D01*
X408703966Y-55133554D01*
X409277253Y-54827126D01*
X409779743Y-54414743D01*
X410192126Y-53912253D01*
X410498554Y-53338966D01*
X410687252Y-52716913D01*
X410750967Y-52070000D01*
X410687252Y-51423087D01*
X410498554Y-50801034D01*
X410498001Y-50800000D01*
X410498554Y-50798966D01*
X410687252Y-50176913D01*
X410750967Y-49530000D01*
X410687252Y-48883087D01*
X410498554Y-48261034D01*
X410498001Y-48260000D01*
X410498554Y-48258966D01*
X410687252Y-47636913D01*
X410750967Y-46990000D01*
X410687252Y-46343087D01*
X410498554Y-45721034D01*
X410498001Y-45720000D01*
X410498554Y-45718966D01*
X410687252Y-45096913D01*
X410750967Y-44450000D01*
X410687252Y-43803087D01*
X410498554Y-43181034D01*
X410498001Y-43180000D01*
X410498554Y-43178966D01*
X410687252Y-42556913D01*
X410750967Y-41910000D01*
X410687252Y-41263087D01*
X410498554Y-40641034D01*
X410498001Y-40640000D01*
X410498554Y-40638966D01*
X410687252Y-40016913D01*
X410750967Y-39370000D01*
X410687252Y-38723087D01*
X410498554Y-38101034D01*
X410498001Y-38100000D01*
X410498554Y-38098966D01*
X410687252Y-37476913D01*
X410750967Y-36830000D01*
X410687252Y-36183087D01*
X410498554Y-35561034D01*
X410498001Y-35560000D01*
X410498554Y-35558966D01*
X410687252Y-34936913D01*
X410750967Y-34290000D01*
X410687252Y-33643087D01*
X410663184Y-33563745D01*
X410923484Y-33303445D01*
X411036058Y-33211058D01*
X411404703Y-32761862D01*
X411678631Y-32249378D01*
X411847315Y-31693301D01*
X411890000Y-31259915D01*
X411904273Y-31115000D01*
X411890000Y-30970085D01*
X411890000Y-27916411D01*
X412003554Y-27703966D01*
X412192252Y-27081913D01*
X412240000Y-26597117D01*
X412240000Y-25472884D01*
X412192252Y-24988088D01*
X412036608Y-24475000D01*
X414880000Y-24475000D01*
X414880000Y-65255301D01*
G37*
X414880000Y-65255301D02*
X414846058Y-65213942D01*
X414396862Y-64845297D01*
X413884378Y-64571369D01*
X413328301Y-64402685D01*
X412894915Y-64360000D01*
X412750000Y-64345727D01*
X412605085Y-64360000D01*
X401051952Y-64360000D01*
X401074112Y-64135000D01*
X400997847Y-63360665D01*
X400771981Y-62616087D01*
X400405196Y-61929880D01*
X399911586Y-61328414D01*
X399389407Y-60899873D01*
X399585613Y-60652358D01*
X399849578Y-60137722D01*
X400008070Y-59581477D01*
X400010440Y-59565800D01*
X399692017Y-59105000D01*
X396405000Y-59105000D01*
X396405000Y-59125000D01*
X396305000Y-59125000D01*
X396305000Y-59105000D01*
X393017983Y-59105000D01*
X392699560Y-59565800D01*
X392701930Y-59581477D01*
X392860422Y-60137722D01*
X393124387Y-60652358D01*
X393320593Y-60899873D01*
X392798414Y-61328414D01*
X392389097Y-61827168D01*
X392078444Y-61516515D01*
X391986058Y-61403942D01*
X391536862Y-61035297D01*
X391024378Y-60761369D01*
X390468301Y-60592685D01*
X390034915Y-60550000D01*
X389890000Y-60535727D01*
X389745085Y-60550000D01*
X383985000Y-60550000D01*
X383985000Y-60425000D01*
X383930091Y-59967498D01*
X383786983Y-59529499D01*
X383561175Y-59127835D01*
X383261345Y-58777942D01*
X382963844Y-58544200D01*
X392699560Y-58544200D01*
X393017983Y-59005000D01*
X396305000Y-59005000D01*
X396305000Y-56105000D01*
X396405000Y-56105000D01*
X396405000Y-59005000D01*
X399692017Y-59005000D01*
X400010440Y-58544200D01*
X400008070Y-58528523D01*
X399849578Y-57972278D01*
X399585613Y-57457642D01*
X399226320Y-57004391D01*
X398785505Y-56629944D01*
X398280110Y-56348690D01*
X397729556Y-56171438D01*
X397155000Y-56105000D01*
X396405000Y-56105000D01*
X396305000Y-56105000D01*
X395555000Y-56105000D01*
X394980444Y-56171438D01*
X394429890Y-56348690D01*
X393924495Y-56629944D01*
X393483680Y-57004391D01*
X393124387Y-57457642D01*
X392860422Y-57972278D01*
X392701930Y-58528523D01*
X392699560Y-58544200D01*
X382963844Y-58544200D01*
X382899016Y-58493266D01*
X382488111Y-58284747D01*
X382051922Y-58162280D01*
X381685000Y-58488129D01*
X381685000Y-60550000D01*
X381585000Y-60550000D01*
X381585000Y-58488129D01*
X381218078Y-58162280D01*
X380781889Y-58284747D01*
X380484898Y-58435459D01*
X380205269Y-58094731D01*
X379695165Y-57676100D01*
X379113191Y-57365028D01*
X378481714Y-57173472D01*
X377825000Y-57108791D01*
X377168285Y-57173472D01*
X376773788Y-57293141D01*
X381586930Y-52480000D01*
X392279173Y-52480000D01*
X392303472Y-52726715D01*
X392495028Y-53358192D01*
X392806100Y-53940166D01*
X393224731Y-54450269D01*
X393734834Y-54868900D01*
X394316808Y-55179972D01*
X394948285Y-55371528D01*
X395440428Y-55420000D01*
X396769572Y-55420000D01*
X397261715Y-55371528D01*
X397893192Y-55179972D01*
X398475166Y-54868900D01*
X398985269Y-54450269D01*
X399403900Y-53940166D01*
X399415000Y-53919399D01*
X399426100Y-53940166D01*
X399844731Y-54450269D01*
X400354834Y-54868900D01*
X400936808Y-55179972D01*
X401568285Y-55371528D01*
X402060428Y-55420000D01*
X403389572Y-55420000D01*
X403881715Y-55371528D01*
X404216409Y-55270000D01*
X405815836Y-55270000D01*
X405988087Y-55322252D01*
X406472883Y-55370000D01*
X407597117Y-55370000D01*
X408081913Y-55322252D01*
X408703966Y-55133554D01*
X409277253Y-54827126D01*
X409779743Y-54414743D01*
X410192126Y-53912253D01*
X410498554Y-53338966D01*
X410687252Y-52716913D01*
X410750967Y-52070000D01*
X410687252Y-51423087D01*
X410498554Y-50801034D01*
X410498001Y-50800000D01*
X410498554Y-50798966D01*
X410687252Y-50176913D01*
X410750967Y-49530000D01*
X410687252Y-48883087D01*
X410498554Y-48261034D01*
X410498001Y-48260000D01*
X410498554Y-48258966D01*
X410687252Y-47636913D01*
X410750967Y-46990000D01*
X410687252Y-46343087D01*
X410498554Y-45721034D01*
X410498001Y-45720000D01*
X410498554Y-45718966D01*
X410687252Y-45096913D01*
X410750967Y-44450000D01*
X410687252Y-43803087D01*
X410498554Y-43181034D01*
X410498001Y-43180000D01*
X410498554Y-43178966D01*
X410687252Y-42556913D01*
X410750967Y-41910000D01*
X410687252Y-41263087D01*
X410498554Y-40641034D01*
X410498001Y-40640000D01*
X410498554Y-40638966D01*
X410687252Y-40016913D01*
X410750967Y-39370000D01*
X410687252Y-38723087D01*
X410498554Y-38101034D01*
X410498001Y-38100000D01*
X410498554Y-38098966D01*
X410687252Y-37476913D01*
X410750967Y-36830000D01*
X410687252Y-36183087D01*
X410498554Y-35561034D01*
X410498001Y-35560000D01*
X410498554Y-35558966D01*
X410687252Y-34936913D01*
X410750967Y-34290000D01*
X410687252Y-33643087D01*
X410663184Y-33563745D01*
X410923484Y-33303445D01*
X411036058Y-33211058D01*
X411404703Y-32761862D01*
X411678631Y-32249378D01*
X411847315Y-31693301D01*
X411890000Y-31259915D01*
X411904273Y-31115000D01*
X411890000Y-30970085D01*
X411890000Y-27916411D01*
X412003554Y-27703966D01*
X412192252Y-27081913D01*
X412240000Y-26597117D01*
X412240000Y-25472884D01*
X412192252Y-24988088D01*
X412036608Y-24475000D01*
X414880000Y-24475000D01*
X414880000Y-65255301D01*
G36*
X404294211Y-24708634D02*
G01*
X404153948Y-25137253D01*
X404100000Y-25585000D01*
X404100000Y-25974688D01*
X403881715Y-25908472D01*
X403389572Y-25860000D01*
X402060428Y-25860000D01*
X401568285Y-25908472D01*
X400936808Y-26100028D01*
X400354834Y-26411100D01*
X399844731Y-26829731D01*
X399426100Y-27339834D01*
X399415000Y-27360601D01*
X399403900Y-27339834D01*
X398985269Y-26829731D01*
X398475166Y-26411100D01*
X397905000Y-26106340D01*
X397905000Y-26085000D01*
X397843651Y-26085000D01*
X397513995Y-25985000D01*
X397905000Y-25985000D01*
X397905000Y-25585000D01*
X397851052Y-25137253D01*
X397710789Y-24708634D01*
X397579302Y-24475000D01*
X404425698Y-24475000D01*
X404294211Y-24708634D01*
G37*
X404294211Y-24708634D02*
X404153948Y-25137253D01*
X404100000Y-25585000D01*
X404100000Y-25974688D01*
X403881715Y-25908472D01*
X403389572Y-25860000D01*
X402060428Y-25860000D01*
X401568285Y-25908472D01*
X400936808Y-26100028D01*
X400354834Y-26411100D01*
X399844731Y-26829731D01*
X399426100Y-27339834D01*
X399415000Y-27360601D01*
X399403900Y-27339834D01*
X398985269Y-26829731D01*
X398475166Y-26411100D01*
X397905000Y-26106340D01*
X397905000Y-26085000D01*
X397843651Y-26085000D01*
X397513995Y-25985000D01*
X397905000Y-25985000D01*
X397905000Y-25585000D01*
X397851052Y-25137253D01*
X397710789Y-24708634D01*
X397579302Y-24475000D01*
X404425698Y-24475000D01*
X404294211Y-24708634D01*
M02*
