G04 #@! TF.GenerationSoftware,KiCad,Pcbnew,5.1.5+dfsg1-2build2*
G04 #@! TF.CreationDate,2023-03-02T23:39:50+01:00*
G04 #@! TF.ProjectId,RSensHub,5253656e-7348-4756-922e-6b696361645f,rev?*
G04 #@! TF.SameCoordinates,Original*
G04 #@! TF.FileFunction,Copper,L2,Bot*
G04 #@! TF.FilePolarity,Positive*
%FSLAX46Y46*%
G04 Gerber Fmt 4.6, Leading zero omitted, Abs format (unit mm)*
G04 Created by KiCad (PCBNEW 5.1.5+dfsg1-2build2) date 2023-03-02 23:39:50*
%MOMM*%
%LPD*%
G04 APERTURE LIST*
%ADD10C,0.800000*%
%ADD11C,6.500000*%
%ADD12O,4.500000X3.000000*%
%ADD13O,4.000000X2.200000*%
%ADD14O,1.800000X3.000000*%
%ADD15O,2.500000X1.800000*%
%ADD16C,4.000000*%
%ADD17O,2.500000X3.500000*%
%ADD18O,1.800000X2.500000*%
%ADD19O,2.800000X1.800000*%
%ADD20O,1.800000X2.800000*%
%ADD21O,2.200000X3.500000*%
%ADD22C,0.150000*%
%ADD23C,5.000000*%
%ADD24O,3.000000X1.800000*%
%ADD25O,5.000000X5.000000*%
%ADD26O,2.500000X1.700000*%
%ADD27O,2.200000X3.200000*%
%ADD28O,1.700000X2.500000*%
%ADD29O,3.000000X4.500000*%
%ADD30O,1.800000X2.300000*%
%ADD31C,2.000000*%
%ADD32R,2.000000X2.000000*%
%ADD33O,3.000000X3.000000*%
%ADD34C,2.000000*%
%ADD35C,2.500000*%
%ADD36C,1.000000*%
%ADD37C,1.500000*%
%ADD38C,0.800000*%
%ADD39C,0.900000*%
G04 APERTURE END LIST*
D10*
X306948400Y-77927200D03*
X303107410Y-79518190D03*
X306289390Y-76336210D03*
X304698400Y-75677200D03*
X304698400Y-80177200D03*
X306289390Y-79518190D03*
X303107410Y-76336210D03*
X302448400Y-77927200D03*
D11*
X304698400Y-77927200D03*
D10*
X363220000Y-24420000D03*
X364810990Y-28260990D03*
X361629010Y-25079010D03*
X360970000Y-26670000D03*
X365470000Y-26670000D03*
X364810990Y-25079010D03*
X361629010Y-28260990D03*
X363220000Y-28920000D03*
D11*
X363220000Y-26670000D03*
D12*
X396355000Y-59055000D03*
X396355000Y-64135000D03*
D13*
X392165000Y-122428000D03*
X378471000Y-122428000D03*
D14*
X389763000Y-110490000D03*
X388493000Y-113780000D03*
X387223000Y-110490000D03*
X385953000Y-113780000D03*
X384683000Y-110490000D03*
X383413000Y-113780000D03*
X382143000Y-110490000D03*
X380873000Y-113780000D03*
D15*
X380484000Y-98425000D03*
X388484000Y-98425000D03*
X326780000Y-122555000D03*
X334780000Y-122555000D03*
D16*
X334010000Y-91186000D03*
X330708000Y-88138000D03*
X330708000Y-94234000D03*
D17*
X318008000Y-41402000D03*
X312928000Y-41402000D03*
X318008000Y-97790000D03*
X312928000Y-97790000D03*
D18*
X375285000Y-78605000D03*
X375285000Y-86605000D03*
D19*
X402455000Y-85725000D03*
X409075000Y-83185000D03*
X402455000Y-83185000D03*
X409075000Y-85725000D03*
X387485000Y-88265000D03*
X380865000Y-90805000D03*
X387485000Y-90805000D03*
X380865000Y-88265000D03*
D20*
X377190000Y-97925000D03*
X374650000Y-91305000D03*
X374650000Y-97925000D03*
X377190000Y-91305000D03*
D21*
X400845000Y-77430000D03*
X410845000Y-74930000D03*
X400845000Y-72430000D03*
D18*
X391160000Y-79240000D03*
X391160000Y-87240000D03*
X397510000Y-79240000D03*
X397510000Y-87240000D03*
D15*
X388484000Y-94615000D03*
X380484000Y-94615000D03*
X380484000Y-102235000D03*
X388484000Y-102235000D03*
D18*
X386080000Y-76590000D03*
X386080000Y-84590000D03*
G04 #@! TA.AperFunction,SMDPad,CuDef*
D22*
G36*
X411604738Y-92759485D02*
G01*
X411618542Y-92761532D01*
X411632078Y-92764923D01*
X411645218Y-92769624D01*
X411657833Y-92775591D01*
X411669802Y-92782765D01*
X411681011Y-92791078D01*
X411691351Y-92800449D01*
X411700722Y-92810789D01*
X411709035Y-92821998D01*
X411716209Y-92833967D01*
X411722176Y-92846582D01*
X411726877Y-92859722D01*
X411730268Y-92873258D01*
X411732315Y-92887062D01*
X411733000Y-92901000D01*
X411733000Y-103796600D01*
X411732315Y-103810538D01*
X411730268Y-103824342D01*
X411726877Y-103837878D01*
X411722176Y-103851018D01*
X411716209Y-103863633D01*
X411709035Y-103875602D01*
X411700722Y-103886811D01*
X411691351Y-103897151D01*
X411681011Y-103906522D01*
X411669802Y-103914835D01*
X411657833Y-103922009D01*
X411645218Y-103927976D01*
X411632078Y-103932677D01*
X411618542Y-103936068D01*
X411604738Y-103938115D01*
X411590800Y-103938800D01*
X404765200Y-103938800D01*
X404751262Y-103938115D01*
X404737458Y-103936068D01*
X404723922Y-103932677D01*
X404710782Y-103927976D01*
X404698167Y-103922009D01*
X404686198Y-103914835D01*
X404674989Y-103906522D01*
X404664649Y-103897151D01*
X404655278Y-103886811D01*
X404646965Y-103875602D01*
X404639791Y-103863633D01*
X404633824Y-103851018D01*
X404629123Y-103837878D01*
X404625732Y-103824342D01*
X404623685Y-103810538D01*
X404623000Y-103796600D01*
X404623000Y-92901000D01*
X404623685Y-92887062D01*
X404625732Y-92873258D01*
X404629123Y-92859722D01*
X404633824Y-92846582D01*
X404639791Y-92833967D01*
X404646965Y-92821998D01*
X404655278Y-92810789D01*
X404664649Y-92800449D01*
X404674989Y-92791078D01*
X404686198Y-92782765D01*
X404698167Y-92775591D01*
X404710782Y-92769624D01*
X404723922Y-92764923D01*
X404737458Y-92761532D01*
X404751262Y-92759485D01*
X404765200Y-92758800D01*
X411590800Y-92758800D01*
X411604738Y-92759485D01*
G37*
G04 #@! TD.AperFunction*
D23*
X408432000Y-98348800D03*
D24*
X392168000Y-100888800D03*
X392168000Y-98348800D03*
X392168000Y-95808800D03*
G04 #@! TA.AperFunction,SMDPad,CuDef*
D22*
G36*
X406400000Y-86880602D02*
G01*
X406424534Y-86880602D01*
X406473365Y-86885412D01*
X406521490Y-86894984D01*
X406568445Y-86909228D01*
X406613778Y-86928005D01*
X406657051Y-86951136D01*
X406697850Y-86978396D01*
X406735779Y-87009524D01*
X406770476Y-87044221D01*
X406801604Y-87082150D01*
X406828864Y-87122949D01*
X406851995Y-87166222D01*
X406870772Y-87211555D01*
X406885016Y-87258510D01*
X406894588Y-87306635D01*
X406899398Y-87355466D01*
X406899398Y-87380000D01*
X406900000Y-87380000D01*
X406900000Y-87880000D01*
X406899398Y-87880000D01*
X406899398Y-87904534D01*
X406894588Y-87953365D01*
X406885016Y-88001490D01*
X406870772Y-88048445D01*
X406851995Y-88093778D01*
X406828864Y-88137051D01*
X406801604Y-88177850D01*
X406770476Y-88215779D01*
X406735779Y-88250476D01*
X406697850Y-88281604D01*
X406657051Y-88308864D01*
X406613778Y-88331995D01*
X406568445Y-88350772D01*
X406521490Y-88365016D01*
X406473365Y-88374588D01*
X406424534Y-88379398D01*
X406400000Y-88379398D01*
X406400000Y-88380000D01*
X405900000Y-88380000D01*
X405900000Y-86880000D01*
X406400000Y-86880000D01*
X406400000Y-86880602D01*
G37*
G04 #@! TD.AperFunction*
G04 #@! TA.AperFunction,SMDPad,CuDef*
G36*
X405600000Y-88380000D02*
G01*
X405100000Y-88380000D01*
X405100000Y-88379398D01*
X405075466Y-88379398D01*
X405026635Y-88374588D01*
X404978510Y-88365016D01*
X404931555Y-88350772D01*
X404886222Y-88331995D01*
X404842949Y-88308864D01*
X404802150Y-88281604D01*
X404764221Y-88250476D01*
X404729524Y-88215779D01*
X404698396Y-88177850D01*
X404671136Y-88137051D01*
X404648005Y-88093778D01*
X404629228Y-88048445D01*
X404614984Y-88001490D01*
X404605412Y-87953365D01*
X404600602Y-87904534D01*
X404600602Y-87880000D01*
X404600000Y-87880000D01*
X404600000Y-87380000D01*
X404600602Y-87380000D01*
X404600602Y-87355466D01*
X404605412Y-87306635D01*
X404614984Y-87258510D01*
X404629228Y-87211555D01*
X404648005Y-87166222D01*
X404671136Y-87122949D01*
X404698396Y-87082150D01*
X404729524Y-87044221D01*
X404764221Y-87009524D01*
X404802150Y-86978396D01*
X404842949Y-86951136D01*
X404886222Y-86928005D01*
X404931555Y-86909228D01*
X404978510Y-86894984D01*
X405026635Y-86885412D01*
X405075466Y-86880602D01*
X405100000Y-86880602D01*
X405100000Y-86880000D01*
X405600000Y-86880000D01*
X405600000Y-88380000D01*
G37*
G04 #@! TD.AperFunction*
D25*
X389255000Y-70866000D03*
X341884000Y-35179000D03*
D24*
X340225000Y-63500000D03*
X340225000Y-60960000D03*
X340225000Y-58420000D03*
X340225000Y-55880000D03*
X340225000Y-53340000D03*
X340225000Y-50800000D03*
X340225000Y-48260000D03*
X340225000Y-45720000D03*
X340225000Y-43180000D03*
D18*
X349885000Y-94750000D03*
X349885000Y-86750000D03*
X349885000Y-106180000D03*
X349885000Y-98180000D03*
X367030000Y-73406000D03*
X369570000Y-73406000D03*
X364490000Y-73406000D03*
X372110000Y-73406000D03*
X364470000Y-32406000D03*
X367010000Y-32406000D03*
X369550000Y-32406000D03*
X372090000Y-32406000D03*
D24*
X370840000Y-90805000D03*
X370840000Y-108585000D03*
X370840000Y-88265000D03*
X370840000Y-83185000D03*
X370840000Y-85725000D03*
X370840000Y-113665000D03*
X370840000Y-118745000D03*
X370840000Y-111125000D03*
G04 #@! TA.AperFunction,ComponentPad*
D22*
G36*
X371934108Y-77207167D02*
G01*
X371977791Y-77213647D01*
X372020628Y-77224377D01*
X372062208Y-77239254D01*
X372102129Y-77258135D01*
X372140007Y-77280839D01*
X372175477Y-77307145D01*
X372208198Y-77336802D01*
X372237855Y-77369523D01*
X372264161Y-77404993D01*
X372286865Y-77442871D01*
X372305746Y-77482792D01*
X372320623Y-77524372D01*
X372331353Y-77567209D01*
X372337833Y-77610892D01*
X372340000Y-77655000D01*
X372340000Y-78555000D01*
X372337833Y-78599108D01*
X372331353Y-78642791D01*
X372320623Y-78685628D01*
X372305746Y-78727208D01*
X372286865Y-78767129D01*
X372264161Y-78805007D01*
X372237855Y-78840477D01*
X372208198Y-78873198D01*
X372175477Y-78902855D01*
X372140007Y-78929161D01*
X372102129Y-78951865D01*
X372062208Y-78970746D01*
X372020628Y-78985623D01*
X371977791Y-78996353D01*
X371934108Y-79002833D01*
X371890000Y-79005000D01*
X369790000Y-79005000D01*
X369745892Y-79002833D01*
X369702209Y-78996353D01*
X369659372Y-78985623D01*
X369617792Y-78970746D01*
X369577871Y-78951865D01*
X369539993Y-78929161D01*
X369504523Y-78902855D01*
X369471802Y-78873198D01*
X369442145Y-78840477D01*
X369415839Y-78805007D01*
X369393135Y-78767129D01*
X369374254Y-78727208D01*
X369359377Y-78685628D01*
X369348647Y-78642791D01*
X369342167Y-78599108D01*
X369340000Y-78555000D01*
X369340000Y-77655000D01*
X369342167Y-77610892D01*
X369348647Y-77567209D01*
X369359377Y-77524372D01*
X369374254Y-77482792D01*
X369393135Y-77442871D01*
X369415839Y-77404993D01*
X369442145Y-77369523D01*
X369471802Y-77336802D01*
X369504523Y-77307145D01*
X369539993Y-77280839D01*
X369577871Y-77258135D01*
X369617792Y-77239254D01*
X369659372Y-77224377D01*
X369702209Y-77213647D01*
X369745892Y-77207167D01*
X369790000Y-77205000D01*
X371890000Y-77205000D01*
X371934108Y-77207167D01*
G37*
G04 #@! TD.AperFunction*
D24*
X370840000Y-123825000D03*
X370840000Y-121285000D03*
X370840000Y-100965000D03*
X370840000Y-95885000D03*
X370840000Y-98425000D03*
X370840000Y-106045000D03*
X370840000Y-116205000D03*
X370840000Y-103505000D03*
G04 #@! TA.AperFunction,ComponentPad*
D22*
G36*
X371934108Y-92447167D02*
G01*
X371977791Y-92453647D01*
X372020628Y-92464377D01*
X372062208Y-92479254D01*
X372102129Y-92498135D01*
X372140007Y-92520839D01*
X372175477Y-92547145D01*
X372208198Y-92576802D01*
X372237855Y-92609523D01*
X372264161Y-92644993D01*
X372286865Y-92682871D01*
X372305746Y-92722792D01*
X372320623Y-92764372D01*
X372331353Y-92807209D01*
X372337833Y-92850892D01*
X372340000Y-92895000D01*
X372340000Y-93795000D01*
X372337833Y-93839108D01*
X372331353Y-93882791D01*
X372320623Y-93925628D01*
X372305746Y-93967208D01*
X372286865Y-94007129D01*
X372264161Y-94045007D01*
X372237855Y-94080477D01*
X372208198Y-94113198D01*
X372175477Y-94142855D01*
X372140007Y-94169161D01*
X372102129Y-94191865D01*
X372062208Y-94210746D01*
X372020628Y-94225623D01*
X371977791Y-94236353D01*
X371934108Y-94242833D01*
X371890000Y-94245000D01*
X369790000Y-94245000D01*
X369745892Y-94242833D01*
X369702209Y-94236353D01*
X369659372Y-94225623D01*
X369617792Y-94210746D01*
X369577871Y-94191865D01*
X369539993Y-94169161D01*
X369504523Y-94142855D01*
X369471802Y-94113198D01*
X369442145Y-94080477D01*
X369415839Y-94045007D01*
X369393135Y-94007129D01*
X369374254Y-93967208D01*
X369359377Y-93925628D01*
X369348647Y-93882791D01*
X369342167Y-93839108D01*
X369340000Y-93795000D01*
X369340000Y-92895000D01*
X369342167Y-92850892D01*
X369348647Y-92807209D01*
X369359377Y-92764372D01*
X369374254Y-92722792D01*
X369393135Y-92682871D01*
X369415839Y-92644993D01*
X369442145Y-92609523D01*
X369471802Y-92576802D01*
X369504523Y-92547145D01*
X369539993Y-92520839D01*
X369577871Y-92498135D01*
X369617792Y-92479254D01*
X369659372Y-92464377D01*
X369702209Y-92453647D01*
X369745892Y-92447167D01*
X369790000Y-92445000D01*
X371890000Y-92445000D01*
X371934108Y-92447167D01*
G37*
G04 #@! TD.AperFunction*
D24*
X370840000Y-80645000D03*
X345440000Y-90805000D03*
X345440000Y-80645000D03*
X345440000Y-93345000D03*
X345440000Y-95885000D03*
X345440000Y-98425000D03*
X345440000Y-78105000D03*
X345440000Y-83185000D03*
X345440000Y-85725000D03*
X345440000Y-88265000D03*
X345440000Y-121285000D03*
X345440000Y-123825000D03*
X345440000Y-116205000D03*
X345440000Y-118745000D03*
G04 #@! TA.AperFunction,ComponentPad*
D22*
G36*
X346534108Y-110227167D02*
G01*
X346577791Y-110233647D01*
X346620628Y-110244377D01*
X346662208Y-110259254D01*
X346702129Y-110278135D01*
X346740007Y-110300839D01*
X346775477Y-110327145D01*
X346808198Y-110356802D01*
X346837855Y-110389523D01*
X346864161Y-110424993D01*
X346886865Y-110462871D01*
X346905746Y-110502792D01*
X346920623Y-110544372D01*
X346931353Y-110587209D01*
X346937833Y-110630892D01*
X346940000Y-110675000D01*
X346940000Y-111575000D01*
X346937833Y-111619108D01*
X346931353Y-111662791D01*
X346920623Y-111705628D01*
X346905746Y-111747208D01*
X346886865Y-111787129D01*
X346864161Y-111825007D01*
X346837855Y-111860477D01*
X346808198Y-111893198D01*
X346775477Y-111922855D01*
X346740007Y-111949161D01*
X346702129Y-111971865D01*
X346662208Y-111990746D01*
X346620628Y-112005623D01*
X346577791Y-112016353D01*
X346534108Y-112022833D01*
X346490000Y-112025000D01*
X344390000Y-112025000D01*
X344345892Y-112022833D01*
X344302209Y-112016353D01*
X344259372Y-112005623D01*
X344217792Y-111990746D01*
X344177871Y-111971865D01*
X344139993Y-111949161D01*
X344104523Y-111922855D01*
X344071802Y-111893198D01*
X344042145Y-111860477D01*
X344015839Y-111825007D01*
X343993135Y-111787129D01*
X343974254Y-111747208D01*
X343959377Y-111705628D01*
X343948647Y-111662791D01*
X343942167Y-111619108D01*
X343940000Y-111575000D01*
X343940000Y-110675000D01*
X343942167Y-110630892D01*
X343948647Y-110587209D01*
X343959377Y-110544372D01*
X343974254Y-110502792D01*
X343993135Y-110462871D01*
X344015839Y-110424993D01*
X344042145Y-110389523D01*
X344071802Y-110356802D01*
X344104523Y-110327145D01*
X344139993Y-110300839D01*
X344177871Y-110278135D01*
X344217792Y-110259254D01*
X344259372Y-110244377D01*
X344302209Y-110233647D01*
X344345892Y-110227167D01*
X344390000Y-110225000D01*
X346490000Y-110225000D01*
X346534108Y-110227167D01*
G37*
G04 #@! TD.AperFunction*
D24*
X345440000Y-113665000D03*
X345440000Y-100965000D03*
X345440000Y-103505000D03*
X345440000Y-106045000D03*
X345440000Y-108585000D03*
D26*
X340360000Y-111125000D03*
X340360000Y-108585000D03*
X340360000Y-106045000D03*
X340360000Y-103505000D03*
X340360000Y-100965000D03*
X340360000Y-98425000D03*
X340360000Y-95885000D03*
X340360000Y-93345000D03*
X340360000Y-90805000D03*
X340360000Y-88265000D03*
X340360000Y-85725000D03*
X340360000Y-83185000D03*
D27*
X306705000Y-90035000D03*
X306705000Y-99195000D03*
D19*
X402725000Y-52070000D03*
X402725000Y-49530000D03*
X402725000Y-46990000D03*
X402725000Y-44450000D03*
X402725000Y-41910000D03*
X402725000Y-39370000D03*
X402725000Y-36830000D03*
X402725000Y-34290000D03*
X402725000Y-31750000D03*
X402725000Y-29210000D03*
X396105000Y-52070000D03*
X396105000Y-49530000D03*
X396105000Y-46990000D03*
X396105000Y-44450000D03*
X396105000Y-41910000D03*
X396105000Y-39370000D03*
X396105000Y-36830000D03*
X396105000Y-34290000D03*
X396105000Y-31750000D03*
X396105000Y-29210000D03*
D26*
X407035000Y-52070000D03*
X407035000Y-49530000D03*
X407035000Y-46990000D03*
X407035000Y-44450000D03*
X407035000Y-41910000D03*
X407035000Y-39370000D03*
X407035000Y-36830000D03*
X407035000Y-34290000D03*
X407035000Y-31750000D03*
D15*
X349115000Y-40005000D03*
X357115000Y-40005000D03*
X340225000Y-69850000D03*
X348225000Y-69850000D03*
D18*
X381635000Y-60825000D03*
X381635000Y-68825000D03*
X377825000Y-60825000D03*
X377825000Y-68825000D03*
D15*
X357115000Y-46355000D03*
X349115000Y-46355000D03*
D18*
X353060000Y-107070000D03*
X353060000Y-115070000D03*
D15*
X334780000Y-117475000D03*
X326780000Y-117475000D03*
D18*
X302895000Y-90670000D03*
X302895000Y-98670000D03*
D28*
X382905000Y-76200000D03*
X380365000Y-76200000D03*
X393065000Y-26035000D03*
X395605000Y-26035000D03*
X408940000Y-26035000D03*
X406400000Y-26035000D03*
G04 #@! TA.AperFunction,SMDPad,CuDef*
D22*
G36*
X334615000Y-46469398D02*
G01*
X334590466Y-46469398D01*
X334541635Y-46464588D01*
X334493510Y-46455016D01*
X334446555Y-46440772D01*
X334401222Y-46421995D01*
X334357949Y-46398864D01*
X334317150Y-46371604D01*
X334279221Y-46340476D01*
X334244524Y-46305779D01*
X334213396Y-46267850D01*
X334186136Y-46227051D01*
X334163005Y-46183778D01*
X334144228Y-46138445D01*
X334129984Y-46091490D01*
X334120412Y-46043365D01*
X334115602Y-45994534D01*
X334115602Y-45970000D01*
X334115000Y-45970000D01*
X334115000Y-45470000D01*
X334115602Y-45470000D01*
X334115602Y-45445466D01*
X334120412Y-45396635D01*
X334129984Y-45348510D01*
X334144228Y-45301555D01*
X334163005Y-45256222D01*
X334186136Y-45212949D01*
X334213396Y-45172150D01*
X334244524Y-45134221D01*
X334279221Y-45099524D01*
X334317150Y-45068396D01*
X334357949Y-45041136D01*
X334401222Y-45018005D01*
X334446555Y-44999228D01*
X334493510Y-44984984D01*
X334541635Y-44975412D01*
X334590466Y-44970602D01*
X334615000Y-44970602D01*
X334615000Y-44970000D01*
X335115000Y-44970000D01*
X335115000Y-46470000D01*
X334615000Y-46470000D01*
X334615000Y-46469398D01*
G37*
G04 #@! TD.AperFunction*
G04 #@! TA.AperFunction,SMDPad,CuDef*
G36*
X335415000Y-44970000D02*
G01*
X335915000Y-44970000D01*
X335915000Y-44970602D01*
X335939534Y-44970602D01*
X335988365Y-44975412D01*
X336036490Y-44984984D01*
X336083445Y-44999228D01*
X336128778Y-45018005D01*
X336172051Y-45041136D01*
X336212850Y-45068396D01*
X336250779Y-45099524D01*
X336285476Y-45134221D01*
X336316604Y-45172150D01*
X336343864Y-45212949D01*
X336366995Y-45256222D01*
X336385772Y-45301555D01*
X336400016Y-45348510D01*
X336409588Y-45396635D01*
X336414398Y-45445466D01*
X336414398Y-45470000D01*
X336415000Y-45470000D01*
X336415000Y-45970000D01*
X336414398Y-45970000D01*
X336414398Y-45994534D01*
X336409588Y-46043365D01*
X336400016Y-46091490D01*
X336385772Y-46138445D01*
X336366995Y-46183778D01*
X336343864Y-46227051D01*
X336316604Y-46267850D01*
X336285476Y-46305779D01*
X336250779Y-46340476D01*
X336212850Y-46371604D01*
X336172051Y-46398864D01*
X336128778Y-46421995D01*
X336083445Y-46440772D01*
X336036490Y-46455016D01*
X335988365Y-46464588D01*
X335939534Y-46469398D01*
X335915000Y-46469398D01*
X335915000Y-46470000D01*
X335415000Y-46470000D01*
X335415000Y-44970000D01*
G37*
G04 #@! TD.AperFunction*
G04 #@! TA.AperFunction,SMDPad,CuDef*
G36*
X372859398Y-68580000D02*
G01*
X372859398Y-68604534D01*
X372854588Y-68653365D01*
X372845016Y-68701490D01*
X372830772Y-68748445D01*
X372811995Y-68793778D01*
X372788864Y-68837051D01*
X372761604Y-68877850D01*
X372730476Y-68915779D01*
X372695779Y-68950476D01*
X372657850Y-68981604D01*
X372617051Y-69008864D01*
X372573778Y-69031995D01*
X372528445Y-69050772D01*
X372481490Y-69065016D01*
X372433365Y-69074588D01*
X372384534Y-69079398D01*
X372360000Y-69079398D01*
X372360000Y-69080000D01*
X371860000Y-69080000D01*
X371860000Y-69079398D01*
X371835466Y-69079398D01*
X371786635Y-69074588D01*
X371738510Y-69065016D01*
X371691555Y-69050772D01*
X371646222Y-69031995D01*
X371602949Y-69008864D01*
X371562150Y-68981604D01*
X371524221Y-68950476D01*
X371489524Y-68915779D01*
X371458396Y-68877850D01*
X371431136Y-68837051D01*
X371408005Y-68793778D01*
X371389228Y-68748445D01*
X371374984Y-68701490D01*
X371365412Y-68653365D01*
X371360602Y-68604534D01*
X371360602Y-68580000D01*
X371360000Y-68580000D01*
X371360000Y-68080000D01*
X372860000Y-68080000D01*
X372860000Y-68580000D01*
X372859398Y-68580000D01*
G37*
G04 #@! TD.AperFunction*
G04 #@! TA.AperFunction,SMDPad,CuDef*
G36*
X371360000Y-67780000D02*
G01*
X371360000Y-67280000D01*
X371360602Y-67280000D01*
X371360602Y-67255466D01*
X371365412Y-67206635D01*
X371374984Y-67158510D01*
X371389228Y-67111555D01*
X371408005Y-67066222D01*
X371431136Y-67022949D01*
X371458396Y-66982150D01*
X371489524Y-66944221D01*
X371524221Y-66909524D01*
X371562150Y-66878396D01*
X371602949Y-66851136D01*
X371646222Y-66828005D01*
X371691555Y-66809228D01*
X371738510Y-66794984D01*
X371786635Y-66785412D01*
X371835466Y-66780602D01*
X371860000Y-66780602D01*
X371860000Y-66780000D01*
X372360000Y-66780000D01*
X372360000Y-66780602D01*
X372384534Y-66780602D01*
X372433365Y-66785412D01*
X372481490Y-66794984D01*
X372528445Y-66809228D01*
X372573778Y-66828005D01*
X372617051Y-66851136D01*
X372657850Y-66878396D01*
X372695779Y-66909524D01*
X372730476Y-66944221D01*
X372761604Y-66982150D01*
X372788864Y-67022949D01*
X372811995Y-67066222D01*
X372830772Y-67111555D01*
X372845016Y-67158510D01*
X372854588Y-67206635D01*
X372859398Y-67255466D01*
X372859398Y-67280000D01*
X372860000Y-67280000D01*
X372860000Y-67780000D01*
X371360000Y-67780000D01*
G37*
G04 #@! TD.AperFunction*
D29*
X320040000Y-105525000D03*
X314960000Y-105525000D03*
X309880000Y-105525000D03*
X304800000Y-105525000D03*
D13*
X410707000Y-122428000D03*
X397013000Y-122428000D03*
D14*
X408305000Y-110490000D03*
X407035000Y-113780000D03*
X405765000Y-110490000D03*
X404495000Y-113780000D03*
X403225000Y-110490000D03*
X401955000Y-113780000D03*
X400685000Y-110490000D03*
X399415000Y-113780000D03*
D30*
X353060000Y-103905000D03*
X353060000Y-100605000D03*
X353060000Y-89135000D03*
X353060000Y-92435000D03*
D31*
X318055000Y-31115000D03*
D32*
X313055000Y-31115000D03*
D33*
X325120000Y-26035000D03*
X350012000Y-26035000D03*
D10*
X329565000Y-50165000D03*
X329565000Y-51435000D03*
X328295000Y-51435000D03*
X328295000Y-50165000D03*
X329565000Y-72390000D03*
X328295000Y-72390000D03*
X328295000Y-71120000D03*
X329565000Y-71120000D03*
X329565000Y-52705000D03*
X329565000Y-69850000D03*
X321310000Y-76835000D03*
X321310000Y-75565000D03*
X320040000Y-75565000D03*
X320040000Y-76835000D03*
X303530000Y-69850000D03*
X304800000Y-69850000D03*
X328295000Y-52705000D03*
X328295000Y-69850000D03*
X309880000Y-50165000D03*
X311150000Y-50165000D03*
X311150000Y-51435000D03*
X309880000Y-51435000D03*
X303530000Y-25400000D03*
X304800000Y-25400000D03*
X303530000Y-26670000D03*
X304800000Y-26670000D03*
X320040000Y-25400000D03*
X320040000Y-26670000D03*
X318770000Y-26670000D03*
X318770000Y-25400000D03*
X335915000Y-34290000D03*
X335915000Y-33020000D03*
X334645000Y-33020000D03*
X334645000Y-34290000D03*
X350520000Y-31750000D03*
X351790000Y-31750000D03*
X350520000Y-33020000D03*
X351790000Y-33020000D03*
X384810000Y-60325000D03*
X386080000Y-60325000D03*
X386080000Y-59055000D03*
X384810000Y-59055000D03*
X387350000Y-59055000D03*
X387350000Y-60325000D03*
X387350000Y-52705000D03*
X387350000Y-53975000D03*
X386080000Y-53975000D03*
X386080000Y-52705000D03*
X384810000Y-52705000D03*
X384810000Y-53975000D03*
X401955000Y-64135000D03*
X401955000Y-62865000D03*
X403225000Y-62865000D03*
X403225000Y-64135000D03*
X414655000Y-24765000D03*
X413385000Y-24765000D03*
X413385000Y-26035000D03*
X414655000Y-26035000D03*
X414655000Y-27305000D03*
X413385000Y-27305000D03*
X401955000Y-55880000D03*
X403225000Y-55880000D03*
X403225000Y-57150000D03*
X401955000Y-57150000D03*
X414020000Y-55880000D03*
X412750000Y-55880000D03*
X412750000Y-57150000D03*
X414020000Y-57150000D03*
X412750000Y-54610000D03*
X414020000Y-54610000D03*
X356870000Y-122555000D03*
X356870000Y-121285000D03*
X358140000Y-121285000D03*
X358140000Y-122555000D03*
X366395000Y-122555000D03*
X366395000Y-121285000D03*
X365125000Y-121285000D03*
X365125000Y-122555000D03*
X361315000Y-109220000D03*
X362585000Y-109220000D03*
X356235000Y-109220000D03*
X357505000Y-109220000D03*
X349885000Y-123190000D03*
X349885000Y-121920000D03*
X349885000Y-118110000D03*
X349885000Y-116840000D03*
X347980000Y-111125000D03*
X349250000Y-111125000D03*
X398780000Y-107950000D03*
X397510000Y-107950000D03*
X396240000Y-107950000D03*
X411480000Y-107950000D03*
X412750000Y-107950000D03*
X410210000Y-107950000D03*
X411353000Y-106172000D03*
X412623000Y-106172000D03*
X412623000Y-106172000D03*
X410083000Y-106172000D03*
X386080000Y-119380000D03*
X386080000Y-120650000D03*
X386080000Y-121920000D03*
X349250000Y-67945000D03*
X350520000Y-67945000D03*
X351790000Y-67945000D03*
X357505000Y-51435000D03*
X356552500Y-52387500D03*
X355600000Y-53340000D03*
X356870000Y-56515000D03*
X355600000Y-57785000D03*
X360680000Y-36830000D03*
X360680000Y-38100000D03*
X360680000Y-39370000D03*
X363855000Y-53975000D03*
X362585000Y-55245000D03*
X353060000Y-51435000D03*
X352107500Y-52387500D03*
X351155000Y-53340000D03*
X368300000Y-65405000D03*
X367030000Y-65405000D03*
X365760000Y-65405000D03*
D34*
X318008000Y-31162000D02*
X318055000Y-31115000D01*
X318008000Y-41402000D02*
X318008000Y-31162000D01*
D35*
X345440000Y-111125000D02*
X347980000Y-111125000D01*
X347980000Y-111125000D02*
X349885000Y-113030000D01*
X349885000Y-125095000D02*
X347980000Y-127000000D01*
X349885000Y-113030000D02*
X349885000Y-116840000D01*
D36*
X349885000Y-95250000D02*
X349885000Y-92710000D01*
X350560000Y-92035000D02*
X353060000Y-92035000D01*
X349885000Y-92710000D02*
X350560000Y-92035000D01*
X349885000Y-95250000D02*
X352425000Y-95250000D01*
X353060000Y-95885000D02*
X353060000Y-101005000D01*
X352425000Y-95250000D02*
X353060000Y-95885000D01*
X349885000Y-106680000D02*
X349885000Y-101600000D01*
X350480000Y-101005000D02*
X353060000Y-101005000D01*
X349885000Y-101600000D02*
X350480000Y-101005000D01*
D34*
X347980000Y-127000000D02*
X373380000Y-127000000D01*
D35*
X347980000Y-127000000D02*
X316865000Y-127000000D01*
X314960000Y-125095000D02*
X314960000Y-104775000D01*
X316865000Y-127000000D02*
X314960000Y-125095000D01*
X382653001Y-117915999D02*
X382653001Y-125346999D01*
X381000000Y-127000000D02*
X373380000Y-127000000D01*
X382653001Y-125346999D02*
X381000000Y-127000000D01*
X401195001Y-117915999D02*
X401195001Y-125219999D01*
X401195001Y-125219999D02*
X399415000Y-127000000D01*
X373380000Y-127000000D02*
X316865000Y-127000000D01*
X384306002Y-127000000D02*
X382653001Y-125346999D01*
X399415000Y-127000000D02*
X384306002Y-127000000D01*
D34*
X380873000Y-113030000D02*
X380873000Y-116078000D01*
X382653001Y-117858001D02*
X380873000Y-116078000D01*
X382653001Y-117915999D02*
X382653001Y-117858001D01*
X380873000Y-111760000D02*
X382143000Y-110490000D01*
X380873000Y-113030000D02*
X380873000Y-111760000D01*
X399415000Y-113030000D02*
X399415000Y-116205000D01*
X399484002Y-116205000D02*
X401195001Y-117915999D01*
X399415000Y-116205000D02*
X399484002Y-116205000D01*
X399415000Y-111760000D02*
X400685000Y-110490000D01*
X399415000Y-113030000D02*
X399415000Y-111760000D01*
D35*
X402975002Y-127000000D02*
X401195001Y-125219999D01*
X413385000Y-127000000D02*
X402975002Y-127000000D01*
X415290000Y-125095000D02*
X413385000Y-127000000D01*
X415290000Y-67945000D02*
X415290000Y-125095000D01*
X406400000Y-59055000D02*
X415290000Y-67945000D01*
X395605000Y-59055000D02*
X406400000Y-59055000D01*
D36*
X387262245Y-90805000D02*
X387985000Y-90805000D01*
X385445000Y-90805000D02*
X387262245Y-90805000D01*
X384175000Y-89535000D02*
X385445000Y-90805000D01*
X382965010Y-85785010D02*
X384175000Y-86995000D01*
X382965010Y-81975010D02*
X382965010Y-85785010D01*
X382270000Y-81280000D02*
X382965010Y-81975010D01*
X377825000Y-81280000D02*
X382270000Y-81280000D01*
X375285000Y-78740000D02*
X377825000Y-81280000D01*
X384175000Y-86995000D02*
X384175000Y-89535000D01*
X375285000Y-78105000D02*
X375285000Y-78740000D01*
X401955000Y-83185000D02*
X404495000Y-83185000D01*
X405100000Y-83790000D02*
X405100000Y-87630000D01*
X404495000Y-83185000D02*
X405100000Y-83790000D01*
D35*
X349885000Y-123190000D02*
X349885000Y-125095000D01*
X349885000Y-121920000D02*
X349885000Y-123190000D01*
X349885000Y-118110000D02*
X349885000Y-121920000D01*
X349885000Y-116840000D02*
X349885000Y-118110000D01*
D36*
X387223000Y-110490000D02*
X387223000Y-109728000D01*
X398780000Y-107950000D02*
X398780000Y-107950000D01*
X397510000Y-107950000D02*
X398780000Y-107950000D01*
X396240000Y-107950000D02*
X397510000Y-107950000D01*
X392430000Y-107950000D02*
X387985000Y-107950000D01*
X387223000Y-110490000D02*
X387223000Y-108712000D01*
X387223000Y-108712000D02*
X387985000Y-107950000D01*
X392430000Y-107950000D02*
X398780000Y-107950000D01*
X406400000Y-107950000D02*
X410210000Y-107950000D01*
X410845000Y-107950000D02*
X411480000Y-107950000D01*
X411480000Y-107950000D02*
X411480000Y-107950000D01*
X410845000Y-107950000D02*
X412750000Y-107950000D01*
X412750000Y-107950000D02*
X412750000Y-107950000D01*
X410210000Y-107950000D02*
X410845000Y-107950000D01*
X382905000Y-78105000D02*
X382905000Y-76200000D01*
X382270000Y-78740000D02*
X382905000Y-78105000D01*
X378460000Y-78740000D02*
X382270000Y-78740000D01*
X375285000Y-75565000D02*
X378460000Y-78740000D01*
X367665000Y-75565000D02*
X375285000Y-75565000D01*
X367030000Y-74930000D02*
X367665000Y-75565000D01*
X367030000Y-73406000D02*
X367030000Y-74930000D01*
X405765000Y-110490000D02*
X405765000Y-108585000D01*
X405765000Y-108585000D02*
X406400000Y-107950000D01*
X384683000Y-110490000D02*
X384683000Y-109728000D01*
X403225000Y-110490000D02*
X403225000Y-109855000D01*
X403225000Y-110490000D02*
X403225000Y-106680000D01*
X401447000Y-104902000D02*
X403225000Y-106680000D01*
X386588000Y-104902000D02*
X401447000Y-104902000D01*
X384683000Y-106807000D02*
X386588000Y-104902000D01*
X384683000Y-110490000D02*
X384683000Y-106807000D01*
X411353000Y-106172000D02*
X411353000Y-106172000D01*
X411353000Y-106172000D02*
X412623000Y-106172000D01*
X412623000Y-106172000D02*
X412623000Y-106172000D01*
X412623000Y-106172000D02*
X412623000Y-106172000D01*
X410083000Y-106172000D02*
X411353000Y-106172000D01*
X403733000Y-106172000D02*
X403225000Y-106680000D01*
X410083000Y-106172000D02*
X403733000Y-106172000D01*
D37*
X372110000Y-73406000D02*
X372110000Y-68830000D01*
D38*
X369550000Y-33040000D02*
X369550000Y-32406000D01*
X367665000Y-34925000D02*
X369550000Y-33040000D01*
X361950000Y-60325000D02*
X367665000Y-54610000D01*
X365125000Y-81915000D02*
X361950000Y-78740000D01*
X367665000Y-54610000D02*
X367665000Y-34925000D01*
X365125000Y-89535000D02*
X365125000Y-81915000D01*
X366395000Y-90805000D02*
X365125000Y-89535000D01*
X361950000Y-78740000D02*
X361950000Y-60325000D01*
X370840000Y-90805000D02*
X366395000Y-90805000D01*
X369550000Y-32406000D02*
X367010000Y-32406000D01*
D36*
X345440000Y-78105000D02*
X338455000Y-78105000D01*
X338455000Y-78105000D02*
X337185000Y-76835000D01*
X337185000Y-76835000D02*
X337185000Y-59055000D01*
X337820000Y-58420000D02*
X339725000Y-58420000D01*
X337185000Y-59055000D02*
X337820000Y-58420000D01*
X345440000Y-83185000D02*
X347345000Y-83185000D01*
X347345000Y-83185000D02*
X349885000Y-85725000D01*
X349885000Y-85725000D02*
X349885000Y-86250000D01*
X349885000Y-86250000D02*
X349885000Y-88900000D01*
X350520000Y-89535000D02*
X353060000Y-89535000D01*
X349885000Y-88900000D02*
X350520000Y-89535000D01*
D34*
X386080000Y-119380000D02*
X386080000Y-120650000D01*
X386080000Y-119380000D02*
X386080000Y-119380000D01*
X386080000Y-120650000D02*
X386080000Y-121920000D01*
X386080000Y-113157000D02*
X385953000Y-113030000D01*
X386080000Y-119380000D02*
X386080000Y-113157000D01*
D36*
X339725000Y-45720000D02*
X335915000Y-45720000D01*
D38*
X354965000Y-102870000D02*
X358140000Y-106045000D01*
X349250000Y-76200000D02*
X349250000Y-81280000D01*
X354965000Y-86995000D02*
X354965000Y-102870000D01*
X347980000Y-74930000D02*
X349250000Y-76200000D01*
X349250000Y-81280000D02*
X354965000Y-86995000D01*
X344170000Y-74930000D02*
X347980000Y-74930000D01*
X342900000Y-73660000D02*
X344170000Y-74930000D01*
X341630000Y-60960000D02*
X342900000Y-62230000D01*
X358140000Y-106045000D02*
X370840000Y-106045000D01*
X342900000Y-62230000D02*
X342900000Y-73660000D01*
X339725000Y-60960000D02*
X341630000Y-60960000D01*
X349250000Y-67945000D02*
X351790000Y-67945000D01*
X351790000Y-67945000D02*
X352425000Y-67310000D01*
X352425000Y-67310000D02*
X352425000Y-56515000D01*
X352425000Y-56515000D02*
X355600000Y-53340000D01*
X357505000Y-51435000D02*
X357505000Y-51435000D01*
X356552500Y-52387500D02*
X357505000Y-51435000D01*
X355600000Y-53340000D02*
X356552500Y-52387500D01*
X370840000Y-98425000D02*
X361315000Y-98425000D01*
X361315000Y-98425000D02*
X360045000Y-97155000D01*
X360045000Y-84455000D02*
X355600000Y-80010000D01*
X360045000Y-97155000D02*
X360045000Y-84455000D01*
X355600000Y-57785000D02*
X360680000Y-52705000D01*
X355600000Y-80010000D02*
X355600000Y-57785000D01*
X360680000Y-52705000D02*
X360680000Y-39370000D01*
X360680000Y-36830000D02*
X360680000Y-36830000D01*
X360680000Y-38100000D02*
X360680000Y-36830000D01*
X360680000Y-39370000D02*
X360680000Y-38100000D01*
X363855000Y-95885000D02*
X370840000Y-95885000D01*
X362585000Y-94615000D02*
X363855000Y-95885000D01*
X362585000Y-83185000D02*
X362585000Y-94615000D01*
X358775000Y-79375000D02*
X362585000Y-83185000D01*
X358775000Y-59055000D02*
X358775000Y-79375000D01*
X364490000Y-53340000D02*
X358775000Y-59055000D01*
X364470000Y-53320000D02*
X364470000Y-32406000D01*
X364490000Y-53340000D02*
X364470000Y-53320000D01*
X339725000Y-55880000D02*
X342900000Y-55880000D01*
X344805000Y-55880000D02*
X342900000Y-55880000D01*
X345440000Y-56515000D02*
X344805000Y-55880000D01*
X345440000Y-60325000D02*
X345440000Y-56515000D01*
X345440000Y-71120000D02*
X345440000Y-60325000D01*
X346710000Y-72390000D02*
X345440000Y-71120000D01*
X349885000Y-72390000D02*
X346710000Y-72390000D01*
X352425000Y-74930000D02*
X349885000Y-72390000D01*
X357505000Y-85725000D02*
X352425000Y-80645000D01*
X352425000Y-80645000D02*
X352425000Y-74930000D01*
X357505000Y-102235000D02*
X357505000Y-85725000D01*
X358775000Y-103505000D02*
X357505000Y-102235000D01*
X370840000Y-103505000D02*
X358775000Y-103505000D01*
X345440000Y-56515000D02*
X346075000Y-55880000D01*
X346075000Y-55880000D02*
X348615000Y-55880000D01*
X348615000Y-55880000D02*
X350520000Y-53975000D01*
X350520000Y-53975000D02*
X351155000Y-53340000D01*
X353060000Y-51435000D02*
X353060000Y-51435000D01*
X352107500Y-52387500D02*
X353060000Y-51435000D01*
X351155000Y-53340000D02*
X352107500Y-52387500D01*
D34*
X312928000Y-31242000D02*
X313055000Y-31115000D01*
D37*
X335915000Y-85725000D02*
X334010000Y-83820000D01*
X334464990Y-45870010D02*
X334464990Y-45720000D01*
X334010000Y-46325000D02*
X334464990Y-45870010D01*
X340360000Y-85725000D02*
X335915000Y-85725000D01*
X334010000Y-46325000D02*
X333980000Y-46325000D01*
X333980000Y-46325000D02*
X333375000Y-45720000D01*
X312928000Y-44958000D02*
X312928000Y-41402000D01*
X313690000Y-45720000D02*
X312928000Y-44958000D01*
X333375000Y-45720000D02*
X313690000Y-45720000D01*
X334010000Y-83820000D02*
X334010000Y-47625000D01*
X334010000Y-47625000D02*
X334010000Y-46325000D01*
X365760000Y-65405000D02*
X371475000Y-65405000D01*
X372110000Y-66040000D02*
X372110000Y-67129990D01*
X371475000Y-65405000D02*
X372110000Y-66040000D01*
D36*
X378432500Y-76200000D02*
X380365000Y-76200000D01*
X375920000Y-60325000D02*
X375285000Y-60960000D01*
X375285000Y-73052500D02*
X378432500Y-76200000D01*
X375285000Y-60960000D02*
X375285000Y-73052500D01*
X375920000Y-60325000D02*
X377825000Y-60325000D01*
X393065000Y-26035000D02*
X393065000Y-24130000D01*
X393065000Y-24130000D02*
X393700000Y-23495000D01*
X393700000Y-23495000D02*
X402590000Y-23495000D01*
X402590000Y-23495000D02*
X403225000Y-24130000D01*
X403225000Y-24130000D02*
X403225000Y-29210000D01*
X391160000Y-65405000D02*
X391795000Y-64770000D01*
X391795000Y-64770000D02*
X391795000Y-52705000D01*
X385445000Y-66040000D02*
X386080000Y-65405000D01*
X392430000Y-52070000D02*
X395605000Y-52070000D01*
X386080000Y-65405000D02*
X391160000Y-65405000D01*
X385445000Y-72390000D02*
X385445000Y-66040000D01*
X391795000Y-52705000D02*
X392430000Y-52070000D01*
X385445000Y-72390000D02*
X388620000Y-75565000D01*
X388620000Y-75565000D02*
X390525000Y-75565000D01*
X390525000Y-75565000D02*
X391160000Y-76200000D01*
X391160000Y-76200000D02*
X391160000Y-78740000D01*
X406400000Y-87630000D02*
X406400000Y-83820000D01*
X407035000Y-83185000D02*
X409575000Y-83185000D01*
X406400000Y-83820000D02*
X407035000Y-83185000D01*
D35*
X394335000Y-65405000D02*
X395605000Y-64135000D01*
D34*
X395935200Y-98348800D02*
X396494000Y-97790000D01*
X391668000Y-98348800D02*
X395935200Y-98348800D01*
D35*
X397510000Y-96774000D02*
X396494000Y-97790000D01*
X397510000Y-87740000D02*
X397510000Y-96774000D01*
X397510000Y-87740000D02*
X397510000Y-87630000D01*
X394335000Y-84455000D02*
X394335000Y-65405000D01*
X397510000Y-87630000D02*
X394335000Y-84455000D01*
D36*
X394335000Y-84455000D02*
X394335000Y-86360000D01*
X392955000Y-87740000D02*
X391160000Y-87740000D01*
X394335000Y-86360000D02*
X392955000Y-87740000D01*
X412115000Y-81280000D02*
X412115000Y-85090000D01*
X411480000Y-85725000D02*
X409575000Y-85725000D01*
X411480000Y-80645000D02*
X412115000Y-81280000D01*
X399415000Y-80645000D02*
X411480000Y-80645000D01*
X412115000Y-85090000D02*
X411480000Y-85725000D01*
X397510000Y-78740000D02*
X399415000Y-80645000D01*
D39*
G36*
X356548964Y-108426154D02*
G01*
X356877592Y-108601809D01*
X357044075Y-108690796D01*
X357581302Y-108853762D01*
X358139999Y-108908789D01*
X358280001Y-108895000D01*
X366904323Y-108895000D01*
X366938472Y-109241715D01*
X367124510Y-109855000D01*
X366938472Y-110468285D01*
X366873791Y-111125000D01*
X366938472Y-111781715D01*
X367124510Y-112395000D01*
X366938472Y-113008285D01*
X366873791Y-113665000D01*
X366938472Y-114321715D01*
X367124510Y-114935000D01*
X366938472Y-115548285D01*
X366873791Y-116205000D01*
X366938472Y-116861715D01*
X367124510Y-117475000D01*
X366938472Y-118088285D01*
X366873791Y-118745000D01*
X366938472Y-119401715D01*
X367124510Y-120015000D01*
X366938472Y-120628285D01*
X366873791Y-121285000D01*
X366938472Y-121941715D01*
X367124510Y-122555000D01*
X366938472Y-123168285D01*
X366873791Y-123825000D01*
X366938472Y-124481715D01*
X367130028Y-125113192D01*
X367441100Y-125695166D01*
X367859731Y-126205269D01*
X368249324Y-126525000D01*
X348030676Y-126525000D01*
X348420269Y-126205269D01*
X348838900Y-125695166D01*
X349149972Y-125113192D01*
X349341528Y-124481715D01*
X349406209Y-123825000D01*
X349341528Y-123168285D01*
X349155490Y-122555000D01*
X349341528Y-121941715D01*
X349406209Y-121285000D01*
X349341528Y-120628285D01*
X349155490Y-120015000D01*
X349341528Y-119401715D01*
X349406209Y-118745000D01*
X349341528Y-118088285D01*
X349155490Y-117475000D01*
X349341528Y-116861715D01*
X349406209Y-116205000D01*
X349341528Y-115548285D01*
X349155490Y-114935000D01*
X349270631Y-114555429D01*
X349710000Y-114555429D01*
X349710000Y-115584572D01*
X349758472Y-116076715D01*
X349950028Y-116708192D01*
X350261100Y-117290166D01*
X350679731Y-117800269D01*
X351189835Y-118218900D01*
X351771809Y-118529972D01*
X352403286Y-118721528D01*
X353060000Y-118786209D01*
X353716715Y-118721528D01*
X354348192Y-118529972D01*
X354930166Y-118218900D01*
X355440269Y-117800269D01*
X355858900Y-117290166D01*
X356169972Y-116708191D01*
X356361528Y-116076714D01*
X356410000Y-115584571D01*
X356410000Y-114555428D01*
X356361528Y-114063285D01*
X356169972Y-113431808D01*
X355858900Y-112849834D01*
X355440269Y-112339731D01*
X354930165Y-111921100D01*
X354348191Y-111610028D01*
X353716714Y-111418472D01*
X353060000Y-111353791D01*
X352403285Y-111418472D01*
X351771808Y-111610028D01*
X351189834Y-111921100D01*
X350679731Y-112339731D01*
X350261100Y-112849835D01*
X349950028Y-113431809D01*
X349758472Y-114063286D01*
X349710000Y-114555429D01*
X349270631Y-114555429D01*
X349341528Y-114321715D01*
X349406209Y-113665000D01*
X349341528Y-113008285D01*
X349149972Y-112376808D01*
X348838900Y-111794834D01*
X348420269Y-111284731D01*
X348225636Y-111125000D01*
X348420269Y-110965269D01*
X348838900Y-110455166D01*
X349149972Y-109873192D01*
X349341528Y-109241715D01*
X349383174Y-108818882D01*
X349468078Y-108842720D01*
X349835000Y-108516871D01*
X349835000Y-108328995D01*
X349950028Y-108708192D01*
X350261100Y-109290166D01*
X350679731Y-109800269D01*
X351189835Y-110218900D01*
X351771809Y-110529972D01*
X352403286Y-110721528D01*
X353060000Y-110786209D01*
X353716715Y-110721528D01*
X354348192Y-110529972D01*
X354930166Y-110218900D01*
X355440269Y-109800269D01*
X355858900Y-109290166D01*
X356169972Y-108708191D01*
X356314017Y-108233338D01*
X356548964Y-108426154D01*
G37*
X356548964Y-108426154D02*
X356877592Y-108601809D01*
X357044075Y-108690796D01*
X357581302Y-108853762D01*
X358139999Y-108908789D01*
X358280001Y-108895000D01*
X366904323Y-108895000D01*
X366938472Y-109241715D01*
X367124510Y-109855000D01*
X366938472Y-110468285D01*
X366873791Y-111125000D01*
X366938472Y-111781715D01*
X367124510Y-112395000D01*
X366938472Y-113008285D01*
X366873791Y-113665000D01*
X366938472Y-114321715D01*
X367124510Y-114935000D01*
X366938472Y-115548285D01*
X366873791Y-116205000D01*
X366938472Y-116861715D01*
X367124510Y-117475000D01*
X366938472Y-118088285D01*
X366873791Y-118745000D01*
X366938472Y-119401715D01*
X367124510Y-120015000D01*
X366938472Y-120628285D01*
X366873791Y-121285000D01*
X366938472Y-121941715D01*
X367124510Y-122555000D01*
X366938472Y-123168285D01*
X366873791Y-123825000D01*
X366938472Y-124481715D01*
X367130028Y-125113192D01*
X367441100Y-125695166D01*
X367859731Y-126205269D01*
X368249324Y-126525000D01*
X348030676Y-126525000D01*
X348420269Y-126205269D01*
X348838900Y-125695166D01*
X349149972Y-125113192D01*
X349341528Y-124481715D01*
X349406209Y-123825000D01*
X349341528Y-123168285D01*
X349155490Y-122555000D01*
X349341528Y-121941715D01*
X349406209Y-121285000D01*
X349341528Y-120628285D01*
X349155490Y-120015000D01*
X349341528Y-119401715D01*
X349406209Y-118745000D01*
X349341528Y-118088285D01*
X349155490Y-117475000D01*
X349341528Y-116861715D01*
X349406209Y-116205000D01*
X349341528Y-115548285D01*
X349155490Y-114935000D01*
X349270631Y-114555429D01*
X349710000Y-114555429D01*
X349710000Y-115584572D01*
X349758472Y-116076715D01*
X349950028Y-116708192D01*
X350261100Y-117290166D01*
X350679731Y-117800269D01*
X351189835Y-118218900D01*
X351771809Y-118529972D01*
X352403286Y-118721528D01*
X353060000Y-118786209D01*
X353716715Y-118721528D01*
X354348192Y-118529972D01*
X354930166Y-118218900D01*
X355440269Y-117800269D01*
X355858900Y-117290166D01*
X356169972Y-116708191D01*
X356361528Y-116076714D01*
X356410000Y-115584571D01*
X356410000Y-114555428D01*
X356361528Y-114063285D01*
X356169972Y-113431808D01*
X355858900Y-112849834D01*
X355440269Y-112339731D01*
X354930165Y-111921100D01*
X354348191Y-111610028D01*
X353716714Y-111418472D01*
X353060000Y-111353791D01*
X352403285Y-111418472D01*
X351771808Y-111610028D01*
X351189834Y-111921100D01*
X350679731Y-112339731D01*
X350261100Y-112849835D01*
X349950028Y-113431809D01*
X349758472Y-114063286D01*
X349710000Y-114555429D01*
X349270631Y-114555429D01*
X349341528Y-114321715D01*
X349406209Y-113665000D01*
X349341528Y-113008285D01*
X349149972Y-112376808D01*
X348838900Y-111794834D01*
X348420269Y-111284731D01*
X348225636Y-111125000D01*
X348420269Y-110965269D01*
X348838900Y-110455166D01*
X349149972Y-109873192D01*
X349341528Y-109241715D01*
X349383174Y-108818882D01*
X349468078Y-108842720D01*
X349835000Y-108516871D01*
X349835000Y-108328995D01*
X349950028Y-108708192D01*
X350261100Y-109290166D01*
X350679731Y-109800269D01*
X351189835Y-110218900D01*
X351771809Y-110529972D01*
X352403286Y-110721528D01*
X353060000Y-110786209D01*
X353716715Y-110721528D01*
X354348192Y-110529972D01*
X354930166Y-110218900D01*
X355440269Y-109800269D01*
X355858900Y-109290166D01*
X356169972Y-108708191D01*
X356314017Y-108233338D01*
X356548964Y-108426154D01*
G36*
X349885000Y-101896209D02*
G01*
X350219161Y-101863297D01*
X349950028Y-102366809D01*
X349758472Y-102998286D01*
X349710000Y-103490429D01*
X349710000Y-103732121D01*
X349468078Y-103517280D01*
X349403206Y-103535494D01*
X349406209Y-103505000D01*
X349341528Y-102848285D01*
X349155490Y-102235000D01*
X349276443Y-101836271D01*
X349885000Y-101896209D01*
G37*
X349885000Y-101896209D02*
X350219161Y-101863297D01*
X349950028Y-102366809D01*
X349758472Y-102998286D01*
X349710000Y-103490429D01*
X349710000Y-103732121D01*
X349468078Y-103517280D01*
X349403206Y-103535494D01*
X349406209Y-103505000D01*
X349341528Y-102848285D01*
X349155490Y-102235000D01*
X349276443Y-101836271D01*
X349885000Y-101896209D01*
G36*
X349834998Y-92409948D02*
G01*
X349834998Y-92413127D01*
X349829560Y-92408298D01*
X349834998Y-92409948D01*
G37*
X349834998Y-92409948D02*
X349834998Y-92413127D01*
X349829560Y-92408298D01*
X349834998Y-92409948D01*
G36*
X321321797Y-24882828D02*
G01*
X321170000Y-25645959D01*
X321170000Y-26424041D01*
X321321797Y-27187172D01*
X321619556Y-27906026D01*
X322051835Y-28552978D01*
X322602022Y-29103165D01*
X323248974Y-29535444D01*
X323967828Y-29833203D01*
X324730959Y-29985000D01*
X325509041Y-29985000D01*
X326272172Y-29833203D01*
X326991026Y-29535444D01*
X327637978Y-29103165D01*
X328188165Y-28552978D01*
X328620444Y-27906026D01*
X328918203Y-27187172D01*
X329070000Y-26424041D01*
X329070000Y-25645959D01*
X328918203Y-24882828D01*
X328749275Y-24475000D01*
X346382725Y-24475000D01*
X346213797Y-24882828D01*
X346062000Y-25645959D01*
X346062000Y-26424041D01*
X346213797Y-27187172D01*
X346511556Y-27906026D01*
X346943835Y-28552978D01*
X347494022Y-29103165D01*
X348140974Y-29535444D01*
X348859828Y-29833203D01*
X349622959Y-29985000D01*
X350401041Y-29985000D01*
X351164172Y-29833203D01*
X351883026Y-29535444D01*
X352529978Y-29103165D01*
X353080165Y-28552978D01*
X353512444Y-27906026D01*
X353810203Y-27187172D01*
X353962000Y-26424041D01*
X353962000Y-25645959D01*
X353810203Y-24882828D01*
X353641275Y-24475000D01*
X357959563Y-24475000D01*
X357739048Y-25007371D01*
X357520000Y-26108599D01*
X357520000Y-27231401D01*
X357739048Y-28332629D01*
X358168725Y-29369963D01*
X358792521Y-30303538D01*
X359586462Y-31097479D01*
X360520037Y-31721275D01*
X361120000Y-31969787D01*
X361120000Y-32920571D01*
X361168472Y-33412714D01*
X361360028Y-34044191D01*
X361368865Y-34060724D01*
X361238698Y-34021238D01*
X361098696Y-34007449D01*
X360960701Y-33980000D01*
X360820002Y-33980000D01*
X360680000Y-33966211D01*
X360539998Y-33980000D01*
X360399299Y-33980000D01*
X360261304Y-34007449D01*
X360121302Y-34021238D01*
X359986679Y-34062075D01*
X359848686Y-34089524D01*
X359718700Y-34143366D01*
X359584075Y-34184204D01*
X359460002Y-34250522D01*
X359330019Y-34304363D01*
X359213037Y-34382528D01*
X359088964Y-34448846D01*
X358980215Y-34538094D01*
X358863231Y-34616260D01*
X358763744Y-34715747D01*
X358654995Y-34804995D01*
X358565747Y-34913744D01*
X358466260Y-35013231D01*
X358388094Y-35130215D01*
X358298846Y-35238964D01*
X358232528Y-35363037D01*
X358154363Y-35480019D01*
X358100522Y-35610002D01*
X358034204Y-35734075D01*
X357993366Y-35868700D01*
X357939524Y-35998686D01*
X357912075Y-36136679D01*
X357871238Y-36271302D01*
X357857449Y-36411304D01*
X357830000Y-36549299D01*
X357830000Y-36674740D01*
X357629572Y-36655000D01*
X356600428Y-36655000D01*
X356108285Y-36703472D01*
X355476808Y-36895028D01*
X354894834Y-37206100D01*
X354384731Y-37624731D01*
X353966100Y-38134834D01*
X353655028Y-38716808D01*
X353463472Y-39348285D01*
X353398791Y-40005000D01*
X353463472Y-40661715D01*
X353655028Y-41293192D01*
X353966100Y-41875166D01*
X354384731Y-42385269D01*
X354894834Y-42803900D01*
X355476808Y-43114972D01*
X355691177Y-43180000D01*
X355476808Y-43245028D01*
X354894834Y-43556100D01*
X354384731Y-43974731D01*
X353966100Y-44484834D01*
X353655028Y-45066808D01*
X353463472Y-45698285D01*
X353398791Y-46355000D01*
X353463472Y-47011715D01*
X353655028Y-47643192D01*
X353966100Y-48225166D01*
X354384731Y-48735269D01*
X354894834Y-49153900D01*
X355447662Y-49449393D01*
X355390747Y-49518744D01*
X355291260Y-49618231D01*
X355291257Y-49618235D01*
X355280758Y-49628734D01*
X355273740Y-49618231D01*
X355174253Y-49518744D01*
X355085005Y-49409995D01*
X354976256Y-49320747D01*
X354876769Y-49221260D01*
X354759785Y-49143094D01*
X354651036Y-49053846D01*
X354526963Y-48987528D01*
X354409981Y-48909363D01*
X354279998Y-48855522D01*
X354155925Y-48789204D01*
X354021300Y-48748366D01*
X353891314Y-48694524D01*
X353753321Y-48667075D01*
X353618698Y-48626238D01*
X353478696Y-48612449D01*
X353340701Y-48585000D01*
X353200001Y-48585000D01*
X353059999Y-48571211D01*
X352919997Y-48585000D01*
X352779299Y-48585000D01*
X352641305Y-48612449D01*
X352501301Y-48626238D01*
X352399872Y-48657006D01*
X352366679Y-48667075D01*
X352228686Y-48694524D01*
X352098700Y-48748366D01*
X351964075Y-48789204D01*
X351840002Y-48855522D01*
X351710019Y-48909363D01*
X351593037Y-48987528D01*
X351468964Y-49053846D01*
X351360215Y-49143094D01*
X351243231Y-49221260D01*
X351143744Y-49320747D01*
X351034995Y-49409995D01*
X350945747Y-49518744D01*
X350846260Y-49618231D01*
X350846257Y-49618235D01*
X350290736Y-50173756D01*
X350290731Y-50173760D01*
X349893760Y-50570731D01*
X349893757Y-50570735D01*
X349338236Y-51126256D01*
X349338231Y-51126260D01*
X348941260Y-51523231D01*
X348941256Y-51523237D01*
X347434493Y-53030000D01*
X346215002Y-53030000D01*
X346075000Y-53016211D01*
X345934998Y-53030000D01*
X345516302Y-53071238D01*
X345440000Y-53094384D01*
X345363698Y-53071238D01*
X344945002Y-53030000D01*
X344805000Y-53016211D01*
X344664998Y-53030000D01*
X343328592Y-53030000D01*
X343623900Y-52670166D01*
X343934972Y-52088192D01*
X344126528Y-51456715D01*
X344191209Y-50800000D01*
X344126528Y-50143285D01*
X343934972Y-49511808D01*
X343623900Y-48929834D01*
X343205269Y-48419731D01*
X343010636Y-48260000D01*
X343205269Y-48100269D01*
X343623900Y-47590166D01*
X343934972Y-47008192D01*
X344126528Y-46376715D01*
X344191209Y-45720000D01*
X344126528Y-45063285D01*
X343940490Y-44450000D01*
X344126528Y-43836715D01*
X344191209Y-43180000D01*
X344126528Y-42523285D01*
X343934972Y-41891808D01*
X343623900Y-41309834D01*
X343205269Y-40799731D01*
X342695166Y-40381100D01*
X342223521Y-40129000D01*
X342371532Y-40129000D01*
X342994921Y-40005000D01*
X345398791Y-40005000D01*
X345463472Y-40661715D01*
X345655028Y-41293192D01*
X345966100Y-41875166D01*
X346384731Y-42385269D01*
X346894834Y-42803900D01*
X347476808Y-43114972D01*
X347691177Y-43180000D01*
X347476808Y-43245028D01*
X346894834Y-43556100D01*
X346384731Y-43974731D01*
X345966100Y-44484834D01*
X345655028Y-45066808D01*
X345463472Y-45698285D01*
X345398791Y-46355000D01*
X345463472Y-47011715D01*
X345655028Y-47643192D01*
X345966100Y-48225166D01*
X346384731Y-48735269D01*
X346894834Y-49153900D01*
X347476808Y-49464972D01*
X348108285Y-49656528D01*
X348600428Y-49705000D01*
X349629572Y-49705000D01*
X350121715Y-49656528D01*
X350753192Y-49464972D01*
X351335166Y-49153900D01*
X351845269Y-48735269D01*
X352263900Y-48225166D01*
X352574972Y-47643192D01*
X352766528Y-47011715D01*
X352831209Y-46355000D01*
X352766528Y-45698285D01*
X352574972Y-45066808D01*
X352263900Y-44484834D01*
X351845269Y-43974731D01*
X351335166Y-43556100D01*
X350753192Y-43245028D01*
X350538823Y-43180000D01*
X350753192Y-43114972D01*
X351335166Y-42803900D01*
X351845269Y-42385269D01*
X352263900Y-41875166D01*
X352574972Y-41293192D01*
X352766528Y-40661715D01*
X352831209Y-40005000D01*
X352766528Y-39348285D01*
X352574972Y-38716808D01*
X352263900Y-38134834D01*
X351845269Y-37624731D01*
X351335166Y-37206100D01*
X350753192Y-36895028D01*
X350121715Y-36703472D01*
X349629572Y-36655000D01*
X348600428Y-36655000D01*
X348108285Y-36703472D01*
X347476808Y-36895028D01*
X346894834Y-37206100D01*
X346384731Y-37624731D01*
X345966100Y-38134834D01*
X345655028Y-38716808D01*
X345463472Y-39348285D01*
X345398791Y-40005000D01*
X342994921Y-40005000D01*
X343327862Y-39938774D01*
X344228704Y-39565633D01*
X345039441Y-39023916D01*
X345728916Y-38334441D01*
X346270633Y-37523704D01*
X346643774Y-36622862D01*
X346834000Y-35666532D01*
X346834000Y-34691468D01*
X346643774Y-33735138D01*
X346270633Y-32834296D01*
X345728916Y-32023559D01*
X345039441Y-31334084D01*
X344228704Y-30792367D01*
X343327862Y-30419226D01*
X342371532Y-30229000D01*
X341396468Y-30229000D01*
X340440138Y-30419226D01*
X339539296Y-30792367D01*
X338728559Y-31334084D01*
X338039084Y-32023559D01*
X337497367Y-32834296D01*
X337124226Y-33735138D01*
X336934000Y-34691468D01*
X336934000Y-35666532D01*
X337124226Y-36622862D01*
X337497367Y-37523704D01*
X338039084Y-38334441D01*
X338728559Y-39023916D01*
X339539296Y-39565633D01*
X340177534Y-39830000D01*
X339460428Y-39830000D01*
X338968285Y-39878472D01*
X338336808Y-40070028D01*
X337754834Y-40381100D01*
X337244731Y-40799731D01*
X336826100Y-41309834D01*
X336515028Y-41891808D01*
X336323472Y-42523285D01*
X336321260Y-42545739D01*
X335964009Y-42510553D01*
X335939449Y-42510553D01*
X335915000Y-42508145D01*
X335415000Y-42508145D01*
X335265000Y-42522919D01*
X335115000Y-42508145D01*
X334615000Y-42508145D01*
X334590551Y-42510553D01*
X334565991Y-42510553D01*
X334546133Y-42512509D01*
X334464990Y-42504517D01*
X333919995Y-42558195D01*
X333532201Y-42520000D01*
X333532200Y-42520000D01*
X333375000Y-42504517D01*
X333217800Y-42520000D01*
X320632701Y-42520000D01*
X320646366Y-42477783D01*
X320708000Y-41952000D01*
X320708000Y-41452000D01*
X318058000Y-41452000D01*
X318058000Y-41472000D01*
X317958000Y-41472000D01*
X317958000Y-41452000D01*
X317938000Y-41452000D01*
X317938000Y-41352000D01*
X317958000Y-41352000D01*
X317958000Y-38565035D01*
X318058000Y-38565035D01*
X318058000Y-41352000D01*
X320708000Y-41352000D01*
X320708000Y-40852000D01*
X320646366Y-40326217D01*
X320483341Y-39822561D01*
X320225190Y-39360387D01*
X319881834Y-38957456D01*
X319466467Y-38629253D01*
X318995052Y-38388390D01*
X318485705Y-38244124D01*
X318479685Y-38243521D01*
X318058000Y-38565035D01*
X317958000Y-38565035D01*
X317536315Y-38243521D01*
X317530295Y-38244124D01*
X317020948Y-38388390D01*
X316549533Y-38629253D01*
X316134166Y-38957456D01*
X316103341Y-38993630D01*
X316019323Y-38836444D01*
X315556954Y-38273046D01*
X314993555Y-37810677D01*
X314350778Y-37467106D01*
X313653326Y-37255536D01*
X312928000Y-37184098D01*
X312202673Y-37255536D01*
X311505221Y-37467106D01*
X310862444Y-37810677D01*
X310299046Y-38273046D01*
X309836677Y-38836445D01*
X309493106Y-39479222D01*
X309281536Y-40176674D01*
X309228000Y-40720238D01*
X309228000Y-42083763D01*
X309281536Y-42627327D01*
X309493106Y-43324779D01*
X309728000Y-43764235D01*
X309728000Y-44800800D01*
X309712517Y-44958000D01*
X309728000Y-45115200D01*
X309774302Y-45585309D01*
X309957281Y-46188511D01*
X310254424Y-46744426D01*
X310654310Y-47231690D01*
X310776425Y-47331907D01*
X311316093Y-47871575D01*
X311416310Y-47993690D01*
X311903573Y-48393576D01*
X312459488Y-48690719D01*
X313062690Y-48873698D01*
X313532799Y-48920000D01*
X313532800Y-48920000D01*
X313690000Y-48935483D01*
X313847200Y-48920000D01*
X330810001Y-48920000D01*
X330810000Y-77655000D01*
X310398400Y-77655000D01*
X310398400Y-77365799D01*
X310179352Y-76264571D01*
X309749675Y-75227237D01*
X309125879Y-74293662D01*
X308331938Y-73499721D01*
X307398363Y-72875925D01*
X306361029Y-72446248D01*
X305259801Y-72227200D01*
X304136999Y-72227200D01*
X303035771Y-72446248D01*
X302830000Y-72531481D01*
X302830000Y-31242000D01*
X309461308Y-31242000D01*
X309527919Y-31918318D01*
X309595821Y-32142161D01*
X309640450Y-32595284D01*
X309780543Y-33057111D01*
X310008043Y-33482733D01*
X310314206Y-33855794D01*
X310687267Y-34161957D01*
X311112889Y-34389457D01*
X311574716Y-34529550D01*
X312027839Y-34574179D01*
X312251682Y-34642081D01*
X312928000Y-34708692D01*
X313604318Y-34642081D01*
X313819342Y-34576854D01*
X314055000Y-34576854D01*
X314535284Y-34529550D01*
X314997111Y-34389457D01*
X315422733Y-34161957D01*
X315795794Y-33855794D01*
X316101957Y-33482733D01*
X316329457Y-33057111D01*
X316392967Y-32847746D01*
X316606309Y-32634404D01*
X316648707Y-33135661D01*
X317069940Y-33371189D01*
X317529029Y-33520013D01*
X318008330Y-33576413D01*
X318489424Y-33538223D01*
X318953825Y-33406910D01*
X319383683Y-33187520D01*
X319461293Y-33135661D01*
X319503691Y-32634402D01*
X318055000Y-31185711D01*
X318040858Y-31199853D01*
X317970147Y-31129142D01*
X317984289Y-31115000D01*
X318125711Y-31115000D01*
X319574402Y-32563691D01*
X320075661Y-32521293D01*
X320311189Y-32100060D01*
X320460013Y-31640971D01*
X320516413Y-31161670D01*
X320478223Y-30680576D01*
X320346910Y-30216175D01*
X320127520Y-29786317D01*
X320075661Y-29708707D01*
X319574402Y-29666309D01*
X318125711Y-31115000D01*
X317984289Y-31115000D01*
X317970147Y-31100858D01*
X318040858Y-31030147D01*
X318055000Y-31044289D01*
X319503691Y-29595598D01*
X319461293Y-29094339D01*
X319040060Y-28858811D01*
X318580971Y-28709987D01*
X318101670Y-28653587D01*
X317620576Y-28691777D01*
X317156175Y-28823090D01*
X316726317Y-29042480D01*
X316648707Y-29094339D01*
X316606309Y-29595596D01*
X316392967Y-29382254D01*
X316329457Y-29172889D01*
X316101957Y-28747267D01*
X315795794Y-28374206D01*
X315422733Y-28068043D01*
X314997111Y-27840543D01*
X314535284Y-27700450D01*
X314055000Y-27653146D01*
X313104120Y-27653146D01*
X313054999Y-27648308D01*
X313005878Y-27653146D01*
X312055000Y-27653146D01*
X311574716Y-27700450D01*
X311112889Y-27840543D01*
X310687267Y-28068043D01*
X310314206Y-28374206D01*
X310008043Y-28747267D01*
X309780543Y-29172889D01*
X309640450Y-29634716D01*
X309593146Y-30115000D01*
X309593146Y-30350658D01*
X309527919Y-30565682D01*
X309461308Y-31242000D01*
X302830000Y-31242000D01*
X302830000Y-24475000D01*
X321490725Y-24475000D01*
X321321797Y-24882828D01*
G37*
X321321797Y-24882828D02*
X321170000Y-25645959D01*
X321170000Y-26424041D01*
X321321797Y-27187172D01*
X321619556Y-27906026D01*
X322051835Y-28552978D01*
X322602022Y-29103165D01*
X323248974Y-29535444D01*
X323967828Y-29833203D01*
X324730959Y-29985000D01*
X325509041Y-29985000D01*
X326272172Y-29833203D01*
X326991026Y-29535444D01*
X327637978Y-29103165D01*
X328188165Y-28552978D01*
X328620444Y-27906026D01*
X328918203Y-27187172D01*
X329070000Y-26424041D01*
X329070000Y-25645959D01*
X328918203Y-24882828D01*
X328749275Y-24475000D01*
X346382725Y-24475000D01*
X346213797Y-24882828D01*
X346062000Y-25645959D01*
X346062000Y-26424041D01*
X346213797Y-27187172D01*
X346511556Y-27906026D01*
X346943835Y-28552978D01*
X347494022Y-29103165D01*
X348140974Y-29535444D01*
X348859828Y-29833203D01*
X349622959Y-29985000D01*
X350401041Y-29985000D01*
X351164172Y-29833203D01*
X351883026Y-29535444D01*
X352529978Y-29103165D01*
X353080165Y-28552978D01*
X353512444Y-27906026D01*
X353810203Y-27187172D01*
X353962000Y-26424041D01*
X353962000Y-25645959D01*
X353810203Y-24882828D01*
X353641275Y-24475000D01*
X357959563Y-24475000D01*
X357739048Y-25007371D01*
X357520000Y-26108599D01*
X357520000Y-27231401D01*
X357739048Y-28332629D01*
X358168725Y-29369963D01*
X358792521Y-30303538D01*
X359586462Y-31097479D01*
X360520037Y-31721275D01*
X361120000Y-31969787D01*
X361120000Y-32920571D01*
X361168472Y-33412714D01*
X361360028Y-34044191D01*
X361368865Y-34060724D01*
X361238698Y-34021238D01*
X361098696Y-34007449D01*
X360960701Y-33980000D01*
X360820002Y-33980000D01*
X360680000Y-33966211D01*
X360539998Y-33980000D01*
X360399299Y-33980000D01*
X360261304Y-34007449D01*
X360121302Y-34021238D01*
X359986679Y-34062075D01*
X359848686Y-34089524D01*
X359718700Y-34143366D01*
X359584075Y-34184204D01*
X359460002Y-34250522D01*
X359330019Y-34304363D01*
X359213037Y-34382528D01*
X359088964Y-34448846D01*
X358980215Y-34538094D01*
X358863231Y-34616260D01*
X358763744Y-34715747D01*
X358654995Y-34804995D01*
X358565747Y-34913744D01*
X358466260Y-35013231D01*
X358388094Y-35130215D01*
X358298846Y-35238964D01*
X358232528Y-35363037D01*
X358154363Y-35480019D01*
X358100522Y-35610002D01*
X358034204Y-35734075D01*
X357993366Y-35868700D01*
X357939524Y-35998686D01*
X357912075Y-36136679D01*
X357871238Y-36271302D01*
X357857449Y-36411304D01*
X357830000Y-36549299D01*
X357830000Y-36674740D01*
X357629572Y-36655000D01*
X356600428Y-36655000D01*
X356108285Y-36703472D01*
X355476808Y-36895028D01*
X354894834Y-37206100D01*
X354384731Y-37624731D01*
X353966100Y-38134834D01*
X353655028Y-38716808D01*
X353463472Y-39348285D01*
X353398791Y-40005000D01*
X353463472Y-40661715D01*
X353655028Y-41293192D01*
X353966100Y-41875166D01*
X354384731Y-42385269D01*
X354894834Y-42803900D01*
X355476808Y-43114972D01*
X355691177Y-43180000D01*
X355476808Y-43245028D01*
X354894834Y-43556100D01*
X354384731Y-43974731D01*
X353966100Y-44484834D01*
X353655028Y-45066808D01*
X353463472Y-45698285D01*
X353398791Y-46355000D01*
X353463472Y-47011715D01*
X353655028Y-47643192D01*
X353966100Y-48225166D01*
X354384731Y-48735269D01*
X354894834Y-49153900D01*
X355447662Y-49449393D01*
X355390747Y-49518744D01*
X355291260Y-49618231D01*
X355291257Y-49618235D01*
X355280758Y-49628734D01*
X355273740Y-49618231D01*
X355174253Y-49518744D01*
X355085005Y-49409995D01*
X354976256Y-49320747D01*
X354876769Y-49221260D01*
X354759785Y-49143094D01*
X354651036Y-49053846D01*
X354526963Y-48987528D01*
X354409981Y-48909363D01*
X354279998Y-48855522D01*
X354155925Y-48789204D01*
X354021300Y-48748366D01*
X353891314Y-48694524D01*
X353753321Y-48667075D01*
X353618698Y-48626238D01*
X353478696Y-48612449D01*
X353340701Y-48585000D01*
X353200001Y-48585000D01*
X353059999Y-48571211D01*
X352919997Y-48585000D01*
X352779299Y-48585000D01*
X352641305Y-48612449D01*
X352501301Y-48626238D01*
X352399872Y-48657006D01*
X352366679Y-48667075D01*
X352228686Y-48694524D01*
X352098700Y-48748366D01*
X351964075Y-48789204D01*
X351840002Y-48855522D01*
X351710019Y-48909363D01*
X351593037Y-48987528D01*
X351468964Y-49053846D01*
X351360215Y-49143094D01*
X351243231Y-49221260D01*
X351143744Y-49320747D01*
X351034995Y-49409995D01*
X350945747Y-49518744D01*
X350846260Y-49618231D01*
X350846257Y-49618235D01*
X350290736Y-50173756D01*
X350290731Y-50173760D01*
X349893760Y-50570731D01*
X349893757Y-50570735D01*
X349338236Y-51126256D01*
X349338231Y-51126260D01*
X348941260Y-51523231D01*
X348941256Y-51523237D01*
X347434493Y-53030000D01*
X346215002Y-53030000D01*
X346075000Y-53016211D01*
X345934998Y-53030000D01*
X345516302Y-53071238D01*
X345440000Y-53094384D01*
X345363698Y-53071238D01*
X344945002Y-53030000D01*
X344805000Y-53016211D01*
X344664998Y-53030000D01*
X343328592Y-53030000D01*
X343623900Y-52670166D01*
X343934972Y-52088192D01*
X344126528Y-51456715D01*
X344191209Y-50800000D01*
X344126528Y-50143285D01*
X343934972Y-49511808D01*
X343623900Y-48929834D01*
X343205269Y-48419731D01*
X343010636Y-48260000D01*
X343205269Y-48100269D01*
X343623900Y-47590166D01*
X343934972Y-47008192D01*
X344126528Y-46376715D01*
X344191209Y-45720000D01*
X344126528Y-45063285D01*
X343940490Y-44450000D01*
X344126528Y-43836715D01*
X344191209Y-43180000D01*
X344126528Y-42523285D01*
X343934972Y-41891808D01*
X343623900Y-41309834D01*
X343205269Y-40799731D01*
X342695166Y-40381100D01*
X342223521Y-40129000D01*
X342371532Y-40129000D01*
X342994921Y-40005000D01*
X345398791Y-40005000D01*
X345463472Y-40661715D01*
X345655028Y-41293192D01*
X345966100Y-41875166D01*
X346384731Y-42385269D01*
X346894834Y-42803900D01*
X347476808Y-43114972D01*
X347691177Y-43180000D01*
X347476808Y-43245028D01*
X346894834Y-43556100D01*
X346384731Y-43974731D01*
X345966100Y-44484834D01*
X345655028Y-45066808D01*
X345463472Y-45698285D01*
X345398791Y-46355000D01*
X345463472Y-47011715D01*
X345655028Y-47643192D01*
X345966100Y-48225166D01*
X346384731Y-48735269D01*
X346894834Y-49153900D01*
X347476808Y-49464972D01*
X348108285Y-49656528D01*
X348600428Y-49705000D01*
X349629572Y-49705000D01*
X350121715Y-49656528D01*
X350753192Y-49464972D01*
X351335166Y-49153900D01*
X351845269Y-48735269D01*
X352263900Y-48225166D01*
X352574972Y-47643192D01*
X352766528Y-47011715D01*
X352831209Y-46355000D01*
X352766528Y-45698285D01*
X352574972Y-45066808D01*
X352263900Y-44484834D01*
X351845269Y-43974731D01*
X351335166Y-43556100D01*
X350753192Y-43245028D01*
X350538823Y-43180000D01*
X350753192Y-43114972D01*
X351335166Y-42803900D01*
X351845269Y-42385269D01*
X352263900Y-41875166D01*
X352574972Y-41293192D01*
X352766528Y-40661715D01*
X352831209Y-40005000D01*
X352766528Y-39348285D01*
X352574972Y-38716808D01*
X352263900Y-38134834D01*
X351845269Y-37624731D01*
X351335166Y-37206100D01*
X350753192Y-36895028D01*
X350121715Y-36703472D01*
X349629572Y-36655000D01*
X348600428Y-36655000D01*
X348108285Y-36703472D01*
X347476808Y-36895028D01*
X346894834Y-37206100D01*
X346384731Y-37624731D01*
X345966100Y-38134834D01*
X345655028Y-38716808D01*
X345463472Y-39348285D01*
X345398791Y-40005000D01*
X342994921Y-40005000D01*
X343327862Y-39938774D01*
X344228704Y-39565633D01*
X345039441Y-39023916D01*
X345728916Y-38334441D01*
X346270633Y-37523704D01*
X346643774Y-36622862D01*
X346834000Y-35666532D01*
X346834000Y-34691468D01*
X346643774Y-33735138D01*
X346270633Y-32834296D01*
X345728916Y-32023559D01*
X345039441Y-31334084D01*
X344228704Y-30792367D01*
X343327862Y-30419226D01*
X342371532Y-30229000D01*
X341396468Y-30229000D01*
X340440138Y-30419226D01*
X339539296Y-30792367D01*
X338728559Y-31334084D01*
X338039084Y-32023559D01*
X337497367Y-32834296D01*
X337124226Y-33735138D01*
X336934000Y-34691468D01*
X336934000Y-35666532D01*
X337124226Y-36622862D01*
X337497367Y-37523704D01*
X338039084Y-38334441D01*
X338728559Y-39023916D01*
X339539296Y-39565633D01*
X340177534Y-39830000D01*
X339460428Y-39830000D01*
X338968285Y-39878472D01*
X338336808Y-40070028D01*
X337754834Y-40381100D01*
X337244731Y-40799731D01*
X336826100Y-41309834D01*
X336515028Y-41891808D01*
X336323472Y-42523285D01*
X336321260Y-42545739D01*
X335964009Y-42510553D01*
X335939449Y-42510553D01*
X335915000Y-42508145D01*
X335415000Y-42508145D01*
X335265000Y-42522919D01*
X335115000Y-42508145D01*
X334615000Y-42508145D01*
X334590551Y-42510553D01*
X334565991Y-42510553D01*
X334546133Y-42512509D01*
X334464990Y-42504517D01*
X333919995Y-42558195D01*
X333532201Y-42520000D01*
X333532200Y-42520000D01*
X333375000Y-42504517D01*
X333217800Y-42520000D01*
X320632701Y-42520000D01*
X320646366Y-42477783D01*
X320708000Y-41952000D01*
X320708000Y-41452000D01*
X318058000Y-41452000D01*
X318058000Y-41472000D01*
X317958000Y-41472000D01*
X317958000Y-41452000D01*
X317938000Y-41452000D01*
X317938000Y-41352000D01*
X317958000Y-41352000D01*
X317958000Y-38565035D01*
X318058000Y-38565035D01*
X318058000Y-41352000D01*
X320708000Y-41352000D01*
X320708000Y-40852000D01*
X320646366Y-40326217D01*
X320483341Y-39822561D01*
X320225190Y-39360387D01*
X319881834Y-38957456D01*
X319466467Y-38629253D01*
X318995052Y-38388390D01*
X318485705Y-38244124D01*
X318479685Y-38243521D01*
X318058000Y-38565035D01*
X317958000Y-38565035D01*
X317536315Y-38243521D01*
X317530295Y-38244124D01*
X317020948Y-38388390D01*
X316549533Y-38629253D01*
X316134166Y-38957456D01*
X316103341Y-38993630D01*
X316019323Y-38836444D01*
X315556954Y-38273046D01*
X314993555Y-37810677D01*
X314350778Y-37467106D01*
X313653326Y-37255536D01*
X312928000Y-37184098D01*
X312202673Y-37255536D01*
X311505221Y-37467106D01*
X310862444Y-37810677D01*
X310299046Y-38273046D01*
X309836677Y-38836445D01*
X309493106Y-39479222D01*
X309281536Y-40176674D01*
X309228000Y-40720238D01*
X309228000Y-42083763D01*
X309281536Y-42627327D01*
X309493106Y-43324779D01*
X309728000Y-43764235D01*
X309728000Y-44800800D01*
X309712517Y-44958000D01*
X309728000Y-45115200D01*
X309774302Y-45585309D01*
X309957281Y-46188511D01*
X310254424Y-46744426D01*
X310654310Y-47231690D01*
X310776425Y-47331907D01*
X311316093Y-47871575D01*
X311416310Y-47993690D01*
X311903573Y-48393576D01*
X312459488Y-48690719D01*
X313062690Y-48873698D01*
X313532799Y-48920000D01*
X313532800Y-48920000D01*
X313690000Y-48935483D01*
X313847200Y-48920000D01*
X330810001Y-48920000D01*
X330810000Y-77655000D01*
X310398400Y-77655000D01*
X310398400Y-77365799D01*
X310179352Y-76264571D01*
X309749675Y-75227237D01*
X309125879Y-74293662D01*
X308331938Y-73499721D01*
X307398363Y-72875925D01*
X306361029Y-72446248D01*
X305259801Y-72227200D01*
X304136999Y-72227200D01*
X303035771Y-72446248D01*
X302830000Y-72531481D01*
X302830000Y-31242000D01*
X309461308Y-31242000D01*
X309527919Y-31918318D01*
X309595821Y-32142161D01*
X309640450Y-32595284D01*
X309780543Y-33057111D01*
X310008043Y-33482733D01*
X310314206Y-33855794D01*
X310687267Y-34161957D01*
X311112889Y-34389457D01*
X311574716Y-34529550D01*
X312027839Y-34574179D01*
X312251682Y-34642081D01*
X312928000Y-34708692D01*
X313604318Y-34642081D01*
X313819342Y-34576854D01*
X314055000Y-34576854D01*
X314535284Y-34529550D01*
X314997111Y-34389457D01*
X315422733Y-34161957D01*
X315795794Y-33855794D01*
X316101957Y-33482733D01*
X316329457Y-33057111D01*
X316392967Y-32847746D01*
X316606309Y-32634404D01*
X316648707Y-33135661D01*
X317069940Y-33371189D01*
X317529029Y-33520013D01*
X318008330Y-33576413D01*
X318489424Y-33538223D01*
X318953825Y-33406910D01*
X319383683Y-33187520D01*
X319461293Y-33135661D01*
X319503691Y-32634402D01*
X318055000Y-31185711D01*
X318040858Y-31199853D01*
X317970147Y-31129142D01*
X317984289Y-31115000D01*
X318125711Y-31115000D01*
X319574402Y-32563691D01*
X320075661Y-32521293D01*
X320311189Y-32100060D01*
X320460013Y-31640971D01*
X320516413Y-31161670D01*
X320478223Y-30680576D01*
X320346910Y-30216175D01*
X320127520Y-29786317D01*
X320075661Y-29708707D01*
X319574402Y-29666309D01*
X318125711Y-31115000D01*
X317984289Y-31115000D01*
X317970147Y-31100858D01*
X318040858Y-31030147D01*
X318055000Y-31044289D01*
X319503691Y-29595598D01*
X319461293Y-29094339D01*
X319040060Y-28858811D01*
X318580971Y-28709987D01*
X318101670Y-28653587D01*
X317620576Y-28691777D01*
X317156175Y-28823090D01*
X316726317Y-29042480D01*
X316648707Y-29094339D01*
X316606309Y-29595596D01*
X316392967Y-29382254D01*
X316329457Y-29172889D01*
X316101957Y-28747267D01*
X315795794Y-28374206D01*
X315422733Y-28068043D01*
X314997111Y-27840543D01*
X314535284Y-27700450D01*
X314055000Y-27653146D01*
X313104120Y-27653146D01*
X313054999Y-27648308D01*
X313005878Y-27653146D01*
X312055000Y-27653146D01*
X311574716Y-27700450D01*
X311112889Y-27840543D01*
X310687267Y-28068043D01*
X310314206Y-28374206D01*
X310008043Y-28747267D01*
X309780543Y-29172889D01*
X309640450Y-29634716D01*
X309593146Y-30115000D01*
X309593146Y-30350658D01*
X309527919Y-30565682D01*
X309461308Y-31242000D01*
X302830000Y-31242000D01*
X302830000Y-24475000D01*
X321490725Y-24475000D01*
X321321797Y-24882828D01*
G36*
X414880000Y-75115000D02*
G01*
X414395000Y-75115000D01*
X414395000Y-74105608D01*
X414343634Y-73584078D01*
X414140641Y-72914901D01*
X413810998Y-72298183D01*
X413367374Y-71757626D01*
X412826816Y-71314002D01*
X412210098Y-70984359D01*
X411540921Y-70781366D01*
X410845000Y-70712824D01*
X410149078Y-70781366D01*
X409479901Y-70984359D01*
X408863183Y-71314002D01*
X408674640Y-71468735D01*
X407952866Y-70986461D01*
X407143017Y-70651011D01*
X406283287Y-70480000D01*
X405406713Y-70480000D01*
X404546983Y-70651011D01*
X404249627Y-70774180D01*
X404140641Y-70414901D01*
X403810998Y-69798183D01*
X403367374Y-69257626D01*
X402826816Y-68814002D01*
X402210098Y-68484359D01*
X401540921Y-68281366D01*
X400845000Y-68212824D01*
X400149078Y-68281366D01*
X399479901Y-68484359D01*
X398863183Y-68814002D01*
X398322626Y-69257626D01*
X398035000Y-69608100D01*
X398035000Y-67980626D01*
X398623913Y-67801981D01*
X399310120Y-67435196D01*
X399911586Y-66941586D01*
X400405196Y-66340120D01*
X400771981Y-65653913D01*
X400997847Y-64909335D01*
X401074112Y-64135000D01*
X400997847Y-63360665D01*
X400771981Y-62616087D01*
X400405196Y-61929880D01*
X399911586Y-61328414D01*
X399389407Y-60899873D01*
X399585613Y-60652358D01*
X399849578Y-60137722D01*
X400008070Y-59581477D01*
X400010440Y-59565800D01*
X399692017Y-59105000D01*
X396405000Y-59105000D01*
X396405000Y-59125000D01*
X396305000Y-59125000D01*
X396305000Y-59105000D01*
X396285000Y-59105000D01*
X396285000Y-59005000D01*
X396305000Y-59005000D01*
X396305000Y-56105000D01*
X396405000Y-56105000D01*
X396405000Y-59005000D01*
X399692017Y-59005000D01*
X400010440Y-58544200D01*
X400008070Y-58528523D01*
X399849578Y-57972278D01*
X399585613Y-57457642D01*
X399226320Y-57004391D01*
X398785505Y-56629944D01*
X398280110Y-56348690D01*
X397729556Y-56171438D01*
X397155000Y-56105000D01*
X396405000Y-56105000D01*
X396305000Y-56105000D01*
X395555000Y-56105000D01*
X394980444Y-56171438D01*
X394745000Y-56247240D01*
X394745000Y-55309862D01*
X394948285Y-55371528D01*
X395440428Y-55420000D01*
X396769572Y-55420000D01*
X397261715Y-55371528D01*
X397893192Y-55179972D01*
X398475166Y-54868900D01*
X398985269Y-54450269D01*
X399403900Y-53940166D01*
X399415000Y-53919399D01*
X399426100Y-53940166D01*
X399844731Y-54450269D01*
X400354834Y-54868900D01*
X400936808Y-55179972D01*
X401568285Y-55371528D01*
X402060428Y-55420000D01*
X403389572Y-55420000D01*
X403881715Y-55371528D01*
X404513192Y-55179972D01*
X404983033Y-54928836D01*
X405366034Y-55133554D01*
X405988087Y-55322252D01*
X406472883Y-55370000D01*
X407597117Y-55370000D01*
X408081913Y-55322252D01*
X408703966Y-55133554D01*
X409277253Y-54827126D01*
X409779743Y-54414743D01*
X410192126Y-53912253D01*
X410498554Y-53338966D01*
X410687252Y-52716913D01*
X410750967Y-52070000D01*
X410687252Y-51423087D01*
X410498554Y-50801034D01*
X410498001Y-50800000D01*
X410498554Y-50798966D01*
X410687252Y-50176913D01*
X410750967Y-49530000D01*
X410687252Y-48883087D01*
X410498554Y-48261034D01*
X410498001Y-48260000D01*
X410498554Y-48258966D01*
X410687252Y-47636913D01*
X410750967Y-46990000D01*
X410687252Y-46343087D01*
X410498554Y-45721034D01*
X410498001Y-45720000D01*
X410498554Y-45718966D01*
X410687252Y-45096913D01*
X410750967Y-44450000D01*
X410687252Y-43803087D01*
X410498554Y-43181034D01*
X410498001Y-43180000D01*
X410498554Y-43178966D01*
X410687252Y-42556913D01*
X410750967Y-41910000D01*
X410687252Y-41263087D01*
X410498554Y-40641034D01*
X410498001Y-40640000D01*
X410498554Y-40638966D01*
X410687252Y-40016913D01*
X410750967Y-39370000D01*
X410687252Y-38723087D01*
X410498554Y-38101034D01*
X410498001Y-38100000D01*
X410498554Y-38098966D01*
X410687252Y-37476913D01*
X410750967Y-36830000D01*
X410687252Y-36183087D01*
X410498554Y-35561034D01*
X410498001Y-35560000D01*
X410498554Y-35558966D01*
X410687252Y-34936913D01*
X410750967Y-34290000D01*
X410687252Y-33643087D01*
X410498554Y-33021034D01*
X410498001Y-33020000D01*
X410498554Y-33018966D01*
X410687252Y-32396913D01*
X410750967Y-31750000D01*
X410687252Y-31103087D01*
X410498554Y-30481034D01*
X410192126Y-29907747D01*
X409926604Y-29584207D01*
X410208965Y-29498554D01*
X410782252Y-29192126D01*
X411284743Y-28779743D01*
X411697126Y-28277253D01*
X412003554Y-27703966D01*
X412192252Y-27081913D01*
X412240000Y-26597117D01*
X412240000Y-25472884D01*
X412192252Y-24988088D01*
X412036608Y-24475000D01*
X414880000Y-24475000D01*
X414880000Y-75115000D01*
G37*
X414880000Y-75115000D02*
X414395000Y-75115000D01*
X414395000Y-74105608D01*
X414343634Y-73584078D01*
X414140641Y-72914901D01*
X413810998Y-72298183D01*
X413367374Y-71757626D01*
X412826816Y-71314002D01*
X412210098Y-70984359D01*
X411540921Y-70781366D01*
X410845000Y-70712824D01*
X410149078Y-70781366D01*
X409479901Y-70984359D01*
X408863183Y-71314002D01*
X408674640Y-71468735D01*
X407952866Y-70986461D01*
X407143017Y-70651011D01*
X406283287Y-70480000D01*
X405406713Y-70480000D01*
X404546983Y-70651011D01*
X404249627Y-70774180D01*
X404140641Y-70414901D01*
X403810998Y-69798183D01*
X403367374Y-69257626D01*
X402826816Y-68814002D01*
X402210098Y-68484359D01*
X401540921Y-68281366D01*
X400845000Y-68212824D01*
X400149078Y-68281366D01*
X399479901Y-68484359D01*
X398863183Y-68814002D01*
X398322626Y-69257626D01*
X398035000Y-69608100D01*
X398035000Y-67980626D01*
X398623913Y-67801981D01*
X399310120Y-67435196D01*
X399911586Y-66941586D01*
X400405196Y-66340120D01*
X400771981Y-65653913D01*
X400997847Y-64909335D01*
X401074112Y-64135000D01*
X400997847Y-63360665D01*
X400771981Y-62616087D01*
X400405196Y-61929880D01*
X399911586Y-61328414D01*
X399389407Y-60899873D01*
X399585613Y-60652358D01*
X399849578Y-60137722D01*
X400008070Y-59581477D01*
X400010440Y-59565800D01*
X399692017Y-59105000D01*
X396405000Y-59105000D01*
X396405000Y-59125000D01*
X396305000Y-59125000D01*
X396305000Y-59105000D01*
X396285000Y-59105000D01*
X396285000Y-59005000D01*
X396305000Y-59005000D01*
X396305000Y-56105000D01*
X396405000Y-56105000D01*
X396405000Y-59005000D01*
X399692017Y-59005000D01*
X400010440Y-58544200D01*
X400008070Y-58528523D01*
X399849578Y-57972278D01*
X399585613Y-57457642D01*
X399226320Y-57004391D01*
X398785505Y-56629944D01*
X398280110Y-56348690D01*
X397729556Y-56171438D01*
X397155000Y-56105000D01*
X396405000Y-56105000D01*
X396305000Y-56105000D01*
X395555000Y-56105000D01*
X394980444Y-56171438D01*
X394745000Y-56247240D01*
X394745000Y-55309862D01*
X394948285Y-55371528D01*
X395440428Y-55420000D01*
X396769572Y-55420000D01*
X397261715Y-55371528D01*
X397893192Y-55179972D01*
X398475166Y-54868900D01*
X398985269Y-54450269D01*
X399403900Y-53940166D01*
X399415000Y-53919399D01*
X399426100Y-53940166D01*
X399844731Y-54450269D01*
X400354834Y-54868900D01*
X400936808Y-55179972D01*
X401568285Y-55371528D01*
X402060428Y-55420000D01*
X403389572Y-55420000D01*
X403881715Y-55371528D01*
X404513192Y-55179972D01*
X404983033Y-54928836D01*
X405366034Y-55133554D01*
X405988087Y-55322252D01*
X406472883Y-55370000D01*
X407597117Y-55370000D01*
X408081913Y-55322252D01*
X408703966Y-55133554D01*
X409277253Y-54827126D01*
X409779743Y-54414743D01*
X410192126Y-53912253D01*
X410498554Y-53338966D01*
X410687252Y-52716913D01*
X410750967Y-52070000D01*
X410687252Y-51423087D01*
X410498554Y-50801034D01*
X410498001Y-50800000D01*
X410498554Y-50798966D01*
X410687252Y-50176913D01*
X410750967Y-49530000D01*
X410687252Y-48883087D01*
X410498554Y-48261034D01*
X410498001Y-48260000D01*
X410498554Y-48258966D01*
X410687252Y-47636913D01*
X410750967Y-46990000D01*
X410687252Y-46343087D01*
X410498554Y-45721034D01*
X410498001Y-45720000D01*
X410498554Y-45718966D01*
X410687252Y-45096913D01*
X410750967Y-44450000D01*
X410687252Y-43803087D01*
X410498554Y-43181034D01*
X410498001Y-43180000D01*
X410498554Y-43178966D01*
X410687252Y-42556913D01*
X410750967Y-41910000D01*
X410687252Y-41263087D01*
X410498554Y-40641034D01*
X410498001Y-40640000D01*
X410498554Y-40638966D01*
X410687252Y-40016913D01*
X410750967Y-39370000D01*
X410687252Y-38723087D01*
X410498554Y-38101034D01*
X410498001Y-38100000D01*
X410498554Y-38098966D01*
X410687252Y-37476913D01*
X410750967Y-36830000D01*
X410687252Y-36183087D01*
X410498554Y-35561034D01*
X410498001Y-35560000D01*
X410498554Y-35558966D01*
X410687252Y-34936913D01*
X410750967Y-34290000D01*
X410687252Y-33643087D01*
X410498554Y-33021034D01*
X410498001Y-33020000D01*
X410498554Y-33018966D01*
X410687252Y-32396913D01*
X410750967Y-31750000D01*
X410687252Y-31103087D01*
X410498554Y-30481034D01*
X410192126Y-29907747D01*
X409926604Y-29584207D01*
X410208965Y-29498554D01*
X410782252Y-29192126D01*
X411284743Y-28779743D01*
X411697126Y-28277253D01*
X412003554Y-27703966D01*
X412192252Y-27081913D01*
X412240000Y-26597117D01*
X412240000Y-25472884D01*
X412192252Y-24988088D01*
X412036608Y-24475000D01*
X414880000Y-24475000D01*
X414880000Y-75115000D01*
G36*
X389812748Y-24988088D02*
G01*
X389765000Y-25472884D01*
X389765000Y-26597117D01*
X389812748Y-27081913D01*
X390001446Y-27703966D01*
X390307874Y-28277253D01*
X390720257Y-28779743D01*
X391222748Y-29192126D01*
X391796035Y-29498554D01*
X392281722Y-29645886D01*
X392303472Y-29866715D01*
X392489510Y-30480000D01*
X392303472Y-31093285D01*
X392238791Y-31750000D01*
X392303472Y-32406715D01*
X392489510Y-33020000D01*
X392303472Y-33633285D01*
X392238791Y-34290000D01*
X392303472Y-34946715D01*
X392489510Y-35560000D01*
X392303472Y-36173285D01*
X392238791Y-36830000D01*
X392303472Y-37486715D01*
X392489510Y-38100000D01*
X392303472Y-38713285D01*
X392238791Y-39370000D01*
X392303472Y-40026715D01*
X392489510Y-40640000D01*
X392303472Y-41253285D01*
X392238791Y-41910000D01*
X392303472Y-42566715D01*
X392489510Y-43180000D01*
X392303472Y-43793285D01*
X392238791Y-44450000D01*
X392303472Y-45106715D01*
X392489510Y-45720000D01*
X392303472Y-46333285D01*
X392238791Y-46990000D01*
X392303472Y-47646715D01*
X392489510Y-48260000D01*
X392303472Y-48873285D01*
X392279115Y-49120588D01*
X391851699Y-49162685D01*
X391295622Y-49331369D01*
X390783138Y-49605297D01*
X390333942Y-49973942D01*
X390241555Y-50086516D01*
X389811511Y-50516560D01*
X389698943Y-50608942D01*
X389330298Y-51058138D01*
X389098555Y-51491699D01*
X389056370Y-51570622D01*
X388887685Y-52126700D01*
X388830727Y-52705000D01*
X388845001Y-52849925D01*
X388845000Y-62455000D01*
X386224915Y-62455000D01*
X386080000Y-62440727D01*
X385501699Y-62497685D01*
X384945622Y-62666369D01*
X384433138Y-62940297D01*
X383983942Y-63308942D01*
X383891555Y-63421516D01*
X383461511Y-63851560D01*
X383348943Y-63943942D01*
X382980298Y-64393138D01*
X382730581Y-64860327D01*
X382706370Y-64905622D01*
X382597024Y-65266087D01*
X382291714Y-65173472D01*
X381635000Y-65108791D01*
X380978285Y-65173472D01*
X380346808Y-65365028D01*
X379764834Y-65676100D01*
X379730000Y-65704688D01*
X379695165Y-65676100D01*
X379113191Y-65365028D01*
X378481714Y-65173472D01*
X378235000Y-65149173D01*
X378235000Y-64500827D01*
X378481715Y-64476528D01*
X379113192Y-64284972D01*
X379695166Y-63973900D01*
X380205269Y-63555269D01*
X380484898Y-63214541D01*
X380781889Y-63365253D01*
X381218078Y-63487720D01*
X381585000Y-63161871D01*
X381585000Y-60875000D01*
X381685000Y-60875000D01*
X381685000Y-63161871D01*
X382051922Y-63487720D01*
X382488111Y-63365253D01*
X382899016Y-63156734D01*
X383261345Y-62872058D01*
X383561175Y-62522165D01*
X383786983Y-62120501D01*
X383930091Y-61682502D01*
X383985000Y-61225000D01*
X383985000Y-60875000D01*
X381685000Y-60875000D01*
X381585000Y-60875000D01*
X381565000Y-60875000D01*
X381565000Y-60775000D01*
X381585000Y-60775000D01*
X381585000Y-58488129D01*
X381685000Y-58488129D01*
X381685000Y-60775000D01*
X383985000Y-60775000D01*
X383985000Y-60425000D01*
X383930091Y-59967498D01*
X383786983Y-59529499D01*
X383561175Y-59127835D01*
X383261345Y-58777942D01*
X382899016Y-58493266D01*
X382488111Y-58284747D01*
X382051922Y-58162280D01*
X381685000Y-58488129D01*
X381585000Y-58488129D01*
X381218078Y-58162280D01*
X380781889Y-58284747D01*
X380484898Y-58435459D01*
X380205269Y-58094731D01*
X379695165Y-57676100D01*
X379113191Y-57365028D01*
X378481714Y-57173472D01*
X377825000Y-57108791D01*
X377168285Y-57173472D01*
X376536808Y-57365028D01*
X376518152Y-57375000D01*
X376064915Y-57375000D01*
X375920000Y-57360727D01*
X375775085Y-57375000D01*
X375341699Y-57417685D01*
X374785622Y-57586369D01*
X374273138Y-57860297D01*
X373823942Y-58228942D01*
X373731555Y-58341516D01*
X373301511Y-58771560D01*
X373188942Y-58863943D01*
X372820297Y-59313139D01*
X372546369Y-59825623D01*
X372437354Y-60184998D01*
X372377685Y-60381700D01*
X372320727Y-60960000D01*
X372335000Y-61104915D01*
X372335000Y-62321888D01*
X372102310Y-62251302D01*
X371632201Y-62205000D01*
X371632200Y-62205000D01*
X371475000Y-62189517D01*
X371317800Y-62205000D01*
X365602799Y-62205000D01*
X365132690Y-62251302D01*
X364800000Y-62352222D01*
X364800000Y-61505507D01*
X369581260Y-56724249D01*
X369690004Y-56635005D01*
X369800278Y-56500637D01*
X370046154Y-56201036D01*
X370105905Y-56089250D01*
X370310796Y-55705925D01*
X370473762Y-55168698D01*
X370515000Y-54750002D01*
X370515000Y-54750001D01*
X370528789Y-54610000D01*
X370515000Y-54469998D01*
X370515000Y-36105507D01*
X370718108Y-35902399D01*
X370820000Y-35871490D01*
X371433285Y-36057528D01*
X372090000Y-36122209D01*
X372746714Y-36057528D01*
X373378191Y-35865972D01*
X373960165Y-35554900D01*
X374470269Y-35136269D01*
X374888900Y-34626166D01*
X375199972Y-34044192D01*
X375391528Y-33412715D01*
X375440000Y-32920572D01*
X375440000Y-31891429D01*
X375391528Y-31399286D01*
X375199972Y-30767809D01*
X374888900Y-30185834D01*
X374470269Y-29675731D01*
X373960166Y-29257100D01*
X373378192Y-28946028D01*
X372746715Y-28754472D01*
X372090000Y-28689791D01*
X371433286Y-28754472D01*
X370820001Y-28940510D01*
X370206715Y-28754472D01*
X369550000Y-28689791D01*
X368893286Y-28754472D01*
X368473469Y-28881822D01*
X368700952Y-28332629D01*
X368920000Y-27231401D01*
X368920000Y-26108599D01*
X368700952Y-25007371D01*
X368480437Y-24475000D01*
X389968392Y-24475000D01*
X389812748Y-24988088D01*
G37*
X389812748Y-24988088D02*
X389765000Y-25472884D01*
X389765000Y-26597117D01*
X389812748Y-27081913D01*
X390001446Y-27703966D01*
X390307874Y-28277253D01*
X390720257Y-28779743D01*
X391222748Y-29192126D01*
X391796035Y-29498554D01*
X392281722Y-29645886D01*
X392303472Y-29866715D01*
X392489510Y-30480000D01*
X392303472Y-31093285D01*
X392238791Y-31750000D01*
X392303472Y-32406715D01*
X392489510Y-33020000D01*
X392303472Y-33633285D01*
X392238791Y-34290000D01*
X392303472Y-34946715D01*
X392489510Y-35560000D01*
X392303472Y-36173285D01*
X392238791Y-36830000D01*
X392303472Y-37486715D01*
X392489510Y-38100000D01*
X392303472Y-38713285D01*
X392238791Y-39370000D01*
X392303472Y-40026715D01*
X392489510Y-40640000D01*
X392303472Y-41253285D01*
X392238791Y-41910000D01*
X392303472Y-42566715D01*
X392489510Y-43180000D01*
X392303472Y-43793285D01*
X392238791Y-44450000D01*
X392303472Y-45106715D01*
X392489510Y-45720000D01*
X392303472Y-46333285D01*
X392238791Y-46990000D01*
X392303472Y-47646715D01*
X392489510Y-48260000D01*
X392303472Y-48873285D01*
X392279115Y-49120588D01*
X391851699Y-49162685D01*
X391295622Y-49331369D01*
X390783138Y-49605297D01*
X390333942Y-49973942D01*
X390241555Y-50086516D01*
X389811511Y-50516560D01*
X389698943Y-50608942D01*
X389330298Y-51058138D01*
X389098555Y-51491699D01*
X389056370Y-51570622D01*
X388887685Y-52126700D01*
X388830727Y-52705000D01*
X388845001Y-52849925D01*
X388845000Y-62455000D01*
X386224915Y-62455000D01*
X386080000Y-62440727D01*
X385501699Y-62497685D01*
X384945622Y-62666369D01*
X384433138Y-62940297D01*
X383983942Y-63308942D01*
X383891555Y-63421516D01*
X383461511Y-63851560D01*
X383348943Y-63943942D01*
X382980298Y-64393138D01*
X382730581Y-64860327D01*
X382706370Y-64905622D01*
X382597024Y-65266087D01*
X382291714Y-65173472D01*
X381635000Y-65108791D01*
X380978285Y-65173472D01*
X380346808Y-65365028D01*
X379764834Y-65676100D01*
X379730000Y-65704688D01*
X379695165Y-65676100D01*
X379113191Y-65365028D01*
X378481714Y-65173472D01*
X378235000Y-65149173D01*
X378235000Y-64500827D01*
X378481715Y-64476528D01*
X379113192Y-64284972D01*
X379695166Y-63973900D01*
X380205269Y-63555269D01*
X380484898Y-63214541D01*
X380781889Y-63365253D01*
X381218078Y-63487720D01*
X381585000Y-63161871D01*
X381585000Y-60875000D01*
X381685000Y-60875000D01*
X381685000Y-63161871D01*
X382051922Y-63487720D01*
X382488111Y-63365253D01*
X382899016Y-63156734D01*
X383261345Y-62872058D01*
X383561175Y-62522165D01*
X383786983Y-62120501D01*
X383930091Y-61682502D01*
X383985000Y-61225000D01*
X383985000Y-60875000D01*
X381685000Y-60875000D01*
X381585000Y-60875000D01*
X381565000Y-60875000D01*
X381565000Y-60775000D01*
X381585000Y-60775000D01*
X381585000Y-58488129D01*
X381685000Y-58488129D01*
X381685000Y-60775000D01*
X383985000Y-60775000D01*
X383985000Y-60425000D01*
X383930091Y-59967498D01*
X383786983Y-59529499D01*
X383561175Y-59127835D01*
X383261345Y-58777942D01*
X382899016Y-58493266D01*
X382488111Y-58284747D01*
X382051922Y-58162280D01*
X381685000Y-58488129D01*
X381585000Y-58488129D01*
X381218078Y-58162280D01*
X380781889Y-58284747D01*
X380484898Y-58435459D01*
X380205269Y-58094731D01*
X379695165Y-57676100D01*
X379113191Y-57365028D01*
X378481714Y-57173472D01*
X377825000Y-57108791D01*
X377168285Y-57173472D01*
X376536808Y-57365028D01*
X376518152Y-57375000D01*
X376064915Y-57375000D01*
X375920000Y-57360727D01*
X375775085Y-57375000D01*
X375341699Y-57417685D01*
X374785622Y-57586369D01*
X374273138Y-57860297D01*
X373823942Y-58228942D01*
X373731555Y-58341516D01*
X373301511Y-58771560D01*
X373188942Y-58863943D01*
X372820297Y-59313139D01*
X372546369Y-59825623D01*
X372437354Y-60184998D01*
X372377685Y-60381700D01*
X372320727Y-60960000D01*
X372335000Y-61104915D01*
X372335000Y-62321888D01*
X372102310Y-62251302D01*
X371632201Y-62205000D01*
X371632200Y-62205000D01*
X371475000Y-62189517D01*
X371317800Y-62205000D01*
X365602799Y-62205000D01*
X365132690Y-62251302D01*
X364800000Y-62352222D01*
X364800000Y-61505507D01*
X369581260Y-56724249D01*
X369690004Y-56635005D01*
X369800278Y-56500637D01*
X370046154Y-56201036D01*
X370105905Y-56089250D01*
X370310796Y-55705925D01*
X370473762Y-55168698D01*
X370515000Y-54750002D01*
X370515000Y-54750001D01*
X370528789Y-54610000D01*
X370515000Y-54469998D01*
X370515000Y-36105507D01*
X370718108Y-35902399D01*
X370820000Y-35871490D01*
X371433285Y-36057528D01*
X372090000Y-36122209D01*
X372746714Y-36057528D01*
X373378191Y-35865972D01*
X373960165Y-35554900D01*
X374470269Y-35136269D01*
X374888900Y-34626166D01*
X375199972Y-34044192D01*
X375391528Y-33412715D01*
X375440000Y-32920572D01*
X375440000Y-31891429D01*
X375391528Y-31399286D01*
X375199972Y-30767809D01*
X374888900Y-30185834D01*
X374470269Y-29675731D01*
X373960166Y-29257100D01*
X373378192Y-28946028D01*
X372746715Y-28754472D01*
X372090000Y-28689791D01*
X371433286Y-28754472D01*
X370820001Y-28940510D01*
X370206715Y-28754472D01*
X369550000Y-28689791D01*
X368893286Y-28754472D01*
X368473469Y-28881822D01*
X368700952Y-28332629D01*
X368920000Y-27231401D01*
X368920000Y-26108599D01*
X368700952Y-25007371D01*
X368480437Y-24475000D01*
X389968392Y-24475000D01*
X389812748Y-24988088D01*
M02*
