M48
METRIC,TZ
T1C0.400
T2C0.500
T3C0.800
T4C0.900
T5C1.000
T6C1.100
T7C1.130
T8C1.200
T9C1.700
T10C3.200
T11C4.200
%
G90
G05
T1
X33020Y-109855
X33020Y-130810
X34290Y-109855
X34290Y-130810
X35560Y-109855
X35560Y-130810
X38100Y-104775
X39624Y-105156
X40005Y-118745
X40005Y-120015
X41275Y-105156
X41275Y-118745
X41275Y-120015
X43371Y-77661
X43371Y-79756
X43371Y-81915
X43371Y-87186
X43371Y-89281
X43371Y-91440
X43371Y-96711
X43371Y-98806
X43371Y-100965
X44831Y-77661
X44831Y-79756
X44831Y-81915
X44831Y-87186
X44831Y-89281
X44831Y-91440
X44831Y-96711
X44831Y-98806
X44831Y-100965
X46165Y-96711
X46292Y-77661
X46292Y-79756
X46292Y-81915
X46292Y-87186
X46292Y-89281
X46292Y-91440
X46292Y-98806
X46292Y-100965
X50165Y-139700
X50165Y-140970
X50165Y-142240
X53975Y-75565
X55245Y-75565
X55245Y-135255
X55245Y-136525
X55245Y-144145
X55245Y-145415
X56515Y-75565
X56515Y-135255
X56515Y-136525
X56515Y-144145
X56515Y-145415
X57658Y-103378
X57658Y-104394
X59055Y-129540
X60325Y-129540
X60960Y-115570
X60960Y-116840
X61615Y-129520
X62230Y-115570
X62230Y-116840
X64135Y-128270
X64135Y-129540
X64155Y-134600
X64155Y-135870
X67945Y-75565
X69215Y-75565
X70485Y-75565
T2
X75000Y-110500
X75659Y-108909
X75659Y-112091
X77250Y-108250
X77250Y-112750
X78841Y-108909
X78841Y-112091
X79500Y-110500
X31000Y-143500
X31659Y-141909
X31659Y-145091
X33250Y-141250
X33250Y-145750
X34841Y-141909
X34841Y-145091
X35500Y-143500
T3
X48895Y-120690
X48895Y-123190
X53975Y-120690
X53975Y-123190
T4
X55245Y-108475
X55245Y-117475
X40710Y-125730
X40710Y-128270
X40710Y-130810
X40710Y-133350
X43250Y-127000
X43250Y-129540
X43250Y-132080
X43250Y-134620
X52070Y-108475
X52070Y-117475
X61595Y-104415
X61615Y-145415
X64135Y-104415
X64155Y-145415
X66675Y-104415
X66695Y-145415
X69215Y-104415
X69235Y-145415
X40750Y-107315
X40750Y-109855
X40750Y-112395
X40750Y-114935
X43290Y-108585
X43290Y-111125
X43290Y-113665
X43290Y-116205
T5
X55880Y-78740
X58420Y-78740
X60960Y-78740
X63500Y-78740
X66040Y-78740
X68580Y-78740
X73660Y-75565
X73660Y-78105
X73660Y-80645
X78105Y-75565
X78105Y-78105
X78105Y-80645
T6
X77470Y-121285
X77470Y-123785
X50800Y-85090
X50800Y-100330
X53340Y-85090
X53340Y-100330
X55880Y-85090
X55880Y-100330
X58420Y-85090
X58420Y-100330
X60960Y-85090
X60960Y-100330
X63500Y-85090
X63500Y-100330
X66040Y-85090
X66040Y-100330
X68580Y-85090
X68580Y-100330
X71120Y-85090
X71120Y-100330
X73660Y-85090
X73660Y-100330
X76200Y-85090
X76200Y-100330
X78740Y-85090
X78740Y-100330
X76240Y-134620
X78740Y-134620
T7
X47625Y-127635
X50165Y-127635
X52705Y-127635
X55245Y-127635
T8
X43180Y-140970
X43180Y-144780
T9
X31352Y-104013
X31352Y-119507
X31312Y-122428
X31312Y-137922
T10
X77250Y-110500
X33250Y-143500
T11
X29845Y-88265
X29845Y-78740
X29845Y-97790
T0
M30
