G04 #@! TF.GenerationSoftware,KiCad,Pcbnew,5.1.5+dfsg1-2build2*
G04 #@! TF.CreationDate,2022-10-30T21:07:11+01:00*
G04 #@! TF.ProjectId,basicHiveSensor,62617369-6348-4697-9665-53656e736f72,rev?*
G04 #@! TF.SameCoordinates,Original*
G04 #@! TF.FileFunction,Copper,L1,Top*
G04 #@! TF.FilePolarity,Positive*
%FSLAX46Y46*%
G04 Gerber Fmt 4.6, Leading zero omitted, Abs format (unit mm)*
G04 Created by KiCad (PCBNEW 5.1.5+dfsg1-2build2) date 2022-10-30 21:07:11*
%MOMM*%
%LPD*%
G04 APERTURE LIST*
%ADD10C,0.150000*%
%ADD11O,2.000000X3.000000*%
%ADD12O,3.000000X2.000000*%
%ADD13O,1.800000X2.300000*%
%ADD14O,2.200000X4.000000*%
%ADD15O,3.000000X1.800000*%
%ADD16O,1.800000X3.000000*%
%ADD17C,6.500000*%
%ADD18C,0.800000*%
%ADD19O,1.700000X2.500000*%
%ADD20C,5.500000*%
%ADD21O,2.500000X1.700000*%
%ADD22O,1.800000X2.500000*%
%ADD23C,3.500000*%
%ADD24O,3.000000X1.600000*%
%ADD25O,2.400000X2.400000*%
%ADD26R,2.400000X2.400000*%
%ADD27C,0.800000*%
%ADD28C,1.000000*%
%ADD29C,1.500000*%
%ADD30C,0.300000*%
G04 APERTURE END LIST*
G04 #@! TA.AperFunction,SMDPad,CuDef*
D10*
G36*
X77253345Y-138304835D02*
G01*
X77290329Y-138310321D01*
X77326598Y-138319406D01*
X77361802Y-138332002D01*
X77395602Y-138347988D01*
X77427672Y-138367210D01*
X77457704Y-138389483D01*
X77485408Y-138414592D01*
X77510517Y-138442296D01*
X77532790Y-138472328D01*
X77552012Y-138504398D01*
X77567998Y-138538198D01*
X77580594Y-138573402D01*
X77589679Y-138609671D01*
X77595165Y-138646655D01*
X77597000Y-138684000D01*
X77597000Y-139446000D01*
X77595165Y-139483345D01*
X77589679Y-139520329D01*
X77580594Y-139556598D01*
X77567998Y-139591802D01*
X77552012Y-139625602D01*
X77532790Y-139657672D01*
X77510517Y-139687704D01*
X77485408Y-139715408D01*
X77457704Y-139740517D01*
X77427672Y-139762790D01*
X77395602Y-139782012D01*
X77361802Y-139797998D01*
X77326598Y-139810594D01*
X77290329Y-139819679D01*
X77253345Y-139825165D01*
X77216000Y-139827000D01*
X76454000Y-139827000D01*
X76416655Y-139825165D01*
X76379671Y-139819679D01*
X76343402Y-139810594D01*
X76308198Y-139797998D01*
X76274398Y-139782012D01*
X76242328Y-139762790D01*
X76212296Y-139740517D01*
X76184592Y-139715408D01*
X76159483Y-139687704D01*
X76137210Y-139657672D01*
X76117988Y-139625602D01*
X76102002Y-139591802D01*
X76089406Y-139556598D01*
X76080321Y-139520329D01*
X76074835Y-139483345D01*
X76073000Y-139446000D01*
X76073000Y-138684000D01*
X76074835Y-138646655D01*
X76080321Y-138609671D01*
X76089406Y-138573402D01*
X76102002Y-138538198D01*
X76117988Y-138504398D01*
X76137210Y-138472328D01*
X76159483Y-138442296D01*
X76184592Y-138414592D01*
X76212296Y-138389483D01*
X76242328Y-138367210D01*
X76274398Y-138347988D01*
X76308198Y-138332002D01*
X76343402Y-138319406D01*
X76379671Y-138310321D01*
X76416655Y-138304835D01*
X76454000Y-138303000D01*
X77216000Y-138303000D01*
X77253345Y-138304835D01*
G37*
G04 #@! TD.AperFunction*
G04 #@! TA.AperFunction,SMDPad,CuDef*
G36*
X79158345Y-138304835D02*
G01*
X79195329Y-138310321D01*
X79231598Y-138319406D01*
X79266802Y-138332002D01*
X79300602Y-138347988D01*
X79332672Y-138367210D01*
X79362704Y-138389483D01*
X79390408Y-138414592D01*
X79415517Y-138442296D01*
X79437790Y-138472328D01*
X79457012Y-138504398D01*
X79472998Y-138538198D01*
X79485594Y-138573402D01*
X79494679Y-138609671D01*
X79500165Y-138646655D01*
X79502000Y-138684000D01*
X79502000Y-139446000D01*
X79500165Y-139483345D01*
X79494679Y-139520329D01*
X79485594Y-139556598D01*
X79472998Y-139591802D01*
X79457012Y-139625602D01*
X79437790Y-139657672D01*
X79415517Y-139687704D01*
X79390408Y-139715408D01*
X79362704Y-139740517D01*
X79332672Y-139762790D01*
X79300602Y-139782012D01*
X79266802Y-139797998D01*
X79231598Y-139810594D01*
X79195329Y-139819679D01*
X79158345Y-139825165D01*
X79121000Y-139827000D01*
X78359000Y-139827000D01*
X78321655Y-139825165D01*
X78284671Y-139819679D01*
X78248402Y-139810594D01*
X78213198Y-139797998D01*
X78179398Y-139782012D01*
X78147328Y-139762790D01*
X78117296Y-139740517D01*
X78089592Y-139715408D01*
X78064483Y-139687704D01*
X78042210Y-139657672D01*
X78022988Y-139625602D01*
X78007002Y-139591802D01*
X77994406Y-139556598D01*
X77985321Y-139520329D01*
X77979835Y-139483345D01*
X77978000Y-139446000D01*
X77978000Y-138684000D01*
X77979835Y-138646655D01*
X77985321Y-138609671D01*
X77994406Y-138573402D01*
X78007002Y-138538198D01*
X78022988Y-138504398D01*
X78042210Y-138472328D01*
X78064483Y-138442296D01*
X78089592Y-138414592D01*
X78117296Y-138389483D01*
X78147328Y-138367210D01*
X78179398Y-138347988D01*
X78213198Y-138332002D01*
X78248402Y-138319406D01*
X78284671Y-138310321D01*
X78321655Y-138304835D01*
X78359000Y-138303000D01*
X79121000Y-138303000D01*
X79158345Y-138304835D01*
G37*
G04 #@! TD.AperFunction*
G04 #@! TA.AperFunction,SMDPad,CuDef*
G36*
X77253345Y-140209835D02*
G01*
X77290329Y-140215321D01*
X77326598Y-140224406D01*
X77361802Y-140237002D01*
X77395602Y-140252988D01*
X77427672Y-140272210D01*
X77457704Y-140294483D01*
X77485408Y-140319592D01*
X77510517Y-140347296D01*
X77532790Y-140377328D01*
X77552012Y-140409398D01*
X77567998Y-140443198D01*
X77580594Y-140478402D01*
X77589679Y-140514671D01*
X77595165Y-140551655D01*
X77597000Y-140589000D01*
X77597000Y-141351000D01*
X77595165Y-141388345D01*
X77589679Y-141425329D01*
X77580594Y-141461598D01*
X77567998Y-141496802D01*
X77552012Y-141530602D01*
X77532790Y-141562672D01*
X77510517Y-141592704D01*
X77485408Y-141620408D01*
X77457704Y-141645517D01*
X77427672Y-141667790D01*
X77395602Y-141687012D01*
X77361802Y-141702998D01*
X77326598Y-141715594D01*
X77290329Y-141724679D01*
X77253345Y-141730165D01*
X77216000Y-141732000D01*
X76454000Y-141732000D01*
X76416655Y-141730165D01*
X76379671Y-141724679D01*
X76343402Y-141715594D01*
X76308198Y-141702998D01*
X76274398Y-141687012D01*
X76242328Y-141667790D01*
X76212296Y-141645517D01*
X76184592Y-141620408D01*
X76159483Y-141592704D01*
X76137210Y-141562672D01*
X76117988Y-141530602D01*
X76102002Y-141496802D01*
X76089406Y-141461598D01*
X76080321Y-141425329D01*
X76074835Y-141388345D01*
X76073000Y-141351000D01*
X76073000Y-140589000D01*
X76074835Y-140551655D01*
X76080321Y-140514671D01*
X76089406Y-140478402D01*
X76102002Y-140443198D01*
X76117988Y-140409398D01*
X76137210Y-140377328D01*
X76159483Y-140347296D01*
X76184592Y-140319592D01*
X76212296Y-140294483D01*
X76242328Y-140272210D01*
X76274398Y-140252988D01*
X76308198Y-140237002D01*
X76343402Y-140224406D01*
X76379671Y-140215321D01*
X76416655Y-140209835D01*
X76454000Y-140208000D01*
X77216000Y-140208000D01*
X77253345Y-140209835D01*
G37*
G04 #@! TD.AperFunction*
G04 #@! TA.AperFunction,SMDPad,CuDef*
G36*
X79158345Y-140209835D02*
G01*
X79195329Y-140215321D01*
X79231598Y-140224406D01*
X79266802Y-140237002D01*
X79300602Y-140252988D01*
X79332672Y-140272210D01*
X79362704Y-140294483D01*
X79390408Y-140319592D01*
X79415517Y-140347296D01*
X79437790Y-140377328D01*
X79457012Y-140409398D01*
X79472998Y-140443198D01*
X79485594Y-140478402D01*
X79494679Y-140514671D01*
X79500165Y-140551655D01*
X79502000Y-140589000D01*
X79502000Y-141351000D01*
X79500165Y-141388345D01*
X79494679Y-141425329D01*
X79485594Y-141461598D01*
X79472998Y-141496802D01*
X79457012Y-141530602D01*
X79437790Y-141562672D01*
X79415517Y-141592704D01*
X79390408Y-141620408D01*
X79362704Y-141645517D01*
X79332672Y-141667790D01*
X79300602Y-141687012D01*
X79266802Y-141702998D01*
X79231598Y-141715594D01*
X79195329Y-141724679D01*
X79158345Y-141730165D01*
X79121000Y-141732000D01*
X78359000Y-141732000D01*
X78321655Y-141730165D01*
X78284671Y-141724679D01*
X78248402Y-141715594D01*
X78213198Y-141702998D01*
X78179398Y-141687012D01*
X78147328Y-141667790D01*
X78117296Y-141645517D01*
X78089592Y-141620408D01*
X78064483Y-141592704D01*
X78042210Y-141562672D01*
X78022988Y-141530602D01*
X78007002Y-141496802D01*
X77994406Y-141461598D01*
X77985321Y-141425329D01*
X77979835Y-141388345D01*
X77978000Y-141351000D01*
X77978000Y-140589000D01*
X77979835Y-140551655D01*
X77985321Y-140514671D01*
X77994406Y-140478402D01*
X78007002Y-140443198D01*
X78022988Y-140409398D01*
X78042210Y-140377328D01*
X78064483Y-140347296D01*
X78089592Y-140319592D01*
X78117296Y-140294483D01*
X78147328Y-140272210D01*
X78179398Y-140252988D01*
X78213198Y-140237002D01*
X78248402Y-140224406D01*
X78284671Y-140215321D01*
X78321655Y-140209835D01*
X78359000Y-140208000D01*
X79121000Y-140208000D01*
X79158345Y-140209835D01*
G37*
G04 #@! TD.AperFunction*
G04 #@! TA.AperFunction,SMDPad,CuDef*
G36*
X77253345Y-142114835D02*
G01*
X77290329Y-142120321D01*
X77326598Y-142129406D01*
X77361802Y-142142002D01*
X77395602Y-142157988D01*
X77427672Y-142177210D01*
X77457704Y-142199483D01*
X77485408Y-142224592D01*
X77510517Y-142252296D01*
X77532790Y-142282328D01*
X77552012Y-142314398D01*
X77567998Y-142348198D01*
X77580594Y-142383402D01*
X77589679Y-142419671D01*
X77595165Y-142456655D01*
X77597000Y-142494000D01*
X77597000Y-143256000D01*
X77595165Y-143293345D01*
X77589679Y-143330329D01*
X77580594Y-143366598D01*
X77567998Y-143401802D01*
X77552012Y-143435602D01*
X77532790Y-143467672D01*
X77510517Y-143497704D01*
X77485408Y-143525408D01*
X77457704Y-143550517D01*
X77427672Y-143572790D01*
X77395602Y-143592012D01*
X77361802Y-143607998D01*
X77326598Y-143620594D01*
X77290329Y-143629679D01*
X77253345Y-143635165D01*
X77216000Y-143637000D01*
X76454000Y-143637000D01*
X76416655Y-143635165D01*
X76379671Y-143629679D01*
X76343402Y-143620594D01*
X76308198Y-143607998D01*
X76274398Y-143592012D01*
X76242328Y-143572790D01*
X76212296Y-143550517D01*
X76184592Y-143525408D01*
X76159483Y-143497704D01*
X76137210Y-143467672D01*
X76117988Y-143435602D01*
X76102002Y-143401802D01*
X76089406Y-143366598D01*
X76080321Y-143330329D01*
X76074835Y-143293345D01*
X76073000Y-143256000D01*
X76073000Y-142494000D01*
X76074835Y-142456655D01*
X76080321Y-142419671D01*
X76089406Y-142383402D01*
X76102002Y-142348198D01*
X76117988Y-142314398D01*
X76137210Y-142282328D01*
X76159483Y-142252296D01*
X76184592Y-142224592D01*
X76212296Y-142199483D01*
X76242328Y-142177210D01*
X76274398Y-142157988D01*
X76308198Y-142142002D01*
X76343402Y-142129406D01*
X76379671Y-142120321D01*
X76416655Y-142114835D01*
X76454000Y-142113000D01*
X77216000Y-142113000D01*
X77253345Y-142114835D01*
G37*
G04 #@! TD.AperFunction*
G04 #@! TA.AperFunction,SMDPad,CuDef*
G36*
X79158345Y-142114835D02*
G01*
X79195329Y-142120321D01*
X79231598Y-142129406D01*
X79266802Y-142142002D01*
X79300602Y-142157988D01*
X79332672Y-142177210D01*
X79362704Y-142199483D01*
X79390408Y-142224592D01*
X79415517Y-142252296D01*
X79437790Y-142282328D01*
X79457012Y-142314398D01*
X79472998Y-142348198D01*
X79485594Y-142383402D01*
X79494679Y-142419671D01*
X79500165Y-142456655D01*
X79502000Y-142494000D01*
X79502000Y-143256000D01*
X79500165Y-143293345D01*
X79494679Y-143330329D01*
X79485594Y-143366598D01*
X79472998Y-143401802D01*
X79457012Y-143435602D01*
X79437790Y-143467672D01*
X79415517Y-143497704D01*
X79390408Y-143525408D01*
X79362704Y-143550517D01*
X79332672Y-143572790D01*
X79300602Y-143592012D01*
X79266802Y-143607998D01*
X79231598Y-143620594D01*
X79195329Y-143629679D01*
X79158345Y-143635165D01*
X79121000Y-143637000D01*
X78359000Y-143637000D01*
X78321655Y-143635165D01*
X78284671Y-143629679D01*
X78248402Y-143620594D01*
X78213198Y-143607998D01*
X78179398Y-143592012D01*
X78147328Y-143572790D01*
X78117296Y-143550517D01*
X78089592Y-143525408D01*
X78064483Y-143497704D01*
X78042210Y-143467672D01*
X78022988Y-143435602D01*
X78007002Y-143401802D01*
X77994406Y-143366598D01*
X77985321Y-143330329D01*
X77979835Y-143293345D01*
X77978000Y-143256000D01*
X77978000Y-142494000D01*
X77979835Y-142456655D01*
X77985321Y-142419671D01*
X77994406Y-142383402D01*
X78007002Y-142348198D01*
X78022988Y-142314398D01*
X78042210Y-142282328D01*
X78064483Y-142252296D01*
X78089592Y-142224592D01*
X78117296Y-142199483D01*
X78147328Y-142177210D01*
X78179398Y-142157988D01*
X78213198Y-142142002D01*
X78248402Y-142129406D01*
X78284671Y-142120321D01*
X78321655Y-142114835D01*
X78359000Y-142113000D01*
X79121000Y-142113000D01*
X79158345Y-142114835D01*
G37*
G04 #@! TD.AperFunction*
G04 #@! TA.AperFunction,SMDPad,CuDef*
G36*
X79158345Y-144019835D02*
G01*
X79195329Y-144025321D01*
X79231598Y-144034406D01*
X79266802Y-144047002D01*
X79300602Y-144062988D01*
X79332672Y-144082210D01*
X79362704Y-144104483D01*
X79390408Y-144129592D01*
X79415517Y-144157296D01*
X79437790Y-144187328D01*
X79457012Y-144219398D01*
X79472998Y-144253198D01*
X79485594Y-144288402D01*
X79494679Y-144324671D01*
X79500165Y-144361655D01*
X79502000Y-144399000D01*
X79502000Y-145161000D01*
X79500165Y-145198345D01*
X79494679Y-145235329D01*
X79485594Y-145271598D01*
X79472998Y-145306802D01*
X79457012Y-145340602D01*
X79437790Y-145372672D01*
X79415517Y-145402704D01*
X79390408Y-145430408D01*
X79362704Y-145455517D01*
X79332672Y-145477790D01*
X79300602Y-145497012D01*
X79266802Y-145512998D01*
X79231598Y-145525594D01*
X79195329Y-145534679D01*
X79158345Y-145540165D01*
X79121000Y-145542000D01*
X78359000Y-145542000D01*
X78321655Y-145540165D01*
X78284671Y-145534679D01*
X78248402Y-145525594D01*
X78213198Y-145512998D01*
X78179398Y-145497012D01*
X78147328Y-145477790D01*
X78117296Y-145455517D01*
X78089592Y-145430408D01*
X78064483Y-145402704D01*
X78042210Y-145372672D01*
X78022988Y-145340602D01*
X78007002Y-145306802D01*
X77994406Y-145271598D01*
X77985321Y-145235329D01*
X77979835Y-145198345D01*
X77978000Y-145161000D01*
X77978000Y-144399000D01*
X77979835Y-144361655D01*
X77985321Y-144324671D01*
X77994406Y-144288402D01*
X78007002Y-144253198D01*
X78022988Y-144219398D01*
X78042210Y-144187328D01*
X78064483Y-144157296D01*
X78089592Y-144129592D01*
X78117296Y-144104483D01*
X78147328Y-144082210D01*
X78179398Y-144062988D01*
X78213198Y-144047002D01*
X78248402Y-144034406D01*
X78284671Y-144025321D01*
X78321655Y-144019835D01*
X78359000Y-144018000D01*
X79121000Y-144018000D01*
X79158345Y-144019835D01*
G37*
G04 #@! TD.AperFunction*
G04 #@! TA.AperFunction,SMDPad,CuDef*
G36*
X77253345Y-144019835D02*
G01*
X77290329Y-144025321D01*
X77326598Y-144034406D01*
X77361802Y-144047002D01*
X77395602Y-144062988D01*
X77427672Y-144082210D01*
X77457704Y-144104483D01*
X77485408Y-144129592D01*
X77510517Y-144157296D01*
X77532790Y-144187328D01*
X77552012Y-144219398D01*
X77567998Y-144253198D01*
X77580594Y-144288402D01*
X77589679Y-144324671D01*
X77595165Y-144361655D01*
X77597000Y-144399000D01*
X77597000Y-145161000D01*
X77595165Y-145198345D01*
X77589679Y-145235329D01*
X77580594Y-145271598D01*
X77567998Y-145306802D01*
X77552012Y-145340602D01*
X77532790Y-145372672D01*
X77510517Y-145402704D01*
X77485408Y-145430408D01*
X77457704Y-145455517D01*
X77427672Y-145477790D01*
X77395602Y-145497012D01*
X77361802Y-145512998D01*
X77326598Y-145525594D01*
X77290329Y-145534679D01*
X77253345Y-145540165D01*
X77216000Y-145542000D01*
X76454000Y-145542000D01*
X76416655Y-145540165D01*
X76379671Y-145534679D01*
X76343402Y-145525594D01*
X76308198Y-145512998D01*
X76274398Y-145497012D01*
X76242328Y-145477790D01*
X76212296Y-145455517D01*
X76184592Y-145430408D01*
X76159483Y-145402704D01*
X76137210Y-145372672D01*
X76117988Y-145340602D01*
X76102002Y-145306802D01*
X76089406Y-145271598D01*
X76080321Y-145235329D01*
X76074835Y-145198345D01*
X76073000Y-145161000D01*
X76073000Y-144399000D01*
X76074835Y-144361655D01*
X76080321Y-144324671D01*
X76089406Y-144288402D01*
X76102002Y-144253198D01*
X76117988Y-144219398D01*
X76137210Y-144187328D01*
X76159483Y-144157296D01*
X76184592Y-144129592D01*
X76212296Y-144104483D01*
X76242328Y-144082210D01*
X76274398Y-144062988D01*
X76308198Y-144047002D01*
X76343402Y-144034406D01*
X76379671Y-144025321D01*
X76416655Y-144019835D01*
X76454000Y-144018000D01*
X77216000Y-144018000D01*
X77253345Y-144019835D01*
G37*
G04 #@! TD.AperFunction*
D11*
X76240000Y-134620000D03*
X78740000Y-134620000D03*
D12*
X77470000Y-123785000D03*
X77470000Y-121285000D03*
D13*
X48895000Y-120290000D03*
X48895000Y-123590000D03*
D14*
X31312000Y-137022000D03*
X31312000Y-123328000D03*
D15*
X43250000Y-134620000D03*
X39960000Y-133350000D03*
X43250000Y-132080000D03*
X39960000Y-130810000D03*
X43250000Y-129540000D03*
X39960000Y-128270000D03*
X43250000Y-127000000D03*
X39960000Y-125730000D03*
D14*
X31352000Y-118607000D03*
X31352000Y-104913000D03*
D15*
X43290000Y-116205000D03*
X40000000Y-114935000D03*
X43290000Y-113665000D03*
X40000000Y-112395000D03*
X43290000Y-111125000D03*
X40000000Y-109855000D03*
X43290000Y-108585000D03*
X40000000Y-107315000D03*
D16*
X78740000Y-85590000D03*
X76200000Y-85590000D03*
X73660000Y-85590000D03*
X71120000Y-85590000D03*
X68580000Y-85590000D03*
X66040000Y-85590000D03*
X63500000Y-85590000D03*
X60960000Y-85590000D03*
X58420000Y-85590000D03*
X55880000Y-85590000D03*
X53340000Y-85590000D03*
X50800000Y-85590000D03*
X66040000Y-99830000D03*
X60960000Y-99830000D03*
X55880000Y-99830000D03*
X73660000Y-99830000D03*
X68580000Y-99830000D03*
X58420000Y-99830000D03*
X76200000Y-99830000D03*
X53340000Y-99830000D03*
X78740000Y-99830000D03*
X63500000Y-99830000D03*
X50800000Y-99830000D03*
X71120000Y-99830000D03*
D17*
X77250000Y-110500000D03*
D18*
X79500000Y-110500000D03*
X78840990Y-112090990D03*
X75659010Y-108909010D03*
X77250000Y-108250000D03*
X77250000Y-112750000D03*
X75659010Y-112090990D03*
X78840990Y-108909010D03*
X75000000Y-110500000D03*
X33250000Y-141250000D03*
X34840990Y-145090990D03*
X31659010Y-141909010D03*
X31000000Y-143500000D03*
X35500000Y-143500000D03*
X34840990Y-141909010D03*
X31659010Y-145090990D03*
X33250000Y-145750000D03*
D17*
X33250000Y-143500000D03*
D19*
X60960000Y-78740000D03*
X58420000Y-78740000D03*
X55880000Y-78740000D03*
X63500000Y-78740000D03*
X66040000Y-78740000D03*
X68580000Y-78740000D03*
G04 #@! TA.AperFunction,SMDPad,CuDef*
D10*
G36*
X46476756Y-98066806D02*
G01*
X46513159Y-98072206D01*
X46548857Y-98081147D01*
X46583506Y-98093545D01*
X46616774Y-98109280D01*
X46648339Y-98128199D01*
X46677897Y-98150121D01*
X46705165Y-98174835D01*
X46729879Y-98202103D01*
X46751801Y-98231661D01*
X46770720Y-98263226D01*
X46786455Y-98296494D01*
X46798853Y-98331143D01*
X46807794Y-98366841D01*
X46813194Y-98403244D01*
X46815000Y-98440000D01*
X46815000Y-99190000D01*
X46813194Y-99226756D01*
X46807794Y-99263159D01*
X46798853Y-99298857D01*
X46786455Y-99333506D01*
X46770720Y-99366774D01*
X46751801Y-99398339D01*
X46729879Y-99427897D01*
X46705165Y-99455165D01*
X46677897Y-99479879D01*
X46648339Y-99501801D01*
X46616774Y-99520720D01*
X46583506Y-99536455D01*
X46548857Y-99548853D01*
X46513159Y-99557794D01*
X46476756Y-99563194D01*
X46440000Y-99565000D01*
X43190000Y-99565000D01*
X43153244Y-99563194D01*
X43116841Y-99557794D01*
X43081143Y-99548853D01*
X43046494Y-99536455D01*
X43013226Y-99520720D01*
X42981661Y-99501801D01*
X42952103Y-99479879D01*
X42924835Y-99455165D01*
X42900121Y-99427897D01*
X42878199Y-99398339D01*
X42859280Y-99366774D01*
X42843545Y-99333506D01*
X42831147Y-99298857D01*
X42822206Y-99263159D01*
X42816806Y-99226756D01*
X42815000Y-99190000D01*
X42815000Y-98440000D01*
X42816806Y-98403244D01*
X42822206Y-98366841D01*
X42831147Y-98331143D01*
X42843545Y-98296494D01*
X42859280Y-98263226D01*
X42878199Y-98231661D01*
X42900121Y-98202103D01*
X42924835Y-98174835D01*
X42952103Y-98150121D01*
X42981661Y-98128199D01*
X43013226Y-98109280D01*
X43046494Y-98093545D01*
X43081143Y-98081147D01*
X43116841Y-98072206D01*
X43153244Y-98066806D01*
X43190000Y-98065000D01*
X46440000Y-98065000D01*
X46476756Y-98066806D01*
G37*
G04 #@! TD.AperFunction*
D20*
X29845000Y-97790000D03*
G04 #@! TA.AperFunction,SMDPad,CuDef*
D10*
G36*
X46476756Y-93866806D02*
G01*
X46513159Y-93872206D01*
X46548857Y-93881147D01*
X46583506Y-93893545D01*
X46616774Y-93909280D01*
X46648339Y-93928199D01*
X46677897Y-93950121D01*
X46705165Y-93974835D01*
X46729879Y-94002103D01*
X46751801Y-94031661D01*
X46770720Y-94063226D01*
X46786455Y-94096494D01*
X46798853Y-94131143D01*
X46807794Y-94166841D01*
X46813194Y-94203244D01*
X46815000Y-94240000D01*
X46815000Y-94990000D01*
X46813194Y-95026756D01*
X46807794Y-95063159D01*
X46798853Y-95098857D01*
X46786455Y-95133506D01*
X46770720Y-95166774D01*
X46751801Y-95198339D01*
X46729879Y-95227897D01*
X46705165Y-95255165D01*
X46677897Y-95279879D01*
X46648339Y-95301801D01*
X46616774Y-95320720D01*
X46583506Y-95336455D01*
X46548857Y-95348853D01*
X46513159Y-95357794D01*
X46476756Y-95363194D01*
X46440000Y-95365000D01*
X43190000Y-95365000D01*
X43153244Y-95363194D01*
X43116841Y-95357794D01*
X43081143Y-95348853D01*
X43046494Y-95336455D01*
X43013226Y-95320720D01*
X42981661Y-95301801D01*
X42952103Y-95279879D01*
X42924835Y-95255165D01*
X42900121Y-95227897D01*
X42878199Y-95198339D01*
X42859280Y-95166774D01*
X42843545Y-95133506D01*
X42831147Y-95098857D01*
X42822206Y-95063159D01*
X42816806Y-95026756D01*
X42815000Y-94990000D01*
X42815000Y-94240000D01*
X42816806Y-94203244D01*
X42822206Y-94166841D01*
X42831147Y-94131143D01*
X42843545Y-94096494D01*
X42859280Y-94063226D01*
X42878199Y-94031661D01*
X42900121Y-94002103D01*
X42924835Y-93974835D01*
X42952103Y-93950121D01*
X42981661Y-93928199D01*
X43013226Y-93909280D01*
X43046494Y-93893545D01*
X43081143Y-93881147D01*
X43116841Y-93872206D01*
X43153244Y-93866806D01*
X43190000Y-93865000D01*
X46440000Y-93865000D01*
X46476756Y-93866806D01*
G37*
G04 #@! TD.AperFunction*
G04 #@! TA.AperFunction,SMDPad,CuDef*
G36*
X46476756Y-95966806D02*
G01*
X46513159Y-95972206D01*
X46548857Y-95981147D01*
X46583506Y-95993545D01*
X46616774Y-96009280D01*
X46648339Y-96028199D01*
X46677897Y-96050121D01*
X46705165Y-96074835D01*
X46729879Y-96102103D01*
X46751801Y-96131661D01*
X46770720Y-96163226D01*
X46786455Y-96196494D01*
X46798853Y-96231143D01*
X46807794Y-96266841D01*
X46813194Y-96303244D01*
X46815000Y-96340000D01*
X46815000Y-97090000D01*
X46813194Y-97126756D01*
X46807794Y-97163159D01*
X46798853Y-97198857D01*
X46786455Y-97233506D01*
X46770720Y-97266774D01*
X46751801Y-97298339D01*
X46729879Y-97327897D01*
X46705165Y-97355165D01*
X46677897Y-97379879D01*
X46648339Y-97401801D01*
X46616774Y-97420720D01*
X46583506Y-97436455D01*
X46548857Y-97448853D01*
X46513159Y-97457794D01*
X46476756Y-97463194D01*
X46440000Y-97465000D01*
X43190000Y-97465000D01*
X43153244Y-97463194D01*
X43116841Y-97457794D01*
X43081143Y-97448853D01*
X43046494Y-97436455D01*
X43013226Y-97420720D01*
X42981661Y-97401801D01*
X42952103Y-97379879D01*
X42924835Y-97355165D01*
X42900121Y-97327897D01*
X42878199Y-97298339D01*
X42859280Y-97266774D01*
X42843545Y-97233506D01*
X42831147Y-97198857D01*
X42822206Y-97163159D01*
X42816806Y-97126756D01*
X42815000Y-97090000D01*
X42815000Y-96340000D01*
X42816806Y-96303244D01*
X42822206Y-96266841D01*
X42831147Y-96231143D01*
X42843545Y-96196494D01*
X42859280Y-96163226D01*
X42878199Y-96131661D01*
X42900121Y-96102103D01*
X42924835Y-96074835D01*
X42952103Y-96050121D01*
X42981661Y-96028199D01*
X43013226Y-96009280D01*
X43046494Y-95993545D01*
X43081143Y-95981147D01*
X43116841Y-95972206D01*
X43153244Y-95966806D01*
X43190000Y-95965000D01*
X46440000Y-95965000D01*
X46476756Y-95966806D01*
G37*
G04 #@! TD.AperFunction*
G04 #@! TA.AperFunction,SMDPad,CuDef*
G36*
X46476756Y-100216806D02*
G01*
X46513159Y-100222206D01*
X46548857Y-100231147D01*
X46583506Y-100243545D01*
X46616774Y-100259280D01*
X46648339Y-100278199D01*
X46677897Y-100300121D01*
X46705165Y-100324835D01*
X46729879Y-100352103D01*
X46751801Y-100381661D01*
X46770720Y-100413226D01*
X46786455Y-100446494D01*
X46798853Y-100481143D01*
X46807794Y-100516841D01*
X46813194Y-100553244D01*
X46815000Y-100590000D01*
X46815000Y-101340000D01*
X46813194Y-101376756D01*
X46807794Y-101413159D01*
X46798853Y-101448857D01*
X46786455Y-101483506D01*
X46770720Y-101516774D01*
X46751801Y-101548339D01*
X46729879Y-101577897D01*
X46705165Y-101605165D01*
X46677897Y-101629879D01*
X46648339Y-101651801D01*
X46616774Y-101670720D01*
X46583506Y-101686455D01*
X46548857Y-101698853D01*
X46513159Y-101707794D01*
X46476756Y-101713194D01*
X46440000Y-101715000D01*
X43190000Y-101715000D01*
X43153244Y-101713194D01*
X43116841Y-101707794D01*
X43081143Y-101698853D01*
X43046494Y-101686455D01*
X43013226Y-101670720D01*
X42981661Y-101651801D01*
X42952103Y-101629879D01*
X42924835Y-101605165D01*
X42900121Y-101577897D01*
X42878199Y-101548339D01*
X42859280Y-101516774D01*
X42843545Y-101483506D01*
X42831147Y-101448857D01*
X42822206Y-101413159D01*
X42816806Y-101376756D01*
X42815000Y-101340000D01*
X42815000Y-100590000D01*
X42816806Y-100553244D01*
X42822206Y-100516841D01*
X42831147Y-100481143D01*
X42843545Y-100446494D01*
X42859280Y-100413226D01*
X42878199Y-100381661D01*
X42900121Y-100352103D01*
X42924835Y-100324835D01*
X42952103Y-100300121D01*
X42981661Y-100278199D01*
X43013226Y-100259280D01*
X43046494Y-100243545D01*
X43081143Y-100231147D01*
X43116841Y-100222206D01*
X43153244Y-100216806D01*
X43190000Y-100215000D01*
X46440000Y-100215000D01*
X46476756Y-100216806D01*
G37*
G04 #@! TD.AperFunction*
G04 #@! TA.AperFunction,SMDPad,CuDef*
G36*
X46476756Y-88541806D02*
G01*
X46513159Y-88547206D01*
X46548857Y-88556147D01*
X46583506Y-88568545D01*
X46616774Y-88584280D01*
X46648339Y-88603199D01*
X46677897Y-88625121D01*
X46705165Y-88649835D01*
X46729879Y-88677103D01*
X46751801Y-88706661D01*
X46770720Y-88738226D01*
X46786455Y-88771494D01*
X46798853Y-88806143D01*
X46807794Y-88841841D01*
X46813194Y-88878244D01*
X46815000Y-88915000D01*
X46815000Y-89665000D01*
X46813194Y-89701756D01*
X46807794Y-89738159D01*
X46798853Y-89773857D01*
X46786455Y-89808506D01*
X46770720Y-89841774D01*
X46751801Y-89873339D01*
X46729879Y-89902897D01*
X46705165Y-89930165D01*
X46677897Y-89954879D01*
X46648339Y-89976801D01*
X46616774Y-89995720D01*
X46583506Y-90011455D01*
X46548857Y-90023853D01*
X46513159Y-90032794D01*
X46476756Y-90038194D01*
X46440000Y-90040000D01*
X43190000Y-90040000D01*
X43153244Y-90038194D01*
X43116841Y-90032794D01*
X43081143Y-90023853D01*
X43046494Y-90011455D01*
X43013226Y-89995720D01*
X42981661Y-89976801D01*
X42952103Y-89954879D01*
X42924835Y-89930165D01*
X42900121Y-89902897D01*
X42878199Y-89873339D01*
X42859280Y-89841774D01*
X42843545Y-89808506D01*
X42831147Y-89773857D01*
X42822206Y-89738159D01*
X42816806Y-89701756D01*
X42815000Y-89665000D01*
X42815000Y-88915000D01*
X42816806Y-88878244D01*
X42822206Y-88841841D01*
X42831147Y-88806143D01*
X42843545Y-88771494D01*
X42859280Y-88738226D01*
X42878199Y-88706661D01*
X42900121Y-88677103D01*
X42924835Y-88649835D01*
X42952103Y-88625121D01*
X42981661Y-88603199D01*
X43013226Y-88584280D01*
X43046494Y-88568545D01*
X43081143Y-88556147D01*
X43116841Y-88547206D01*
X43153244Y-88541806D01*
X43190000Y-88540000D01*
X46440000Y-88540000D01*
X46476756Y-88541806D01*
G37*
G04 #@! TD.AperFunction*
D20*
X29845000Y-88265000D03*
G04 #@! TA.AperFunction,SMDPad,CuDef*
D10*
G36*
X46476756Y-84341806D02*
G01*
X46513159Y-84347206D01*
X46548857Y-84356147D01*
X46583506Y-84368545D01*
X46616774Y-84384280D01*
X46648339Y-84403199D01*
X46677897Y-84425121D01*
X46705165Y-84449835D01*
X46729879Y-84477103D01*
X46751801Y-84506661D01*
X46770720Y-84538226D01*
X46786455Y-84571494D01*
X46798853Y-84606143D01*
X46807794Y-84641841D01*
X46813194Y-84678244D01*
X46815000Y-84715000D01*
X46815000Y-85465000D01*
X46813194Y-85501756D01*
X46807794Y-85538159D01*
X46798853Y-85573857D01*
X46786455Y-85608506D01*
X46770720Y-85641774D01*
X46751801Y-85673339D01*
X46729879Y-85702897D01*
X46705165Y-85730165D01*
X46677897Y-85754879D01*
X46648339Y-85776801D01*
X46616774Y-85795720D01*
X46583506Y-85811455D01*
X46548857Y-85823853D01*
X46513159Y-85832794D01*
X46476756Y-85838194D01*
X46440000Y-85840000D01*
X43190000Y-85840000D01*
X43153244Y-85838194D01*
X43116841Y-85832794D01*
X43081143Y-85823853D01*
X43046494Y-85811455D01*
X43013226Y-85795720D01*
X42981661Y-85776801D01*
X42952103Y-85754879D01*
X42924835Y-85730165D01*
X42900121Y-85702897D01*
X42878199Y-85673339D01*
X42859280Y-85641774D01*
X42843545Y-85608506D01*
X42831147Y-85573857D01*
X42822206Y-85538159D01*
X42816806Y-85501756D01*
X42815000Y-85465000D01*
X42815000Y-84715000D01*
X42816806Y-84678244D01*
X42822206Y-84641841D01*
X42831147Y-84606143D01*
X42843545Y-84571494D01*
X42859280Y-84538226D01*
X42878199Y-84506661D01*
X42900121Y-84477103D01*
X42924835Y-84449835D01*
X42952103Y-84425121D01*
X42981661Y-84403199D01*
X43013226Y-84384280D01*
X43046494Y-84368545D01*
X43081143Y-84356147D01*
X43116841Y-84347206D01*
X43153244Y-84341806D01*
X43190000Y-84340000D01*
X46440000Y-84340000D01*
X46476756Y-84341806D01*
G37*
G04 #@! TD.AperFunction*
G04 #@! TA.AperFunction,SMDPad,CuDef*
G36*
X46476756Y-86441806D02*
G01*
X46513159Y-86447206D01*
X46548857Y-86456147D01*
X46583506Y-86468545D01*
X46616774Y-86484280D01*
X46648339Y-86503199D01*
X46677897Y-86525121D01*
X46705165Y-86549835D01*
X46729879Y-86577103D01*
X46751801Y-86606661D01*
X46770720Y-86638226D01*
X46786455Y-86671494D01*
X46798853Y-86706143D01*
X46807794Y-86741841D01*
X46813194Y-86778244D01*
X46815000Y-86815000D01*
X46815000Y-87565000D01*
X46813194Y-87601756D01*
X46807794Y-87638159D01*
X46798853Y-87673857D01*
X46786455Y-87708506D01*
X46770720Y-87741774D01*
X46751801Y-87773339D01*
X46729879Y-87802897D01*
X46705165Y-87830165D01*
X46677897Y-87854879D01*
X46648339Y-87876801D01*
X46616774Y-87895720D01*
X46583506Y-87911455D01*
X46548857Y-87923853D01*
X46513159Y-87932794D01*
X46476756Y-87938194D01*
X46440000Y-87940000D01*
X43190000Y-87940000D01*
X43153244Y-87938194D01*
X43116841Y-87932794D01*
X43081143Y-87923853D01*
X43046494Y-87911455D01*
X43013226Y-87895720D01*
X42981661Y-87876801D01*
X42952103Y-87854879D01*
X42924835Y-87830165D01*
X42900121Y-87802897D01*
X42878199Y-87773339D01*
X42859280Y-87741774D01*
X42843545Y-87708506D01*
X42831147Y-87673857D01*
X42822206Y-87638159D01*
X42816806Y-87601756D01*
X42815000Y-87565000D01*
X42815000Y-86815000D01*
X42816806Y-86778244D01*
X42822206Y-86741841D01*
X42831147Y-86706143D01*
X42843545Y-86671494D01*
X42859280Y-86638226D01*
X42878199Y-86606661D01*
X42900121Y-86577103D01*
X42924835Y-86549835D01*
X42952103Y-86525121D01*
X42981661Y-86503199D01*
X43013226Y-86484280D01*
X43046494Y-86468545D01*
X43081143Y-86456147D01*
X43116841Y-86447206D01*
X43153244Y-86441806D01*
X43190000Y-86440000D01*
X46440000Y-86440000D01*
X46476756Y-86441806D01*
G37*
G04 #@! TD.AperFunction*
G04 #@! TA.AperFunction,SMDPad,CuDef*
G36*
X46476756Y-90691806D02*
G01*
X46513159Y-90697206D01*
X46548857Y-90706147D01*
X46583506Y-90718545D01*
X46616774Y-90734280D01*
X46648339Y-90753199D01*
X46677897Y-90775121D01*
X46705165Y-90799835D01*
X46729879Y-90827103D01*
X46751801Y-90856661D01*
X46770720Y-90888226D01*
X46786455Y-90921494D01*
X46798853Y-90956143D01*
X46807794Y-90991841D01*
X46813194Y-91028244D01*
X46815000Y-91065000D01*
X46815000Y-91815000D01*
X46813194Y-91851756D01*
X46807794Y-91888159D01*
X46798853Y-91923857D01*
X46786455Y-91958506D01*
X46770720Y-91991774D01*
X46751801Y-92023339D01*
X46729879Y-92052897D01*
X46705165Y-92080165D01*
X46677897Y-92104879D01*
X46648339Y-92126801D01*
X46616774Y-92145720D01*
X46583506Y-92161455D01*
X46548857Y-92173853D01*
X46513159Y-92182794D01*
X46476756Y-92188194D01*
X46440000Y-92190000D01*
X43190000Y-92190000D01*
X43153244Y-92188194D01*
X43116841Y-92182794D01*
X43081143Y-92173853D01*
X43046494Y-92161455D01*
X43013226Y-92145720D01*
X42981661Y-92126801D01*
X42952103Y-92104879D01*
X42924835Y-92080165D01*
X42900121Y-92052897D01*
X42878199Y-92023339D01*
X42859280Y-91991774D01*
X42843545Y-91958506D01*
X42831147Y-91923857D01*
X42822206Y-91888159D01*
X42816806Y-91851756D01*
X42815000Y-91815000D01*
X42815000Y-91065000D01*
X42816806Y-91028244D01*
X42822206Y-90991841D01*
X42831147Y-90956143D01*
X42843545Y-90921494D01*
X42859280Y-90888226D01*
X42878199Y-90856661D01*
X42900121Y-90827103D01*
X42924835Y-90799835D01*
X42952103Y-90775121D01*
X42981661Y-90753199D01*
X43013226Y-90734280D01*
X43046494Y-90718545D01*
X43081143Y-90706147D01*
X43116841Y-90697206D01*
X43153244Y-90691806D01*
X43190000Y-90690000D01*
X46440000Y-90690000D01*
X46476756Y-90691806D01*
G37*
G04 #@! TD.AperFunction*
G04 #@! TA.AperFunction,SMDPad,CuDef*
G36*
X46476756Y-79016806D02*
G01*
X46513159Y-79022206D01*
X46548857Y-79031147D01*
X46583506Y-79043545D01*
X46616774Y-79059280D01*
X46648339Y-79078199D01*
X46677897Y-79100121D01*
X46705165Y-79124835D01*
X46729879Y-79152103D01*
X46751801Y-79181661D01*
X46770720Y-79213226D01*
X46786455Y-79246494D01*
X46798853Y-79281143D01*
X46807794Y-79316841D01*
X46813194Y-79353244D01*
X46815000Y-79390000D01*
X46815000Y-80140000D01*
X46813194Y-80176756D01*
X46807794Y-80213159D01*
X46798853Y-80248857D01*
X46786455Y-80283506D01*
X46770720Y-80316774D01*
X46751801Y-80348339D01*
X46729879Y-80377897D01*
X46705165Y-80405165D01*
X46677897Y-80429879D01*
X46648339Y-80451801D01*
X46616774Y-80470720D01*
X46583506Y-80486455D01*
X46548857Y-80498853D01*
X46513159Y-80507794D01*
X46476756Y-80513194D01*
X46440000Y-80515000D01*
X43190000Y-80515000D01*
X43153244Y-80513194D01*
X43116841Y-80507794D01*
X43081143Y-80498853D01*
X43046494Y-80486455D01*
X43013226Y-80470720D01*
X42981661Y-80451801D01*
X42952103Y-80429879D01*
X42924835Y-80405165D01*
X42900121Y-80377897D01*
X42878199Y-80348339D01*
X42859280Y-80316774D01*
X42843545Y-80283506D01*
X42831147Y-80248857D01*
X42822206Y-80213159D01*
X42816806Y-80176756D01*
X42815000Y-80140000D01*
X42815000Y-79390000D01*
X42816806Y-79353244D01*
X42822206Y-79316841D01*
X42831147Y-79281143D01*
X42843545Y-79246494D01*
X42859280Y-79213226D01*
X42878199Y-79181661D01*
X42900121Y-79152103D01*
X42924835Y-79124835D01*
X42952103Y-79100121D01*
X42981661Y-79078199D01*
X43013226Y-79059280D01*
X43046494Y-79043545D01*
X43081143Y-79031147D01*
X43116841Y-79022206D01*
X43153244Y-79016806D01*
X43190000Y-79015000D01*
X46440000Y-79015000D01*
X46476756Y-79016806D01*
G37*
G04 #@! TD.AperFunction*
D20*
X29845000Y-78740000D03*
G04 #@! TA.AperFunction,SMDPad,CuDef*
D10*
G36*
X46476756Y-74816806D02*
G01*
X46513159Y-74822206D01*
X46548857Y-74831147D01*
X46583506Y-74843545D01*
X46616774Y-74859280D01*
X46648339Y-74878199D01*
X46677897Y-74900121D01*
X46705165Y-74924835D01*
X46729879Y-74952103D01*
X46751801Y-74981661D01*
X46770720Y-75013226D01*
X46786455Y-75046494D01*
X46798853Y-75081143D01*
X46807794Y-75116841D01*
X46813194Y-75153244D01*
X46815000Y-75190000D01*
X46815000Y-75940000D01*
X46813194Y-75976756D01*
X46807794Y-76013159D01*
X46798853Y-76048857D01*
X46786455Y-76083506D01*
X46770720Y-76116774D01*
X46751801Y-76148339D01*
X46729879Y-76177897D01*
X46705165Y-76205165D01*
X46677897Y-76229879D01*
X46648339Y-76251801D01*
X46616774Y-76270720D01*
X46583506Y-76286455D01*
X46548857Y-76298853D01*
X46513159Y-76307794D01*
X46476756Y-76313194D01*
X46440000Y-76315000D01*
X43190000Y-76315000D01*
X43153244Y-76313194D01*
X43116841Y-76307794D01*
X43081143Y-76298853D01*
X43046494Y-76286455D01*
X43013226Y-76270720D01*
X42981661Y-76251801D01*
X42952103Y-76229879D01*
X42924835Y-76205165D01*
X42900121Y-76177897D01*
X42878199Y-76148339D01*
X42859280Y-76116774D01*
X42843545Y-76083506D01*
X42831147Y-76048857D01*
X42822206Y-76013159D01*
X42816806Y-75976756D01*
X42815000Y-75940000D01*
X42815000Y-75190000D01*
X42816806Y-75153244D01*
X42822206Y-75116841D01*
X42831147Y-75081143D01*
X42843545Y-75046494D01*
X42859280Y-75013226D01*
X42878199Y-74981661D01*
X42900121Y-74952103D01*
X42924835Y-74924835D01*
X42952103Y-74900121D01*
X42981661Y-74878199D01*
X43013226Y-74859280D01*
X43046494Y-74843545D01*
X43081143Y-74831147D01*
X43116841Y-74822206D01*
X43153244Y-74816806D01*
X43190000Y-74815000D01*
X46440000Y-74815000D01*
X46476756Y-74816806D01*
G37*
G04 #@! TD.AperFunction*
G04 #@! TA.AperFunction,SMDPad,CuDef*
G36*
X46476756Y-76916806D02*
G01*
X46513159Y-76922206D01*
X46548857Y-76931147D01*
X46583506Y-76943545D01*
X46616774Y-76959280D01*
X46648339Y-76978199D01*
X46677897Y-77000121D01*
X46705165Y-77024835D01*
X46729879Y-77052103D01*
X46751801Y-77081661D01*
X46770720Y-77113226D01*
X46786455Y-77146494D01*
X46798853Y-77181143D01*
X46807794Y-77216841D01*
X46813194Y-77253244D01*
X46815000Y-77290000D01*
X46815000Y-78040000D01*
X46813194Y-78076756D01*
X46807794Y-78113159D01*
X46798853Y-78148857D01*
X46786455Y-78183506D01*
X46770720Y-78216774D01*
X46751801Y-78248339D01*
X46729879Y-78277897D01*
X46705165Y-78305165D01*
X46677897Y-78329879D01*
X46648339Y-78351801D01*
X46616774Y-78370720D01*
X46583506Y-78386455D01*
X46548857Y-78398853D01*
X46513159Y-78407794D01*
X46476756Y-78413194D01*
X46440000Y-78415000D01*
X43190000Y-78415000D01*
X43153244Y-78413194D01*
X43116841Y-78407794D01*
X43081143Y-78398853D01*
X43046494Y-78386455D01*
X43013226Y-78370720D01*
X42981661Y-78351801D01*
X42952103Y-78329879D01*
X42924835Y-78305165D01*
X42900121Y-78277897D01*
X42878199Y-78248339D01*
X42859280Y-78216774D01*
X42843545Y-78183506D01*
X42831147Y-78148857D01*
X42822206Y-78113159D01*
X42816806Y-78076756D01*
X42815000Y-78040000D01*
X42815000Y-77290000D01*
X42816806Y-77253244D01*
X42822206Y-77216841D01*
X42831147Y-77181143D01*
X42843545Y-77146494D01*
X42859280Y-77113226D01*
X42878199Y-77081661D01*
X42900121Y-77052103D01*
X42924835Y-77024835D01*
X42952103Y-77000121D01*
X42981661Y-76978199D01*
X43013226Y-76959280D01*
X43046494Y-76943545D01*
X43081143Y-76931147D01*
X43116841Y-76922206D01*
X43153244Y-76916806D01*
X43190000Y-76915000D01*
X46440000Y-76915000D01*
X46476756Y-76916806D01*
G37*
G04 #@! TD.AperFunction*
G04 #@! TA.AperFunction,SMDPad,CuDef*
G36*
X46476756Y-81166806D02*
G01*
X46513159Y-81172206D01*
X46548857Y-81181147D01*
X46583506Y-81193545D01*
X46616774Y-81209280D01*
X46648339Y-81228199D01*
X46677897Y-81250121D01*
X46705165Y-81274835D01*
X46729879Y-81302103D01*
X46751801Y-81331661D01*
X46770720Y-81363226D01*
X46786455Y-81396494D01*
X46798853Y-81431143D01*
X46807794Y-81466841D01*
X46813194Y-81503244D01*
X46815000Y-81540000D01*
X46815000Y-82290000D01*
X46813194Y-82326756D01*
X46807794Y-82363159D01*
X46798853Y-82398857D01*
X46786455Y-82433506D01*
X46770720Y-82466774D01*
X46751801Y-82498339D01*
X46729879Y-82527897D01*
X46705165Y-82555165D01*
X46677897Y-82579879D01*
X46648339Y-82601801D01*
X46616774Y-82620720D01*
X46583506Y-82636455D01*
X46548857Y-82648853D01*
X46513159Y-82657794D01*
X46476756Y-82663194D01*
X46440000Y-82665000D01*
X43190000Y-82665000D01*
X43153244Y-82663194D01*
X43116841Y-82657794D01*
X43081143Y-82648853D01*
X43046494Y-82636455D01*
X43013226Y-82620720D01*
X42981661Y-82601801D01*
X42952103Y-82579879D01*
X42924835Y-82555165D01*
X42900121Y-82527897D01*
X42878199Y-82498339D01*
X42859280Y-82466774D01*
X42843545Y-82433506D01*
X42831147Y-82398857D01*
X42822206Y-82363159D01*
X42816806Y-82326756D01*
X42815000Y-82290000D01*
X42815000Y-81540000D01*
X42816806Y-81503244D01*
X42822206Y-81466841D01*
X42831147Y-81431143D01*
X42843545Y-81396494D01*
X42859280Y-81363226D01*
X42878199Y-81331661D01*
X42900121Y-81302103D01*
X42924835Y-81274835D01*
X42952103Y-81250121D01*
X42981661Y-81228199D01*
X43013226Y-81209280D01*
X43046494Y-81193545D01*
X43081143Y-81181147D01*
X43116841Y-81172206D01*
X43153244Y-81166806D01*
X43190000Y-81165000D01*
X46440000Y-81165000D01*
X46476756Y-81166806D01*
G37*
G04 #@! TD.AperFunction*
D21*
X78105000Y-75565000D03*
X78105000Y-78105000D03*
X78105000Y-80645000D03*
X73660000Y-75565000D03*
X73660000Y-78105000D03*
X73660000Y-80645000D03*
D22*
X64155000Y-145415000D03*
X66695000Y-145415000D03*
X61615000Y-145415000D03*
X69235000Y-145415000D03*
X61595000Y-104415000D03*
X64135000Y-104415000D03*
X66675000Y-104415000D03*
X69215000Y-104415000D03*
D23*
X47625000Y-137795000D03*
G04 #@! TA.AperFunction,ComponentPad*
D10*
G36*
X48228909Y-126737648D02*
G01*
X48282300Y-126745568D01*
X48334657Y-126758683D01*
X48385476Y-126776866D01*
X48434268Y-126799943D01*
X48480564Y-126827692D01*
X48523916Y-126859844D01*
X48563909Y-126896091D01*
X48600156Y-126936084D01*
X48632308Y-126979436D01*
X48660057Y-127025732D01*
X48683134Y-127074524D01*
X48701317Y-127125343D01*
X48714432Y-127177700D01*
X48722352Y-127231091D01*
X48725000Y-127285000D01*
X48725000Y-129485000D01*
X48722352Y-129538909D01*
X48714432Y-129592300D01*
X48701317Y-129644657D01*
X48683134Y-129695476D01*
X48660057Y-129744268D01*
X48632308Y-129790564D01*
X48600156Y-129833916D01*
X48563909Y-129873909D01*
X48523916Y-129910156D01*
X48480564Y-129942308D01*
X48434268Y-129970057D01*
X48385476Y-129993134D01*
X48334657Y-130011317D01*
X48282300Y-130024432D01*
X48228909Y-130032352D01*
X48175000Y-130035000D01*
X47075000Y-130035000D01*
X47021091Y-130032352D01*
X46967700Y-130024432D01*
X46915343Y-130011317D01*
X46864524Y-129993134D01*
X46815732Y-129970057D01*
X46769436Y-129942308D01*
X46726084Y-129910156D01*
X46686091Y-129873909D01*
X46649844Y-129833916D01*
X46617692Y-129790564D01*
X46589943Y-129744268D01*
X46566866Y-129695476D01*
X46548683Y-129644657D01*
X46535568Y-129592300D01*
X46527648Y-129538909D01*
X46525000Y-129485000D01*
X46525000Y-127285000D01*
X46527648Y-127231091D01*
X46535568Y-127177700D01*
X46548683Y-127125343D01*
X46566866Y-127074524D01*
X46589943Y-127025732D01*
X46617692Y-126979436D01*
X46649844Y-126936084D01*
X46686091Y-126896091D01*
X46726084Y-126859844D01*
X46769436Y-126827692D01*
X46815732Y-126799943D01*
X46864524Y-126776866D01*
X46915343Y-126758683D01*
X46967700Y-126745568D01*
X47021091Y-126737648D01*
X47075000Y-126735000D01*
X48175000Y-126735000D01*
X48228909Y-126737648D01*
G37*
G04 #@! TD.AperFunction*
G04 #@! TA.AperFunction,ComponentPad*
G36*
X50768909Y-126737648D02*
G01*
X50822300Y-126745568D01*
X50874657Y-126758683D01*
X50925476Y-126776866D01*
X50974268Y-126799943D01*
X51020564Y-126827692D01*
X51063916Y-126859844D01*
X51103909Y-126896091D01*
X51140156Y-126936084D01*
X51172308Y-126979436D01*
X51200057Y-127025732D01*
X51223134Y-127074524D01*
X51241317Y-127125343D01*
X51254432Y-127177700D01*
X51262352Y-127231091D01*
X51265000Y-127285000D01*
X51265000Y-129485000D01*
X51262352Y-129538909D01*
X51254432Y-129592300D01*
X51241317Y-129644657D01*
X51223134Y-129695476D01*
X51200057Y-129744268D01*
X51172308Y-129790564D01*
X51140156Y-129833916D01*
X51103909Y-129873909D01*
X51063916Y-129910156D01*
X51020564Y-129942308D01*
X50974268Y-129970057D01*
X50925476Y-129993134D01*
X50874657Y-130011317D01*
X50822300Y-130024432D01*
X50768909Y-130032352D01*
X50715000Y-130035000D01*
X49615000Y-130035000D01*
X49561091Y-130032352D01*
X49507700Y-130024432D01*
X49455343Y-130011317D01*
X49404524Y-129993134D01*
X49355732Y-129970057D01*
X49309436Y-129942308D01*
X49266084Y-129910156D01*
X49226091Y-129873909D01*
X49189844Y-129833916D01*
X49157692Y-129790564D01*
X49129943Y-129744268D01*
X49106866Y-129695476D01*
X49088683Y-129644657D01*
X49075568Y-129592300D01*
X49067648Y-129538909D01*
X49065000Y-129485000D01*
X49065000Y-127285000D01*
X49067648Y-127231091D01*
X49075568Y-127177700D01*
X49088683Y-127125343D01*
X49106866Y-127074524D01*
X49129943Y-127025732D01*
X49157692Y-126979436D01*
X49189844Y-126936084D01*
X49226091Y-126896091D01*
X49266084Y-126859844D01*
X49309436Y-126827692D01*
X49355732Y-126799943D01*
X49404524Y-126776866D01*
X49455343Y-126758683D01*
X49507700Y-126745568D01*
X49561091Y-126737648D01*
X49615000Y-126735000D01*
X50715000Y-126735000D01*
X50768909Y-126737648D01*
G37*
G04 #@! TD.AperFunction*
G04 #@! TA.AperFunction,ComponentPad*
G36*
X53308909Y-126737648D02*
G01*
X53362300Y-126745568D01*
X53414657Y-126758683D01*
X53465476Y-126776866D01*
X53514268Y-126799943D01*
X53560564Y-126827692D01*
X53603916Y-126859844D01*
X53643909Y-126896091D01*
X53680156Y-126936084D01*
X53712308Y-126979436D01*
X53740057Y-127025732D01*
X53763134Y-127074524D01*
X53781317Y-127125343D01*
X53794432Y-127177700D01*
X53802352Y-127231091D01*
X53805000Y-127285000D01*
X53805000Y-129485000D01*
X53802352Y-129538909D01*
X53794432Y-129592300D01*
X53781317Y-129644657D01*
X53763134Y-129695476D01*
X53740057Y-129744268D01*
X53712308Y-129790564D01*
X53680156Y-129833916D01*
X53643909Y-129873909D01*
X53603916Y-129910156D01*
X53560564Y-129942308D01*
X53514268Y-129970057D01*
X53465476Y-129993134D01*
X53414657Y-130011317D01*
X53362300Y-130024432D01*
X53308909Y-130032352D01*
X53255000Y-130035000D01*
X52155000Y-130035000D01*
X52101091Y-130032352D01*
X52047700Y-130024432D01*
X51995343Y-130011317D01*
X51944524Y-129993134D01*
X51895732Y-129970057D01*
X51849436Y-129942308D01*
X51806084Y-129910156D01*
X51766091Y-129873909D01*
X51729844Y-129833916D01*
X51697692Y-129790564D01*
X51669943Y-129744268D01*
X51646866Y-129695476D01*
X51628683Y-129644657D01*
X51615568Y-129592300D01*
X51607648Y-129538909D01*
X51605000Y-129485000D01*
X51605000Y-127285000D01*
X51607648Y-127231091D01*
X51615568Y-127177700D01*
X51628683Y-127125343D01*
X51646866Y-127074524D01*
X51669943Y-127025732D01*
X51697692Y-126979436D01*
X51729844Y-126936084D01*
X51766091Y-126896091D01*
X51806084Y-126859844D01*
X51849436Y-126827692D01*
X51895732Y-126799943D01*
X51944524Y-126776866D01*
X51995343Y-126758683D01*
X52047700Y-126745568D01*
X52101091Y-126737648D01*
X52155000Y-126735000D01*
X53255000Y-126735000D01*
X53308909Y-126737648D01*
G37*
G04 #@! TD.AperFunction*
G04 #@! TA.AperFunction,ComponentPad*
G36*
X55848909Y-126737648D02*
G01*
X55902300Y-126745568D01*
X55954657Y-126758683D01*
X56005476Y-126776866D01*
X56054268Y-126799943D01*
X56100564Y-126827692D01*
X56143916Y-126859844D01*
X56183909Y-126896091D01*
X56220156Y-126936084D01*
X56252308Y-126979436D01*
X56280057Y-127025732D01*
X56303134Y-127074524D01*
X56321317Y-127125343D01*
X56334432Y-127177700D01*
X56342352Y-127231091D01*
X56345000Y-127285000D01*
X56345000Y-129485000D01*
X56342352Y-129538909D01*
X56334432Y-129592300D01*
X56321317Y-129644657D01*
X56303134Y-129695476D01*
X56280057Y-129744268D01*
X56252308Y-129790564D01*
X56220156Y-129833916D01*
X56183909Y-129873909D01*
X56143916Y-129910156D01*
X56100564Y-129942308D01*
X56054268Y-129970057D01*
X56005476Y-129993134D01*
X55954657Y-130011317D01*
X55902300Y-130024432D01*
X55848909Y-130032352D01*
X55795000Y-130035000D01*
X54695000Y-130035000D01*
X54641091Y-130032352D01*
X54587700Y-130024432D01*
X54535343Y-130011317D01*
X54484524Y-129993134D01*
X54435732Y-129970057D01*
X54389436Y-129942308D01*
X54346084Y-129910156D01*
X54306091Y-129873909D01*
X54269844Y-129833916D01*
X54237692Y-129790564D01*
X54209943Y-129744268D01*
X54186866Y-129695476D01*
X54168683Y-129644657D01*
X54155568Y-129592300D01*
X54147648Y-129538909D01*
X54145000Y-129485000D01*
X54145000Y-127285000D01*
X54147648Y-127231091D01*
X54155568Y-127177700D01*
X54168683Y-127125343D01*
X54186866Y-127074524D01*
X54209943Y-127025732D01*
X54237692Y-126979436D01*
X54269844Y-126936084D01*
X54306091Y-126896091D01*
X54346084Y-126859844D01*
X54389436Y-126827692D01*
X54435732Y-126799943D01*
X54484524Y-126776866D01*
X54535343Y-126758683D01*
X54587700Y-126745568D01*
X54641091Y-126737648D01*
X54695000Y-126735000D01*
X55795000Y-126735000D01*
X55848909Y-126737648D01*
G37*
G04 #@! TD.AperFunction*
D24*
X53975000Y-123190000D03*
X53975000Y-120690000D03*
D25*
X43180000Y-140970000D03*
D26*
X43180000Y-144780000D03*
D22*
X55245000Y-108975000D03*
X55245000Y-116975000D03*
X52070000Y-108975000D03*
X52070000Y-116975000D03*
D18*
X43370500Y-100965000D03*
X44831000Y-100965000D03*
X46291500Y-100965000D03*
X43370500Y-98806000D03*
X44831000Y-98806000D03*
X46291500Y-98806000D03*
X43370500Y-91440000D03*
X44831000Y-91440000D03*
X46291500Y-91440000D03*
X43370500Y-89281000D03*
X44831000Y-89281000D03*
X46291500Y-89281000D03*
X43370500Y-81915000D03*
X44831000Y-81915000D03*
X46291500Y-81915000D03*
X43370500Y-79756000D03*
X44831000Y-79756000D03*
X46291500Y-79756000D03*
X62230000Y-115570000D03*
X62230000Y-116840000D03*
X60960000Y-116840000D03*
X60960000Y-115570000D03*
X40005000Y-118745000D03*
X41275000Y-118745000D03*
X41275000Y-120015000D03*
X40005000Y-120015000D03*
X55245000Y-135255000D03*
X56515000Y-135255000D03*
X56515000Y-136525000D03*
X55245000Y-136525000D03*
X55245000Y-145415000D03*
X55245000Y-144145000D03*
X56515000Y-144145000D03*
X56515000Y-145415000D03*
X50165000Y-142240000D03*
X50165000Y-140970000D03*
X50165000Y-139700000D03*
X61615000Y-129520000D03*
X60325000Y-129540000D03*
X59055000Y-129540000D03*
X70485000Y-75565000D03*
X69215000Y-75565000D03*
X67945000Y-75565000D03*
X53975000Y-75565000D03*
X55245000Y-75565000D03*
X56515000Y-75565000D03*
X64135000Y-129540000D03*
X64155000Y-134600000D03*
X64135000Y-128270000D03*
X64155000Y-135870000D03*
X38100000Y-104775000D03*
X39624000Y-105156000D03*
X41275000Y-105156000D03*
X35560000Y-109855000D03*
X34290000Y-109855000D03*
X33020000Y-109855000D03*
X35560000Y-130810000D03*
X34290000Y-130810000D03*
X33020000Y-130810000D03*
X44831000Y-96710500D03*
X46164500Y-96710500D03*
X43370500Y-96710500D03*
X44831000Y-87185500D03*
X46291500Y-87185500D03*
X43370500Y-87185500D03*
X43370500Y-77660500D03*
X46291500Y-77660500D03*
X44831000Y-77660500D03*
X57658000Y-104394000D03*
X57658000Y-103378000D03*
D27*
X64135000Y-104415000D02*
X65130000Y-104415000D01*
X65130000Y-104415000D02*
X66040000Y-103505000D01*
X66040000Y-103505000D02*
X66040000Y-100330000D01*
X66675000Y-104415000D02*
X64135000Y-104415000D01*
X66675000Y-104140000D02*
X66040000Y-103505000D01*
X66675000Y-104415000D02*
X66675000Y-104140000D01*
D28*
X50165000Y-127635000D02*
X50165000Y-130810000D01*
X50165000Y-130810000D02*
X49530000Y-131445000D01*
X49530000Y-131445000D02*
X46355000Y-131445000D01*
X45450010Y-130540010D02*
X45450010Y-127365010D01*
X46355000Y-131445000D02*
X45450010Y-130540010D01*
X45085000Y-127000000D02*
X43250000Y-127000000D01*
X45450010Y-127365010D02*
X45085000Y-127000000D01*
X50165000Y-127635000D02*
X50165000Y-123825000D01*
X50165000Y-123825000D02*
X49530000Y-123190000D01*
X49530000Y-123190000D02*
X48895000Y-123190000D01*
X50165000Y-123825000D02*
X50800000Y-123190000D01*
X50800000Y-123190000D02*
X53975000Y-123190000D01*
X61615000Y-145415000D02*
X61615000Y-129520000D01*
X60960000Y-123190000D02*
X53975000Y-123190000D01*
X61615000Y-123845000D02*
X60960000Y-123190000D01*
D29*
X42020000Y-107315000D02*
X43290000Y-108585000D01*
X40750000Y-107315000D02*
X42020000Y-107315000D01*
X58420000Y-91186000D02*
X57667000Y-90433000D01*
X53340000Y-85090000D02*
X53340000Y-90424000D01*
X57667000Y-90433000D02*
X53340000Y-90424000D01*
X46282500Y-98815000D02*
X46291500Y-98806000D01*
X43815000Y-98815000D02*
X46282500Y-98815000D01*
X43815000Y-98815000D02*
X47870000Y-98815000D01*
X47870000Y-98815000D02*
X50165000Y-96520000D01*
X50165000Y-96520000D02*
X58420000Y-96520000D01*
X58420000Y-96520000D02*
X58420000Y-91186000D01*
X58420000Y-100330000D02*
X58420000Y-96520000D01*
D28*
X61615000Y-129520000D02*
X61615000Y-123845000D01*
X68620000Y-120690000D02*
X53975000Y-120690000D01*
X69235000Y-121305000D02*
X68620000Y-120690000D01*
D29*
X43815000Y-85090000D02*
X47625000Y-85090000D01*
X47625000Y-85090000D02*
X48260000Y-84455000D01*
X48260000Y-84455000D02*
X48260000Y-83185000D01*
X48260000Y-83185000D02*
X48895000Y-82550000D01*
X48895000Y-82550000D02*
X57785000Y-82550000D01*
X58420000Y-83185000D02*
X58420000Y-85090000D01*
X57785000Y-82550000D02*
X58420000Y-83185000D01*
X43815000Y-85090000D02*
X41910000Y-85090000D01*
X41910000Y-85090000D02*
X41275000Y-85725000D01*
X53975000Y-120690000D02*
X48895000Y-120690000D01*
D27*
X43815000Y-94615000D02*
X41275000Y-94615000D01*
D29*
X41275000Y-85725000D02*
X41275000Y-94615000D01*
D27*
X43815000Y-75565000D02*
X41910000Y-75565000D01*
X41910000Y-75565000D02*
X41275000Y-76200000D01*
X41275000Y-76200000D02*
X41275000Y-84455000D01*
X41275000Y-84455000D02*
X41910000Y-85090000D01*
D28*
X73025000Y-82550000D02*
X73660000Y-81915000D01*
X73660000Y-81915000D02*
X73660000Y-80645000D01*
X78105000Y-80645000D02*
X78105000Y-81915000D01*
X78105000Y-81915000D02*
X77470000Y-82550000D01*
X77470000Y-82550000D02*
X73025000Y-82550000D01*
X71120000Y-82550000D02*
X73025000Y-82550000D01*
X68580000Y-78740000D02*
X68580000Y-80645000D01*
X68580000Y-80645000D02*
X70485000Y-82550000D01*
X70485000Y-82550000D02*
X71120000Y-82550000D01*
X57785000Y-82550000D02*
X70485000Y-82550000D01*
D27*
X76240000Y-134620000D02*
X69850000Y-134620000D01*
X69850000Y-134620000D02*
X69215000Y-135255000D01*
D28*
X69235000Y-145415000D02*
X69215000Y-135255000D01*
D27*
X77470000Y-123785000D02*
X69890000Y-123785000D01*
X69890000Y-123785000D02*
X69215000Y-124460000D01*
D28*
X69215000Y-124460000D02*
X69235000Y-121305000D01*
X69215000Y-135255000D02*
X69215000Y-124460000D01*
D29*
X41275000Y-94615000D02*
X41275000Y-102235000D01*
X41275000Y-102235000D02*
X41910000Y-102870000D01*
X41910000Y-102870000D02*
X48260000Y-102870000D01*
X48895000Y-103505000D02*
X48895000Y-120690000D01*
X48260000Y-102870000D02*
X48895000Y-103505000D01*
X47625000Y-127635000D02*
X47625000Y-126365000D01*
X47625000Y-126365000D02*
X46355000Y-125095000D01*
X46355000Y-125095000D02*
X46355000Y-121285000D01*
X46355000Y-121285000D02*
X46990000Y-120650000D01*
X47030000Y-120690000D02*
X48895000Y-120690000D01*
X46990000Y-120650000D02*
X47030000Y-120690000D01*
D27*
X64135000Y-135850000D02*
X64155000Y-135870000D01*
X64135000Y-128270000D02*
X64135000Y-135850000D01*
X64155000Y-135870000D02*
X64155000Y-145415000D01*
D29*
X38100000Y-116205000D02*
X37465000Y-116840000D01*
X37465000Y-116840000D02*
X37465000Y-133985000D01*
X37465000Y-133985000D02*
X38100000Y-134620000D01*
X40710000Y-133350000D02*
X40710000Y-134550000D01*
X40640000Y-134620000D02*
X43250000Y-134620000D01*
X40710000Y-134550000D02*
X40640000Y-134620000D01*
X38100000Y-134620000D02*
X40640000Y-134620000D01*
X40750000Y-116095000D02*
X40640000Y-116205000D01*
X40750000Y-114935000D02*
X40750000Y-116095000D01*
X40640000Y-116205000D02*
X38100000Y-116205000D01*
X43290000Y-116205000D02*
X40640000Y-116205000D01*
X43250000Y-140900000D02*
X43180000Y-140970000D01*
X43250000Y-134620000D02*
X43250000Y-140900000D01*
X45720000Y-116205000D02*
X43290000Y-116205000D01*
X46355000Y-115570000D02*
X45720000Y-116205000D01*
X46355000Y-106045000D02*
X46355000Y-115570000D01*
X45466000Y-105156000D02*
X46355000Y-106045000D01*
X40640000Y-105156000D02*
X40640000Y-105156000D01*
X40640000Y-105156000D02*
X39624000Y-105156000D01*
X38100000Y-104775000D02*
X38100000Y-104775000D01*
X40640000Y-105156000D02*
X45466000Y-105156000D01*
X38481000Y-105156000D02*
X38100000Y-104775000D01*
X39624000Y-105156000D02*
X38481000Y-105156000D01*
X40750000Y-109855000D02*
X33020000Y-109855000D01*
X43180000Y-144780000D02*
X52070000Y-144780000D01*
X52705000Y-144145000D02*
X52070000Y-144780000D01*
X52705000Y-127635000D02*
X52705000Y-144145000D01*
X43180000Y-144780000D02*
X46620000Y-144780000D01*
X27993384Y-129593384D02*
X29210000Y-130810000D01*
X27993384Y-113611616D02*
X27993384Y-129593384D01*
X29210000Y-112395000D02*
X27993384Y-113611616D01*
X40750000Y-112395000D02*
X29210000Y-112395000D01*
X29210000Y-130810000D02*
X33020000Y-130810000D01*
X35560000Y-130810000D02*
X35560000Y-130810000D01*
X34290000Y-130810000D02*
X35560000Y-130810000D01*
X33020000Y-130810000D02*
X34290000Y-130810000D01*
D27*
X63500000Y-100330000D02*
X63500000Y-102108000D01*
X63500000Y-102108000D02*
X63246000Y-102362000D01*
X63246000Y-102362000D02*
X58166000Y-102362000D01*
X58166000Y-102362000D02*
X57658000Y-102870000D01*
X57658000Y-102870000D02*
X57658000Y-103378000D01*
X57658000Y-104394000D02*
X57658000Y-104394000D01*
X57658000Y-103378000D02*
X57658000Y-104394000D01*
X78105000Y-78105000D02*
X79375000Y-78105000D01*
X80155000Y-78105000D02*
X78105000Y-78105000D01*
X80624990Y-78574990D02*
X80155000Y-78105000D01*
X80624990Y-90190010D02*
X80624990Y-78574990D01*
X78740000Y-92075000D02*
X80624990Y-90190010D01*
X78740000Y-100330000D02*
X78740000Y-92075000D01*
X73660000Y-100965000D02*
X72390000Y-102235000D01*
X73660000Y-100330000D02*
X73660000Y-100965000D01*
X55245000Y-108475000D02*
X55245000Y-110490000D01*
X55245000Y-110490000D02*
X55880000Y-111125000D01*
X71755000Y-111125000D02*
X72390000Y-110490000D01*
X55880000Y-111125000D02*
X71755000Y-111125000D01*
X72390000Y-102235000D02*
X72390000Y-110490000D01*
X72390000Y-118745000D02*
X72390000Y-110490000D01*
X73025000Y-119380000D02*
X72390000Y-118745000D01*
X79375000Y-119380000D02*
X73025000Y-119380000D01*
X80010000Y-120015000D02*
X79375000Y-119380000D01*
X80010000Y-131050000D02*
X80010000Y-120015000D01*
X78740000Y-132320000D02*
X80010000Y-131050000D01*
X78740000Y-134620000D02*
X78740000Y-132320000D01*
D30*
G36*
X67765452Y-124384199D02*
G01*
X67765001Y-124388775D01*
X67765001Y-124455304D01*
X67764578Y-124522031D01*
X67765001Y-124526624D01*
X67765000Y-135185210D01*
X67764863Y-135186630D01*
X67765000Y-135256227D01*
X67765000Y-135326224D01*
X67765141Y-135327652D01*
X67781353Y-143563307D01*
X67727777Y-143519339D01*
X67406389Y-143347553D01*
X67057662Y-143241768D01*
X66695000Y-143206049D01*
X66332337Y-143241768D01*
X65983610Y-143347553D01*
X65662222Y-143519339D01*
X65505000Y-143648368D01*
X65505000Y-135936310D01*
X65511531Y-135869999D01*
X65505000Y-135803688D01*
X65505000Y-135737037D01*
X65491999Y-135671678D01*
X65485467Y-135605354D01*
X65485000Y-135603815D01*
X65485000Y-134833509D01*
X65505000Y-134732963D01*
X65505000Y-134467037D01*
X65485000Y-134366491D01*
X65485000Y-128137037D01*
X65471999Y-128071678D01*
X65465467Y-128005354D01*
X65446121Y-127941578D01*
X65433120Y-127876220D01*
X65407618Y-127814652D01*
X65388272Y-127750878D01*
X65356857Y-127692104D01*
X65331354Y-127630535D01*
X65294331Y-127575126D01*
X65262915Y-127516351D01*
X65220637Y-127464836D01*
X65183613Y-127409425D01*
X65136487Y-127362299D01*
X65094212Y-127310787D01*
X65042701Y-127268513D01*
X64995575Y-127221387D01*
X64940160Y-127184360D01*
X64888648Y-127142085D01*
X64829878Y-127110672D01*
X64774465Y-127073646D01*
X64712892Y-127048142D01*
X64654121Y-127016728D01*
X64590350Y-126997383D01*
X64528780Y-126971880D01*
X64463419Y-126958879D01*
X64399645Y-126939533D01*
X64333322Y-126933001D01*
X64267963Y-126920000D01*
X64201321Y-126920000D01*
X64135000Y-126913468D01*
X64068679Y-126920000D01*
X64002037Y-126920000D01*
X63936678Y-126933001D01*
X63870354Y-126939533D01*
X63806578Y-126958879D01*
X63741220Y-126971880D01*
X63679652Y-126997382D01*
X63615878Y-127016728D01*
X63557104Y-127048143D01*
X63495535Y-127073646D01*
X63440126Y-127110669D01*
X63381351Y-127142085D01*
X63329836Y-127184363D01*
X63274425Y-127221387D01*
X63227299Y-127268513D01*
X63175787Y-127310788D01*
X63133513Y-127362299D01*
X63086387Y-127409425D01*
X63049360Y-127464840D01*
X63007085Y-127516352D01*
X62975672Y-127575122D01*
X62938646Y-127630535D01*
X62913142Y-127692108D01*
X62881728Y-127750879D01*
X62862383Y-127814650D01*
X62836880Y-127876220D01*
X62823879Y-127941581D01*
X62804533Y-128005355D01*
X62798001Y-128071677D01*
X62785000Y-128137037D01*
X62785000Y-128203680D01*
X62785001Y-135783671D01*
X62778468Y-135850000D01*
X62804534Y-136114646D01*
X62805000Y-136116182D01*
X62805001Y-143793807D01*
X62687473Y-143937016D01*
X62643133Y-143889789D01*
X62394105Y-143711792D01*
X62115137Y-143585798D01*
X61960901Y-143545883D01*
X61719000Y-143675386D01*
X61719000Y-145311000D01*
X61739000Y-145311000D01*
X61739000Y-145519000D01*
X61719000Y-145519000D01*
X61719000Y-145539000D01*
X61511000Y-145539000D01*
X61511000Y-145519000D01*
X60057000Y-145519000D01*
X60057000Y-145869000D01*
X60107226Y-146170952D01*
X60215395Y-146457304D01*
X60257604Y-146525000D01*
X45161691Y-146525000D01*
X45173718Y-146510345D01*
X45189938Y-146480000D01*
X51986500Y-146480000D01*
X52070000Y-146488224D01*
X52153500Y-146480000D01*
X52153510Y-146480000D01*
X52403258Y-146455402D01*
X52723709Y-146358194D01*
X53019039Y-146200337D01*
X53087954Y-146143780D01*
X53213031Y-146041132D01*
X53213035Y-146041128D01*
X53277897Y-145987897D01*
X53331129Y-145923034D01*
X53848030Y-145406132D01*
X53912897Y-145352897D01*
X54125337Y-145094039D01*
X54196447Y-144961000D01*
X60057000Y-144961000D01*
X60057000Y-145311000D01*
X61511000Y-145311000D01*
X61511000Y-143675386D01*
X61269099Y-143545883D01*
X61114863Y-143585798D01*
X60835895Y-143711792D01*
X60586867Y-143889789D01*
X60377350Y-144112949D01*
X60215395Y-144372696D01*
X60107226Y-144659048D01*
X60057000Y-144961000D01*
X54196447Y-144961000D01*
X54283194Y-144798709D01*
X54380402Y-144478258D01*
X54405000Y-144228510D01*
X54405000Y-144228502D01*
X54413224Y-144145000D01*
X54405000Y-144061498D01*
X54405000Y-130961034D01*
X54695000Y-130989596D01*
X55795000Y-130989596D01*
X56088532Y-130960686D01*
X56370784Y-130875065D01*
X56630909Y-130736026D01*
X56858910Y-130548910D01*
X57046026Y-130320909D01*
X57185065Y-130060784D01*
X57270686Y-129778532D01*
X57299596Y-129485000D01*
X57299596Y-127285000D01*
X57270686Y-126991468D01*
X57185065Y-126709216D01*
X57046026Y-126449091D01*
X56858910Y-126221090D01*
X56630909Y-126033974D01*
X56370784Y-125894935D01*
X56088532Y-125809314D01*
X55795000Y-125780404D01*
X54695000Y-125780404D01*
X54401468Y-125809314D01*
X54119216Y-125894935D01*
X53975000Y-125972020D01*
X53830784Y-125894935D01*
X53548532Y-125809314D01*
X53255000Y-125780404D01*
X52155000Y-125780404D01*
X51861468Y-125809314D01*
X51579216Y-125894935D01*
X51319091Y-126033974D01*
X51269950Y-126074303D01*
X51265000Y-126073816D01*
X50433500Y-126077000D01*
X50269000Y-126241500D01*
X50269000Y-128281000D01*
X50289000Y-128281000D01*
X50289000Y-128489000D01*
X50269000Y-128489000D01*
X50269000Y-130528500D01*
X50433500Y-130693000D01*
X51005000Y-130695188D01*
X51005001Y-143080000D01*
X45189938Y-143080000D01*
X45173718Y-143049655D01*
X45055001Y-142904999D01*
X44910345Y-142786282D01*
X44745308Y-142698068D01*
X44566232Y-142643746D01*
X44547692Y-142641920D01*
X44550545Y-142640014D01*
X44850014Y-142340545D01*
X45085305Y-141988407D01*
X45247377Y-141597132D01*
X45330000Y-141181757D01*
X45330000Y-140758243D01*
X45247377Y-140342868D01*
X45085305Y-139951593D01*
X44950000Y-139749095D01*
X44950000Y-138186610D01*
X45028760Y-138582561D01*
X45232291Y-139073930D01*
X45527773Y-139516150D01*
X45903850Y-139892227D01*
X46346070Y-140187709D01*
X46837439Y-140391240D01*
X47359073Y-140495000D01*
X47890927Y-140495000D01*
X48412561Y-140391240D01*
X48903930Y-140187709D01*
X49346150Y-139892227D01*
X49722227Y-139516150D01*
X50017709Y-139073930D01*
X50221240Y-138582561D01*
X50325000Y-138060927D01*
X50325000Y-137529073D01*
X50221240Y-137007439D01*
X50017709Y-136516070D01*
X49722227Y-136073850D01*
X49346150Y-135697773D01*
X48903930Y-135402291D01*
X48412561Y-135198760D01*
X47890927Y-135095000D01*
X47359073Y-135095000D01*
X46837439Y-135198760D01*
X46346070Y-135402291D01*
X45903850Y-135697773D01*
X45527773Y-136073850D01*
X45232291Y-136516070D01*
X45028760Y-137007439D01*
X44950000Y-137403390D01*
X44950000Y-136110493D01*
X45164477Y-135934477D01*
X45395661Y-135652778D01*
X45567447Y-135331390D01*
X45673232Y-134982663D01*
X45708951Y-134620000D01*
X45673232Y-134257337D01*
X45567447Y-133908610D01*
X45395661Y-133587222D01*
X45200978Y-133350000D01*
X45395661Y-133112778D01*
X45567447Y-132791390D01*
X45673232Y-132442663D01*
X45708951Y-132080000D01*
X45673232Y-131717337D01*
X45567447Y-131368610D01*
X45395661Y-131047222D01*
X45200978Y-130810000D01*
X45395661Y-130572778D01*
X45567447Y-130251390D01*
X45655101Y-129962434D01*
X45684935Y-130060784D01*
X45823974Y-130320909D01*
X46011090Y-130548910D01*
X46239091Y-130736026D01*
X46499216Y-130875065D01*
X46781468Y-130960686D01*
X47075000Y-130989596D01*
X48175000Y-130989596D01*
X48468532Y-130960686D01*
X48750784Y-130875065D01*
X49010909Y-130736026D01*
X49060050Y-130695697D01*
X49065000Y-130696184D01*
X49896500Y-130693000D01*
X50061000Y-130528500D01*
X50061000Y-128489000D01*
X50041000Y-128489000D01*
X50041000Y-128281000D01*
X50061000Y-128281000D01*
X50061000Y-126241500D01*
X49896500Y-126077000D01*
X49304636Y-126074734D01*
X49300402Y-126031742D01*
X49203194Y-125711291D01*
X49045337Y-125415961D01*
X48999002Y-125359502D01*
X48999002Y-125229615D01*
X49240901Y-125359117D01*
X49395137Y-125319202D01*
X49674105Y-125193208D01*
X49923133Y-125015211D01*
X50132650Y-124792051D01*
X50294605Y-124532304D01*
X50402774Y-124245952D01*
X50453000Y-123944000D01*
X50453000Y-123694000D01*
X48999000Y-123694000D01*
X48999000Y-123714000D01*
X48791000Y-123714000D01*
X48791000Y-123694000D01*
X48771000Y-123694000D01*
X48771000Y-123520220D01*
X51854888Y-123520220D01*
X51888184Y-123651869D01*
X52004938Y-123913549D01*
X52170499Y-124147423D01*
X52378506Y-124344504D01*
X52620964Y-124497218D01*
X52888557Y-124599696D01*
X53171000Y-124648000D01*
X53871000Y-124648000D01*
X53871000Y-123294000D01*
X54079000Y-123294000D01*
X54079000Y-124648000D01*
X54779000Y-124648000D01*
X55061443Y-124599696D01*
X55329036Y-124497218D01*
X55571494Y-124344504D01*
X55779501Y-124147423D01*
X55945062Y-123913549D01*
X56061816Y-123651869D01*
X56095112Y-123520220D01*
X55964312Y-123294000D01*
X54079000Y-123294000D01*
X53871000Y-123294000D01*
X51985688Y-123294000D01*
X51854888Y-123520220D01*
X48771000Y-123520220D01*
X48771000Y-123486000D01*
X48791000Y-123486000D01*
X48791000Y-123466000D01*
X48999000Y-123466000D01*
X48999000Y-123486000D01*
X50453000Y-123486000D01*
X50453000Y-123236000D01*
X50402774Y-122934048D01*
X50294605Y-122647696D01*
X50133929Y-122390000D01*
X52059058Y-122390000D01*
X52004938Y-122466451D01*
X51888184Y-122728131D01*
X51854888Y-122859780D01*
X51985688Y-123086000D01*
X53871000Y-123086000D01*
X53871000Y-123066000D01*
X54079000Y-123066000D01*
X54079000Y-123086000D01*
X55964312Y-123086000D01*
X56095112Y-122859780D01*
X56061816Y-122728131D01*
X55945062Y-122466451D01*
X55779501Y-122232577D01*
X55681792Y-122140000D01*
X67779678Y-122140000D01*
X67765452Y-124384199D01*
G37*
X67765452Y-124384199D02*
X67765001Y-124388775D01*
X67765001Y-124455304D01*
X67764578Y-124522031D01*
X67765001Y-124526624D01*
X67765000Y-135185210D01*
X67764863Y-135186630D01*
X67765000Y-135256227D01*
X67765000Y-135326224D01*
X67765141Y-135327652D01*
X67781353Y-143563307D01*
X67727777Y-143519339D01*
X67406389Y-143347553D01*
X67057662Y-143241768D01*
X66695000Y-143206049D01*
X66332337Y-143241768D01*
X65983610Y-143347553D01*
X65662222Y-143519339D01*
X65505000Y-143648368D01*
X65505000Y-135936310D01*
X65511531Y-135869999D01*
X65505000Y-135803688D01*
X65505000Y-135737037D01*
X65491999Y-135671678D01*
X65485467Y-135605354D01*
X65485000Y-135603815D01*
X65485000Y-134833509D01*
X65505000Y-134732963D01*
X65505000Y-134467037D01*
X65485000Y-134366491D01*
X65485000Y-128137037D01*
X65471999Y-128071678D01*
X65465467Y-128005354D01*
X65446121Y-127941578D01*
X65433120Y-127876220D01*
X65407618Y-127814652D01*
X65388272Y-127750878D01*
X65356857Y-127692104D01*
X65331354Y-127630535D01*
X65294331Y-127575126D01*
X65262915Y-127516351D01*
X65220637Y-127464836D01*
X65183613Y-127409425D01*
X65136487Y-127362299D01*
X65094212Y-127310787D01*
X65042701Y-127268513D01*
X64995575Y-127221387D01*
X64940160Y-127184360D01*
X64888648Y-127142085D01*
X64829878Y-127110672D01*
X64774465Y-127073646D01*
X64712892Y-127048142D01*
X64654121Y-127016728D01*
X64590350Y-126997383D01*
X64528780Y-126971880D01*
X64463419Y-126958879D01*
X64399645Y-126939533D01*
X64333322Y-126933001D01*
X64267963Y-126920000D01*
X64201321Y-126920000D01*
X64135000Y-126913468D01*
X64068679Y-126920000D01*
X64002037Y-126920000D01*
X63936678Y-126933001D01*
X63870354Y-126939533D01*
X63806578Y-126958879D01*
X63741220Y-126971880D01*
X63679652Y-126997382D01*
X63615878Y-127016728D01*
X63557104Y-127048143D01*
X63495535Y-127073646D01*
X63440126Y-127110669D01*
X63381351Y-127142085D01*
X63329836Y-127184363D01*
X63274425Y-127221387D01*
X63227299Y-127268513D01*
X63175787Y-127310788D01*
X63133513Y-127362299D01*
X63086387Y-127409425D01*
X63049360Y-127464840D01*
X63007085Y-127516352D01*
X62975672Y-127575122D01*
X62938646Y-127630535D01*
X62913142Y-127692108D01*
X62881728Y-127750879D01*
X62862383Y-127814650D01*
X62836880Y-127876220D01*
X62823879Y-127941581D01*
X62804533Y-128005355D01*
X62798001Y-128071677D01*
X62785000Y-128137037D01*
X62785000Y-128203680D01*
X62785001Y-135783671D01*
X62778468Y-135850000D01*
X62804534Y-136114646D01*
X62805000Y-136116182D01*
X62805001Y-143793807D01*
X62687473Y-143937016D01*
X62643133Y-143889789D01*
X62394105Y-143711792D01*
X62115137Y-143585798D01*
X61960901Y-143545883D01*
X61719000Y-143675386D01*
X61719000Y-145311000D01*
X61739000Y-145311000D01*
X61739000Y-145519000D01*
X61719000Y-145519000D01*
X61719000Y-145539000D01*
X61511000Y-145539000D01*
X61511000Y-145519000D01*
X60057000Y-145519000D01*
X60057000Y-145869000D01*
X60107226Y-146170952D01*
X60215395Y-146457304D01*
X60257604Y-146525000D01*
X45161691Y-146525000D01*
X45173718Y-146510345D01*
X45189938Y-146480000D01*
X51986500Y-146480000D01*
X52070000Y-146488224D01*
X52153500Y-146480000D01*
X52153510Y-146480000D01*
X52403258Y-146455402D01*
X52723709Y-146358194D01*
X53019039Y-146200337D01*
X53087954Y-146143780D01*
X53213031Y-146041132D01*
X53213035Y-146041128D01*
X53277897Y-145987897D01*
X53331129Y-145923034D01*
X53848030Y-145406132D01*
X53912897Y-145352897D01*
X54125337Y-145094039D01*
X54196447Y-144961000D01*
X60057000Y-144961000D01*
X60057000Y-145311000D01*
X61511000Y-145311000D01*
X61511000Y-143675386D01*
X61269099Y-143545883D01*
X61114863Y-143585798D01*
X60835895Y-143711792D01*
X60586867Y-143889789D01*
X60377350Y-144112949D01*
X60215395Y-144372696D01*
X60107226Y-144659048D01*
X60057000Y-144961000D01*
X54196447Y-144961000D01*
X54283194Y-144798709D01*
X54380402Y-144478258D01*
X54405000Y-144228510D01*
X54405000Y-144228502D01*
X54413224Y-144145000D01*
X54405000Y-144061498D01*
X54405000Y-130961034D01*
X54695000Y-130989596D01*
X55795000Y-130989596D01*
X56088532Y-130960686D01*
X56370784Y-130875065D01*
X56630909Y-130736026D01*
X56858910Y-130548910D01*
X57046026Y-130320909D01*
X57185065Y-130060784D01*
X57270686Y-129778532D01*
X57299596Y-129485000D01*
X57299596Y-127285000D01*
X57270686Y-126991468D01*
X57185065Y-126709216D01*
X57046026Y-126449091D01*
X56858910Y-126221090D01*
X56630909Y-126033974D01*
X56370784Y-125894935D01*
X56088532Y-125809314D01*
X55795000Y-125780404D01*
X54695000Y-125780404D01*
X54401468Y-125809314D01*
X54119216Y-125894935D01*
X53975000Y-125972020D01*
X53830784Y-125894935D01*
X53548532Y-125809314D01*
X53255000Y-125780404D01*
X52155000Y-125780404D01*
X51861468Y-125809314D01*
X51579216Y-125894935D01*
X51319091Y-126033974D01*
X51269950Y-126074303D01*
X51265000Y-126073816D01*
X50433500Y-126077000D01*
X50269000Y-126241500D01*
X50269000Y-128281000D01*
X50289000Y-128281000D01*
X50289000Y-128489000D01*
X50269000Y-128489000D01*
X50269000Y-130528500D01*
X50433500Y-130693000D01*
X51005000Y-130695188D01*
X51005001Y-143080000D01*
X45189938Y-143080000D01*
X45173718Y-143049655D01*
X45055001Y-142904999D01*
X44910345Y-142786282D01*
X44745308Y-142698068D01*
X44566232Y-142643746D01*
X44547692Y-142641920D01*
X44550545Y-142640014D01*
X44850014Y-142340545D01*
X45085305Y-141988407D01*
X45247377Y-141597132D01*
X45330000Y-141181757D01*
X45330000Y-140758243D01*
X45247377Y-140342868D01*
X45085305Y-139951593D01*
X44950000Y-139749095D01*
X44950000Y-138186610D01*
X45028760Y-138582561D01*
X45232291Y-139073930D01*
X45527773Y-139516150D01*
X45903850Y-139892227D01*
X46346070Y-140187709D01*
X46837439Y-140391240D01*
X47359073Y-140495000D01*
X47890927Y-140495000D01*
X48412561Y-140391240D01*
X48903930Y-140187709D01*
X49346150Y-139892227D01*
X49722227Y-139516150D01*
X50017709Y-139073930D01*
X50221240Y-138582561D01*
X50325000Y-138060927D01*
X50325000Y-137529073D01*
X50221240Y-137007439D01*
X50017709Y-136516070D01*
X49722227Y-136073850D01*
X49346150Y-135697773D01*
X48903930Y-135402291D01*
X48412561Y-135198760D01*
X47890927Y-135095000D01*
X47359073Y-135095000D01*
X46837439Y-135198760D01*
X46346070Y-135402291D01*
X45903850Y-135697773D01*
X45527773Y-136073850D01*
X45232291Y-136516070D01*
X45028760Y-137007439D01*
X44950000Y-137403390D01*
X44950000Y-136110493D01*
X45164477Y-135934477D01*
X45395661Y-135652778D01*
X45567447Y-135331390D01*
X45673232Y-134982663D01*
X45708951Y-134620000D01*
X45673232Y-134257337D01*
X45567447Y-133908610D01*
X45395661Y-133587222D01*
X45200978Y-133350000D01*
X45395661Y-133112778D01*
X45567447Y-132791390D01*
X45673232Y-132442663D01*
X45708951Y-132080000D01*
X45673232Y-131717337D01*
X45567447Y-131368610D01*
X45395661Y-131047222D01*
X45200978Y-130810000D01*
X45395661Y-130572778D01*
X45567447Y-130251390D01*
X45655101Y-129962434D01*
X45684935Y-130060784D01*
X45823974Y-130320909D01*
X46011090Y-130548910D01*
X46239091Y-130736026D01*
X46499216Y-130875065D01*
X46781468Y-130960686D01*
X47075000Y-130989596D01*
X48175000Y-130989596D01*
X48468532Y-130960686D01*
X48750784Y-130875065D01*
X49010909Y-130736026D01*
X49060050Y-130695697D01*
X49065000Y-130696184D01*
X49896500Y-130693000D01*
X50061000Y-130528500D01*
X50061000Y-128489000D01*
X50041000Y-128489000D01*
X50041000Y-128281000D01*
X50061000Y-128281000D01*
X50061000Y-126241500D01*
X49896500Y-126077000D01*
X49304636Y-126074734D01*
X49300402Y-126031742D01*
X49203194Y-125711291D01*
X49045337Y-125415961D01*
X48999002Y-125359502D01*
X48999002Y-125229615D01*
X49240901Y-125359117D01*
X49395137Y-125319202D01*
X49674105Y-125193208D01*
X49923133Y-125015211D01*
X50132650Y-124792051D01*
X50294605Y-124532304D01*
X50402774Y-124245952D01*
X50453000Y-123944000D01*
X50453000Y-123694000D01*
X48999000Y-123694000D01*
X48999000Y-123714000D01*
X48791000Y-123714000D01*
X48791000Y-123694000D01*
X48771000Y-123694000D01*
X48771000Y-123520220D01*
X51854888Y-123520220D01*
X51888184Y-123651869D01*
X52004938Y-123913549D01*
X52170499Y-124147423D01*
X52378506Y-124344504D01*
X52620964Y-124497218D01*
X52888557Y-124599696D01*
X53171000Y-124648000D01*
X53871000Y-124648000D01*
X53871000Y-123294000D01*
X54079000Y-123294000D01*
X54079000Y-124648000D01*
X54779000Y-124648000D01*
X55061443Y-124599696D01*
X55329036Y-124497218D01*
X55571494Y-124344504D01*
X55779501Y-124147423D01*
X55945062Y-123913549D01*
X56061816Y-123651869D01*
X56095112Y-123520220D01*
X55964312Y-123294000D01*
X54079000Y-123294000D01*
X53871000Y-123294000D01*
X51985688Y-123294000D01*
X51854888Y-123520220D01*
X48771000Y-123520220D01*
X48771000Y-123486000D01*
X48791000Y-123486000D01*
X48791000Y-123466000D01*
X48999000Y-123466000D01*
X48999000Y-123486000D01*
X50453000Y-123486000D01*
X50453000Y-123236000D01*
X50402774Y-122934048D01*
X50294605Y-122647696D01*
X50133929Y-122390000D01*
X52059058Y-122390000D01*
X52004938Y-122466451D01*
X51888184Y-122728131D01*
X51854888Y-122859780D01*
X51985688Y-123086000D01*
X53871000Y-123086000D01*
X53871000Y-123066000D01*
X54079000Y-123066000D01*
X54079000Y-123086000D01*
X55964312Y-123086000D01*
X56095112Y-122859780D01*
X56061816Y-122728131D01*
X55945062Y-122466451D01*
X55779501Y-122232577D01*
X55681792Y-122140000D01*
X67779678Y-122140000D01*
X67765452Y-124384199D01*
G36*
X47195001Y-118961966D02*
G01*
X46990000Y-118941776D01*
X46656742Y-118974598D01*
X46336291Y-119071806D01*
X46143832Y-119174677D01*
X46040961Y-119229663D01*
X45782103Y-119442103D01*
X45728868Y-119506970D01*
X45211962Y-120023876D01*
X45147104Y-120077103D01*
X45093877Y-120141960D01*
X45093868Y-120141969D01*
X44934663Y-120335961D01*
X44776807Y-120631291D01*
X44679599Y-120951742D01*
X44646776Y-121285000D01*
X44655001Y-121368510D01*
X44655000Y-125011500D01*
X44646776Y-125095000D01*
X44655000Y-125178500D01*
X44655000Y-125178509D01*
X44679598Y-125428257D01*
X44776021Y-125746120D01*
X44542304Y-125600395D01*
X44255952Y-125492226D01*
X43954000Y-125442000D01*
X43354000Y-125442000D01*
X43354000Y-126896000D01*
X45239614Y-126896000D01*
X45369117Y-126654099D01*
X45329202Y-126499863D01*
X45307377Y-126451540D01*
X45657033Y-126801196D01*
X45599314Y-126991468D01*
X45570404Y-127285000D01*
X45570404Y-128838358D01*
X45567447Y-128828610D01*
X45395661Y-128507222D01*
X45164477Y-128225523D01*
X44977984Y-128072473D01*
X45025211Y-128028133D01*
X45203208Y-127779105D01*
X45329202Y-127500137D01*
X45369117Y-127345901D01*
X45239614Y-127104000D01*
X43354000Y-127104000D01*
X43354000Y-127124000D01*
X43146000Y-127124000D01*
X43146000Y-127104000D01*
X43126000Y-127104000D01*
X43126000Y-126896000D01*
X43146000Y-126896000D01*
X43146000Y-125442000D01*
X42546000Y-125442000D01*
X42244048Y-125492226D01*
X41964748Y-125597731D01*
X42079117Y-125384099D01*
X42039202Y-125229863D01*
X41913208Y-124950895D01*
X41735211Y-124701867D01*
X41512051Y-124492350D01*
X41252304Y-124330395D01*
X40965952Y-124222226D01*
X40664000Y-124172000D01*
X40064000Y-124172000D01*
X40064000Y-125626000D01*
X40084000Y-125626000D01*
X40084000Y-125834000D01*
X40064000Y-125834000D01*
X40064000Y-125854000D01*
X39856000Y-125854000D01*
X39856000Y-125834000D01*
X39836000Y-125834000D01*
X39836000Y-125626000D01*
X39856000Y-125626000D01*
X39856000Y-124172000D01*
X39256000Y-124172000D01*
X39165000Y-124187137D01*
X39165000Y-117905000D01*
X40556500Y-117905000D01*
X40640000Y-117913224D01*
X40723500Y-117905000D01*
X41945969Y-117905000D01*
X41978610Y-117922447D01*
X42327337Y-118028232D01*
X42599118Y-118055000D01*
X43980882Y-118055000D01*
X44252663Y-118028232D01*
X44601390Y-117922447D01*
X44634031Y-117905000D01*
X45636500Y-117905000D01*
X45720000Y-117913224D01*
X45803500Y-117905000D01*
X45803510Y-117905000D01*
X46053258Y-117880402D01*
X46373709Y-117783194D01*
X46669039Y-117625337D01*
X46692247Y-117606291D01*
X46863031Y-117466132D01*
X46863035Y-117466128D01*
X46927897Y-117412897D01*
X46981129Y-117348034D01*
X47195001Y-117134162D01*
X47195001Y-118961966D01*
G37*
X47195001Y-118961966D02*
X46990000Y-118941776D01*
X46656742Y-118974598D01*
X46336291Y-119071806D01*
X46143832Y-119174677D01*
X46040961Y-119229663D01*
X45782103Y-119442103D01*
X45728868Y-119506970D01*
X45211962Y-120023876D01*
X45147104Y-120077103D01*
X45093877Y-120141960D01*
X45093868Y-120141969D01*
X44934663Y-120335961D01*
X44776807Y-120631291D01*
X44679599Y-120951742D01*
X44646776Y-121285000D01*
X44655001Y-121368510D01*
X44655000Y-125011500D01*
X44646776Y-125095000D01*
X44655000Y-125178500D01*
X44655000Y-125178509D01*
X44679598Y-125428257D01*
X44776021Y-125746120D01*
X44542304Y-125600395D01*
X44255952Y-125492226D01*
X43954000Y-125442000D01*
X43354000Y-125442000D01*
X43354000Y-126896000D01*
X45239614Y-126896000D01*
X45369117Y-126654099D01*
X45329202Y-126499863D01*
X45307377Y-126451540D01*
X45657033Y-126801196D01*
X45599314Y-126991468D01*
X45570404Y-127285000D01*
X45570404Y-128838358D01*
X45567447Y-128828610D01*
X45395661Y-128507222D01*
X45164477Y-128225523D01*
X44977984Y-128072473D01*
X45025211Y-128028133D01*
X45203208Y-127779105D01*
X45329202Y-127500137D01*
X45369117Y-127345901D01*
X45239614Y-127104000D01*
X43354000Y-127104000D01*
X43354000Y-127124000D01*
X43146000Y-127124000D01*
X43146000Y-127104000D01*
X43126000Y-127104000D01*
X43126000Y-126896000D01*
X43146000Y-126896000D01*
X43146000Y-125442000D01*
X42546000Y-125442000D01*
X42244048Y-125492226D01*
X41964748Y-125597731D01*
X42079117Y-125384099D01*
X42039202Y-125229863D01*
X41913208Y-124950895D01*
X41735211Y-124701867D01*
X41512051Y-124492350D01*
X41252304Y-124330395D01*
X40965952Y-124222226D01*
X40664000Y-124172000D01*
X40064000Y-124172000D01*
X40064000Y-125626000D01*
X40084000Y-125626000D01*
X40084000Y-125834000D01*
X40064000Y-125834000D01*
X40064000Y-125854000D01*
X39856000Y-125854000D01*
X39856000Y-125834000D01*
X39836000Y-125834000D01*
X39836000Y-125626000D01*
X39856000Y-125626000D01*
X39856000Y-124172000D01*
X39256000Y-124172000D01*
X39165000Y-124187137D01*
X39165000Y-117905000D01*
X40556500Y-117905000D01*
X40640000Y-117913224D01*
X40723500Y-117905000D01*
X41945969Y-117905000D01*
X41978610Y-117922447D01*
X42327337Y-118028232D01*
X42599118Y-118055000D01*
X43980882Y-118055000D01*
X44252663Y-118028232D01*
X44601390Y-117922447D01*
X44634031Y-117905000D01*
X45636500Y-117905000D01*
X45720000Y-117913224D01*
X45803500Y-117905000D01*
X45803510Y-117905000D01*
X46053258Y-117880402D01*
X46373709Y-117783194D01*
X46669039Y-117625337D01*
X46692247Y-117606291D01*
X46863031Y-117466132D01*
X46863035Y-117466128D01*
X46927897Y-117412897D01*
X46981129Y-117348034D01*
X47195001Y-117134162D01*
X47195001Y-118961966D01*
G36*
X53699339Y-110357778D02*
G01*
X53899463Y-110601629D01*
X53914534Y-110754646D01*
X53991729Y-111009122D01*
X54117085Y-111243649D01*
X54243510Y-111397698D01*
X54243514Y-111397702D01*
X54285788Y-111449213D01*
X54337300Y-111491487D01*
X54878505Y-112032692D01*
X54920787Y-112084213D01*
X55126351Y-112252915D01*
X55243614Y-112315593D01*
X55360877Y-112378272D01*
X55416022Y-112395000D01*
X55615354Y-112455467D01*
X55813679Y-112475000D01*
X55813681Y-112475000D01*
X55880000Y-112481532D01*
X55946319Y-112475000D01*
X71040001Y-112475000D01*
X71040000Y-118678681D01*
X71033468Y-118745000D01*
X71040000Y-118811319D01*
X71040000Y-118811320D01*
X71059533Y-119009645D01*
X71136728Y-119264121D01*
X71189695Y-119363215D01*
X71262085Y-119498649D01*
X71388510Y-119652698D01*
X71388513Y-119652701D01*
X71430787Y-119704212D01*
X71482300Y-119746488D01*
X72023505Y-120287692D01*
X72065787Y-120339213D01*
X72271351Y-120507915D01*
X72388614Y-120570593D01*
X72505877Y-120633272D01*
X72561022Y-120650000D01*
X72760354Y-120710467D01*
X72958679Y-120730000D01*
X72958681Y-120730000D01*
X73025000Y-120736532D01*
X73091319Y-120730000D01*
X75100613Y-120730000D01*
X75048215Y-120902733D01*
X75010565Y-121285000D01*
X75048215Y-121667267D01*
X75159718Y-122034843D01*
X75340789Y-122373604D01*
X75391175Y-122435000D01*
X70677866Y-122435000D01*
X70684548Y-121380800D01*
X70692014Y-121304999D01*
X70678475Y-121167533D01*
X70665792Y-121029815D01*
X70664473Y-121025364D01*
X70664018Y-121020749D01*
X70623888Y-120888459D01*
X70584613Y-120755969D01*
X70582454Y-120751867D01*
X70581106Y-120747424D01*
X70515902Y-120625437D01*
X70451570Y-120503223D01*
X70448652Y-120499621D01*
X70446463Y-120495526D01*
X70358730Y-120388623D01*
X70271775Y-120281287D01*
X70213201Y-120232592D01*
X69695670Y-119715061D01*
X69650265Y-119659735D01*
X69429474Y-119478536D01*
X69177576Y-119343894D01*
X68904250Y-119260981D01*
X68691225Y-119240000D01*
X68691215Y-119240000D01*
X68620000Y-119232986D01*
X68548785Y-119240000D01*
X55666711Y-119240000D01*
X55651952Y-119227888D01*
X55347936Y-119065388D01*
X55018060Y-118965321D01*
X54760968Y-118940000D01*
X53189032Y-118940000D01*
X52931940Y-118965321D01*
X52850584Y-118990000D01*
X50595000Y-118990000D01*
X50595000Y-117817713D01*
X50670395Y-118017304D01*
X50832350Y-118277051D01*
X51041867Y-118500211D01*
X51290895Y-118678208D01*
X51569863Y-118804202D01*
X51724099Y-118844117D01*
X51966000Y-118714614D01*
X51966000Y-117079000D01*
X52174000Y-117079000D01*
X52174000Y-118714614D01*
X52415901Y-118844117D01*
X52570137Y-118804202D01*
X52849105Y-118678208D01*
X53098133Y-118500211D01*
X53307650Y-118277051D01*
X53469605Y-118017304D01*
X53577774Y-117730952D01*
X53628000Y-117429000D01*
X53628000Y-117079000D01*
X53687000Y-117079000D01*
X53687000Y-117429000D01*
X53737226Y-117730952D01*
X53845395Y-118017304D01*
X54007350Y-118277051D01*
X54216867Y-118500211D01*
X54465895Y-118678208D01*
X54744863Y-118804202D01*
X54899099Y-118844117D01*
X55141000Y-118714614D01*
X55141000Y-117079000D01*
X55349000Y-117079000D01*
X55349000Y-118714614D01*
X55590901Y-118844117D01*
X55745137Y-118804202D01*
X56024105Y-118678208D01*
X56273133Y-118500211D01*
X56482650Y-118277051D01*
X56644605Y-118017304D01*
X56752774Y-117730952D01*
X56803000Y-117429000D01*
X56803000Y-117079000D01*
X55349000Y-117079000D01*
X55141000Y-117079000D01*
X53687000Y-117079000D01*
X53628000Y-117079000D01*
X52174000Y-117079000D01*
X51966000Y-117079000D01*
X51946000Y-117079000D01*
X51946000Y-116871000D01*
X51966000Y-116871000D01*
X51966000Y-115235386D01*
X52174000Y-115235386D01*
X52174000Y-116871000D01*
X53628000Y-116871000D01*
X53628000Y-116521000D01*
X53687000Y-116521000D01*
X53687000Y-116871000D01*
X55141000Y-116871000D01*
X55141000Y-115235386D01*
X55349000Y-115235386D01*
X55349000Y-116871000D01*
X56803000Y-116871000D01*
X56803000Y-116521000D01*
X56752774Y-116219048D01*
X56644605Y-115932696D01*
X56482650Y-115672949D01*
X56273133Y-115449789D01*
X56024105Y-115271792D01*
X55745137Y-115145798D01*
X55590901Y-115105883D01*
X55349000Y-115235386D01*
X55141000Y-115235386D01*
X54899099Y-115105883D01*
X54744863Y-115145798D01*
X54465895Y-115271792D01*
X54216867Y-115449789D01*
X54007350Y-115672949D01*
X53845395Y-115932696D01*
X53737226Y-116219048D01*
X53687000Y-116521000D01*
X53628000Y-116521000D01*
X53577774Y-116219048D01*
X53469605Y-115932696D01*
X53307650Y-115672949D01*
X53098133Y-115449789D01*
X52849105Y-115271792D01*
X52570137Y-115145798D01*
X52415901Y-115105883D01*
X52174000Y-115235386D01*
X51966000Y-115235386D01*
X51724099Y-115105883D01*
X51569863Y-115145798D01*
X51290895Y-115271792D01*
X51041867Y-115449789D01*
X50832350Y-115672949D01*
X50670395Y-115932696D01*
X50595000Y-116132287D01*
X50595000Y-110443878D01*
X50755524Y-110639477D01*
X51037223Y-110870661D01*
X51358611Y-111042447D01*
X51707338Y-111148232D01*
X52070000Y-111183951D01*
X52432663Y-111148232D01*
X52781390Y-111042447D01*
X53102778Y-110870661D01*
X53384477Y-110639477D01*
X53615661Y-110357778D01*
X53657500Y-110279503D01*
X53699339Y-110357778D01*
G37*
X53699339Y-110357778D02*
X53899463Y-110601629D01*
X53914534Y-110754646D01*
X53991729Y-111009122D01*
X54117085Y-111243649D01*
X54243510Y-111397698D01*
X54243514Y-111397702D01*
X54285788Y-111449213D01*
X54337300Y-111491487D01*
X54878505Y-112032692D01*
X54920787Y-112084213D01*
X55126351Y-112252915D01*
X55243614Y-112315593D01*
X55360877Y-112378272D01*
X55416022Y-112395000D01*
X55615354Y-112455467D01*
X55813679Y-112475000D01*
X55813681Y-112475000D01*
X55880000Y-112481532D01*
X55946319Y-112475000D01*
X71040001Y-112475000D01*
X71040000Y-118678681D01*
X71033468Y-118745000D01*
X71040000Y-118811319D01*
X71040000Y-118811320D01*
X71059533Y-119009645D01*
X71136728Y-119264121D01*
X71189695Y-119363215D01*
X71262085Y-119498649D01*
X71388510Y-119652698D01*
X71388513Y-119652701D01*
X71430787Y-119704212D01*
X71482300Y-119746488D01*
X72023505Y-120287692D01*
X72065787Y-120339213D01*
X72271351Y-120507915D01*
X72388614Y-120570593D01*
X72505877Y-120633272D01*
X72561022Y-120650000D01*
X72760354Y-120710467D01*
X72958679Y-120730000D01*
X72958681Y-120730000D01*
X73025000Y-120736532D01*
X73091319Y-120730000D01*
X75100613Y-120730000D01*
X75048215Y-120902733D01*
X75010565Y-121285000D01*
X75048215Y-121667267D01*
X75159718Y-122034843D01*
X75340789Y-122373604D01*
X75391175Y-122435000D01*
X70677866Y-122435000D01*
X70684548Y-121380800D01*
X70692014Y-121304999D01*
X70678475Y-121167533D01*
X70665792Y-121029815D01*
X70664473Y-121025364D01*
X70664018Y-121020749D01*
X70623888Y-120888459D01*
X70584613Y-120755969D01*
X70582454Y-120751867D01*
X70581106Y-120747424D01*
X70515902Y-120625437D01*
X70451570Y-120503223D01*
X70448652Y-120499621D01*
X70446463Y-120495526D01*
X70358730Y-120388623D01*
X70271775Y-120281287D01*
X70213201Y-120232592D01*
X69695670Y-119715061D01*
X69650265Y-119659735D01*
X69429474Y-119478536D01*
X69177576Y-119343894D01*
X68904250Y-119260981D01*
X68691225Y-119240000D01*
X68691215Y-119240000D01*
X68620000Y-119232986D01*
X68548785Y-119240000D01*
X55666711Y-119240000D01*
X55651952Y-119227888D01*
X55347936Y-119065388D01*
X55018060Y-118965321D01*
X54760968Y-118940000D01*
X53189032Y-118940000D01*
X52931940Y-118965321D01*
X52850584Y-118990000D01*
X50595000Y-118990000D01*
X50595000Y-117817713D01*
X50670395Y-118017304D01*
X50832350Y-118277051D01*
X51041867Y-118500211D01*
X51290895Y-118678208D01*
X51569863Y-118804202D01*
X51724099Y-118844117D01*
X51966000Y-118714614D01*
X51966000Y-117079000D01*
X52174000Y-117079000D01*
X52174000Y-118714614D01*
X52415901Y-118844117D01*
X52570137Y-118804202D01*
X52849105Y-118678208D01*
X53098133Y-118500211D01*
X53307650Y-118277051D01*
X53469605Y-118017304D01*
X53577774Y-117730952D01*
X53628000Y-117429000D01*
X53628000Y-117079000D01*
X53687000Y-117079000D01*
X53687000Y-117429000D01*
X53737226Y-117730952D01*
X53845395Y-118017304D01*
X54007350Y-118277051D01*
X54216867Y-118500211D01*
X54465895Y-118678208D01*
X54744863Y-118804202D01*
X54899099Y-118844117D01*
X55141000Y-118714614D01*
X55141000Y-117079000D01*
X55349000Y-117079000D01*
X55349000Y-118714614D01*
X55590901Y-118844117D01*
X55745137Y-118804202D01*
X56024105Y-118678208D01*
X56273133Y-118500211D01*
X56482650Y-118277051D01*
X56644605Y-118017304D01*
X56752774Y-117730952D01*
X56803000Y-117429000D01*
X56803000Y-117079000D01*
X55349000Y-117079000D01*
X55141000Y-117079000D01*
X53687000Y-117079000D01*
X53628000Y-117079000D01*
X52174000Y-117079000D01*
X51966000Y-117079000D01*
X51946000Y-117079000D01*
X51946000Y-116871000D01*
X51966000Y-116871000D01*
X51966000Y-115235386D01*
X52174000Y-115235386D01*
X52174000Y-116871000D01*
X53628000Y-116871000D01*
X53628000Y-116521000D01*
X53687000Y-116521000D01*
X53687000Y-116871000D01*
X55141000Y-116871000D01*
X55141000Y-115235386D01*
X55349000Y-115235386D01*
X55349000Y-116871000D01*
X56803000Y-116871000D01*
X56803000Y-116521000D01*
X56752774Y-116219048D01*
X56644605Y-115932696D01*
X56482650Y-115672949D01*
X56273133Y-115449789D01*
X56024105Y-115271792D01*
X55745137Y-115145798D01*
X55590901Y-115105883D01*
X55349000Y-115235386D01*
X55141000Y-115235386D01*
X54899099Y-115105883D01*
X54744863Y-115145798D01*
X54465895Y-115271792D01*
X54216867Y-115449789D01*
X54007350Y-115672949D01*
X53845395Y-115932696D01*
X53737226Y-116219048D01*
X53687000Y-116521000D01*
X53628000Y-116521000D01*
X53577774Y-116219048D01*
X53469605Y-115932696D01*
X53307650Y-115672949D01*
X53098133Y-115449789D01*
X52849105Y-115271792D01*
X52570137Y-115145798D01*
X52415901Y-115105883D01*
X52174000Y-115235386D01*
X51966000Y-115235386D01*
X51724099Y-115105883D01*
X51569863Y-115145798D01*
X51290895Y-115271792D01*
X51041867Y-115449789D01*
X50832350Y-115672949D01*
X50670395Y-115932696D01*
X50595000Y-116132287D01*
X50595000Y-110443878D01*
X50755524Y-110639477D01*
X51037223Y-110870661D01*
X51358611Y-111042447D01*
X51707338Y-111148232D01*
X52070000Y-111183951D01*
X52432663Y-111148232D01*
X52781390Y-111042447D01*
X53102778Y-110870661D01*
X53384477Y-110639477D01*
X53615661Y-110357778D01*
X53657500Y-110279503D01*
X53699339Y-110357778D01*
G36*
X44655000Y-107230722D02*
G01*
X44582304Y-107185395D01*
X44295952Y-107077226D01*
X43994000Y-107027000D01*
X43394000Y-107027000D01*
X43394000Y-108481000D01*
X43414000Y-108481000D01*
X43414000Y-108689000D01*
X43394000Y-108689000D01*
X43394000Y-108709000D01*
X43186000Y-108709000D01*
X43186000Y-108689000D01*
X43166000Y-108689000D01*
X43166000Y-108481000D01*
X43186000Y-108481000D01*
X43186000Y-107027000D01*
X42586000Y-107027000D01*
X42284048Y-107077226D01*
X42004748Y-107182731D01*
X42119117Y-106969099D01*
X42089848Y-106856000D01*
X44655000Y-106856000D01*
X44655000Y-107230722D01*
G37*
X44655000Y-107230722D02*
X44582304Y-107185395D01*
X44295952Y-107077226D01*
X43994000Y-107027000D01*
X43394000Y-107027000D01*
X43394000Y-108481000D01*
X43414000Y-108481000D01*
X43414000Y-108689000D01*
X43394000Y-108689000D01*
X43394000Y-108709000D01*
X43186000Y-108709000D01*
X43186000Y-108689000D01*
X43166000Y-108689000D01*
X43166000Y-108481000D01*
X43186000Y-108481000D01*
X43186000Y-107027000D01*
X42586000Y-107027000D01*
X42284048Y-107077226D01*
X42004748Y-107182731D01*
X42119117Y-106969099D01*
X42089848Y-106856000D01*
X44655000Y-106856000D01*
X44655000Y-107230722D01*
G36*
X53444000Y-85486000D02*
G01*
X53464000Y-85486000D01*
X53464000Y-85694000D01*
X53444000Y-85694000D01*
X53444000Y-87579614D01*
X53685901Y-87709117D01*
X53840137Y-87669202D01*
X54119105Y-87543208D01*
X54368133Y-87365211D01*
X54412473Y-87317984D01*
X54565523Y-87504477D01*
X54847222Y-87735661D01*
X55168610Y-87907447D01*
X55517337Y-88013232D01*
X55880000Y-88048951D01*
X56242662Y-88013232D01*
X56591389Y-87907447D01*
X56912777Y-87735661D01*
X57150000Y-87540978D01*
X57387222Y-87735661D01*
X57708610Y-87907447D01*
X58057337Y-88013232D01*
X58420000Y-88048951D01*
X58782662Y-88013232D01*
X59131389Y-87907447D01*
X59452777Y-87735661D01*
X59690000Y-87540978D01*
X59927222Y-87735661D01*
X60248610Y-87907447D01*
X60597337Y-88013232D01*
X60960000Y-88048951D01*
X61322662Y-88013232D01*
X61671389Y-87907447D01*
X61992777Y-87735661D01*
X62230000Y-87540978D01*
X62467222Y-87735661D01*
X62788610Y-87907447D01*
X63137337Y-88013232D01*
X63500000Y-88048951D01*
X63862662Y-88013232D01*
X64211389Y-87907447D01*
X64532777Y-87735661D01*
X64770000Y-87540978D01*
X65007222Y-87735661D01*
X65328610Y-87907447D01*
X65677337Y-88013232D01*
X66040000Y-88048951D01*
X66402662Y-88013232D01*
X66751389Y-87907447D01*
X67072777Y-87735661D01*
X67310000Y-87540978D01*
X67547222Y-87735661D01*
X67868610Y-87907447D01*
X67887561Y-87913196D01*
X67466857Y-88087457D01*
X67081962Y-88344636D01*
X66754636Y-88671962D01*
X66497457Y-89056857D01*
X66320309Y-89484530D01*
X66230000Y-89938545D01*
X66230000Y-90401455D01*
X66320309Y-90855470D01*
X66497457Y-91283143D01*
X66754636Y-91668038D01*
X67081962Y-91995364D01*
X67466857Y-92252543D01*
X67894530Y-92429691D01*
X68348545Y-92520000D01*
X68811455Y-92520000D01*
X69265470Y-92429691D01*
X69693143Y-92252543D01*
X70078038Y-91995364D01*
X70405364Y-91668038D01*
X70662543Y-91283143D01*
X70839691Y-90855470D01*
X70930000Y-90401455D01*
X70930000Y-89938545D01*
X70839691Y-89484530D01*
X70662543Y-89056857D01*
X70405364Y-88671962D01*
X70078038Y-88344636D01*
X69693143Y-88087457D01*
X69272439Y-87913196D01*
X69291389Y-87907447D01*
X69612777Y-87735661D01*
X69850000Y-87540978D01*
X70087222Y-87735661D01*
X70408610Y-87907447D01*
X70757337Y-88013232D01*
X71120000Y-88048951D01*
X71482662Y-88013232D01*
X71831389Y-87907447D01*
X72152777Y-87735661D01*
X72390000Y-87540978D01*
X72627222Y-87735661D01*
X72948610Y-87907447D01*
X73297337Y-88013232D01*
X73660000Y-88048951D01*
X74022662Y-88013232D01*
X74371389Y-87907447D01*
X74692777Y-87735661D01*
X74930000Y-87540978D01*
X75167222Y-87735661D01*
X75488610Y-87907447D01*
X75837337Y-88013232D01*
X76200000Y-88048951D01*
X76562662Y-88013232D01*
X76911389Y-87907447D01*
X77232777Y-87735661D01*
X77470000Y-87540978D01*
X77707222Y-87735661D01*
X78028610Y-87907447D01*
X78377337Y-88013232D01*
X78740000Y-88048951D01*
X79102662Y-88013232D01*
X79274990Y-87960957D01*
X79274990Y-89630822D01*
X77832299Y-91073513D01*
X77780788Y-91115787D01*
X77738514Y-91167298D01*
X77738510Y-91167302D01*
X77612085Y-91321351D01*
X77486729Y-91555878D01*
X77409534Y-91810354D01*
X77383468Y-92075000D01*
X77390001Y-92141329D01*
X77390000Y-97813368D01*
X77232777Y-97684339D01*
X76911389Y-97512553D01*
X76562662Y-97406768D01*
X76200000Y-97371049D01*
X75837337Y-97406768D01*
X75488610Y-97512553D01*
X75167222Y-97684339D01*
X74930000Y-97879022D01*
X74692777Y-97684339D01*
X74371389Y-97512553D01*
X74022662Y-97406768D01*
X73660000Y-97371049D01*
X73297337Y-97406768D01*
X72948610Y-97512553D01*
X72627222Y-97684339D01*
X72390000Y-97879022D01*
X72152777Y-97684339D01*
X71831389Y-97512553D01*
X71482662Y-97406768D01*
X71120000Y-97371049D01*
X70757337Y-97406768D01*
X70408610Y-97512553D01*
X70087222Y-97684339D01*
X69850000Y-97879022D01*
X69612777Y-97684339D01*
X69291389Y-97512553D01*
X69272439Y-97506804D01*
X69693143Y-97332543D01*
X70078038Y-97075364D01*
X70405364Y-96748038D01*
X70662543Y-96363143D01*
X70839691Y-95935470D01*
X70930000Y-95481455D01*
X70930000Y-95018545D01*
X70839691Y-94564530D01*
X70662543Y-94136857D01*
X70405364Y-93751962D01*
X70078038Y-93424636D01*
X69693143Y-93167457D01*
X69265470Y-92990309D01*
X68811455Y-92900000D01*
X68348545Y-92900000D01*
X67894530Y-92990309D01*
X67466857Y-93167457D01*
X67081962Y-93424636D01*
X66754636Y-93751962D01*
X66497457Y-94136857D01*
X66320309Y-94564530D01*
X66230000Y-95018545D01*
X66230000Y-95481455D01*
X66320309Y-95935470D01*
X66497457Y-96363143D01*
X66754636Y-96748038D01*
X67081962Y-97075364D01*
X67466857Y-97332543D01*
X67887561Y-97506804D01*
X67868610Y-97512553D01*
X67547222Y-97684339D01*
X67310000Y-97879022D01*
X67072777Y-97684339D01*
X66751389Y-97512553D01*
X66402662Y-97406768D01*
X66040000Y-97371049D01*
X65677337Y-97406768D01*
X65328610Y-97512553D01*
X65007222Y-97684339D01*
X64770000Y-97879022D01*
X64532777Y-97684339D01*
X64211389Y-97512553D01*
X63862662Y-97406768D01*
X63500000Y-97371049D01*
X63137337Y-97406768D01*
X62788610Y-97512553D01*
X62467222Y-97684339D01*
X62230000Y-97879022D01*
X61992777Y-97684339D01*
X61671389Y-97512553D01*
X61322662Y-97406768D01*
X60960000Y-97371049D01*
X60597337Y-97406768D01*
X60248610Y-97512553D01*
X59927222Y-97684339D01*
X59645523Y-97915523D01*
X59492473Y-98102016D01*
X59448133Y-98054789D01*
X59199105Y-97876792D01*
X58920137Y-97750798D01*
X58765901Y-97710883D01*
X58524000Y-97840386D01*
X58524000Y-99726000D01*
X58544000Y-99726000D01*
X58544000Y-99934000D01*
X58524000Y-99934000D01*
X58524000Y-99954000D01*
X58316000Y-99954000D01*
X58316000Y-99934000D01*
X58296000Y-99934000D01*
X58296000Y-99726000D01*
X58316000Y-99726000D01*
X58316000Y-97840386D01*
X58074099Y-97710883D01*
X57919863Y-97750798D01*
X57640895Y-97876792D01*
X57391867Y-98054789D01*
X57347527Y-98102016D01*
X57194477Y-97915523D01*
X56912777Y-97684339D01*
X56591389Y-97512553D01*
X56242662Y-97406768D01*
X55880000Y-97371049D01*
X55517337Y-97406768D01*
X55168610Y-97512553D01*
X54847222Y-97684339D01*
X54610000Y-97879022D01*
X54372777Y-97684339D01*
X54051389Y-97512553D01*
X53702662Y-97406768D01*
X53340000Y-97371049D01*
X52977337Y-97406768D01*
X52628610Y-97512553D01*
X52307222Y-97684339D01*
X52070000Y-97879022D01*
X51832777Y-97684339D01*
X51511389Y-97512553D01*
X51162662Y-97406768D01*
X50800000Y-97371049D01*
X50437337Y-97406768D01*
X50088610Y-97512553D01*
X49767222Y-97684339D01*
X49485523Y-97915523D01*
X49254339Y-98197223D01*
X49082553Y-98518611D01*
X48976768Y-98867338D01*
X48950000Y-99139119D01*
X48950000Y-100520882D01*
X48976768Y-100792663D01*
X49082554Y-101141390D01*
X49254340Y-101462778D01*
X49314825Y-101536479D01*
X49209039Y-101449663D01*
X48913709Y-101291806D01*
X48593258Y-101194598D01*
X48343510Y-101170000D01*
X48343500Y-101170000D01*
X48260000Y-101161776D01*
X48176500Y-101170000D01*
X47409500Y-101170000D01*
X47308500Y-101069000D01*
X44919000Y-101069000D01*
X44919000Y-101089000D01*
X44711000Y-101089000D01*
X44711000Y-101069000D01*
X44691000Y-101069000D01*
X44691000Y-100861000D01*
X44711000Y-100861000D01*
X44711000Y-98919000D01*
X44919000Y-98919000D01*
X44919000Y-100861000D01*
X47308500Y-100861000D01*
X47473000Y-100696500D01*
X47476184Y-100215000D01*
X47463480Y-100086009D01*
X47425854Y-99961976D01*
X47387382Y-99890000D01*
X47425854Y-99818024D01*
X47463480Y-99693991D01*
X47476184Y-99565000D01*
X47473000Y-99083500D01*
X47308500Y-98919000D01*
X44919000Y-98919000D01*
X44711000Y-98919000D01*
X44691000Y-98919000D01*
X44691000Y-98711000D01*
X44711000Y-98711000D01*
X44711000Y-98691000D01*
X44919000Y-98691000D01*
X44919000Y-98711000D01*
X47308500Y-98711000D01*
X47473000Y-98546500D01*
X47476184Y-98065000D01*
X47463480Y-97936009D01*
X47461850Y-97930635D01*
X47545519Y-97828684D01*
X47668387Y-97598814D01*
X47744048Y-97349391D01*
X47769596Y-97090000D01*
X47769596Y-96340000D01*
X47744048Y-96080609D01*
X47668387Y-95831186D01*
X47579559Y-95665000D01*
X47668387Y-95498814D01*
X47744048Y-95249391D01*
X47769596Y-94990000D01*
X47769596Y-94240000D01*
X47744048Y-93980609D01*
X47668387Y-93731186D01*
X47545519Y-93501316D01*
X47380166Y-93299834D01*
X47178684Y-93134481D01*
X46948814Y-93011613D01*
X46699391Y-92935952D01*
X46440000Y-92910404D01*
X43190000Y-92910404D01*
X42975000Y-92931580D01*
X42975000Y-92850890D01*
X44546500Y-92848000D01*
X44711000Y-92683500D01*
X44711000Y-91544000D01*
X44919000Y-91544000D01*
X44919000Y-92683500D01*
X45083500Y-92848000D01*
X46815000Y-92851184D01*
X46943991Y-92838480D01*
X47068024Y-92800854D01*
X47182334Y-92739754D01*
X47282528Y-92657528D01*
X47364754Y-92557334D01*
X47425854Y-92443024D01*
X47463480Y-92318991D01*
X47476184Y-92190000D01*
X47473000Y-91708500D01*
X47308500Y-91544000D01*
X44919000Y-91544000D01*
X44711000Y-91544000D01*
X44691000Y-91544000D01*
X44691000Y-91336000D01*
X44711000Y-91336000D01*
X44711000Y-89394000D01*
X44919000Y-89394000D01*
X44919000Y-91336000D01*
X47308500Y-91336000D01*
X47473000Y-91171500D01*
X47476184Y-90690000D01*
X47463480Y-90561009D01*
X47425854Y-90436976D01*
X47387382Y-90365000D01*
X47425854Y-90293024D01*
X47463480Y-90168991D01*
X47476184Y-90040000D01*
X47473000Y-89558500D01*
X47308500Y-89394000D01*
X44919000Y-89394000D01*
X44711000Y-89394000D01*
X44691000Y-89394000D01*
X44691000Y-89186000D01*
X44711000Y-89186000D01*
X44711000Y-89166000D01*
X44919000Y-89166000D01*
X44919000Y-89186000D01*
X47308500Y-89186000D01*
X47473000Y-89021500D01*
X47476184Y-88540000D01*
X47463480Y-88411009D01*
X47461850Y-88405635D01*
X47545519Y-88303684D01*
X47668387Y-88073814D01*
X47744048Y-87824391D01*
X47769596Y-87565000D01*
X47769596Y-86815000D01*
X47766570Y-86784282D01*
X47958258Y-86765402D01*
X48278709Y-86668194D01*
X48574039Y-86510337D01*
X48768031Y-86351132D01*
X48768035Y-86351128D01*
X48832897Y-86297897D01*
X48886129Y-86233034D01*
X48950000Y-86169163D01*
X48950000Y-86280881D01*
X48976768Y-86552662D01*
X49082553Y-86901389D01*
X49254339Y-87222777D01*
X49485523Y-87504477D01*
X49767222Y-87735661D01*
X50088610Y-87907447D01*
X50437337Y-88013232D01*
X50800000Y-88048951D01*
X51162662Y-88013232D01*
X51511389Y-87907447D01*
X51832777Y-87735661D01*
X52114477Y-87504477D01*
X52267527Y-87317984D01*
X52311867Y-87365211D01*
X52560895Y-87543208D01*
X52839863Y-87669202D01*
X52994099Y-87709117D01*
X53236000Y-87579614D01*
X53236000Y-85694000D01*
X53216000Y-85694000D01*
X53216000Y-85486000D01*
X53236000Y-85486000D01*
X53236000Y-85466000D01*
X53444000Y-85466000D01*
X53444000Y-85486000D01*
G37*
X53444000Y-85486000D02*
X53464000Y-85486000D01*
X53464000Y-85694000D01*
X53444000Y-85694000D01*
X53444000Y-87579614D01*
X53685901Y-87709117D01*
X53840137Y-87669202D01*
X54119105Y-87543208D01*
X54368133Y-87365211D01*
X54412473Y-87317984D01*
X54565523Y-87504477D01*
X54847222Y-87735661D01*
X55168610Y-87907447D01*
X55517337Y-88013232D01*
X55880000Y-88048951D01*
X56242662Y-88013232D01*
X56591389Y-87907447D01*
X56912777Y-87735661D01*
X57150000Y-87540978D01*
X57387222Y-87735661D01*
X57708610Y-87907447D01*
X58057337Y-88013232D01*
X58420000Y-88048951D01*
X58782662Y-88013232D01*
X59131389Y-87907447D01*
X59452777Y-87735661D01*
X59690000Y-87540978D01*
X59927222Y-87735661D01*
X60248610Y-87907447D01*
X60597337Y-88013232D01*
X60960000Y-88048951D01*
X61322662Y-88013232D01*
X61671389Y-87907447D01*
X61992777Y-87735661D01*
X62230000Y-87540978D01*
X62467222Y-87735661D01*
X62788610Y-87907447D01*
X63137337Y-88013232D01*
X63500000Y-88048951D01*
X63862662Y-88013232D01*
X64211389Y-87907447D01*
X64532777Y-87735661D01*
X64770000Y-87540978D01*
X65007222Y-87735661D01*
X65328610Y-87907447D01*
X65677337Y-88013232D01*
X66040000Y-88048951D01*
X66402662Y-88013232D01*
X66751389Y-87907447D01*
X67072777Y-87735661D01*
X67310000Y-87540978D01*
X67547222Y-87735661D01*
X67868610Y-87907447D01*
X67887561Y-87913196D01*
X67466857Y-88087457D01*
X67081962Y-88344636D01*
X66754636Y-88671962D01*
X66497457Y-89056857D01*
X66320309Y-89484530D01*
X66230000Y-89938545D01*
X66230000Y-90401455D01*
X66320309Y-90855470D01*
X66497457Y-91283143D01*
X66754636Y-91668038D01*
X67081962Y-91995364D01*
X67466857Y-92252543D01*
X67894530Y-92429691D01*
X68348545Y-92520000D01*
X68811455Y-92520000D01*
X69265470Y-92429691D01*
X69693143Y-92252543D01*
X70078038Y-91995364D01*
X70405364Y-91668038D01*
X70662543Y-91283143D01*
X70839691Y-90855470D01*
X70930000Y-90401455D01*
X70930000Y-89938545D01*
X70839691Y-89484530D01*
X70662543Y-89056857D01*
X70405364Y-88671962D01*
X70078038Y-88344636D01*
X69693143Y-88087457D01*
X69272439Y-87913196D01*
X69291389Y-87907447D01*
X69612777Y-87735661D01*
X69850000Y-87540978D01*
X70087222Y-87735661D01*
X70408610Y-87907447D01*
X70757337Y-88013232D01*
X71120000Y-88048951D01*
X71482662Y-88013232D01*
X71831389Y-87907447D01*
X72152777Y-87735661D01*
X72390000Y-87540978D01*
X72627222Y-87735661D01*
X72948610Y-87907447D01*
X73297337Y-88013232D01*
X73660000Y-88048951D01*
X74022662Y-88013232D01*
X74371389Y-87907447D01*
X74692777Y-87735661D01*
X74930000Y-87540978D01*
X75167222Y-87735661D01*
X75488610Y-87907447D01*
X75837337Y-88013232D01*
X76200000Y-88048951D01*
X76562662Y-88013232D01*
X76911389Y-87907447D01*
X77232777Y-87735661D01*
X77470000Y-87540978D01*
X77707222Y-87735661D01*
X78028610Y-87907447D01*
X78377337Y-88013232D01*
X78740000Y-88048951D01*
X79102662Y-88013232D01*
X79274990Y-87960957D01*
X79274990Y-89630822D01*
X77832299Y-91073513D01*
X77780788Y-91115787D01*
X77738514Y-91167298D01*
X77738510Y-91167302D01*
X77612085Y-91321351D01*
X77486729Y-91555878D01*
X77409534Y-91810354D01*
X77383468Y-92075000D01*
X77390001Y-92141329D01*
X77390000Y-97813368D01*
X77232777Y-97684339D01*
X76911389Y-97512553D01*
X76562662Y-97406768D01*
X76200000Y-97371049D01*
X75837337Y-97406768D01*
X75488610Y-97512553D01*
X75167222Y-97684339D01*
X74930000Y-97879022D01*
X74692777Y-97684339D01*
X74371389Y-97512553D01*
X74022662Y-97406768D01*
X73660000Y-97371049D01*
X73297337Y-97406768D01*
X72948610Y-97512553D01*
X72627222Y-97684339D01*
X72390000Y-97879022D01*
X72152777Y-97684339D01*
X71831389Y-97512553D01*
X71482662Y-97406768D01*
X71120000Y-97371049D01*
X70757337Y-97406768D01*
X70408610Y-97512553D01*
X70087222Y-97684339D01*
X69850000Y-97879022D01*
X69612777Y-97684339D01*
X69291389Y-97512553D01*
X69272439Y-97506804D01*
X69693143Y-97332543D01*
X70078038Y-97075364D01*
X70405364Y-96748038D01*
X70662543Y-96363143D01*
X70839691Y-95935470D01*
X70930000Y-95481455D01*
X70930000Y-95018545D01*
X70839691Y-94564530D01*
X70662543Y-94136857D01*
X70405364Y-93751962D01*
X70078038Y-93424636D01*
X69693143Y-93167457D01*
X69265470Y-92990309D01*
X68811455Y-92900000D01*
X68348545Y-92900000D01*
X67894530Y-92990309D01*
X67466857Y-93167457D01*
X67081962Y-93424636D01*
X66754636Y-93751962D01*
X66497457Y-94136857D01*
X66320309Y-94564530D01*
X66230000Y-95018545D01*
X66230000Y-95481455D01*
X66320309Y-95935470D01*
X66497457Y-96363143D01*
X66754636Y-96748038D01*
X67081962Y-97075364D01*
X67466857Y-97332543D01*
X67887561Y-97506804D01*
X67868610Y-97512553D01*
X67547222Y-97684339D01*
X67310000Y-97879022D01*
X67072777Y-97684339D01*
X66751389Y-97512553D01*
X66402662Y-97406768D01*
X66040000Y-97371049D01*
X65677337Y-97406768D01*
X65328610Y-97512553D01*
X65007222Y-97684339D01*
X64770000Y-97879022D01*
X64532777Y-97684339D01*
X64211389Y-97512553D01*
X63862662Y-97406768D01*
X63500000Y-97371049D01*
X63137337Y-97406768D01*
X62788610Y-97512553D01*
X62467222Y-97684339D01*
X62230000Y-97879022D01*
X61992777Y-97684339D01*
X61671389Y-97512553D01*
X61322662Y-97406768D01*
X60960000Y-97371049D01*
X60597337Y-97406768D01*
X60248610Y-97512553D01*
X59927222Y-97684339D01*
X59645523Y-97915523D01*
X59492473Y-98102016D01*
X59448133Y-98054789D01*
X59199105Y-97876792D01*
X58920137Y-97750798D01*
X58765901Y-97710883D01*
X58524000Y-97840386D01*
X58524000Y-99726000D01*
X58544000Y-99726000D01*
X58544000Y-99934000D01*
X58524000Y-99934000D01*
X58524000Y-99954000D01*
X58316000Y-99954000D01*
X58316000Y-99934000D01*
X58296000Y-99934000D01*
X58296000Y-99726000D01*
X58316000Y-99726000D01*
X58316000Y-97840386D01*
X58074099Y-97710883D01*
X57919863Y-97750798D01*
X57640895Y-97876792D01*
X57391867Y-98054789D01*
X57347527Y-98102016D01*
X57194477Y-97915523D01*
X56912777Y-97684339D01*
X56591389Y-97512553D01*
X56242662Y-97406768D01*
X55880000Y-97371049D01*
X55517337Y-97406768D01*
X55168610Y-97512553D01*
X54847222Y-97684339D01*
X54610000Y-97879022D01*
X54372777Y-97684339D01*
X54051389Y-97512553D01*
X53702662Y-97406768D01*
X53340000Y-97371049D01*
X52977337Y-97406768D01*
X52628610Y-97512553D01*
X52307222Y-97684339D01*
X52070000Y-97879022D01*
X51832777Y-97684339D01*
X51511389Y-97512553D01*
X51162662Y-97406768D01*
X50800000Y-97371049D01*
X50437337Y-97406768D01*
X50088610Y-97512553D01*
X49767222Y-97684339D01*
X49485523Y-97915523D01*
X49254339Y-98197223D01*
X49082553Y-98518611D01*
X48976768Y-98867338D01*
X48950000Y-99139119D01*
X48950000Y-100520882D01*
X48976768Y-100792663D01*
X49082554Y-101141390D01*
X49254340Y-101462778D01*
X49314825Y-101536479D01*
X49209039Y-101449663D01*
X48913709Y-101291806D01*
X48593258Y-101194598D01*
X48343510Y-101170000D01*
X48343500Y-101170000D01*
X48260000Y-101161776D01*
X48176500Y-101170000D01*
X47409500Y-101170000D01*
X47308500Y-101069000D01*
X44919000Y-101069000D01*
X44919000Y-101089000D01*
X44711000Y-101089000D01*
X44711000Y-101069000D01*
X44691000Y-101069000D01*
X44691000Y-100861000D01*
X44711000Y-100861000D01*
X44711000Y-98919000D01*
X44919000Y-98919000D01*
X44919000Y-100861000D01*
X47308500Y-100861000D01*
X47473000Y-100696500D01*
X47476184Y-100215000D01*
X47463480Y-100086009D01*
X47425854Y-99961976D01*
X47387382Y-99890000D01*
X47425854Y-99818024D01*
X47463480Y-99693991D01*
X47476184Y-99565000D01*
X47473000Y-99083500D01*
X47308500Y-98919000D01*
X44919000Y-98919000D01*
X44711000Y-98919000D01*
X44691000Y-98919000D01*
X44691000Y-98711000D01*
X44711000Y-98711000D01*
X44711000Y-98691000D01*
X44919000Y-98691000D01*
X44919000Y-98711000D01*
X47308500Y-98711000D01*
X47473000Y-98546500D01*
X47476184Y-98065000D01*
X47463480Y-97936009D01*
X47461850Y-97930635D01*
X47545519Y-97828684D01*
X47668387Y-97598814D01*
X47744048Y-97349391D01*
X47769596Y-97090000D01*
X47769596Y-96340000D01*
X47744048Y-96080609D01*
X47668387Y-95831186D01*
X47579559Y-95665000D01*
X47668387Y-95498814D01*
X47744048Y-95249391D01*
X47769596Y-94990000D01*
X47769596Y-94240000D01*
X47744048Y-93980609D01*
X47668387Y-93731186D01*
X47545519Y-93501316D01*
X47380166Y-93299834D01*
X47178684Y-93134481D01*
X46948814Y-93011613D01*
X46699391Y-92935952D01*
X46440000Y-92910404D01*
X43190000Y-92910404D01*
X42975000Y-92931580D01*
X42975000Y-92850890D01*
X44546500Y-92848000D01*
X44711000Y-92683500D01*
X44711000Y-91544000D01*
X44919000Y-91544000D01*
X44919000Y-92683500D01*
X45083500Y-92848000D01*
X46815000Y-92851184D01*
X46943991Y-92838480D01*
X47068024Y-92800854D01*
X47182334Y-92739754D01*
X47282528Y-92657528D01*
X47364754Y-92557334D01*
X47425854Y-92443024D01*
X47463480Y-92318991D01*
X47476184Y-92190000D01*
X47473000Y-91708500D01*
X47308500Y-91544000D01*
X44919000Y-91544000D01*
X44711000Y-91544000D01*
X44691000Y-91544000D01*
X44691000Y-91336000D01*
X44711000Y-91336000D01*
X44711000Y-89394000D01*
X44919000Y-89394000D01*
X44919000Y-91336000D01*
X47308500Y-91336000D01*
X47473000Y-91171500D01*
X47476184Y-90690000D01*
X47463480Y-90561009D01*
X47425854Y-90436976D01*
X47387382Y-90365000D01*
X47425854Y-90293024D01*
X47463480Y-90168991D01*
X47476184Y-90040000D01*
X47473000Y-89558500D01*
X47308500Y-89394000D01*
X44919000Y-89394000D01*
X44711000Y-89394000D01*
X44691000Y-89394000D01*
X44691000Y-89186000D01*
X44711000Y-89186000D01*
X44711000Y-89166000D01*
X44919000Y-89166000D01*
X44919000Y-89186000D01*
X47308500Y-89186000D01*
X47473000Y-89021500D01*
X47476184Y-88540000D01*
X47463480Y-88411009D01*
X47461850Y-88405635D01*
X47545519Y-88303684D01*
X47668387Y-88073814D01*
X47744048Y-87824391D01*
X47769596Y-87565000D01*
X47769596Y-86815000D01*
X47766570Y-86784282D01*
X47958258Y-86765402D01*
X48278709Y-86668194D01*
X48574039Y-86510337D01*
X48768031Y-86351132D01*
X48768035Y-86351128D01*
X48832897Y-86297897D01*
X48886129Y-86233034D01*
X48950000Y-86169163D01*
X48950000Y-86280881D01*
X48976768Y-86552662D01*
X49082553Y-86901389D01*
X49254339Y-87222777D01*
X49485523Y-87504477D01*
X49767222Y-87735661D01*
X50088610Y-87907447D01*
X50437337Y-88013232D01*
X50800000Y-88048951D01*
X51162662Y-88013232D01*
X51511389Y-87907447D01*
X51832777Y-87735661D01*
X52114477Y-87504477D01*
X52267527Y-87317984D01*
X52311867Y-87365211D01*
X52560895Y-87543208D01*
X52839863Y-87669202D01*
X52994099Y-87709117D01*
X53236000Y-87579614D01*
X53236000Y-85694000D01*
X53216000Y-85694000D01*
X53216000Y-85486000D01*
X53236000Y-85486000D01*
X53236000Y-85466000D01*
X53444000Y-85466000D01*
X53444000Y-85486000D01*
G36*
X72120144Y-74572222D02*
G01*
X71948365Y-74813673D01*
X71826991Y-75083997D01*
X71790381Y-75226939D01*
X71920531Y-75461000D01*
X73556000Y-75461000D01*
X73556000Y-75441000D01*
X73764000Y-75441000D01*
X73764000Y-75461000D01*
X75399469Y-75461000D01*
X75529619Y-75226939D01*
X75493009Y-75083997D01*
X75371635Y-74813673D01*
X75199856Y-74572222D01*
X75096760Y-74475000D01*
X76668240Y-74475000D01*
X76565144Y-74572222D01*
X76393365Y-74813673D01*
X76271991Y-75083997D01*
X76235381Y-75226939D01*
X76365531Y-75461000D01*
X78001000Y-75461000D01*
X78001000Y-75441000D01*
X78209000Y-75441000D01*
X78209000Y-75461000D01*
X79844469Y-75461000D01*
X79974619Y-75226939D01*
X79938009Y-75083997D01*
X79816635Y-74813673D01*
X79644856Y-74572222D01*
X79541760Y-74475000D01*
X80275001Y-74475000D01*
X80275001Y-76760287D01*
X80221321Y-76755000D01*
X80221319Y-76755000D01*
X80155000Y-76748468D01*
X80088681Y-76755000D01*
X79697376Y-76755000D01*
X79557472Y-76640183D01*
X79644856Y-76557778D01*
X79816635Y-76316327D01*
X79938009Y-76046003D01*
X79974619Y-75903061D01*
X79844469Y-75669000D01*
X78209000Y-75669000D01*
X78209000Y-75689000D01*
X78001000Y-75689000D01*
X78001000Y-75669000D01*
X76365531Y-75669000D01*
X76235381Y-75903061D01*
X76271991Y-76046003D01*
X76393365Y-76316327D01*
X76565144Y-76557778D01*
X76652528Y-76640183D01*
X76426050Y-76826050D01*
X76201113Y-77100135D01*
X76033971Y-77412837D01*
X75931045Y-77752138D01*
X75896291Y-78105000D01*
X75931045Y-78457862D01*
X76033971Y-78797163D01*
X76201113Y-79109865D01*
X76418705Y-79375000D01*
X76201113Y-79640135D01*
X76033971Y-79952837D01*
X75931045Y-80292138D01*
X75896291Y-80645000D01*
X75931045Y-80997862D01*
X75962028Y-81100000D01*
X75802972Y-81100000D01*
X75833955Y-80997862D01*
X75868709Y-80645000D01*
X75833955Y-80292138D01*
X75731029Y-79952837D01*
X75563887Y-79640135D01*
X75346295Y-79375000D01*
X75563887Y-79109865D01*
X75731029Y-78797163D01*
X75833955Y-78457862D01*
X75868709Y-78105000D01*
X75833955Y-77752138D01*
X75731029Y-77412837D01*
X75563887Y-77100135D01*
X75338950Y-76826050D01*
X75112472Y-76640183D01*
X75199856Y-76557778D01*
X75371635Y-76316327D01*
X75493009Y-76046003D01*
X75529619Y-75903061D01*
X75399469Y-75669000D01*
X73764000Y-75669000D01*
X73764000Y-75689000D01*
X73556000Y-75689000D01*
X73556000Y-75669000D01*
X71920531Y-75669000D01*
X71790381Y-75903061D01*
X71826991Y-76046003D01*
X71948365Y-76316327D01*
X72120144Y-76557778D01*
X72207528Y-76640183D01*
X71981050Y-76826050D01*
X71756113Y-77100135D01*
X71588971Y-77412837D01*
X71486045Y-77752138D01*
X71451291Y-78105000D01*
X71486045Y-78457862D01*
X71588971Y-78797163D01*
X71756113Y-79109865D01*
X71973705Y-79375000D01*
X71756113Y-79640135D01*
X71588971Y-79952837D01*
X71486045Y-80292138D01*
X71451291Y-80645000D01*
X71486045Y-80997862D01*
X71517028Y-81100000D01*
X71085610Y-81100000D01*
X70100115Y-80114505D01*
X70251029Y-79832163D01*
X70353955Y-79492862D01*
X70380000Y-79228424D01*
X70380000Y-78251577D01*
X70353955Y-77987138D01*
X70251029Y-77647837D01*
X70083887Y-77335135D01*
X69858950Y-77061050D01*
X69584865Y-76836113D01*
X69272163Y-76668971D01*
X68932862Y-76566045D01*
X68580000Y-76531291D01*
X68227139Y-76566045D01*
X67887838Y-76668971D01*
X67575136Y-76836113D01*
X67310001Y-77053705D01*
X67044865Y-76836113D01*
X66732163Y-76668971D01*
X66392862Y-76566045D01*
X66040000Y-76531291D01*
X65687139Y-76566045D01*
X65347838Y-76668971D01*
X65035136Y-76836113D01*
X64770001Y-77053705D01*
X64504865Y-76836113D01*
X64192163Y-76668971D01*
X63852862Y-76566045D01*
X63500000Y-76531291D01*
X63147139Y-76566045D01*
X62807838Y-76668971D01*
X62495136Y-76836113D01*
X62230001Y-77053705D01*
X61964865Y-76836113D01*
X61652163Y-76668971D01*
X61312862Y-76566045D01*
X60960000Y-76531291D01*
X60607139Y-76566045D01*
X60267838Y-76668971D01*
X59955136Y-76836113D01*
X59690001Y-77053705D01*
X59424865Y-76836113D01*
X59112163Y-76668971D01*
X58772862Y-76566045D01*
X58420000Y-76531291D01*
X58067139Y-76566045D01*
X57727838Y-76668971D01*
X57415136Y-76836113D01*
X57141051Y-77061050D01*
X56955183Y-77287528D01*
X56872778Y-77200144D01*
X56631327Y-77028365D01*
X56361003Y-76906991D01*
X56218061Y-76870381D01*
X55984000Y-77000531D01*
X55984000Y-78636000D01*
X56004000Y-78636000D01*
X56004000Y-78844000D01*
X55984000Y-78844000D01*
X55984000Y-80479469D01*
X56218061Y-80609619D01*
X56361003Y-80573009D01*
X56631327Y-80451635D01*
X56872778Y-80279856D01*
X56955183Y-80192471D01*
X57141050Y-80418950D01*
X57415135Y-80643887D01*
X57727837Y-80811029D01*
X57850445Y-80848222D01*
X57785000Y-80841776D01*
X57701500Y-80850000D01*
X48978502Y-80850000D01*
X48895000Y-80841776D01*
X48811498Y-80850000D01*
X48811490Y-80850000D01*
X48561742Y-80874598D01*
X48241291Y-80971806D01*
X47945961Y-81129663D01*
X47687103Y-81342103D01*
X47633868Y-81406970D01*
X47473524Y-81567314D01*
X47476184Y-81165000D01*
X47463480Y-81036009D01*
X47425854Y-80911976D01*
X47387382Y-80840000D01*
X47425854Y-80768024D01*
X47463480Y-80643991D01*
X47476184Y-80515000D01*
X47473000Y-80033500D01*
X47308500Y-79869000D01*
X44919000Y-79869000D01*
X44919000Y-81811000D01*
X44939000Y-81811000D01*
X44939000Y-82019000D01*
X44919000Y-82019000D01*
X44919000Y-83158500D01*
X45083500Y-83323000D01*
X46560000Y-83325715D01*
X46560000Y-83390000D01*
X46486664Y-83390000D01*
X46440000Y-83385404D01*
X43190000Y-83385404D01*
X43143336Y-83390000D01*
X42625000Y-83390000D01*
X42625000Y-83294973D01*
X42686009Y-83313480D01*
X42815000Y-83326184D01*
X44546500Y-83323000D01*
X44711000Y-83158500D01*
X44711000Y-82019000D01*
X44691000Y-82019000D01*
X44691000Y-81811000D01*
X44711000Y-81811000D01*
X44711000Y-79869000D01*
X44691000Y-79869000D01*
X44691000Y-79661000D01*
X44711000Y-79661000D01*
X44711000Y-79641000D01*
X44919000Y-79641000D01*
X44919000Y-79661000D01*
X47308500Y-79661000D01*
X47473000Y-79496500D01*
X47476184Y-79015000D01*
X47463480Y-78886009D01*
X47461850Y-78880635D01*
X47491915Y-78844000D01*
X54372000Y-78844000D01*
X54372000Y-79244000D01*
X54421265Y-79536198D01*
X54526589Y-79813170D01*
X54683923Y-80064273D01*
X54887222Y-80279856D01*
X55128673Y-80451635D01*
X55398997Y-80573009D01*
X55541939Y-80609619D01*
X55776000Y-80479469D01*
X55776000Y-78844000D01*
X54372000Y-78844000D01*
X47491915Y-78844000D01*
X47545519Y-78778684D01*
X47668387Y-78548814D01*
X47744048Y-78299391D01*
X47750291Y-78236000D01*
X54372000Y-78236000D01*
X54372000Y-78636000D01*
X55776000Y-78636000D01*
X55776000Y-77000531D01*
X55541939Y-76870381D01*
X55398997Y-76906991D01*
X55128673Y-77028365D01*
X54887222Y-77200144D01*
X54683923Y-77415727D01*
X54526589Y-77666830D01*
X54421265Y-77943802D01*
X54372000Y-78236000D01*
X47750291Y-78236000D01*
X47769596Y-78040000D01*
X47769596Y-77290000D01*
X47744048Y-77030609D01*
X47668387Y-76781186D01*
X47579559Y-76615000D01*
X47668387Y-76448814D01*
X47744048Y-76199391D01*
X47769596Y-75940000D01*
X47769596Y-75190000D01*
X47744048Y-74930609D01*
X47668387Y-74681186D01*
X47558178Y-74475000D01*
X72223240Y-74475000D01*
X72120144Y-74572222D01*
G37*
X72120144Y-74572222D02*
X71948365Y-74813673D01*
X71826991Y-75083997D01*
X71790381Y-75226939D01*
X71920531Y-75461000D01*
X73556000Y-75461000D01*
X73556000Y-75441000D01*
X73764000Y-75441000D01*
X73764000Y-75461000D01*
X75399469Y-75461000D01*
X75529619Y-75226939D01*
X75493009Y-75083997D01*
X75371635Y-74813673D01*
X75199856Y-74572222D01*
X75096760Y-74475000D01*
X76668240Y-74475000D01*
X76565144Y-74572222D01*
X76393365Y-74813673D01*
X76271991Y-75083997D01*
X76235381Y-75226939D01*
X76365531Y-75461000D01*
X78001000Y-75461000D01*
X78001000Y-75441000D01*
X78209000Y-75441000D01*
X78209000Y-75461000D01*
X79844469Y-75461000D01*
X79974619Y-75226939D01*
X79938009Y-75083997D01*
X79816635Y-74813673D01*
X79644856Y-74572222D01*
X79541760Y-74475000D01*
X80275001Y-74475000D01*
X80275001Y-76760287D01*
X80221321Y-76755000D01*
X80221319Y-76755000D01*
X80155000Y-76748468D01*
X80088681Y-76755000D01*
X79697376Y-76755000D01*
X79557472Y-76640183D01*
X79644856Y-76557778D01*
X79816635Y-76316327D01*
X79938009Y-76046003D01*
X79974619Y-75903061D01*
X79844469Y-75669000D01*
X78209000Y-75669000D01*
X78209000Y-75689000D01*
X78001000Y-75689000D01*
X78001000Y-75669000D01*
X76365531Y-75669000D01*
X76235381Y-75903061D01*
X76271991Y-76046003D01*
X76393365Y-76316327D01*
X76565144Y-76557778D01*
X76652528Y-76640183D01*
X76426050Y-76826050D01*
X76201113Y-77100135D01*
X76033971Y-77412837D01*
X75931045Y-77752138D01*
X75896291Y-78105000D01*
X75931045Y-78457862D01*
X76033971Y-78797163D01*
X76201113Y-79109865D01*
X76418705Y-79375000D01*
X76201113Y-79640135D01*
X76033971Y-79952837D01*
X75931045Y-80292138D01*
X75896291Y-80645000D01*
X75931045Y-80997862D01*
X75962028Y-81100000D01*
X75802972Y-81100000D01*
X75833955Y-80997862D01*
X75868709Y-80645000D01*
X75833955Y-80292138D01*
X75731029Y-79952837D01*
X75563887Y-79640135D01*
X75346295Y-79375000D01*
X75563887Y-79109865D01*
X75731029Y-78797163D01*
X75833955Y-78457862D01*
X75868709Y-78105000D01*
X75833955Y-77752138D01*
X75731029Y-77412837D01*
X75563887Y-77100135D01*
X75338950Y-76826050D01*
X75112472Y-76640183D01*
X75199856Y-76557778D01*
X75371635Y-76316327D01*
X75493009Y-76046003D01*
X75529619Y-75903061D01*
X75399469Y-75669000D01*
X73764000Y-75669000D01*
X73764000Y-75689000D01*
X73556000Y-75689000D01*
X73556000Y-75669000D01*
X71920531Y-75669000D01*
X71790381Y-75903061D01*
X71826991Y-76046003D01*
X71948365Y-76316327D01*
X72120144Y-76557778D01*
X72207528Y-76640183D01*
X71981050Y-76826050D01*
X71756113Y-77100135D01*
X71588971Y-77412837D01*
X71486045Y-77752138D01*
X71451291Y-78105000D01*
X71486045Y-78457862D01*
X71588971Y-78797163D01*
X71756113Y-79109865D01*
X71973705Y-79375000D01*
X71756113Y-79640135D01*
X71588971Y-79952837D01*
X71486045Y-80292138D01*
X71451291Y-80645000D01*
X71486045Y-80997862D01*
X71517028Y-81100000D01*
X71085610Y-81100000D01*
X70100115Y-80114505D01*
X70251029Y-79832163D01*
X70353955Y-79492862D01*
X70380000Y-79228424D01*
X70380000Y-78251577D01*
X70353955Y-77987138D01*
X70251029Y-77647837D01*
X70083887Y-77335135D01*
X69858950Y-77061050D01*
X69584865Y-76836113D01*
X69272163Y-76668971D01*
X68932862Y-76566045D01*
X68580000Y-76531291D01*
X68227139Y-76566045D01*
X67887838Y-76668971D01*
X67575136Y-76836113D01*
X67310001Y-77053705D01*
X67044865Y-76836113D01*
X66732163Y-76668971D01*
X66392862Y-76566045D01*
X66040000Y-76531291D01*
X65687139Y-76566045D01*
X65347838Y-76668971D01*
X65035136Y-76836113D01*
X64770001Y-77053705D01*
X64504865Y-76836113D01*
X64192163Y-76668971D01*
X63852862Y-76566045D01*
X63500000Y-76531291D01*
X63147139Y-76566045D01*
X62807838Y-76668971D01*
X62495136Y-76836113D01*
X62230001Y-77053705D01*
X61964865Y-76836113D01*
X61652163Y-76668971D01*
X61312862Y-76566045D01*
X60960000Y-76531291D01*
X60607139Y-76566045D01*
X60267838Y-76668971D01*
X59955136Y-76836113D01*
X59690001Y-77053705D01*
X59424865Y-76836113D01*
X59112163Y-76668971D01*
X58772862Y-76566045D01*
X58420000Y-76531291D01*
X58067139Y-76566045D01*
X57727838Y-76668971D01*
X57415136Y-76836113D01*
X57141051Y-77061050D01*
X56955183Y-77287528D01*
X56872778Y-77200144D01*
X56631327Y-77028365D01*
X56361003Y-76906991D01*
X56218061Y-76870381D01*
X55984000Y-77000531D01*
X55984000Y-78636000D01*
X56004000Y-78636000D01*
X56004000Y-78844000D01*
X55984000Y-78844000D01*
X55984000Y-80479469D01*
X56218061Y-80609619D01*
X56361003Y-80573009D01*
X56631327Y-80451635D01*
X56872778Y-80279856D01*
X56955183Y-80192471D01*
X57141050Y-80418950D01*
X57415135Y-80643887D01*
X57727837Y-80811029D01*
X57850445Y-80848222D01*
X57785000Y-80841776D01*
X57701500Y-80850000D01*
X48978502Y-80850000D01*
X48895000Y-80841776D01*
X48811498Y-80850000D01*
X48811490Y-80850000D01*
X48561742Y-80874598D01*
X48241291Y-80971806D01*
X47945961Y-81129663D01*
X47687103Y-81342103D01*
X47633868Y-81406970D01*
X47473524Y-81567314D01*
X47476184Y-81165000D01*
X47463480Y-81036009D01*
X47425854Y-80911976D01*
X47387382Y-80840000D01*
X47425854Y-80768024D01*
X47463480Y-80643991D01*
X47476184Y-80515000D01*
X47473000Y-80033500D01*
X47308500Y-79869000D01*
X44919000Y-79869000D01*
X44919000Y-81811000D01*
X44939000Y-81811000D01*
X44939000Y-82019000D01*
X44919000Y-82019000D01*
X44919000Y-83158500D01*
X45083500Y-83323000D01*
X46560000Y-83325715D01*
X46560000Y-83390000D01*
X46486664Y-83390000D01*
X46440000Y-83385404D01*
X43190000Y-83385404D01*
X43143336Y-83390000D01*
X42625000Y-83390000D01*
X42625000Y-83294973D01*
X42686009Y-83313480D01*
X42815000Y-83326184D01*
X44546500Y-83323000D01*
X44711000Y-83158500D01*
X44711000Y-82019000D01*
X44691000Y-82019000D01*
X44691000Y-81811000D01*
X44711000Y-81811000D01*
X44711000Y-79869000D01*
X44691000Y-79869000D01*
X44691000Y-79661000D01*
X44711000Y-79661000D01*
X44711000Y-79641000D01*
X44919000Y-79641000D01*
X44919000Y-79661000D01*
X47308500Y-79661000D01*
X47473000Y-79496500D01*
X47476184Y-79015000D01*
X47463480Y-78886009D01*
X47461850Y-78880635D01*
X47491915Y-78844000D01*
X54372000Y-78844000D01*
X54372000Y-79244000D01*
X54421265Y-79536198D01*
X54526589Y-79813170D01*
X54683923Y-80064273D01*
X54887222Y-80279856D01*
X55128673Y-80451635D01*
X55398997Y-80573009D01*
X55541939Y-80609619D01*
X55776000Y-80479469D01*
X55776000Y-78844000D01*
X54372000Y-78844000D01*
X47491915Y-78844000D01*
X47545519Y-78778684D01*
X47668387Y-78548814D01*
X47744048Y-78299391D01*
X47750291Y-78236000D01*
X54372000Y-78236000D01*
X54372000Y-78636000D01*
X55776000Y-78636000D01*
X55776000Y-77000531D01*
X55541939Y-76870381D01*
X55398997Y-76906991D01*
X55128673Y-77028365D01*
X54887222Y-77200144D01*
X54683923Y-77415727D01*
X54526589Y-77666830D01*
X54421265Y-77943802D01*
X54372000Y-78236000D01*
X47750291Y-78236000D01*
X47769596Y-78040000D01*
X47769596Y-77290000D01*
X47744048Y-77030609D01*
X47668387Y-76781186D01*
X47579559Y-76615000D01*
X47668387Y-76448814D01*
X47744048Y-76199391D01*
X47769596Y-75940000D01*
X47769596Y-75190000D01*
X47744048Y-74930609D01*
X47668387Y-74681186D01*
X47558178Y-74475000D01*
X72223240Y-74475000D01*
X72120144Y-74572222D01*
M02*
