G04 #@! TF.GenerationSoftware,KiCad,Pcbnew,5.1.5+dfsg1-2build2*
G04 #@! TF.CreationDate,2022-10-30T21:07:11+01:00*
G04 #@! TF.ProjectId,basicHiveSensor,62617369-6348-4697-9665-53656e736f72,rev?*
G04 #@! TF.SameCoordinates,Original*
G04 #@! TF.FileFunction,Legend,Top*
G04 #@! TF.FilePolarity,Positive*
%FSLAX46Y46*%
G04 Gerber Fmt 4.6, Leading zero omitted, Abs format (unit mm)*
G04 Created by KiCad (PCBNEW 5.1.5+dfsg1-2build2) date 2022-10-30 21:07:11*
%MOMM*%
%LPD*%
G04 APERTURE LIST*
%ADD10C,0.150000*%
%ADD11C,0.100000*%
%ADD12C,0.120000*%
%ADD13C,0.010000*%
G04 APERTURE END LIST*
D10*
X74699761Y-145200238D02*
X74747380Y-145057380D01*
X74747380Y-144819285D01*
X74699761Y-144724047D01*
X74652142Y-144676428D01*
X74556904Y-144628809D01*
X74461666Y-144628809D01*
X74366428Y-144676428D01*
X74318809Y-144724047D01*
X74271190Y-144819285D01*
X74223571Y-145009761D01*
X74175952Y-145105000D01*
X74128333Y-145152619D01*
X74033095Y-145200238D01*
X73937857Y-145200238D01*
X73842619Y-145152619D01*
X73795000Y-145105000D01*
X73747380Y-145009761D01*
X73747380Y-144771666D01*
X73795000Y-144628809D01*
X74699761Y-143819285D02*
X74747380Y-143914523D01*
X74747380Y-144105000D01*
X74699761Y-144200238D01*
X74604523Y-144247857D01*
X74223571Y-144247857D01*
X74128333Y-144200238D01*
X74080714Y-144105000D01*
X74080714Y-143914523D01*
X74128333Y-143819285D01*
X74223571Y-143771666D01*
X74318809Y-143771666D01*
X74414047Y-144247857D01*
X74080714Y-143343095D02*
X74747380Y-143343095D01*
X74175952Y-143343095D02*
X74128333Y-143295476D01*
X74080714Y-143200238D01*
X74080714Y-143057380D01*
X74128333Y-142962142D01*
X74223571Y-142914523D01*
X74747380Y-142914523D01*
X74699761Y-142485952D02*
X74747380Y-142390714D01*
X74747380Y-142200238D01*
X74699761Y-142105000D01*
X74604523Y-142057380D01*
X74556904Y-142057380D01*
X74461666Y-142105000D01*
X74414047Y-142200238D01*
X74414047Y-142343095D01*
X74366428Y-142438333D01*
X74271190Y-142485952D01*
X74223571Y-142485952D01*
X74128333Y-142438333D01*
X74080714Y-142343095D01*
X74080714Y-142200238D01*
X74128333Y-142105000D01*
X74461666Y-140914523D02*
X74461666Y-140438333D01*
X74747380Y-141009761D02*
X73747380Y-140676428D01*
X74747380Y-140343095D01*
X74747380Y-139581190D02*
X73747380Y-139581190D01*
X74699761Y-139581190D02*
X74747380Y-139676428D01*
X74747380Y-139866904D01*
X74699761Y-139962142D01*
X74652142Y-140009761D01*
X74556904Y-140057380D01*
X74271190Y-140057380D01*
X74175952Y-140009761D01*
X74128333Y-139962142D01*
X74080714Y-139866904D01*
X74080714Y-139676428D01*
X74128333Y-139581190D01*
X74747380Y-138676428D02*
X73747380Y-138676428D01*
X74699761Y-138676428D02*
X74747380Y-138771666D01*
X74747380Y-138962142D01*
X74699761Y-139057380D01*
X74652142Y-139105000D01*
X74556904Y-139152619D01*
X74271190Y-139152619D01*
X74175952Y-139105000D01*
X74128333Y-139057380D01*
X74080714Y-138962142D01*
X74080714Y-138771666D01*
X74128333Y-138676428D01*
X74747380Y-138200238D02*
X74080714Y-138200238D01*
X74271190Y-138200238D02*
X74175952Y-138152619D01*
X74128333Y-138105000D01*
X74080714Y-138009761D01*
X74080714Y-137914523D01*
D11*
G36*
X53340000Y-78105000D02*
G01*
X47625000Y-78105000D01*
X47625000Y-74295000D01*
X53340000Y-74295000D01*
X53340000Y-78105000D01*
G37*
X53340000Y-78105000D02*
X47625000Y-78105000D01*
X47625000Y-74295000D01*
X53340000Y-74295000D01*
X53340000Y-78105000D01*
D10*
X47912976Y-80224761D02*
X48055833Y-80272380D01*
X48293928Y-80272380D01*
X48389166Y-80224761D01*
X48436785Y-80177142D01*
X48484404Y-80081904D01*
X48484404Y-79986666D01*
X48436785Y-79891428D01*
X48389166Y-79843809D01*
X48293928Y-79796190D01*
X48103452Y-79748571D01*
X48008214Y-79700952D01*
X47960595Y-79653333D01*
X47912976Y-79558095D01*
X47912976Y-79462857D01*
X47960595Y-79367619D01*
X48008214Y-79320000D01*
X48103452Y-79272380D01*
X48341547Y-79272380D01*
X48484404Y-79320000D01*
X48912976Y-80272380D02*
X48912976Y-79605714D01*
X48912976Y-79272380D02*
X48865357Y-79320000D01*
X48912976Y-79367619D01*
X48960595Y-79320000D01*
X48912976Y-79272380D01*
X48912976Y-79367619D01*
X49389166Y-80272380D02*
X49389166Y-79605714D01*
X49389166Y-79700952D02*
X49436785Y-79653333D01*
X49532023Y-79605714D01*
X49674880Y-79605714D01*
X49770119Y-79653333D01*
X49817738Y-79748571D01*
X49817738Y-80272380D01*
X49817738Y-79748571D02*
X49865357Y-79653333D01*
X49960595Y-79605714D01*
X50103452Y-79605714D01*
X50198690Y-79653333D01*
X50246309Y-79748571D01*
X50246309Y-80272380D01*
X50722500Y-79605714D02*
X50722500Y-80605714D01*
X50722500Y-79653333D02*
X50817738Y-79605714D01*
X51008214Y-79605714D01*
X51103452Y-79653333D01*
X51151071Y-79700952D01*
X51198690Y-79796190D01*
X51198690Y-80081904D01*
X51151071Y-80177142D01*
X51103452Y-80224761D01*
X51008214Y-80272380D01*
X50817738Y-80272380D01*
X50722500Y-80224761D01*
X51770119Y-80272380D02*
X51674880Y-80224761D01*
X51627261Y-80129523D01*
X51627261Y-79272380D01*
X52532023Y-80224761D02*
X52436785Y-80272380D01*
X52246309Y-80272380D01*
X52151071Y-80224761D01*
X52103452Y-80129523D01*
X52103452Y-79748571D01*
X52151071Y-79653333D01*
X52246309Y-79605714D01*
X52436785Y-79605714D01*
X52532023Y-79653333D01*
X52579642Y-79748571D01*
X52579642Y-79843809D01*
X52103452Y-79939047D01*
X47960595Y-81922380D02*
X47960595Y-80922380D01*
X47960595Y-81398571D02*
X48532023Y-81398571D01*
X48532023Y-81922380D02*
X48532023Y-80922380D01*
X49008214Y-81922380D02*
X49008214Y-81255714D01*
X49008214Y-80922380D02*
X48960595Y-80970000D01*
X49008214Y-81017619D01*
X49055833Y-80970000D01*
X49008214Y-80922380D01*
X49008214Y-81017619D01*
X49389166Y-81255714D02*
X49627261Y-81922380D01*
X49865357Y-81255714D01*
X50627261Y-81874761D02*
X50532023Y-81922380D01*
X50341547Y-81922380D01*
X50246309Y-81874761D01*
X50198690Y-81779523D01*
X50198690Y-81398571D01*
X50246309Y-81303333D01*
X50341547Y-81255714D01*
X50532023Y-81255714D01*
X50627261Y-81303333D01*
X50674880Y-81398571D01*
X50674880Y-81493809D01*
X50198690Y-81589047D01*
X51817738Y-81874761D02*
X51960595Y-81922380D01*
X52198690Y-81922380D01*
X52293928Y-81874761D01*
X52341547Y-81827142D01*
X52389166Y-81731904D01*
X52389166Y-81636666D01*
X52341547Y-81541428D01*
X52293928Y-81493809D01*
X52198690Y-81446190D01*
X52008214Y-81398571D01*
X51912976Y-81350952D01*
X51865357Y-81303333D01*
X51817738Y-81208095D01*
X51817738Y-81112857D01*
X51865357Y-81017619D01*
X51912976Y-80970000D01*
X52008214Y-80922380D01*
X52246309Y-80922380D01*
X52389166Y-80970000D01*
X53198690Y-81874761D02*
X53103452Y-81922380D01*
X52912976Y-81922380D01*
X52817738Y-81874761D01*
X52770119Y-81779523D01*
X52770119Y-81398571D01*
X52817738Y-81303333D01*
X52912976Y-81255714D01*
X53103452Y-81255714D01*
X53198690Y-81303333D01*
X53246309Y-81398571D01*
X53246309Y-81493809D01*
X52770119Y-81589047D01*
X53674880Y-81255714D02*
X53674880Y-81922380D01*
X53674880Y-81350952D02*
X53722500Y-81303333D01*
X53817738Y-81255714D01*
X53960595Y-81255714D01*
X54055833Y-81303333D01*
X54103452Y-81398571D01*
X54103452Y-81922380D01*
X54532023Y-81874761D02*
X54627261Y-81922380D01*
X54817738Y-81922380D01*
X54912976Y-81874761D01*
X54960595Y-81779523D01*
X54960595Y-81731904D01*
X54912976Y-81636666D01*
X54817738Y-81589047D01*
X54674880Y-81589047D01*
X54579642Y-81541428D01*
X54532023Y-81446190D01*
X54532023Y-81398571D01*
X54579642Y-81303333D01*
X54674880Y-81255714D01*
X54817738Y-81255714D01*
X54912976Y-81303333D01*
X55532023Y-81922380D02*
X55436785Y-81874761D01*
X55389166Y-81827142D01*
X55341547Y-81731904D01*
X55341547Y-81446190D01*
X55389166Y-81350952D01*
X55436785Y-81303333D01*
X55532023Y-81255714D01*
X55674880Y-81255714D01*
X55770119Y-81303333D01*
X55817738Y-81350952D01*
X55865357Y-81446190D01*
X55865357Y-81731904D01*
X55817738Y-81827142D01*
X55770119Y-81874761D01*
X55674880Y-81922380D01*
X55532023Y-81922380D01*
X56293928Y-81922380D02*
X56293928Y-81255714D01*
X56293928Y-81446190D02*
X56341547Y-81350952D01*
X56389166Y-81303333D01*
X56484404Y-81255714D01*
X56579642Y-81255714D01*
X58008214Y-81398571D02*
X58151071Y-81446190D01*
X58198690Y-81493809D01*
X58246309Y-81589047D01*
X58246309Y-81731904D01*
X58198690Y-81827142D01*
X58151071Y-81874761D01*
X58055833Y-81922380D01*
X57674880Y-81922380D01*
X57674880Y-80922380D01*
X58008214Y-80922380D01*
X58103452Y-80970000D01*
X58151071Y-81017619D01*
X58198690Y-81112857D01*
X58198690Y-81208095D01*
X58151071Y-81303333D01*
X58103452Y-81350952D01*
X58008214Y-81398571D01*
X57674880Y-81398571D01*
X58817738Y-81922380D02*
X58722500Y-81874761D01*
X58674880Y-81827142D01*
X58627261Y-81731904D01*
X58627261Y-81446190D01*
X58674880Y-81350952D01*
X58722500Y-81303333D01*
X58817738Y-81255714D01*
X58960595Y-81255714D01*
X59055833Y-81303333D01*
X59103452Y-81350952D01*
X59151071Y-81446190D01*
X59151071Y-81731904D01*
X59103452Y-81827142D01*
X59055833Y-81874761D01*
X58960595Y-81922380D01*
X58817738Y-81922380D01*
X60008214Y-81922380D02*
X60008214Y-81398571D01*
X59960595Y-81303333D01*
X59865357Y-81255714D01*
X59674880Y-81255714D01*
X59579642Y-81303333D01*
X60008214Y-81874761D02*
X59912976Y-81922380D01*
X59674880Y-81922380D01*
X59579642Y-81874761D01*
X59532023Y-81779523D01*
X59532023Y-81684285D01*
X59579642Y-81589047D01*
X59674880Y-81541428D01*
X59912976Y-81541428D01*
X60008214Y-81493809D01*
X60484404Y-81922380D02*
X60484404Y-81255714D01*
X60484404Y-81446190D02*
X60532023Y-81350952D01*
X60579642Y-81303333D01*
X60674880Y-81255714D01*
X60770119Y-81255714D01*
X61532023Y-81922380D02*
X61532023Y-80922380D01*
X61532023Y-81874761D02*
X61436785Y-81922380D01*
X61246309Y-81922380D01*
X61151071Y-81874761D01*
X61103452Y-81827142D01*
X61055833Y-81731904D01*
X61055833Y-81446190D01*
X61103452Y-81350952D01*
X61151071Y-81303333D01*
X61246309Y-81255714D01*
X61436785Y-81255714D01*
X61532023Y-81303333D01*
X62627261Y-80922380D02*
X62960595Y-81922380D01*
X63293928Y-80922380D01*
X63817738Y-80922380D02*
X63912976Y-80922380D01*
X64008214Y-80970000D01*
X64055833Y-81017619D01*
X64103452Y-81112857D01*
X64151071Y-81303333D01*
X64151071Y-81541428D01*
X64103452Y-81731904D01*
X64055833Y-81827142D01*
X64008214Y-81874761D01*
X63912976Y-81922380D01*
X63817738Y-81922380D01*
X63722500Y-81874761D01*
X63674880Y-81827142D01*
X63627261Y-81731904D01*
X63579642Y-81541428D01*
X63579642Y-81303333D01*
X63627261Y-81112857D01*
X63674880Y-81017619D01*
X63722500Y-80970000D01*
X63817738Y-80922380D01*
X64579642Y-81827142D02*
X64627261Y-81874761D01*
X64579642Y-81922380D01*
X64532023Y-81874761D01*
X64579642Y-81827142D01*
X64579642Y-81922380D01*
X65103452Y-81922380D02*
X65293928Y-81922380D01*
X65389166Y-81874761D01*
X65436785Y-81827142D01*
X65532023Y-81684285D01*
X65579642Y-81493809D01*
X65579642Y-81112857D01*
X65532023Y-81017619D01*
X65484404Y-80970000D01*
X65389166Y-80922380D01*
X65198690Y-80922380D01*
X65103452Y-80970000D01*
X65055833Y-81017619D01*
X65008214Y-81112857D01*
X65008214Y-81350952D01*
X65055833Y-81446190D01*
X65103452Y-81493809D01*
X65198690Y-81541428D01*
X65389166Y-81541428D01*
X65484404Y-81493809D01*
X65532023Y-81446190D01*
X65579642Y-81350952D01*
X66722500Y-81017619D02*
X66770119Y-80970000D01*
X66865357Y-80922380D01*
X67103452Y-80922380D01*
X67198690Y-80970000D01*
X67246309Y-81017619D01*
X67293928Y-81112857D01*
X67293928Y-81208095D01*
X67246309Y-81350952D01*
X66674880Y-81922380D01*
X67293928Y-81922380D01*
X67912976Y-80922380D02*
X68008214Y-80922380D01*
X68103452Y-80970000D01*
X68151071Y-81017619D01*
X68198690Y-81112857D01*
X68246309Y-81303333D01*
X68246309Y-81541428D01*
X68198690Y-81731904D01*
X68151071Y-81827142D01*
X68103452Y-81874761D01*
X68008214Y-81922380D01*
X67912976Y-81922380D01*
X67817738Y-81874761D01*
X67770119Y-81827142D01*
X67722500Y-81731904D01*
X67674880Y-81541428D01*
X67674880Y-81303333D01*
X67722500Y-81112857D01*
X67770119Y-81017619D01*
X67817738Y-80970000D01*
X67912976Y-80922380D01*
X68627261Y-81017619D02*
X68674880Y-80970000D01*
X68770119Y-80922380D01*
X69008214Y-80922380D01*
X69103452Y-80970000D01*
X69151071Y-81017619D01*
X69198690Y-81112857D01*
X69198690Y-81208095D01*
X69151071Y-81350952D01*
X68579642Y-81922380D01*
X69198690Y-81922380D01*
X69579642Y-81017619D02*
X69627261Y-80970000D01*
X69722500Y-80922380D01*
X69960595Y-80922380D01*
X70055833Y-80970000D01*
X70103452Y-81017619D01*
X70151071Y-81112857D01*
X70151071Y-81208095D01*
X70103452Y-81350952D01*
X69532023Y-81922380D01*
X70151071Y-81922380D01*
D12*
X75565000Y-146050000D02*
X75565000Y-137795000D01*
X80010000Y-146050000D02*
X75565000Y-146050000D01*
X80010000Y-137795000D02*
X80010000Y-146050000D01*
X75565000Y-137795000D02*
X80010000Y-137795000D01*
D10*
X28202142Y-102052380D02*
X28202142Y-101052380D01*
X28440238Y-101052380D01*
X28583095Y-101100000D01*
X28678333Y-101195238D01*
X28725952Y-101290476D01*
X28773571Y-101480952D01*
X28773571Y-101623809D01*
X28725952Y-101814285D01*
X28678333Y-101909523D01*
X28583095Y-102004761D01*
X28440238Y-102052380D01*
X28202142Y-102052380D01*
X29202142Y-102052380D02*
X29202142Y-101052380D01*
X29202142Y-101528571D02*
X29773571Y-101528571D01*
X29773571Y-102052380D02*
X29773571Y-101052380D01*
X30106904Y-101052380D02*
X30678333Y-101052380D01*
X30392619Y-102052380D02*
X30392619Y-101052380D01*
X31202142Y-101052380D02*
X31297380Y-101052380D01*
X31392619Y-101100000D01*
X31440238Y-101147619D01*
X31487857Y-101242857D01*
X31535476Y-101433333D01*
X31535476Y-101671428D01*
X31487857Y-101861904D01*
X31440238Y-101957142D01*
X31392619Y-102004761D01*
X31297380Y-102052380D01*
X31202142Y-102052380D01*
X31106904Y-102004761D01*
X31059285Y-101957142D01*
X31011666Y-101861904D01*
X30964047Y-101671428D01*
X30964047Y-101433333D01*
X31011666Y-101242857D01*
X31059285Y-101147619D01*
X31106904Y-101100000D01*
X31202142Y-101052380D01*
X28202142Y-92527380D02*
X28202142Y-91527380D01*
X28440238Y-91527380D01*
X28583095Y-91575000D01*
X28678333Y-91670238D01*
X28725952Y-91765476D01*
X28773571Y-91955952D01*
X28773571Y-92098809D01*
X28725952Y-92289285D01*
X28678333Y-92384523D01*
X28583095Y-92479761D01*
X28440238Y-92527380D01*
X28202142Y-92527380D01*
X29202142Y-92527380D02*
X29202142Y-91527380D01*
X29202142Y-92003571D02*
X29773571Y-92003571D01*
X29773571Y-92527380D02*
X29773571Y-91527380D01*
X30106904Y-91527380D02*
X30678333Y-91527380D01*
X30392619Y-92527380D02*
X30392619Y-91527380D01*
X31535476Y-92527380D02*
X30964047Y-92527380D01*
X31249761Y-92527380D02*
X31249761Y-91527380D01*
X31154523Y-91670238D01*
X31059285Y-91765476D01*
X30964047Y-91813095D01*
X28202142Y-83002380D02*
X28202142Y-82002380D01*
X28440238Y-82002380D01*
X28583095Y-82050000D01*
X28678333Y-82145238D01*
X28725952Y-82240476D01*
X28773571Y-82430952D01*
X28773571Y-82573809D01*
X28725952Y-82764285D01*
X28678333Y-82859523D01*
X28583095Y-82954761D01*
X28440238Y-83002380D01*
X28202142Y-83002380D01*
X29202142Y-83002380D02*
X29202142Y-82002380D01*
X29202142Y-82478571D02*
X29773571Y-82478571D01*
X29773571Y-83002380D02*
X29773571Y-82002380D01*
X30106904Y-82002380D02*
X30678333Y-82002380D01*
X30392619Y-83002380D02*
X30392619Y-82002380D01*
X30964047Y-82097619D02*
X31011666Y-82050000D01*
X31106904Y-82002380D01*
X31345000Y-82002380D01*
X31440238Y-82050000D01*
X31487857Y-82097619D01*
X31535476Y-82192857D01*
X31535476Y-82288095D01*
X31487857Y-82430952D01*
X30916428Y-83002380D01*
X31535476Y-83002380D01*
D13*
G36*
X32650277Y-84229704D02*
G01*
X32777580Y-84272400D01*
X32969724Y-84382149D01*
X32995955Y-84399573D01*
X33175174Y-84506671D01*
X33327190Y-84555065D01*
X33485063Y-84547234D01*
X33681854Y-84485652D01*
X33754957Y-84456436D01*
X33907217Y-84385474D01*
X34080689Y-84292069D01*
X34254645Y-84189126D01*
X34408353Y-84089549D01*
X34521084Y-84006244D01*
X34572107Y-83952114D01*
X34573160Y-83947088D01*
X34535550Y-83910740D01*
X34430227Y-83827524D01*
X34268447Y-83705847D01*
X34061467Y-83554118D01*
X33820545Y-83380744D01*
X33702419Y-83296745D01*
X33447853Y-83114457D01*
X33220515Y-82947985D01*
X33032094Y-82806192D01*
X32894276Y-82697936D01*
X32818750Y-82632078D01*
X32808290Y-82618884D01*
X32814102Y-82547793D01*
X32851179Y-82426322D01*
X32907248Y-82283416D01*
X32970035Y-82148017D01*
X33027264Y-82049068D01*
X33064340Y-82015105D01*
X33112760Y-82042242D01*
X33228571Y-82117887D01*
X33400736Y-82234501D01*
X33618219Y-82384546D01*
X33869983Y-82560484D01*
X34087471Y-82713967D01*
X34358240Y-82904971D01*
X34603099Y-83076018D01*
X34811098Y-83219595D01*
X34971288Y-83328190D01*
X35072721Y-83394291D01*
X35104194Y-83411528D01*
X35167099Y-83379242D01*
X35231473Y-83306029D01*
X35272454Y-83227354D01*
X35266764Y-83179648D01*
X35135936Y-83090098D01*
X34956567Y-82964509D01*
X34741304Y-82812013D01*
X34502793Y-82641746D01*
X34253683Y-82462841D01*
X34006618Y-82284432D01*
X33774248Y-82115653D01*
X33569217Y-81965637D01*
X33404175Y-81843519D01*
X33291766Y-81758433D01*
X33244639Y-81719512D01*
X33244199Y-81718904D01*
X33253531Y-81656787D01*
X33307305Y-81541909D01*
X33388756Y-81407177D01*
X33489083Y-81264829D01*
X33558884Y-81193196D01*
X33614375Y-81178691D01*
X33646555Y-81191192D01*
X33707684Y-81231182D01*
X33835718Y-81318813D01*
X34018951Y-81445937D01*
X34245677Y-81604407D01*
X34504191Y-81786075D01*
X34717752Y-81936788D01*
X35021639Y-82151334D01*
X35256714Y-82315658D01*
X35432821Y-82435260D01*
X35559803Y-82515642D01*
X35647504Y-82562306D01*
X35705768Y-82580752D01*
X35744439Y-82576482D01*
X35773360Y-82554998D01*
X35790143Y-82536116D01*
X35852452Y-82452260D01*
X35873604Y-82406093D01*
X35835647Y-82371068D01*
X35729202Y-82288321D01*
X35564666Y-82165528D01*
X35352434Y-82010368D01*
X35102903Y-81830516D01*
X34852829Y-81652325D01*
X34577213Y-81455415D01*
X34328511Y-81274792D01*
X34117360Y-81118423D01*
X33954399Y-80994272D01*
X33850268Y-80910305D01*
X33815671Y-80875768D01*
X33836863Y-80815001D01*
X33909169Y-80708912D01*
X34008335Y-80590295D01*
X34218268Y-80358417D01*
X34455960Y-80521891D01*
X34571383Y-80602235D01*
X34747966Y-80726352D01*
X34968404Y-80882023D01*
X35215392Y-81057027D01*
X35461358Y-81231837D01*
X35749584Y-81434072D01*
X35967909Y-81580259D01*
X36122206Y-81673934D01*
X36218346Y-81718636D01*
X36262201Y-81717900D01*
X36264020Y-81715317D01*
X36295637Y-81649779D01*
X36306054Y-81589786D01*
X36287125Y-81526726D01*
X36230705Y-81451986D01*
X36128646Y-81356952D01*
X35972803Y-81233012D01*
X35755031Y-81071553D01*
X35467183Y-80863963D01*
X35441176Y-80845314D01*
X35184328Y-80658302D01*
X34955144Y-80485945D01*
X34765003Y-80337252D01*
X34625280Y-80221229D01*
X34547354Y-80146885D01*
X34535073Y-80127928D01*
X34565308Y-80052209D01*
X34669389Y-79945276D01*
X34763114Y-79871104D01*
X35006074Y-79692755D01*
X35781288Y-80232728D01*
X36069111Y-80430526D01*
X36287704Y-80574186D01*
X36444473Y-80668045D01*
X36546821Y-80716439D01*
X36602152Y-80723705D01*
X36610704Y-80718499D01*
X36619196Y-80670680D01*
X36567571Y-80592004D01*
X36447975Y-80471851D01*
X36388380Y-80417832D01*
X36169821Y-80201368D01*
X36028102Y-80001594D01*
X35952062Y-79795868D01*
X35930538Y-79561543D01*
X35932499Y-79493031D01*
X35942566Y-79329404D01*
X35960808Y-79238751D01*
X35999107Y-79197722D01*
X36069346Y-79182966D01*
X36091376Y-79180824D01*
X36295147Y-79208048D01*
X36485917Y-79320056D01*
X36646556Y-79505326D01*
X36692372Y-79585112D01*
X36753859Y-79722771D01*
X36792678Y-79864180D01*
X36814800Y-80040303D01*
X36826099Y-80278700D01*
X36826211Y-80558994D01*
X36807084Y-80759849D01*
X36768815Y-80893217D01*
X36711150Y-80997018D01*
X36660804Y-81048601D01*
X36654698Y-81049858D01*
X36633185Y-81046509D01*
X36599869Y-81032152D01*
X36545008Y-81000323D01*
X36458858Y-80944555D01*
X36331675Y-80858385D01*
X36153717Y-80735346D01*
X35915240Y-80568975D01*
X35647893Y-80381807D01*
X35410493Y-80216057D01*
X35238410Y-80099202D01*
X35118090Y-80024720D01*
X35035978Y-79986089D01*
X34978521Y-79976786D01*
X34932164Y-79990288D01*
X34888785Y-80016512D01*
X34802573Y-80077130D01*
X34765960Y-80111072D01*
X34765949Y-80111269D01*
X34803429Y-80142053D01*
X34908498Y-80220525D01*
X35070100Y-80338633D01*
X35277181Y-80488325D01*
X35518684Y-80661549D01*
X35657600Y-80760674D01*
X35986368Y-80998258D01*
X36236752Y-81187022D01*
X36411917Y-81329541D01*
X36515026Y-81428392D01*
X36549245Y-81486151D01*
X36549251Y-81486629D01*
X36528646Y-81588526D01*
X36476925Y-81721994D01*
X36409229Y-81857175D01*
X36340698Y-81964208D01*
X36286473Y-82013235D01*
X36281936Y-82013805D01*
X36227214Y-81987054D01*
X36107165Y-81912487D01*
X35934672Y-81798633D01*
X35722622Y-81654019D01*
X35483898Y-81487175D01*
X35449452Y-81462791D01*
X35194068Y-81281949D01*
X34951004Y-81110246D01*
X34736791Y-80959329D01*
X34567961Y-80840845D01*
X34461046Y-80766440D01*
X34460457Y-80766034D01*
X34248627Y-80620291D01*
X34144780Y-80730831D01*
X34040932Y-80841372D01*
X35078203Y-81575963D01*
X35355291Y-81774100D01*
X35604469Y-81955934D01*
X35815402Y-82113625D01*
X35977756Y-82239334D01*
X36081193Y-82325219D01*
X36115475Y-82362799D01*
X36090034Y-82437221D01*
X36026101Y-82552592D01*
X35942255Y-82681368D01*
X35857080Y-82796008D01*
X35789154Y-82868969D01*
X35765627Y-82881357D01*
X35714066Y-82854645D01*
X35594902Y-82779405D01*
X35419085Y-82662979D01*
X35197565Y-82512708D01*
X34941290Y-82335935D01*
X34684662Y-82156510D01*
X34406746Y-81963248D01*
X34153701Y-81791574D01*
X33936376Y-81648502D01*
X33765619Y-81541047D01*
X33652279Y-81476221D01*
X33607922Y-81460333D01*
X33547974Y-81523896D01*
X33514611Y-81576679D01*
X33508707Y-81609397D01*
X33528490Y-81652091D01*
X33582073Y-81711501D01*
X33677567Y-81794365D01*
X33823086Y-81907421D01*
X34026743Y-82057408D01*
X34296651Y-82251064D01*
X34502397Y-82397132D01*
X34779230Y-82595372D01*
X35028115Y-82777798D01*
X35238692Y-82936472D01*
X35400600Y-83063460D01*
X35503480Y-83150823D01*
X35537106Y-83189747D01*
X35506175Y-83263099D01*
X35428828Y-83372103D01*
X35328236Y-83490244D01*
X35227570Y-83591009D01*
X35150003Y-83647884D01*
X35132688Y-83652514D01*
X35078165Y-83625774D01*
X34956725Y-83550646D01*
X34779892Y-83434774D01*
X34559189Y-83285799D01*
X34306138Y-83111364D01*
X34115285Y-82977752D01*
X33847927Y-82790360D01*
X33606532Y-82622966D01*
X33402266Y-82483167D01*
X33246296Y-82378559D01*
X33149787Y-82316740D01*
X33123450Y-82302989D01*
X33088645Y-82343354D01*
X33057339Y-82433882D01*
X33041585Y-82528720D01*
X33050663Y-82579860D01*
X33095267Y-82613955D01*
X33206685Y-82695931D01*
X33373439Y-82817436D01*
X33584051Y-82970120D01*
X33827042Y-83145631D01*
X33953689Y-83236886D01*
X34208392Y-83422185D01*
X34435732Y-83591239D01*
X34624260Y-83735231D01*
X34762523Y-83845345D01*
X34839072Y-83912765D01*
X34850526Y-83927355D01*
X34822637Y-83984256D01*
X34728178Y-84076876D01*
X34584020Y-84192672D01*
X34407035Y-84319099D01*
X34214096Y-84443616D01*
X34022074Y-84553678D01*
X33975798Y-84577663D01*
X33778884Y-84660478D01*
X33568460Y-84723702D01*
X33438132Y-84747427D01*
X33301296Y-84757112D01*
X33197197Y-84745169D01*
X33093268Y-84700894D01*
X32956942Y-84613584D01*
X32890807Y-84567554D01*
X32708080Y-84422983D01*
X32610460Y-84313089D01*
X32592882Y-84245964D01*
X32650277Y-84229704D01*
G37*
X32650277Y-84229704D02*
X32777580Y-84272400D01*
X32969724Y-84382149D01*
X32995955Y-84399573D01*
X33175174Y-84506671D01*
X33327190Y-84555065D01*
X33485063Y-84547234D01*
X33681854Y-84485652D01*
X33754957Y-84456436D01*
X33907217Y-84385474D01*
X34080689Y-84292069D01*
X34254645Y-84189126D01*
X34408353Y-84089549D01*
X34521084Y-84006244D01*
X34572107Y-83952114D01*
X34573160Y-83947088D01*
X34535550Y-83910740D01*
X34430227Y-83827524D01*
X34268447Y-83705847D01*
X34061467Y-83554118D01*
X33820545Y-83380744D01*
X33702419Y-83296745D01*
X33447853Y-83114457D01*
X33220515Y-82947985D01*
X33032094Y-82806192D01*
X32894276Y-82697936D01*
X32818750Y-82632078D01*
X32808290Y-82618884D01*
X32814102Y-82547793D01*
X32851179Y-82426322D01*
X32907248Y-82283416D01*
X32970035Y-82148017D01*
X33027264Y-82049068D01*
X33064340Y-82015105D01*
X33112760Y-82042242D01*
X33228571Y-82117887D01*
X33400736Y-82234501D01*
X33618219Y-82384546D01*
X33869983Y-82560484D01*
X34087471Y-82713967D01*
X34358240Y-82904971D01*
X34603099Y-83076018D01*
X34811098Y-83219595D01*
X34971288Y-83328190D01*
X35072721Y-83394291D01*
X35104194Y-83411528D01*
X35167099Y-83379242D01*
X35231473Y-83306029D01*
X35272454Y-83227354D01*
X35266764Y-83179648D01*
X35135936Y-83090098D01*
X34956567Y-82964509D01*
X34741304Y-82812013D01*
X34502793Y-82641746D01*
X34253683Y-82462841D01*
X34006618Y-82284432D01*
X33774248Y-82115653D01*
X33569217Y-81965637D01*
X33404175Y-81843519D01*
X33291766Y-81758433D01*
X33244639Y-81719512D01*
X33244199Y-81718904D01*
X33253531Y-81656787D01*
X33307305Y-81541909D01*
X33388756Y-81407177D01*
X33489083Y-81264829D01*
X33558884Y-81193196D01*
X33614375Y-81178691D01*
X33646555Y-81191192D01*
X33707684Y-81231182D01*
X33835718Y-81318813D01*
X34018951Y-81445937D01*
X34245677Y-81604407D01*
X34504191Y-81786075D01*
X34717752Y-81936788D01*
X35021639Y-82151334D01*
X35256714Y-82315658D01*
X35432821Y-82435260D01*
X35559803Y-82515642D01*
X35647504Y-82562306D01*
X35705768Y-82580752D01*
X35744439Y-82576482D01*
X35773360Y-82554998D01*
X35790143Y-82536116D01*
X35852452Y-82452260D01*
X35873604Y-82406093D01*
X35835647Y-82371068D01*
X35729202Y-82288321D01*
X35564666Y-82165528D01*
X35352434Y-82010368D01*
X35102903Y-81830516D01*
X34852829Y-81652325D01*
X34577213Y-81455415D01*
X34328511Y-81274792D01*
X34117360Y-81118423D01*
X33954399Y-80994272D01*
X33850268Y-80910305D01*
X33815671Y-80875768D01*
X33836863Y-80815001D01*
X33909169Y-80708912D01*
X34008335Y-80590295D01*
X34218268Y-80358417D01*
X34455960Y-80521891D01*
X34571383Y-80602235D01*
X34747966Y-80726352D01*
X34968404Y-80882023D01*
X35215392Y-81057027D01*
X35461358Y-81231837D01*
X35749584Y-81434072D01*
X35967909Y-81580259D01*
X36122206Y-81673934D01*
X36218346Y-81718636D01*
X36262201Y-81717900D01*
X36264020Y-81715317D01*
X36295637Y-81649779D01*
X36306054Y-81589786D01*
X36287125Y-81526726D01*
X36230705Y-81451986D01*
X36128646Y-81356952D01*
X35972803Y-81233012D01*
X35755031Y-81071553D01*
X35467183Y-80863963D01*
X35441176Y-80845314D01*
X35184328Y-80658302D01*
X34955144Y-80485945D01*
X34765003Y-80337252D01*
X34625280Y-80221229D01*
X34547354Y-80146885D01*
X34535073Y-80127928D01*
X34565308Y-80052209D01*
X34669389Y-79945276D01*
X34763114Y-79871104D01*
X35006074Y-79692755D01*
X35781288Y-80232728D01*
X36069111Y-80430526D01*
X36287704Y-80574186D01*
X36444473Y-80668045D01*
X36546821Y-80716439D01*
X36602152Y-80723705D01*
X36610704Y-80718499D01*
X36619196Y-80670680D01*
X36567571Y-80592004D01*
X36447975Y-80471851D01*
X36388380Y-80417832D01*
X36169821Y-80201368D01*
X36028102Y-80001594D01*
X35952062Y-79795868D01*
X35930538Y-79561543D01*
X35932499Y-79493031D01*
X35942566Y-79329404D01*
X35960808Y-79238751D01*
X35999107Y-79197722D01*
X36069346Y-79182966D01*
X36091376Y-79180824D01*
X36295147Y-79208048D01*
X36485917Y-79320056D01*
X36646556Y-79505326D01*
X36692372Y-79585112D01*
X36753859Y-79722771D01*
X36792678Y-79864180D01*
X36814800Y-80040303D01*
X36826099Y-80278700D01*
X36826211Y-80558994D01*
X36807084Y-80759849D01*
X36768815Y-80893217D01*
X36711150Y-80997018D01*
X36660804Y-81048601D01*
X36654698Y-81049858D01*
X36633185Y-81046509D01*
X36599869Y-81032152D01*
X36545008Y-81000323D01*
X36458858Y-80944555D01*
X36331675Y-80858385D01*
X36153717Y-80735346D01*
X35915240Y-80568975D01*
X35647893Y-80381807D01*
X35410493Y-80216057D01*
X35238410Y-80099202D01*
X35118090Y-80024720D01*
X35035978Y-79986089D01*
X34978521Y-79976786D01*
X34932164Y-79990288D01*
X34888785Y-80016512D01*
X34802573Y-80077130D01*
X34765960Y-80111072D01*
X34765949Y-80111269D01*
X34803429Y-80142053D01*
X34908498Y-80220525D01*
X35070100Y-80338633D01*
X35277181Y-80488325D01*
X35518684Y-80661549D01*
X35657600Y-80760674D01*
X35986368Y-80998258D01*
X36236752Y-81187022D01*
X36411917Y-81329541D01*
X36515026Y-81428392D01*
X36549245Y-81486151D01*
X36549251Y-81486629D01*
X36528646Y-81588526D01*
X36476925Y-81721994D01*
X36409229Y-81857175D01*
X36340698Y-81964208D01*
X36286473Y-82013235D01*
X36281936Y-82013805D01*
X36227214Y-81987054D01*
X36107165Y-81912487D01*
X35934672Y-81798633D01*
X35722622Y-81654019D01*
X35483898Y-81487175D01*
X35449452Y-81462791D01*
X35194068Y-81281949D01*
X34951004Y-81110246D01*
X34736791Y-80959329D01*
X34567961Y-80840845D01*
X34461046Y-80766440D01*
X34460457Y-80766034D01*
X34248627Y-80620291D01*
X34144780Y-80730831D01*
X34040932Y-80841372D01*
X35078203Y-81575963D01*
X35355291Y-81774100D01*
X35604469Y-81955934D01*
X35815402Y-82113625D01*
X35977756Y-82239334D01*
X36081193Y-82325219D01*
X36115475Y-82362799D01*
X36090034Y-82437221D01*
X36026101Y-82552592D01*
X35942255Y-82681368D01*
X35857080Y-82796008D01*
X35789154Y-82868969D01*
X35765627Y-82881357D01*
X35714066Y-82854645D01*
X35594902Y-82779405D01*
X35419085Y-82662979D01*
X35197565Y-82512708D01*
X34941290Y-82335935D01*
X34684662Y-82156510D01*
X34406746Y-81963248D01*
X34153701Y-81791574D01*
X33936376Y-81648502D01*
X33765619Y-81541047D01*
X33652279Y-81476221D01*
X33607922Y-81460333D01*
X33547974Y-81523896D01*
X33514611Y-81576679D01*
X33508707Y-81609397D01*
X33528490Y-81652091D01*
X33582073Y-81711501D01*
X33677567Y-81794365D01*
X33823086Y-81907421D01*
X34026743Y-82057408D01*
X34296651Y-82251064D01*
X34502397Y-82397132D01*
X34779230Y-82595372D01*
X35028115Y-82777798D01*
X35238692Y-82936472D01*
X35400600Y-83063460D01*
X35503480Y-83150823D01*
X35537106Y-83189747D01*
X35506175Y-83263099D01*
X35428828Y-83372103D01*
X35328236Y-83490244D01*
X35227570Y-83591009D01*
X35150003Y-83647884D01*
X35132688Y-83652514D01*
X35078165Y-83625774D01*
X34956725Y-83550646D01*
X34779892Y-83434774D01*
X34559189Y-83285799D01*
X34306138Y-83111364D01*
X34115285Y-82977752D01*
X33847927Y-82790360D01*
X33606532Y-82622966D01*
X33402266Y-82483167D01*
X33246296Y-82378559D01*
X33149787Y-82316740D01*
X33123450Y-82302989D01*
X33088645Y-82343354D01*
X33057339Y-82433882D01*
X33041585Y-82528720D01*
X33050663Y-82579860D01*
X33095267Y-82613955D01*
X33206685Y-82695931D01*
X33373439Y-82817436D01*
X33584051Y-82970120D01*
X33827042Y-83145631D01*
X33953689Y-83236886D01*
X34208392Y-83422185D01*
X34435732Y-83591239D01*
X34624260Y-83735231D01*
X34762523Y-83845345D01*
X34839072Y-83912765D01*
X34850526Y-83927355D01*
X34822637Y-83984256D01*
X34728178Y-84076876D01*
X34584020Y-84192672D01*
X34407035Y-84319099D01*
X34214096Y-84443616D01*
X34022074Y-84553678D01*
X33975798Y-84577663D01*
X33778884Y-84660478D01*
X33568460Y-84723702D01*
X33438132Y-84747427D01*
X33301296Y-84757112D01*
X33197197Y-84745169D01*
X33093268Y-84700894D01*
X32956942Y-84613584D01*
X32890807Y-84567554D01*
X32708080Y-84422983D01*
X32610460Y-84313089D01*
X32592882Y-84245964D01*
X32650277Y-84229704D01*
G36*
X36376957Y-82334462D02*
G01*
X36431371Y-82209273D01*
X36509090Y-82046636D01*
X36532121Y-82000552D01*
X36635452Y-81781598D01*
X36736552Y-81544210D01*
X36812485Y-81342710D01*
X36917188Y-81033095D01*
X37476450Y-81029427D01*
X38035711Y-81025759D01*
X38190530Y-81435437D01*
X38280347Y-81662335D01*
X38378761Y-81894206D01*
X38467317Y-82087880D01*
X38483543Y-82120874D01*
X38554930Y-82267012D01*
X38604847Y-82376239D01*
X38621736Y-82422108D01*
X38575758Y-82429279D01*
X38446697Y-82435669D01*
X38247864Y-82440979D01*
X37992569Y-82444909D01*
X37694123Y-82447160D01*
X37489099Y-82447581D01*
X37082040Y-82445495D01*
X36763211Y-82439298D01*
X36534666Y-82429079D01*
X36398462Y-82414928D01*
X36356461Y-82398180D01*
X36376957Y-82334462D01*
G37*
X36376957Y-82334462D02*
X36431371Y-82209273D01*
X36509090Y-82046636D01*
X36532121Y-82000552D01*
X36635452Y-81781598D01*
X36736552Y-81544210D01*
X36812485Y-81342710D01*
X36917188Y-81033095D01*
X37476450Y-81029427D01*
X38035711Y-81025759D01*
X38190530Y-81435437D01*
X38280347Y-81662335D01*
X38378761Y-81894206D01*
X38467317Y-82087880D01*
X38483543Y-82120874D01*
X38554930Y-82267012D01*
X38604847Y-82376239D01*
X38621736Y-82422108D01*
X38575758Y-82429279D01*
X38446697Y-82435669D01*
X38247864Y-82440979D01*
X37992569Y-82444909D01*
X37694123Y-82447160D01*
X37489099Y-82447581D01*
X37082040Y-82445495D01*
X36763211Y-82439298D01*
X36534666Y-82429079D01*
X36398462Y-82414928D01*
X36356461Y-82398180D01*
X36376957Y-82334462D01*
G36*
X36218606Y-78752770D02*
G01*
X36349207Y-78628382D01*
X36453933Y-78578468D01*
X36560765Y-78597559D01*
X36673876Y-78663782D01*
X36751658Y-78712752D01*
X36828339Y-78746345D01*
X36923643Y-78767442D01*
X37057295Y-78778925D01*
X37249020Y-78783678D01*
X37500590Y-78784583D01*
X37796104Y-78781459D01*
X38012779Y-78770980D01*
X38168004Y-78751480D01*
X38279164Y-78721295D01*
X38313219Y-78706795D01*
X38419436Y-78646149D01*
X38474848Y-78594513D01*
X38477144Y-78586302D01*
X38506058Y-78540567D01*
X38583536Y-78560148D01*
X38695681Y-78636941D01*
X38828596Y-78762842D01*
X38882242Y-78822552D01*
X38942283Y-78898193D01*
X38930590Y-78925525D01*
X38844546Y-78929175D01*
X38675877Y-78957338D01*
X38482759Y-79028821D01*
X38313850Y-79124116D01*
X38268941Y-79159950D01*
X38123761Y-79348250D01*
X38015473Y-79606166D01*
X37949532Y-79912185D01*
X37931395Y-80244800D01*
X37944596Y-80438547D01*
X37958838Y-80601940D01*
X37951302Y-80696388D01*
X37917876Y-80747707D01*
X37892788Y-80763879D01*
X37793269Y-80788591D01*
X37632479Y-80801189D01*
X37444791Y-80801569D01*
X37264578Y-80789625D01*
X37129613Y-80766217D01*
X37073546Y-80746381D01*
X37039479Y-80711775D01*
X37022907Y-80642386D01*
X37019323Y-80518197D01*
X37024221Y-80319195D01*
X37024804Y-80300727D01*
X37024290Y-80071391D01*
X37010751Y-79847014D01*
X36986935Y-79667822D01*
X36979189Y-79632763D01*
X36877231Y-79392653D01*
X36710207Y-79177238D01*
X36502063Y-79011833D01*
X36315001Y-78930599D01*
X36104850Y-78874401D01*
X36218606Y-78752770D01*
G37*
X36218606Y-78752770D02*
X36349207Y-78628382D01*
X36453933Y-78578468D01*
X36560765Y-78597559D01*
X36673876Y-78663782D01*
X36751658Y-78712752D01*
X36828339Y-78746345D01*
X36923643Y-78767442D01*
X37057295Y-78778925D01*
X37249020Y-78783678D01*
X37500590Y-78784583D01*
X37796104Y-78781459D01*
X38012779Y-78770980D01*
X38168004Y-78751480D01*
X38279164Y-78721295D01*
X38313219Y-78706795D01*
X38419436Y-78646149D01*
X38474848Y-78594513D01*
X38477144Y-78586302D01*
X38506058Y-78540567D01*
X38583536Y-78560148D01*
X38695681Y-78636941D01*
X38828596Y-78762842D01*
X38882242Y-78822552D01*
X38942283Y-78898193D01*
X38930590Y-78925525D01*
X38844546Y-78929175D01*
X38675877Y-78957338D01*
X38482759Y-79028821D01*
X38313850Y-79124116D01*
X38268941Y-79159950D01*
X38123761Y-79348250D01*
X38015473Y-79606166D01*
X37949532Y-79912185D01*
X37931395Y-80244800D01*
X37944596Y-80438547D01*
X37958838Y-80601940D01*
X37951302Y-80696388D01*
X37917876Y-80747707D01*
X37892788Y-80763879D01*
X37793269Y-80788591D01*
X37632479Y-80801189D01*
X37444791Y-80801569D01*
X37264578Y-80789625D01*
X37129613Y-80766217D01*
X37073546Y-80746381D01*
X37039479Y-80711775D01*
X37022907Y-80642386D01*
X37019323Y-80518197D01*
X37024221Y-80319195D01*
X37024804Y-80300727D01*
X37024290Y-80071391D01*
X37010751Y-79847014D01*
X36986935Y-79667822D01*
X36979189Y-79632763D01*
X36877231Y-79392653D01*
X36710207Y-79177238D01*
X36502063Y-79011833D01*
X36315001Y-78930599D01*
X36104850Y-78874401D01*
X36218606Y-78752770D01*
G36*
X35418717Y-76466664D02*
G01*
X35454325Y-76490140D01*
X35516694Y-76585695D01*
X35584877Y-76708178D01*
X35794955Y-77031375D01*
X36046949Y-77312216D01*
X36319600Y-77528516D01*
X36433727Y-77594055D01*
X36628396Y-77684680D01*
X36767680Y-77724081D01*
X36876568Y-77714247D01*
X36980050Y-77657165D01*
X37003398Y-77639390D01*
X37254545Y-77497487D01*
X37521314Y-77448073D01*
X37790706Y-77491588D01*
X38016562Y-77605022D01*
X38145018Y-77683929D01*
X38249338Y-77715224D01*
X38361514Y-77698568D01*
X38513538Y-77633622D01*
X38582882Y-77599013D01*
X38867303Y-77410449D01*
X39135453Y-77149259D01*
X39364556Y-76838992D01*
X39432869Y-76720228D01*
X39514065Y-76573149D01*
X39578096Y-76466849D01*
X39611814Y-76423076D01*
X39612608Y-76422913D01*
X39638177Y-76461992D01*
X39624281Y-76565171D01*
X39576567Y-76711361D01*
X39500679Y-76879471D01*
X39479796Y-76919088D01*
X39337612Y-77133509D01*
X39147377Y-77355076D01*
X38932545Y-77561410D01*
X38716572Y-77730132D01*
X38522911Y-77838862D01*
X38510835Y-77843633D01*
X38381773Y-77898253D01*
X38324720Y-77946348D01*
X38319926Y-78010934D01*
X38330257Y-78054070D01*
X38341351Y-78201709D01*
X38306439Y-78343696D01*
X38237270Y-78443947D01*
X38195981Y-78466467D01*
X37998558Y-78504611D01*
X37742097Y-78527718D01*
X37463072Y-78533800D01*
X37198482Y-78520913D01*
X37011026Y-78500486D01*
X36895201Y-78476112D01*
X36826418Y-78438079D01*
X36780085Y-78376677D01*
X36765728Y-78350013D01*
X36719463Y-78188216D01*
X36722846Y-78073250D01*
X36732047Y-77987275D01*
X36702534Y-77931482D01*
X36613929Y-77882568D01*
X36525311Y-77847357D01*
X36333245Y-77745839D01*
X36128738Y-77590728D01*
X35925641Y-77398558D01*
X35737804Y-77185857D01*
X35579077Y-76969158D01*
X35463311Y-76764992D01*
X35404354Y-76589890D01*
X35401889Y-76506466D01*
X35418717Y-76466664D01*
G37*
X35418717Y-76466664D02*
X35454325Y-76490140D01*
X35516694Y-76585695D01*
X35584877Y-76708178D01*
X35794955Y-77031375D01*
X36046949Y-77312216D01*
X36319600Y-77528516D01*
X36433727Y-77594055D01*
X36628396Y-77684680D01*
X36767680Y-77724081D01*
X36876568Y-77714247D01*
X36980050Y-77657165D01*
X37003398Y-77639390D01*
X37254545Y-77497487D01*
X37521314Y-77448073D01*
X37790706Y-77491588D01*
X38016562Y-77605022D01*
X38145018Y-77683929D01*
X38249338Y-77715224D01*
X38361514Y-77698568D01*
X38513538Y-77633622D01*
X38582882Y-77599013D01*
X38867303Y-77410449D01*
X39135453Y-77149259D01*
X39364556Y-76838992D01*
X39432869Y-76720228D01*
X39514065Y-76573149D01*
X39578096Y-76466849D01*
X39611814Y-76423076D01*
X39612608Y-76422913D01*
X39638177Y-76461992D01*
X39624281Y-76565171D01*
X39576567Y-76711361D01*
X39500679Y-76879471D01*
X39479796Y-76919088D01*
X39337612Y-77133509D01*
X39147377Y-77355076D01*
X38932545Y-77561410D01*
X38716572Y-77730132D01*
X38522911Y-77838862D01*
X38510835Y-77843633D01*
X38381773Y-77898253D01*
X38324720Y-77946348D01*
X38319926Y-78010934D01*
X38330257Y-78054070D01*
X38341351Y-78201709D01*
X38306439Y-78343696D01*
X38237270Y-78443947D01*
X38195981Y-78466467D01*
X37998558Y-78504611D01*
X37742097Y-78527718D01*
X37463072Y-78533800D01*
X37198482Y-78520913D01*
X37011026Y-78500486D01*
X36895201Y-78476112D01*
X36826418Y-78438079D01*
X36780085Y-78376677D01*
X36765728Y-78350013D01*
X36719463Y-78188216D01*
X36722846Y-78073250D01*
X36732047Y-77987275D01*
X36702534Y-77931482D01*
X36613929Y-77882568D01*
X36525311Y-77847357D01*
X36333245Y-77745839D01*
X36128738Y-77590728D01*
X35925641Y-77398558D01*
X35737804Y-77185857D01*
X35579077Y-76969158D01*
X35463311Y-76764992D01*
X35404354Y-76589890D01*
X35401889Y-76506466D01*
X35418717Y-76466664D01*
G36*
X34262150Y-85977361D02*
G01*
X34280392Y-85883653D01*
X34382156Y-85613959D01*
X34542292Y-85352400D01*
X34737827Y-85132117D01*
X34875523Y-85025178D01*
X35089928Y-84889535D01*
X34867692Y-84776489D01*
X34720243Y-84687340D01*
X34599651Y-84590130D01*
X34562736Y-84548696D01*
X34527198Y-84494105D01*
X34519434Y-84447175D01*
X34550042Y-84392189D01*
X34629619Y-84313432D01*
X34768763Y-84195184D01*
X34842012Y-84134517D01*
X35210048Y-83797344D01*
X35575246Y-83402462D01*
X35906000Y-82984163D01*
X35919306Y-82965702D01*
X36083618Y-82736765D01*
X37080188Y-82736765D01*
X37414801Y-82738317D01*
X37748173Y-82742635D01*
X38056655Y-82749212D01*
X38316594Y-82757542D01*
X38504340Y-82767118D01*
X38507648Y-82767350D01*
X38938540Y-82797936D01*
X39129569Y-83061577D01*
X39283166Y-83255476D01*
X39486292Y-83486839D01*
X39715115Y-83730685D01*
X39945804Y-83962035D01*
X40154527Y-84155907D01*
X40251722Y-84237827D01*
X40459886Y-84404103D01*
X40287870Y-84659718D01*
X40197458Y-84807676D01*
X40135156Y-84935652D01*
X40115854Y-85005884D01*
X40137052Y-85083415D01*
X40194572Y-85224925D01*
X40279300Y-85409374D01*
X40368890Y-85590034D01*
X40479993Y-85811205D01*
X40553439Y-85975466D01*
X40597581Y-86110608D01*
X40620776Y-86244425D01*
X40631378Y-86404709D01*
X40633613Y-86470635D01*
X40609954Y-86923844D01*
X40552631Y-87202395D01*
X40370580Y-87705080D01*
X40108995Y-88170271D01*
X39778020Y-88583972D01*
X39387799Y-88932185D01*
X39210359Y-89054474D01*
X38988443Y-89195209D01*
X39144865Y-89195209D01*
X39356099Y-89234030D01*
X39547494Y-89337049D01*
X39655054Y-89446645D01*
X39707904Y-89584044D01*
X39727938Y-89771915D01*
X39714860Y-89969984D01*
X39668375Y-90137981D01*
X39660252Y-90154761D01*
X39620567Y-90223443D01*
X39573269Y-90278784D01*
X39508491Y-90321941D01*
X39416370Y-90354071D01*
X39287041Y-90376333D01*
X39110637Y-90389884D01*
X38877295Y-90395883D01*
X38577149Y-90395486D01*
X38200333Y-90389853D01*
X37739508Y-90380196D01*
X37687632Y-90379140D01*
X37687632Y-87589834D01*
X38159547Y-87537018D01*
X38564619Y-87425527D01*
X38900002Y-87257143D01*
X39162853Y-87033652D01*
X39350327Y-86756838D01*
X39459579Y-86428485D01*
X39488818Y-86116171D01*
X39481382Y-85909802D01*
X39461461Y-85714640D01*
X39434275Y-85576662D01*
X39321095Y-85339470D01*
X39143326Y-85125494D01*
X38930050Y-84968305D01*
X38890231Y-84948677D01*
X38823216Y-84922015D01*
X38745344Y-84901185D01*
X38644433Y-84885469D01*
X38508304Y-84874151D01*
X38324773Y-84866513D01*
X38081661Y-84861839D01*
X37766786Y-84859412D01*
X37367966Y-84858514D01*
X37358233Y-84858507D01*
X36022434Y-84857448D01*
X35848971Y-85009751D01*
X35647525Y-85244558D01*
X35494006Y-85540163D01*
X35397396Y-85869184D01*
X35366681Y-86204240D01*
X35387191Y-86417131D01*
X35464580Y-86725613D01*
X35577412Y-86975905D01*
X35735042Y-87174183D01*
X35946822Y-87326624D01*
X36222109Y-87439404D01*
X36570254Y-87518698D01*
X37000613Y-87570684D01*
X37151717Y-87582188D01*
X37687632Y-87589834D01*
X37687632Y-90379140D01*
X37365405Y-90372580D01*
X37025306Y-90367043D01*
X36730343Y-90363659D01*
X36491647Y-90362497D01*
X36320350Y-90363631D01*
X36227586Y-90367130D01*
X36214264Y-90370406D01*
X36264728Y-90389696D01*
X36396636Y-90433104D01*
X36599050Y-90497221D01*
X36861032Y-90578641D01*
X37171645Y-90673957D01*
X37519950Y-90779760D01*
X37779806Y-90858080D01*
X38223376Y-90991988D01*
X38584127Y-91103346D01*
X38871765Y-91196652D01*
X39095992Y-91276406D01*
X39266512Y-91347105D01*
X39393030Y-91413248D01*
X39485250Y-91479332D01*
X39552874Y-91549857D01*
X39605608Y-91629320D01*
X39653154Y-91722220D01*
X39655756Y-91727691D01*
X39706413Y-91902036D01*
X39728112Y-92121622D01*
X39719012Y-92339188D01*
X39685368Y-92488074D01*
X39623695Y-92592943D01*
X39520526Y-92719654D01*
X39471115Y-92770656D01*
X39417100Y-92818344D01*
X39352135Y-92862925D01*
X39265800Y-92908217D01*
X39147677Y-92958039D01*
X38987345Y-93016208D01*
X38774387Y-93086543D01*
X38498383Y-93172862D01*
X38148914Y-93278983D01*
X37792968Y-93385622D01*
X37424861Y-93495704D01*
X37083454Y-93598130D01*
X36780488Y-93689351D01*
X36527706Y-93765819D01*
X36336850Y-93823986D01*
X36219664Y-93860304D01*
X36189738Y-93870080D01*
X36213545Y-93877341D01*
X36323564Y-93882761D01*
X36509628Y-93886273D01*
X36761570Y-93887807D01*
X37069222Y-93887295D01*
X37422418Y-93884669D01*
X37757876Y-93880625D01*
X39420442Y-93857213D01*
X39553783Y-93972226D01*
X39684235Y-94143282D01*
X39742686Y-94351383D01*
X39729742Y-94570168D01*
X39646009Y-94773276D01*
X39532378Y-94903496D01*
X39385498Y-95027087D01*
X37386613Y-95027087D01*
X36879292Y-95027080D01*
X36458933Y-95026282D01*
X36116103Y-95023534D01*
X35841370Y-95017674D01*
X35625300Y-95007540D01*
X35458461Y-94991971D01*
X35331421Y-94969806D01*
X35234748Y-94939884D01*
X35159008Y-94901043D01*
X35094769Y-94852123D01*
X35032599Y-94791961D01*
X34973230Y-94729966D01*
X34786020Y-94471207D01*
X34686314Y-94186335D01*
X34674518Y-93890548D01*
X34751041Y-93599041D01*
X34916293Y-93327013D01*
X34934943Y-93304692D01*
X34985312Y-93247999D01*
X35037624Y-93198115D01*
X35100993Y-93151559D01*
X35184537Y-93104845D01*
X35297370Y-93054489D01*
X35448608Y-92997008D01*
X35647368Y-92928917D01*
X35902764Y-92846732D01*
X36223912Y-92746969D01*
X36619929Y-92626144D01*
X37055323Y-92494265D01*
X37361699Y-92400933D01*
X37638892Y-92315247D01*
X37872961Y-92241619D01*
X38049965Y-92184458D01*
X38155964Y-92148175D01*
X38178605Y-92138908D01*
X38150099Y-92117082D01*
X38038452Y-92071549D01*
X37853091Y-92005494D01*
X37603443Y-91922101D01*
X37298935Y-91824555D01*
X36948994Y-91716040D01*
X36732685Y-91650461D01*
X36315878Y-91524654D01*
X35980876Y-91422057D01*
X35717004Y-91338685D01*
X35513587Y-91270551D01*
X35359951Y-91213669D01*
X35245422Y-91164053D01*
X35159326Y-91117717D01*
X35090987Y-91070675D01*
X35029732Y-91018941D01*
X35021519Y-91011467D01*
X34828419Y-90777791D01*
X34715583Y-90516692D01*
X34678199Y-90243288D01*
X34711457Y-89972696D01*
X34810545Y-89720032D01*
X34970653Y-89500412D01*
X35186969Y-89328955D01*
X35454683Y-89220775D01*
X35599368Y-89195832D01*
X35839242Y-89171110D01*
X35566256Y-88983519D01*
X35184671Y-88667673D01*
X34846824Y-88281914D01*
X34569922Y-87849004D01*
X34377999Y-87411907D01*
X34314113Y-87163856D01*
X34268515Y-86863953D01*
X34243274Y-86544620D01*
X34240462Y-86238281D01*
X34262150Y-85977361D01*
G37*
X34262150Y-85977361D02*
X34280392Y-85883653D01*
X34382156Y-85613959D01*
X34542292Y-85352400D01*
X34737827Y-85132117D01*
X34875523Y-85025178D01*
X35089928Y-84889535D01*
X34867692Y-84776489D01*
X34720243Y-84687340D01*
X34599651Y-84590130D01*
X34562736Y-84548696D01*
X34527198Y-84494105D01*
X34519434Y-84447175D01*
X34550042Y-84392189D01*
X34629619Y-84313432D01*
X34768763Y-84195184D01*
X34842012Y-84134517D01*
X35210048Y-83797344D01*
X35575246Y-83402462D01*
X35906000Y-82984163D01*
X35919306Y-82965702D01*
X36083618Y-82736765D01*
X37080188Y-82736765D01*
X37414801Y-82738317D01*
X37748173Y-82742635D01*
X38056655Y-82749212D01*
X38316594Y-82757542D01*
X38504340Y-82767118D01*
X38507648Y-82767350D01*
X38938540Y-82797936D01*
X39129569Y-83061577D01*
X39283166Y-83255476D01*
X39486292Y-83486839D01*
X39715115Y-83730685D01*
X39945804Y-83962035D01*
X40154527Y-84155907D01*
X40251722Y-84237827D01*
X40459886Y-84404103D01*
X40287870Y-84659718D01*
X40197458Y-84807676D01*
X40135156Y-84935652D01*
X40115854Y-85005884D01*
X40137052Y-85083415D01*
X40194572Y-85224925D01*
X40279300Y-85409374D01*
X40368890Y-85590034D01*
X40479993Y-85811205D01*
X40553439Y-85975466D01*
X40597581Y-86110608D01*
X40620776Y-86244425D01*
X40631378Y-86404709D01*
X40633613Y-86470635D01*
X40609954Y-86923844D01*
X40552631Y-87202395D01*
X40370580Y-87705080D01*
X40108995Y-88170271D01*
X39778020Y-88583972D01*
X39387799Y-88932185D01*
X39210359Y-89054474D01*
X38988443Y-89195209D01*
X39144865Y-89195209D01*
X39356099Y-89234030D01*
X39547494Y-89337049D01*
X39655054Y-89446645D01*
X39707904Y-89584044D01*
X39727938Y-89771915D01*
X39714860Y-89969984D01*
X39668375Y-90137981D01*
X39660252Y-90154761D01*
X39620567Y-90223443D01*
X39573269Y-90278784D01*
X39508491Y-90321941D01*
X39416370Y-90354071D01*
X39287041Y-90376333D01*
X39110637Y-90389884D01*
X38877295Y-90395883D01*
X38577149Y-90395486D01*
X38200333Y-90389853D01*
X37739508Y-90380196D01*
X37687632Y-90379140D01*
X37687632Y-87589834D01*
X38159547Y-87537018D01*
X38564619Y-87425527D01*
X38900002Y-87257143D01*
X39162853Y-87033652D01*
X39350327Y-86756838D01*
X39459579Y-86428485D01*
X39488818Y-86116171D01*
X39481382Y-85909802D01*
X39461461Y-85714640D01*
X39434275Y-85576662D01*
X39321095Y-85339470D01*
X39143326Y-85125494D01*
X38930050Y-84968305D01*
X38890231Y-84948677D01*
X38823216Y-84922015D01*
X38745344Y-84901185D01*
X38644433Y-84885469D01*
X38508304Y-84874151D01*
X38324773Y-84866513D01*
X38081661Y-84861839D01*
X37766786Y-84859412D01*
X37367966Y-84858514D01*
X37358233Y-84858507D01*
X36022434Y-84857448D01*
X35848971Y-85009751D01*
X35647525Y-85244558D01*
X35494006Y-85540163D01*
X35397396Y-85869184D01*
X35366681Y-86204240D01*
X35387191Y-86417131D01*
X35464580Y-86725613D01*
X35577412Y-86975905D01*
X35735042Y-87174183D01*
X35946822Y-87326624D01*
X36222109Y-87439404D01*
X36570254Y-87518698D01*
X37000613Y-87570684D01*
X37151717Y-87582188D01*
X37687632Y-87589834D01*
X37687632Y-90379140D01*
X37365405Y-90372580D01*
X37025306Y-90367043D01*
X36730343Y-90363659D01*
X36491647Y-90362497D01*
X36320350Y-90363631D01*
X36227586Y-90367130D01*
X36214264Y-90370406D01*
X36264728Y-90389696D01*
X36396636Y-90433104D01*
X36599050Y-90497221D01*
X36861032Y-90578641D01*
X37171645Y-90673957D01*
X37519950Y-90779760D01*
X37779806Y-90858080D01*
X38223376Y-90991988D01*
X38584127Y-91103346D01*
X38871765Y-91196652D01*
X39095992Y-91276406D01*
X39266512Y-91347105D01*
X39393030Y-91413248D01*
X39485250Y-91479332D01*
X39552874Y-91549857D01*
X39605608Y-91629320D01*
X39653154Y-91722220D01*
X39655756Y-91727691D01*
X39706413Y-91902036D01*
X39728112Y-92121622D01*
X39719012Y-92339188D01*
X39685368Y-92488074D01*
X39623695Y-92592943D01*
X39520526Y-92719654D01*
X39471115Y-92770656D01*
X39417100Y-92818344D01*
X39352135Y-92862925D01*
X39265800Y-92908217D01*
X39147677Y-92958039D01*
X38987345Y-93016208D01*
X38774387Y-93086543D01*
X38498383Y-93172862D01*
X38148914Y-93278983D01*
X37792968Y-93385622D01*
X37424861Y-93495704D01*
X37083454Y-93598130D01*
X36780488Y-93689351D01*
X36527706Y-93765819D01*
X36336850Y-93823986D01*
X36219664Y-93860304D01*
X36189738Y-93870080D01*
X36213545Y-93877341D01*
X36323564Y-93882761D01*
X36509628Y-93886273D01*
X36761570Y-93887807D01*
X37069222Y-93887295D01*
X37422418Y-93884669D01*
X37757876Y-93880625D01*
X39420442Y-93857213D01*
X39553783Y-93972226D01*
X39684235Y-94143282D01*
X39742686Y-94351383D01*
X39729742Y-94570168D01*
X39646009Y-94773276D01*
X39532378Y-94903496D01*
X39385498Y-95027087D01*
X37386613Y-95027087D01*
X36879292Y-95027080D01*
X36458933Y-95026282D01*
X36116103Y-95023534D01*
X35841370Y-95017674D01*
X35625300Y-95007540D01*
X35458461Y-94991971D01*
X35331421Y-94969806D01*
X35234748Y-94939884D01*
X35159008Y-94901043D01*
X35094769Y-94852123D01*
X35032599Y-94791961D01*
X34973230Y-94729966D01*
X34786020Y-94471207D01*
X34686314Y-94186335D01*
X34674518Y-93890548D01*
X34751041Y-93599041D01*
X34916293Y-93327013D01*
X34934943Y-93304692D01*
X34985312Y-93247999D01*
X35037624Y-93198115D01*
X35100993Y-93151559D01*
X35184537Y-93104845D01*
X35297370Y-93054489D01*
X35448608Y-92997008D01*
X35647368Y-92928917D01*
X35902764Y-92846732D01*
X36223912Y-92746969D01*
X36619929Y-92626144D01*
X37055323Y-92494265D01*
X37361699Y-92400933D01*
X37638892Y-92315247D01*
X37872961Y-92241619D01*
X38049965Y-92184458D01*
X38155964Y-92148175D01*
X38178605Y-92138908D01*
X38150099Y-92117082D01*
X38038452Y-92071549D01*
X37853091Y-92005494D01*
X37603443Y-91922101D01*
X37298935Y-91824555D01*
X36948994Y-91716040D01*
X36732685Y-91650461D01*
X36315878Y-91524654D01*
X35980876Y-91422057D01*
X35717004Y-91338685D01*
X35513587Y-91270551D01*
X35359951Y-91213669D01*
X35245422Y-91164053D01*
X35159326Y-91117717D01*
X35090987Y-91070675D01*
X35029732Y-91018941D01*
X35021519Y-91011467D01*
X34828419Y-90777791D01*
X34715583Y-90516692D01*
X34678199Y-90243288D01*
X34711457Y-89972696D01*
X34810545Y-89720032D01*
X34970653Y-89500412D01*
X35186969Y-89328955D01*
X35454683Y-89220775D01*
X35599368Y-89195832D01*
X35839242Y-89171110D01*
X35566256Y-88983519D01*
X35184671Y-88667673D01*
X34846824Y-88281914D01*
X34569922Y-87849004D01*
X34377999Y-87411907D01*
X34314113Y-87163856D01*
X34268515Y-86863953D01*
X34243274Y-86544620D01*
X34240462Y-86238281D01*
X34262150Y-85977361D01*
G36*
X38101840Y-80113858D02*
G01*
X38121878Y-79907905D01*
X38158654Y-79757748D01*
X38224787Y-79622877D01*
X38282234Y-79534724D01*
X38471819Y-79325132D01*
X38693267Y-79204913D01*
X38928315Y-79170162D01*
X39043045Y-79183392D01*
X39110942Y-79235578D01*
X39143422Y-79345456D01*
X39151904Y-79531767D01*
X39151907Y-79537132D01*
X39105191Y-79831604D01*
X38970872Y-80109550D01*
X38757695Y-80357458D01*
X38497302Y-80548643D01*
X38366314Y-80641155D01*
X38313461Y-80716454D01*
X38315142Y-80736624D01*
X38353654Y-80745538D01*
X38447767Y-80704207D01*
X38603267Y-80609351D01*
X38825941Y-80457690D01*
X38902890Y-80403336D01*
X39127963Y-80243508D01*
X39346043Y-80088862D01*
X39534742Y-79955259D01*
X39671672Y-79858562D01*
X39690532Y-79845289D01*
X39915875Y-79686844D01*
X40162860Y-79868148D01*
X40303528Y-79984997D01*
X40383022Y-80080676D01*
X40395110Y-80125969D01*
X40353087Y-80175196D01*
X40243564Y-80270631D01*
X40078010Y-80403204D01*
X39867896Y-80563845D01*
X39624691Y-80743484D01*
X39503454Y-80831010D01*
X39248426Y-81014238D01*
X39019858Y-81179288D01*
X38829373Y-81317700D01*
X38688593Y-81421013D01*
X38609142Y-81480766D01*
X38596265Y-81491422D01*
X38594412Y-81552075D01*
X38631278Y-81647906D01*
X38696561Y-81772502D01*
X39659244Y-81092005D01*
X39928612Y-80902270D01*
X40173318Y-80731193D01*
X40381931Y-80586660D01*
X40543022Y-80476558D01*
X40645160Y-80408773D01*
X40675718Y-80390622D01*
X40729102Y-80414069D01*
X40820460Y-80490240D01*
X40927889Y-80596315D01*
X41029483Y-80709475D01*
X41103340Y-80806903D01*
X41127998Y-80861798D01*
X41090298Y-80899154D01*
X40984062Y-80984256D01*
X40819589Y-81109381D01*
X40607177Y-81266803D01*
X40357124Y-81448797D01*
X40092960Y-81638219D01*
X39816646Y-81836077D01*
X39568045Y-82016181D01*
X39357459Y-82170899D01*
X39195186Y-82292598D01*
X39091526Y-82373648D01*
X39056717Y-82406093D01*
X39083678Y-82461920D01*
X39139858Y-82536827D01*
X39167570Y-82566248D01*
X39198977Y-82581795D01*
X39243905Y-82577958D01*
X39312176Y-82549227D01*
X39413614Y-82490093D01*
X39558043Y-82395046D01*
X39755286Y-82258575D01*
X40015167Y-82075172D01*
X40212249Y-81935340D01*
X40487019Y-81740823D01*
X40739033Y-81563444D01*
X40956622Y-81411333D01*
X41128117Y-81292620D01*
X41241850Y-81215437D01*
X41282859Y-81189347D01*
X41339109Y-81179070D01*
X41401696Y-81220445D01*
X41486986Y-81326963D01*
X41535895Y-81397903D01*
X41624549Y-81534663D01*
X41686195Y-81639539D01*
X41706366Y-81685883D01*
X41668662Y-81722095D01*
X41562542Y-81805867D01*
X41398498Y-81929391D01*
X41187020Y-82084859D01*
X40938601Y-82264462D01*
X40706272Y-82430243D01*
X40432095Y-82625009D01*
X40183106Y-82802367D01*
X39970379Y-82954388D01*
X39804989Y-83073143D01*
X39698013Y-83150705D01*
X39661528Y-83178109D01*
X39654569Y-83235014D01*
X39702603Y-83310085D01*
X39777345Y-83372946D01*
X39850509Y-83393220D01*
X39859523Y-83390739D01*
X39915321Y-83356911D01*
X40037685Y-83275118D01*
X40214807Y-83153508D01*
X40434874Y-83000232D01*
X40686078Y-82823439D01*
X40846452Y-82709735D01*
X41110756Y-82522707D01*
X41351109Y-82354276D01*
X41555674Y-82212606D01*
X41712614Y-82105857D01*
X41810092Y-82042191D01*
X41835069Y-82028084D01*
X41884587Y-82055293D01*
X41951008Y-82147029D01*
X42021143Y-82276243D01*
X42081802Y-82415886D01*
X42119796Y-82538907D01*
X42122343Y-82617236D01*
X42077846Y-82661318D01*
X41965944Y-82751697D01*
X41798309Y-82879542D01*
X41586612Y-83036024D01*
X41342525Y-83212314D01*
X41228214Y-83293640D01*
X40975427Y-83474127D01*
X40751449Y-83636847D01*
X40567536Y-83773391D01*
X40434946Y-83875350D01*
X40364933Y-83934312D01*
X40356841Y-83944658D01*
X40396212Y-83991942D01*
X40500497Y-84070710D01*
X40648953Y-84168232D01*
X40820837Y-84271776D01*
X40995405Y-84368614D01*
X41151914Y-84446015D01*
X41221114Y-84475058D01*
X41416811Y-84540366D01*
X41568057Y-84559081D01*
X41708979Y-84526763D01*
X41873704Y-84438974D01*
X41968154Y-84377886D01*
X42113893Y-84287578D01*
X42229450Y-84228090D01*
X42291490Y-84211308D01*
X42293486Y-84212193D01*
X42332036Y-84268416D01*
X42295273Y-84348743D01*
X42178802Y-84459236D01*
X42038168Y-84564372D01*
X41878468Y-84672380D01*
X41763424Y-84732335D01*
X41661624Y-84755396D01*
X41541659Y-84752721D01*
X41514806Y-84750280D01*
X41348881Y-84716998D01*
X41146267Y-84652413D01*
X40978166Y-84582750D01*
X40790887Y-84484654D01*
X40595950Y-84366664D01*
X40410419Y-84241226D01*
X40251360Y-84120785D01*
X40135838Y-84017786D01*
X40080917Y-83944673D01*
X40079474Y-83927355D01*
X40122409Y-83883506D01*
X40232542Y-83792740D01*
X40398424Y-83663875D01*
X40608603Y-83505724D01*
X40851630Y-83327106D01*
X40976311Y-83236886D01*
X41231185Y-83053047D01*
X41459504Y-82887723D01*
X41649729Y-82749324D01*
X41790320Y-82646256D01*
X41869739Y-82586927D01*
X41882780Y-82576417D01*
X41894987Y-82512111D01*
X41875702Y-82414690D01*
X41838231Y-82330241D01*
X41803837Y-82302989D01*
X41753440Y-82329804D01*
X41636046Y-82405132D01*
X41462983Y-82521300D01*
X41245580Y-82670631D01*
X40995163Y-82845451D01*
X40807886Y-82977752D01*
X40540318Y-83165963D01*
X40296892Y-83333957D01*
X40089149Y-83474032D01*
X39928625Y-83578487D01*
X39826859Y-83639619D01*
X39796975Y-83652514D01*
X39735904Y-83617100D01*
X39643021Y-83528401D01*
X39540881Y-83412735D01*
X39452037Y-83296420D01*
X39399043Y-83205771D01*
X39392894Y-83181009D01*
X39430705Y-83140351D01*
X39537244Y-83052396D01*
X39702175Y-82924986D01*
X39915159Y-82765964D01*
X40165859Y-82583173D01*
X40429137Y-82394932D01*
X40705684Y-82197941D01*
X40954336Y-82018789D01*
X41164803Y-81865057D01*
X41326798Y-81744321D01*
X41430033Y-81664159D01*
X41464308Y-81632442D01*
X41436238Y-81578034D01*
X41379963Y-81501873D01*
X41353319Y-81472282D01*
X41323173Y-81456055D01*
X41279998Y-81458609D01*
X41214268Y-81485363D01*
X41116455Y-81541733D01*
X40977033Y-81633138D01*
X40786474Y-81764995D01*
X40535251Y-81942722D01*
X40260446Y-82138504D01*
X39981418Y-82336098D01*
X39726656Y-82513907D01*
X39507060Y-82664533D01*
X39333531Y-82780577D01*
X39216969Y-82854640D01*
X39168981Y-82879373D01*
X39117192Y-82842801D01*
X39037872Y-82749035D01*
X38949800Y-82625422D01*
X38871757Y-82499310D01*
X38822523Y-82398045D01*
X38814526Y-82363210D01*
X38852271Y-82322480D01*
X38958628Y-82234277D01*
X39123282Y-82106466D01*
X39335915Y-81946910D01*
X39586212Y-81763474D01*
X39849675Y-81574116D01*
X40884825Y-80836855D01*
X40782642Y-80728086D01*
X40706803Y-80656421D01*
X40647125Y-80650270D01*
X40556975Y-80705274D01*
X40554798Y-80706789D01*
X40478444Y-80760236D01*
X40337058Y-80859482D01*
X40144431Y-80994838D01*
X39914350Y-81156613D01*
X39660607Y-81335117D01*
X39586233Y-81387454D01*
X39332640Y-81564376D01*
X39102275Y-81722179D01*
X38907904Y-81852354D01*
X38762287Y-81946392D01*
X38678190Y-81995786D01*
X38666122Y-82000837D01*
X38606895Y-81982774D01*
X38539549Y-81891236D01*
X38466591Y-81740281D01*
X38406409Y-81589062D01*
X38370720Y-81473011D01*
X38366661Y-81421272D01*
X38410876Y-81383495D01*
X38522470Y-81298676D01*
X38689977Y-81175225D01*
X38901927Y-81021551D01*
X39146854Y-80846067D01*
X39281441Y-80750405D01*
X40173829Y-80117799D01*
X40060496Y-80030631D01*
X39970556Y-79967892D01*
X39918206Y-79942391D01*
X39870613Y-79968575D01*
X39759955Y-80041175D01*
X39601214Y-80150034D01*
X39409372Y-80284997D01*
X39343910Y-80331702D01*
X39117329Y-80492878D01*
X38892677Y-80650904D01*
X38694525Y-80788602D01*
X38547446Y-80888800D01*
X38536276Y-80896240D01*
X38394113Y-80988020D01*
X38308663Y-81030841D01*
X38257354Y-81030570D01*
X38217613Y-80993072D01*
X38208849Y-80981322D01*
X38145021Y-80833853D01*
X38106115Y-80609264D01*
X38094171Y-80324074D01*
X38101840Y-80113858D01*
G37*
X38101840Y-80113858D02*
X38121878Y-79907905D01*
X38158654Y-79757748D01*
X38224787Y-79622877D01*
X38282234Y-79534724D01*
X38471819Y-79325132D01*
X38693267Y-79204913D01*
X38928315Y-79170162D01*
X39043045Y-79183392D01*
X39110942Y-79235578D01*
X39143422Y-79345456D01*
X39151904Y-79531767D01*
X39151907Y-79537132D01*
X39105191Y-79831604D01*
X38970872Y-80109550D01*
X38757695Y-80357458D01*
X38497302Y-80548643D01*
X38366314Y-80641155D01*
X38313461Y-80716454D01*
X38315142Y-80736624D01*
X38353654Y-80745538D01*
X38447767Y-80704207D01*
X38603267Y-80609351D01*
X38825941Y-80457690D01*
X38902890Y-80403336D01*
X39127963Y-80243508D01*
X39346043Y-80088862D01*
X39534742Y-79955259D01*
X39671672Y-79858562D01*
X39690532Y-79845289D01*
X39915875Y-79686844D01*
X40162860Y-79868148D01*
X40303528Y-79984997D01*
X40383022Y-80080676D01*
X40395110Y-80125969D01*
X40353087Y-80175196D01*
X40243564Y-80270631D01*
X40078010Y-80403204D01*
X39867896Y-80563845D01*
X39624691Y-80743484D01*
X39503454Y-80831010D01*
X39248426Y-81014238D01*
X39019858Y-81179288D01*
X38829373Y-81317700D01*
X38688593Y-81421013D01*
X38609142Y-81480766D01*
X38596265Y-81491422D01*
X38594412Y-81552075D01*
X38631278Y-81647906D01*
X38696561Y-81772502D01*
X39659244Y-81092005D01*
X39928612Y-80902270D01*
X40173318Y-80731193D01*
X40381931Y-80586660D01*
X40543022Y-80476558D01*
X40645160Y-80408773D01*
X40675718Y-80390622D01*
X40729102Y-80414069D01*
X40820460Y-80490240D01*
X40927889Y-80596315D01*
X41029483Y-80709475D01*
X41103340Y-80806903D01*
X41127998Y-80861798D01*
X41090298Y-80899154D01*
X40984062Y-80984256D01*
X40819589Y-81109381D01*
X40607177Y-81266803D01*
X40357124Y-81448797D01*
X40092960Y-81638219D01*
X39816646Y-81836077D01*
X39568045Y-82016181D01*
X39357459Y-82170899D01*
X39195186Y-82292598D01*
X39091526Y-82373648D01*
X39056717Y-82406093D01*
X39083678Y-82461920D01*
X39139858Y-82536827D01*
X39167570Y-82566248D01*
X39198977Y-82581795D01*
X39243905Y-82577958D01*
X39312176Y-82549227D01*
X39413614Y-82490093D01*
X39558043Y-82395046D01*
X39755286Y-82258575D01*
X40015167Y-82075172D01*
X40212249Y-81935340D01*
X40487019Y-81740823D01*
X40739033Y-81563444D01*
X40956622Y-81411333D01*
X41128117Y-81292620D01*
X41241850Y-81215437D01*
X41282859Y-81189347D01*
X41339109Y-81179070D01*
X41401696Y-81220445D01*
X41486986Y-81326963D01*
X41535895Y-81397903D01*
X41624549Y-81534663D01*
X41686195Y-81639539D01*
X41706366Y-81685883D01*
X41668662Y-81722095D01*
X41562542Y-81805867D01*
X41398498Y-81929391D01*
X41187020Y-82084859D01*
X40938601Y-82264462D01*
X40706272Y-82430243D01*
X40432095Y-82625009D01*
X40183106Y-82802367D01*
X39970379Y-82954388D01*
X39804989Y-83073143D01*
X39698013Y-83150705D01*
X39661528Y-83178109D01*
X39654569Y-83235014D01*
X39702603Y-83310085D01*
X39777345Y-83372946D01*
X39850509Y-83393220D01*
X39859523Y-83390739D01*
X39915321Y-83356911D01*
X40037685Y-83275118D01*
X40214807Y-83153508D01*
X40434874Y-83000232D01*
X40686078Y-82823439D01*
X40846452Y-82709735D01*
X41110756Y-82522707D01*
X41351109Y-82354276D01*
X41555674Y-82212606D01*
X41712614Y-82105857D01*
X41810092Y-82042191D01*
X41835069Y-82028084D01*
X41884587Y-82055293D01*
X41951008Y-82147029D01*
X42021143Y-82276243D01*
X42081802Y-82415886D01*
X42119796Y-82538907D01*
X42122343Y-82617236D01*
X42077846Y-82661318D01*
X41965944Y-82751697D01*
X41798309Y-82879542D01*
X41586612Y-83036024D01*
X41342525Y-83212314D01*
X41228214Y-83293640D01*
X40975427Y-83474127D01*
X40751449Y-83636847D01*
X40567536Y-83773391D01*
X40434946Y-83875350D01*
X40364933Y-83934312D01*
X40356841Y-83944658D01*
X40396212Y-83991942D01*
X40500497Y-84070710D01*
X40648953Y-84168232D01*
X40820837Y-84271776D01*
X40995405Y-84368614D01*
X41151914Y-84446015D01*
X41221114Y-84475058D01*
X41416811Y-84540366D01*
X41568057Y-84559081D01*
X41708979Y-84526763D01*
X41873704Y-84438974D01*
X41968154Y-84377886D01*
X42113893Y-84287578D01*
X42229450Y-84228090D01*
X42291490Y-84211308D01*
X42293486Y-84212193D01*
X42332036Y-84268416D01*
X42295273Y-84348743D01*
X42178802Y-84459236D01*
X42038168Y-84564372D01*
X41878468Y-84672380D01*
X41763424Y-84732335D01*
X41661624Y-84755396D01*
X41541659Y-84752721D01*
X41514806Y-84750280D01*
X41348881Y-84716998D01*
X41146267Y-84652413D01*
X40978166Y-84582750D01*
X40790887Y-84484654D01*
X40595950Y-84366664D01*
X40410419Y-84241226D01*
X40251360Y-84120785D01*
X40135838Y-84017786D01*
X40080917Y-83944673D01*
X40079474Y-83927355D01*
X40122409Y-83883506D01*
X40232542Y-83792740D01*
X40398424Y-83663875D01*
X40608603Y-83505724D01*
X40851630Y-83327106D01*
X40976311Y-83236886D01*
X41231185Y-83053047D01*
X41459504Y-82887723D01*
X41649729Y-82749324D01*
X41790320Y-82646256D01*
X41869739Y-82586927D01*
X41882780Y-82576417D01*
X41894987Y-82512111D01*
X41875702Y-82414690D01*
X41838231Y-82330241D01*
X41803837Y-82302989D01*
X41753440Y-82329804D01*
X41636046Y-82405132D01*
X41462983Y-82521300D01*
X41245580Y-82670631D01*
X40995163Y-82845451D01*
X40807886Y-82977752D01*
X40540318Y-83165963D01*
X40296892Y-83333957D01*
X40089149Y-83474032D01*
X39928625Y-83578487D01*
X39826859Y-83639619D01*
X39796975Y-83652514D01*
X39735904Y-83617100D01*
X39643021Y-83528401D01*
X39540881Y-83412735D01*
X39452037Y-83296420D01*
X39399043Y-83205771D01*
X39392894Y-83181009D01*
X39430705Y-83140351D01*
X39537244Y-83052396D01*
X39702175Y-82924986D01*
X39915159Y-82765964D01*
X40165859Y-82583173D01*
X40429137Y-82394932D01*
X40705684Y-82197941D01*
X40954336Y-82018789D01*
X41164803Y-81865057D01*
X41326798Y-81744321D01*
X41430033Y-81664159D01*
X41464308Y-81632442D01*
X41436238Y-81578034D01*
X41379963Y-81501873D01*
X41353319Y-81472282D01*
X41323173Y-81456055D01*
X41279998Y-81458609D01*
X41214268Y-81485363D01*
X41116455Y-81541733D01*
X40977033Y-81633138D01*
X40786474Y-81764995D01*
X40535251Y-81942722D01*
X40260446Y-82138504D01*
X39981418Y-82336098D01*
X39726656Y-82513907D01*
X39507060Y-82664533D01*
X39333531Y-82780577D01*
X39216969Y-82854640D01*
X39168981Y-82879373D01*
X39117192Y-82842801D01*
X39037872Y-82749035D01*
X38949800Y-82625422D01*
X38871757Y-82499310D01*
X38822523Y-82398045D01*
X38814526Y-82363210D01*
X38852271Y-82322480D01*
X38958628Y-82234277D01*
X39123282Y-82106466D01*
X39335915Y-81946910D01*
X39586212Y-81763474D01*
X39849675Y-81574116D01*
X40884825Y-80836855D01*
X40782642Y-80728086D01*
X40706803Y-80656421D01*
X40647125Y-80650270D01*
X40556975Y-80705274D01*
X40554798Y-80706789D01*
X40478444Y-80760236D01*
X40337058Y-80859482D01*
X40144431Y-80994838D01*
X39914350Y-81156613D01*
X39660607Y-81335117D01*
X39586233Y-81387454D01*
X39332640Y-81564376D01*
X39102275Y-81722179D01*
X38907904Y-81852354D01*
X38762287Y-81946392D01*
X38678190Y-81995786D01*
X38666122Y-82000837D01*
X38606895Y-81982774D01*
X38539549Y-81891236D01*
X38466591Y-81740281D01*
X38406409Y-81589062D01*
X38370720Y-81473011D01*
X38366661Y-81421272D01*
X38410876Y-81383495D01*
X38522470Y-81298676D01*
X38689977Y-81175225D01*
X38901927Y-81021551D01*
X39146854Y-80846067D01*
X39281441Y-80750405D01*
X40173829Y-80117799D01*
X40060496Y-80030631D01*
X39970556Y-79967892D01*
X39918206Y-79942391D01*
X39870613Y-79968575D01*
X39759955Y-80041175D01*
X39601214Y-80150034D01*
X39409372Y-80284997D01*
X39343910Y-80331702D01*
X39117329Y-80492878D01*
X38892677Y-80650904D01*
X38694525Y-80788602D01*
X38547446Y-80888800D01*
X38536276Y-80896240D01*
X38394113Y-80988020D01*
X38308663Y-81030841D01*
X38257354Y-81030570D01*
X38217613Y-80993072D01*
X38208849Y-80981322D01*
X38145021Y-80833853D01*
X38106115Y-80609264D01*
X38094171Y-80324074D01*
X38101840Y-80113858D01*
G36*
X63579080Y-91045233D02*
G01*
X63652892Y-91104763D01*
X63680922Y-91214046D01*
X63681945Y-91248509D01*
X63659769Y-91335511D01*
X63584698Y-91412878D01*
X63443919Y-91489024D01*
X63224617Y-91572365D01*
X63151774Y-91596704D01*
X62945106Y-91665939D01*
X62812070Y-91725529D01*
X62735508Y-91798212D01*
X62698261Y-91906727D01*
X62683172Y-92073813D01*
X62677072Y-92225786D01*
X62660244Y-92660899D01*
X62863871Y-92589054D01*
X63098877Y-92527908D01*
X63265366Y-92534451D01*
X63363283Y-92608667D01*
X63392761Y-92737836D01*
X63378510Y-92823665D01*
X63324056Y-92890265D01*
X63211846Y-92950630D01*
X63024327Y-93017756D01*
X63007182Y-93023283D01*
X62851335Y-93078000D01*
X62729269Y-93129315D01*
X62681850Y-93156055D01*
X62653132Y-93217389D01*
X62634047Y-93353116D01*
X62623856Y-93571097D01*
X62621604Y-93796899D01*
X62619167Y-94060303D01*
X62610615Y-94243842D01*
X62594087Y-94363950D01*
X62567723Y-94437065D01*
X62545865Y-94465760D01*
X62424343Y-94534070D01*
X62300179Y-94519491D01*
X62234294Y-94467117D01*
X62216027Y-94397192D01*
X62201671Y-94246710D01*
X62191158Y-94031425D01*
X62184422Y-93767092D01*
X62181393Y-93469466D01*
X62182005Y-93154301D01*
X62186189Y-92837353D01*
X62193877Y-92534377D01*
X62205003Y-92261126D01*
X62219498Y-92033357D01*
X62237294Y-91866824D01*
X62245683Y-91819179D01*
X62318222Y-91605763D01*
X62442559Y-91436302D01*
X62632387Y-91298396D01*
X62901400Y-91179645D01*
X62983248Y-91151292D01*
X63254227Y-91069885D01*
X63449514Y-91034070D01*
X63579080Y-91045233D01*
G37*
X63579080Y-91045233D02*
X63652892Y-91104763D01*
X63680922Y-91214046D01*
X63681945Y-91248509D01*
X63659769Y-91335511D01*
X63584698Y-91412878D01*
X63443919Y-91489024D01*
X63224617Y-91572365D01*
X63151774Y-91596704D01*
X62945106Y-91665939D01*
X62812070Y-91725529D01*
X62735508Y-91798212D01*
X62698261Y-91906727D01*
X62683172Y-92073813D01*
X62677072Y-92225786D01*
X62660244Y-92660899D01*
X62863871Y-92589054D01*
X63098877Y-92527908D01*
X63265366Y-92534451D01*
X63363283Y-92608667D01*
X63392761Y-92737836D01*
X63378510Y-92823665D01*
X63324056Y-92890265D01*
X63211846Y-92950630D01*
X63024327Y-93017756D01*
X63007182Y-93023283D01*
X62851335Y-93078000D01*
X62729269Y-93129315D01*
X62681850Y-93156055D01*
X62653132Y-93217389D01*
X62634047Y-93353116D01*
X62623856Y-93571097D01*
X62621604Y-93796899D01*
X62619167Y-94060303D01*
X62610615Y-94243842D01*
X62594087Y-94363950D01*
X62567723Y-94437065D01*
X62545865Y-94465760D01*
X62424343Y-94534070D01*
X62300179Y-94519491D01*
X62234294Y-94467117D01*
X62216027Y-94397192D01*
X62201671Y-94246710D01*
X62191158Y-94031425D01*
X62184422Y-93767092D01*
X62181393Y-93469466D01*
X62182005Y-93154301D01*
X62186189Y-92837353D01*
X62193877Y-92534377D01*
X62205003Y-92261126D01*
X62219498Y-92033357D01*
X62237294Y-91866824D01*
X62245683Y-91819179D01*
X62318222Y-91605763D01*
X62442559Y-91436302D01*
X62632387Y-91298396D01*
X62901400Y-91179645D01*
X62983248Y-91151292D01*
X63254227Y-91069885D01*
X63449514Y-91034070D01*
X63579080Y-91045233D01*
G36*
X61625618Y-91701426D02*
G01*
X61668344Y-91735320D01*
X61736089Y-91853318D01*
X61710322Y-91972113D01*
X61593634Y-92085001D01*
X61515751Y-92130261D01*
X61410835Y-92193526D01*
X61341144Y-92269278D01*
X61299628Y-92377576D01*
X61279236Y-92538479D01*
X61272920Y-92772045D01*
X61272736Y-92821692D01*
X61273926Y-93009677D01*
X61281769Y-93119320D01*
X61301450Y-93168665D01*
X61338155Y-93175753D01*
X61371927Y-93166778D01*
X61486180Y-93174360D01*
X61592552Y-93245242D01*
X61653708Y-93350941D01*
X61657657Y-93384763D01*
X61621308Y-93480410D01*
X61537489Y-93573476D01*
X61444044Y-93624185D01*
X61428367Y-93625749D01*
X61354520Y-93656844D01*
X61299619Y-93701488D01*
X61264947Y-93756709D01*
X61242200Y-93851078D01*
X61229310Y-94001625D01*
X61224208Y-94225379D01*
X61223881Y-94325320D01*
X61222611Y-94563977D01*
X61216638Y-94725149D01*
X61202712Y-94827734D01*
X61177583Y-94890632D01*
X61138004Y-94932741D01*
X61116762Y-94948443D01*
X61019700Y-95009110D01*
X60952659Y-95013087D01*
X60868689Y-94961720D01*
X60860544Y-94955779D01*
X60819187Y-94916120D01*
X60793357Y-94857337D01*
X60780452Y-94760060D01*
X60777873Y-94604923D01*
X60782875Y-94377411D01*
X60797783Y-93866736D01*
X60679352Y-93866736D01*
X60545554Y-93831997D01*
X60471348Y-93745220D01*
X60459959Y-93632562D01*
X60514614Y-93520183D01*
X60626637Y-93439244D01*
X60776452Y-93373233D01*
X60802511Y-92807647D01*
X60822032Y-92506090D01*
X60853007Y-92281056D01*
X60901928Y-92112798D01*
X60975287Y-91981571D01*
X61079578Y-91867631D01*
X61124600Y-91828173D01*
X61310004Y-91708311D01*
X61482059Y-91665200D01*
X61625618Y-91701426D01*
G37*
X61625618Y-91701426D02*
X61668344Y-91735320D01*
X61736089Y-91853318D01*
X61710322Y-91972113D01*
X61593634Y-92085001D01*
X61515751Y-92130261D01*
X61410835Y-92193526D01*
X61341144Y-92269278D01*
X61299628Y-92377576D01*
X61279236Y-92538479D01*
X61272920Y-92772045D01*
X61272736Y-92821692D01*
X61273926Y-93009677D01*
X61281769Y-93119320D01*
X61301450Y-93168665D01*
X61338155Y-93175753D01*
X61371927Y-93166778D01*
X61486180Y-93174360D01*
X61592552Y-93245242D01*
X61653708Y-93350941D01*
X61657657Y-93384763D01*
X61621308Y-93480410D01*
X61537489Y-93573476D01*
X61444044Y-93624185D01*
X61428367Y-93625749D01*
X61354520Y-93656844D01*
X61299619Y-93701488D01*
X61264947Y-93756709D01*
X61242200Y-93851078D01*
X61229310Y-94001625D01*
X61224208Y-94225379D01*
X61223881Y-94325320D01*
X61222611Y-94563977D01*
X61216638Y-94725149D01*
X61202712Y-94827734D01*
X61177583Y-94890632D01*
X61138004Y-94932741D01*
X61116762Y-94948443D01*
X61019700Y-95009110D01*
X60952659Y-95013087D01*
X60868689Y-94961720D01*
X60860544Y-94955779D01*
X60819187Y-94916120D01*
X60793357Y-94857337D01*
X60780452Y-94760060D01*
X60777873Y-94604923D01*
X60782875Y-94377411D01*
X60797783Y-93866736D01*
X60679352Y-93866736D01*
X60545554Y-93831997D01*
X60471348Y-93745220D01*
X60459959Y-93632562D01*
X60514614Y-93520183D01*
X60626637Y-93439244D01*
X60776452Y-93373233D01*
X60802511Y-92807647D01*
X60822032Y-92506090D01*
X60853007Y-92281056D01*
X60901928Y-92112798D01*
X60975287Y-91981571D01*
X61079578Y-91867631D01*
X61124600Y-91828173D01*
X61310004Y-91708311D01*
X61482059Y-91665200D01*
X61625618Y-91701426D01*
G36*
X58035674Y-89787550D02*
G01*
X58396477Y-89900800D01*
X58693520Y-90033256D01*
X58914991Y-90152828D01*
X59111986Y-90278803D01*
X59267943Y-90398718D01*
X59366299Y-90500110D01*
X59392382Y-90559106D01*
X59358411Y-90636035D01*
X59269138Y-90754703D01*
X59143519Y-90895385D01*
X59000509Y-91038357D01*
X58859065Y-91163897D01*
X58738144Y-91252280D01*
X58712150Y-91266869D01*
X58578464Y-91362178D01*
X58525028Y-91462757D01*
X58556126Y-91554416D01*
X58612520Y-91596803D01*
X58728131Y-91607211D01*
X58883876Y-91547806D01*
X59065898Y-91428634D01*
X59260340Y-91259739D01*
X59453347Y-91051165D01*
X59567530Y-90904515D01*
X59670382Y-90762751D01*
X59850536Y-91044378D01*
X60100329Y-91519586D01*
X60264633Y-92022968D01*
X60342644Y-92541836D01*
X60333559Y-93063499D01*
X60236574Y-93575269D01*
X60050886Y-94064456D01*
X60042795Y-94080964D01*
X59940693Y-94272744D01*
X59832355Y-94452868D01*
X59739782Y-94584965D01*
X59732738Y-94593538D01*
X59594496Y-94758387D01*
X59464830Y-94637894D01*
X59370900Y-94541287D01*
X59243043Y-94397879D01*
X59106961Y-94236609D01*
X59090271Y-94216167D01*
X58933245Y-94039100D01*
X58811600Y-93942332D01*
X58715702Y-93920924D01*
X58635917Y-93969935D01*
X58627961Y-93979111D01*
X58618824Y-94063409D01*
X58678354Y-94202850D01*
X58801942Y-94389951D01*
X58984977Y-94617224D01*
X59101621Y-94748255D01*
X59228067Y-94888846D01*
X59296839Y-94977623D01*
X59316528Y-95032778D01*
X59295726Y-95072503D01*
X59266428Y-95097235D01*
X58799971Y-95397995D01*
X58318248Y-95607338D01*
X58111274Y-95674110D01*
X57933139Y-95715418D01*
X57746466Y-95736955D01*
X57513874Y-95744419D01*
X57416290Y-95744761D01*
X57153605Y-95739988D01*
X56948809Y-95722337D01*
X56763665Y-95686122D01*
X56559937Y-95625658D01*
X56515567Y-95610823D01*
X56325590Y-95535946D01*
X56119264Y-95437577D01*
X55915250Y-95326853D01*
X55732211Y-95214907D01*
X55719998Y-95206217D01*
X56230823Y-95206217D01*
X56259421Y-95308740D01*
X56328240Y-95351202D01*
X56393017Y-95351606D01*
X56453404Y-95338109D01*
X56496203Y-95302231D01*
X56530051Y-95225244D01*
X56560179Y-95102308D01*
X56905884Y-95102308D01*
X56926411Y-95259898D01*
X56970911Y-95352220D01*
X56979917Y-95359068D01*
X57077885Y-95389688D01*
X57150693Y-95340046D01*
X57201172Y-95205469D01*
X57232153Y-94981285D01*
X57235458Y-94937245D01*
X57268603Y-94684049D01*
X57327602Y-94452623D01*
X57377816Y-94330832D01*
X57565913Y-94330832D01*
X57613945Y-94424656D01*
X57621129Y-94436913D01*
X57685361Y-94587560D01*
X57701215Y-94756217D01*
X57670019Y-94971695D01*
X57649745Y-95057515D01*
X57619882Y-95197023D01*
X57623113Y-95276712D01*
X57662676Y-95328417D01*
X57678529Y-95340633D01*
X57779307Y-95382706D01*
X57862336Y-95341816D01*
X57934209Y-95212661D01*
X57970181Y-95106108D01*
X58033781Y-94794863D01*
X58024835Y-94537900D01*
X57989655Y-94451418D01*
X58270897Y-94451418D01*
X58279294Y-94553556D01*
X58291280Y-94719029D01*
X58304491Y-94914962D01*
X58306633Y-94948077D01*
X58326001Y-95143770D01*
X58353788Y-95289622D01*
X58385641Y-95363594D01*
X58389278Y-95366441D01*
X58484306Y-95377359D01*
X58575678Y-95312785D01*
X58639331Y-95191435D01*
X58645532Y-95167113D01*
X58655412Y-95032133D01*
X58643350Y-94852745D01*
X58614556Y-94658735D01*
X58574241Y-94479890D01*
X58527614Y-94345996D01*
X58492785Y-94293917D01*
X58398303Y-94262756D01*
X58315063Y-94306394D01*
X58271350Y-94404756D01*
X58270897Y-94451418D01*
X57989655Y-94451418D01*
X57944006Y-94339204D01*
X57822960Y-94221496D01*
X57732309Y-94180883D01*
X57650668Y-94210298D01*
X57630171Y-94224762D01*
X57570779Y-94276936D01*
X57565913Y-94330832D01*
X57377816Y-94330832D01*
X57404518Y-94266068D01*
X57491416Y-94147487D01*
X57511996Y-94132247D01*
X57549848Y-94065447D01*
X57560882Y-93984385D01*
X57539605Y-93893870D01*
X57458059Y-93866960D01*
X57443832Y-93866736D01*
X57327039Y-93893356D01*
X57221276Y-93981420D01*
X57114993Y-94143234D01*
X57037421Y-94299730D01*
X56975098Y-94478161D01*
X56931532Y-94687416D01*
X56908026Y-94903472D01*
X56905884Y-95102308D01*
X56560179Y-95102308D01*
X56563583Y-95088421D01*
X56599754Y-94903299D01*
X56640619Y-94670821D01*
X56658433Y-94514594D01*
X56652073Y-94417000D01*
X56620412Y-94360424D01*
X56563001Y-94327506D01*
X56483589Y-94320094D01*
X56418366Y-94373152D01*
X56360741Y-94497507D01*
X56304125Y-94703984D01*
X56286874Y-94781139D01*
X56240592Y-95033671D01*
X56230823Y-95206217D01*
X55719998Y-95206217D01*
X55588810Y-95112877D01*
X55503709Y-95031896D01*
X55488397Y-94997945D01*
X55522668Y-94937812D01*
X55613496Y-94834110D01*
X55742902Y-94704399D01*
X55892908Y-94566235D01*
X56045535Y-94437177D01*
X56127012Y-94374272D01*
X56260125Y-94248403D01*
X56307727Y-94133672D01*
X56307752Y-94131258D01*
X56278831Y-94024734D01*
X56195728Y-93991558D01*
X56063936Y-94029371D01*
X55888943Y-94135814D01*
X55676241Y-94308530D01*
X55495228Y-94480184D01*
X55235505Y-94739907D01*
X55117543Y-94629087D01*
X55024717Y-94512175D01*
X54914413Y-94328470D01*
X54798750Y-94102916D01*
X54689850Y-93860459D01*
X54627482Y-93698045D01*
X54885930Y-93698045D01*
X54885930Y-93842637D01*
X54895830Y-93937259D01*
X54943677Y-93986306D01*
X55056691Y-94014564D01*
X55078719Y-94018185D01*
X55242586Y-94033971D01*
X55392566Y-94032232D01*
X55410076Y-94030235D01*
X55570070Y-94015499D01*
X55687211Y-94011328D01*
X55831169Y-93980483D01*
X55937060Y-93902499D01*
X55968292Y-93833930D01*
X58908035Y-93833930D01*
X58922457Y-93867462D01*
X58970778Y-93882649D01*
X59077785Y-93919925D01*
X59127296Y-93937642D01*
X59305830Y-93983245D01*
X59507209Y-94006474D01*
X59703246Y-94007419D01*
X59865751Y-93986167D01*
X59966535Y-93942807D01*
X59974103Y-93934992D01*
X60011681Y-93837341D01*
X59968920Y-93757066D01*
X59861865Y-93712801D01*
X59780885Y-93710599D01*
X59653424Y-93706207D01*
X59475003Y-93682165D01*
X59313558Y-93650080D01*
X59147399Y-93616766D01*
X59017904Y-93600401D01*
X58954443Y-93604223D01*
X58928165Y-93656861D01*
X58910849Y-93748634D01*
X58908035Y-93833930D01*
X55968292Y-93833930D01*
X55984109Y-93799207D01*
X55967515Y-93716808D01*
X55908346Y-93648084D01*
X55818392Y-93647207D01*
X55785670Y-93656193D01*
X55676086Y-93675076D01*
X55504263Y-93689342D01*
X55304335Y-93696311D01*
X55271509Y-93696572D01*
X54885930Y-93698045D01*
X54627482Y-93698045D01*
X54599832Y-93626043D01*
X54549028Y-93458982D01*
X54520825Y-93291485D01*
X54855128Y-93291485D01*
X55419651Y-93277877D01*
X55668698Y-93269788D01*
X55838371Y-93257930D01*
X55945686Y-93239627D01*
X56007657Y-93212204D01*
X56036702Y-93180828D01*
X56054812Y-93116492D01*
X58821678Y-93116492D01*
X58827314Y-93214507D01*
X58893701Y-93281619D01*
X59028440Y-93319576D01*
X59239135Y-93330127D01*
X59533389Y-93315021D01*
X59642843Y-93305395D01*
X59858271Y-93271142D01*
X59979432Y-93217817D01*
X60006603Y-93145144D01*
X59940063Y-93052849D01*
X59917165Y-93033327D01*
X59834397Y-92983149D01*
X59731842Y-92965857D01*
X59575468Y-92976730D01*
X59540687Y-92981092D01*
X59340513Y-93002392D01*
X59137942Y-93016725D01*
X59055857Y-93019666D01*
X58915349Y-93030550D01*
X58845004Y-93064060D01*
X58821678Y-93116492D01*
X56054812Y-93116492D01*
X56060760Y-93095366D01*
X56009796Y-93017953D01*
X55963285Y-92983251D01*
X55896158Y-92963630D01*
X55789102Y-92957902D01*
X55622802Y-92964877D01*
X55408146Y-92980901D01*
X54885930Y-93023283D01*
X54855128Y-93291485D01*
X54520825Y-93291485D01*
X54499623Y-93165570D01*
X54480191Y-92820380D01*
X54490140Y-92481140D01*
X54870539Y-92481140D01*
X54885411Y-92536364D01*
X54924569Y-92568958D01*
X55009044Y-92585039D01*
X55159868Y-92590727D01*
X55249891Y-92591498D01*
X55455243Y-92597985D01*
X55604922Y-92621374D01*
X55739398Y-92671608D01*
X55876457Y-92745428D01*
X56048274Y-92840566D01*
X56160157Y-92887433D01*
X56232875Y-92890471D01*
X56287198Y-92854123D01*
X56302682Y-92836602D01*
X56310902Y-92812886D01*
X58492205Y-92812886D01*
X58521013Y-92874092D01*
X58607138Y-92941448D01*
X58699268Y-92927350D01*
X58814794Y-92828972D01*
X58817661Y-92825914D01*
X58973573Y-92685163D01*
X59135423Y-92604879D01*
X59332411Y-92575623D01*
X59562934Y-92585037D01*
X59792661Y-92593649D01*
X59936941Y-92568179D01*
X60001362Y-92506239D01*
X59991510Y-92405441D01*
X59990364Y-92402410D01*
X59927793Y-92330827D01*
X59798345Y-92283544D01*
X59592111Y-92258198D01*
X59360385Y-92252125D01*
X59166878Y-92256968D01*
X59032578Y-92278009D01*
X58920513Y-92325020D01*
X58807043Y-92398357D01*
X58622442Y-92551111D01*
X58515894Y-92691952D01*
X58492205Y-92812886D01*
X56310902Y-92812886D01*
X56336487Y-92739076D01*
X56279947Y-92632377D01*
X56130868Y-92512481D01*
X56123394Y-92507639D01*
X55908029Y-92382134D01*
X55722097Y-92310521D01*
X55525378Y-92280059D01*
X55392872Y-92276224D01*
X55134757Y-92290135D01*
X54965284Y-92332863D01*
X54880658Y-92405898D01*
X54870539Y-92481140D01*
X54490140Y-92481140D01*
X54490666Y-92463227D01*
X54530984Y-92133929D01*
X54551342Y-92035968D01*
X54625546Y-91788878D01*
X54633381Y-91768959D01*
X54861831Y-91768959D01*
X54868774Y-91843631D01*
X54904002Y-91884056D01*
X54989114Y-91899000D01*
X55145710Y-91897231D01*
X55175114Y-91896128D01*
X55346841Y-91906818D01*
X55536548Y-91942637D01*
X55584791Y-91956252D01*
X55763293Y-91992784D01*
X55872775Y-91966823D01*
X55919471Y-91876109D01*
X55921354Y-91846820D01*
X58872604Y-91846820D01*
X58912086Y-91916766D01*
X58960112Y-91957025D01*
X59035003Y-91978635D01*
X59158597Y-91984205D01*
X59352734Y-91976345D01*
X59391265Y-91974049D01*
X59589474Y-91958774D01*
X59756843Y-91940141D01*
X59865146Y-91921480D01*
X59882678Y-91916063D01*
X59972402Y-91842663D01*
X59997420Y-91743750D01*
X59960471Y-91668938D01*
X59878104Y-91639158D01*
X59729086Y-91626402D01*
X59539648Y-91628575D01*
X59336016Y-91643585D01*
X59144421Y-91669336D01*
X58991091Y-91703735D01*
X58902254Y-91744689D01*
X58894161Y-91754062D01*
X58872604Y-91846820D01*
X55921354Y-91846820D01*
X55922173Y-91834087D01*
X55876040Y-91746386D01*
X55745683Y-91668858D01*
X55543161Y-91607078D01*
X55363943Y-91576060D01*
X55133081Y-91567724D01*
X54968157Y-91608631D01*
X54877345Y-91695639D01*
X54861831Y-91768959D01*
X54633381Y-91768959D01*
X54732979Y-91515764D01*
X54858733Y-91249083D01*
X54987897Y-91021291D01*
X55071719Y-90903138D01*
X55189217Y-90759084D01*
X55634504Y-91204371D01*
X55856121Y-91418279D01*
X56022955Y-91559970D01*
X56140796Y-91632215D01*
X56215433Y-91637782D01*
X56252657Y-91579442D01*
X56259554Y-91503352D01*
X56247890Y-91428341D01*
X56205619Y-91344220D01*
X56121826Y-91236559D01*
X55985592Y-91090926D01*
X55831157Y-90937033D01*
X55402760Y-90517021D01*
X55603558Y-90362973D01*
X55650051Y-90332387D01*
X56241459Y-90332387D01*
X56241608Y-90447584D01*
X56266345Y-90631580D01*
X56285301Y-90739180D01*
X56321753Y-90931250D01*
X56353817Y-91089840D01*
X56376108Y-91188655D01*
X56380459Y-91203833D01*
X56438850Y-91250438D01*
X56537369Y-91262106D01*
X56626889Y-91238631D01*
X56656796Y-91204991D01*
X56660181Y-91121686D01*
X56645951Y-90973822D01*
X56619068Y-90789857D01*
X56584495Y-90598248D01*
X56583906Y-90595550D01*
X56903483Y-90595550D01*
X56939029Y-90821378D01*
X57004085Y-91070284D01*
X57089533Y-91311940D01*
X57186255Y-91516016D01*
X57272148Y-91639037D01*
X57378011Y-91709373D01*
X57473597Y-91700536D01*
X57527292Y-91632916D01*
X57520709Y-91563727D01*
X57483561Y-91431392D01*
X57423286Y-91261351D01*
X57405069Y-91214916D01*
X57328134Y-90989893D01*
X57267209Y-90751447D01*
X57235640Y-90554352D01*
X57214680Y-90378930D01*
X57204600Y-90346234D01*
X57634399Y-90346234D01*
X57641962Y-90529791D01*
X57656511Y-90609723D01*
X57683460Y-90817531D01*
X57685512Y-91026895D01*
X57678252Y-91099420D01*
X57665014Y-91255860D01*
X57686378Y-91341347D01*
X57708655Y-91362440D01*
X57808558Y-91376777D01*
X57903705Y-91307982D01*
X57979213Y-91168784D01*
X57995226Y-91117380D01*
X58014752Y-90977875D01*
X58199845Y-90977875D01*
X58216274Y-91167206D01*
X58274440Y-91275280D01*
X58375255Y-91305341D01*
X58392753Y-91303519D01*
X58447554Y-91287011D01*
X58483699Y-91242969D01*
X58508499Y-91151244D01*
X58529267Y-90991686D01*
X58538255Y-90902599D01*
X58557489Y-90704405D01*
X58574210Y-90531137D01*
X58585280Y-90415312D01*
X58586452Y-90402841D01*
X58561733Y-90288959D01*
X58513684Y-90234967D01*
X58418297Y-90212855D01*
X58339124Y-90281251D01*
X58275149Y-90441803D01*
X58225356Y-90696160D01*
X58224241Y-90704045D01*
X58199845Y-90977875D01*
X58014752Y-90977875D01*
X58019328Y-90945186D01*
X58012933Y-90749908D01*
X57981485Y-90554870D01*
X57930427Y-90383396D01*
X57865203Y-90258811D01*
X57791258Y-90204437D01*
X57781976Y-90203738D01*
X57680697Y-90238758D01*
X57634399Y-90346234D01*
X57204600Y-90346234D01*
X57183689Y-90278413D01*
X57135180Y-90231343D01*
X57121034Y-90225909D01*
X57016754Y-90216485D01*
X56949918Y-90277614D01*
X56906796Y-90421921D01*
X56906568Y-90423131D01*
X56903483Y-90595550D01*
X56583906Y-90595550D01*
X56547196Y-90427450D01*
X56512133Y-90305920D01*
X56493251Y-90267251D01*
X56395712Y-90207487D01*
X56294118Y-90240208D01*
X56265180Y-90269255D01*
X56241459Y-90332387D01*
X55650051Y-90332387D01*
X56037499Y-90077500D01*
X56484932Y-89881365D01*
X56964297Y-89767640D01*
X57271698Y-89736266D01*
X57672765Y-89735216D01*
X58035674Y-89787550D01*
G37*
X58035674Y-89787550D02*
X58396477Y-89900800D01*
X58693520Y-90033256D01*
X58914991Y-90152828D01*
X59111986Y-90278803D01*
X59267943Y-90398718D01*
X59366299Y-90500110D01*
X59392382Y-90559106D01*
X59358411Y-90636035D01*
X59269138Y-90754703D01*
X59143519Y-90895385D01*
X59000509Y-91038357D01*
X58859065Y-91163897D01*
X58738144Y-91252280D01*
X58712150Y-91266869D01*
X58578464Y-91362178D01*
X58525028Y-91462757D01*
X58556126Y-91554416D01*
X58612520Y-91596803D01*
X58728131Y-91607211D01*
X58883876Y-91547806D01*
X59065898Y-91428634D01*
X59260340Y-91259739D01*
X59453347Y-91051165D01*
X59567530Y-90904515D01*
X59670382Y-90762751D01*
X59850536Y-91044378D01*
X60100329Y-91519586D01*
X60264633Y-92022968D01*
X60342644Y-92541836D01*
X60333559Y-93063499D01*
X60236574Y-93575269D01*
X60050886Y-94064456D01*
X60042795Y-94080964D01*
X59940693Y-94272744D01*
X59832355Y-94452868D01*
X59739782Y-94584965D01*
X59732738Y-94593538D01*
X59594496Y-94758387D01*
X59464830Y-94637894D01*
X59370900Y-94541287D01*
X59243043Y-94397879D01*
X59106961Y-94236609D01*
X59090271Y-94216167D01*
X58933245Y-94039100D01*
X58811600Y-93942332D01*
X58715702Y-93920924D01*
X58635917Y-93969935D01*
X58627961Y-93979111D01*
X58618824Y-94063409D01*
X58678354Y-94202850D01*
X58801942Y-94389951D01*
X58984977Y-94617224D01*
X59101621Y-94748255D01*
X59228067Y-94888846D01*
X59296839Y-94977623D01*
X59316528Y-95032778D01*
X59295726Y-95072503D01*
X59266428Y-95097235D01*
X58799971Y-95397995D01*
X58318248Y-95607338D01*
X58111274Y-95674110D01*
X57933139Y-95715418D01*
X57746466Y-95736955D01*
X57513874Y-95744419D01*
X57416290Y-95744761D01*
X57153605Y-95739988D01*
X56948809Y-95722337D01*
X56763665Y-95686122D01*
X56559937Y-95625658D01*
X56515567Y-95610823D01*
X56325590Y-95535946D01*
X56119264Y-95437577D01*
X55915250Y-95326853D01*
X55732211Y-95214907D01*
X55719998Y-95206217D01*
X56230823Y-95206217D01*
X56259421Y-95308740D01*
X56328240Y-95351202D01*
X56393017Y-95351606D01*
X56453404Y-95338109D01*
X56496203Y-95302231D01*
X56530051Y-95225244D01*
X56560179Y-95102308D01*
X56905884Y-95102308D01*
X56926411Y-95259898D01*
X56970911Y-95352220D01*
X56979917Y-95359068D01*
X57077885Y-95389688D01*
X57150693Y-95340046D01*
X57201172Y-95205469D01*
X57232153Y-94981285D01*
X57235458Y-94937245D01*
X57268603Y-94684049D01*
X57327602Y-94452623D01*
X57377816Y-94330832D01*
X57565913Y-94330832D01*
X57613945Y-94424656D01*
X57621129Y-94436913D01*
X57685361Y-94587560D01*
X57701215Y-94756217D01*
X57670019Y-94971695D01*
X57649745Y-95057515D01*
X57619882Y-95197023D01*
X57623113Y-95276712D01*
X57662676Y-95328417D01*
X57678529Y-95340633D01*
X57779307Y-95382706D01*
X57862336Y-95341816D01*
X57934209Y-95212661D01*
X57970181Y-95106108D01*
X58033781Y-94794863D01*
X58024835Y-94537900D01*
X57989655Y-94451418D01*
X58270897Y-94451418D01*
X58279294Y-94553556D01*
X58291280Y-94719029D01*
X58304491Y-94914962D01*
X58306633Y-94948077D01*
X58326001Y-95143770D01*
X58353788Y-95289622D01*
X58385641Y-95363594D01*
X58389278Y-95366441D01*
X58484306Y-95377359D01*
X58575678Y-95312785D01*
X58639331Y-95191435D01*
X58645532Y-95167113D01*
X58655412Y-95032133D01*
X58643350Y-94852745D01*
X58614556Y-94658735D01*
X58574241Y-94479890D01*
X58527614Y-94345996D01*
X58492785Y-94293917D01*
X58398303Y-94262756D01*
X58315063Y-94306394D01*
X58271350Y-94404756D01*
X58270897Y-94451418D01*
X57989655Y-94451418D01*
X57944006Y-94339204D01*
X57822960Y-94221496D01*
X57732309Y-94180883D01*
X57650668Y-94210298D01*
X57630171Y-94224762D01*
X57570779Y-94276936D01*
X57565913Y-94330832D01*
X57377816Y-94330832D01*
X57404518Y-94266068D01*
X57491416Y-94147487D01*
X57511996Y-94132247D01*
X57549848Y-94065447D01*
X57560882Y-93984385D01*
X57539605Y-93893870D01*
X57458059Y-93866960D01*
X57443832Y-93866736D01*
X57327039Y-93893356D01*
X57221276Y-93981420D01*
X57114993Y-94143234D01*
X57037421Y-94299730D01*
X56975098Y-94478161D01*
X56931532Y-94687416D01*
X56908026Y-94903472D01*
X56905884Y-95102308D01*
X56560179Y-95102308D01*
X56563583Y-95088421D01*
X56599754Y-94903299D01*
X56640619Y-94670821D01*
X56658433Y-94514594D01*
X56652073Y-94417000D01*
X56620412Y-94360424D01*
X56563001Y-94327506D01*
X56483589Y-94320094D01*
X56418366Y-94373152D01*
X56360741Y-94497507D01*
X56304125Y-94703984D01*
X56286874Y-94781139D01*
X56240592Y-95033671D01*
X56230823Y-95206217D01*
X55719998Y-95206217D01*
X55588810Y-95112877D01*
X55503709Y-95031896D01*
X55488397Y-94997945D01*
X55522668Y-94937812D01*
X55613496Y-94834110D01*
X55742902Y-94704399D01*
X55892908Y-94566235D01*
X56045535Y-94437177D01*
X56127012Y-94374272D01*
X56260125Y-94248403D01*
X56307727Y-94133672D01*
X56307752Y-94131258D01*
X56278831Y-94024734D01*
X56195728Y-93991558D01*
X56063936Y-94029371D01*
X55888943Y-94135814D01*
X55676241Y-94308530D01*
X55495228Y-94480184D01*
X55235505Y-94739907D01*
X55117543Y-94629087D01*
X55024717Y-94512175D01*
X54914413Y-94328470D01*
X54798750Y-94102916D01*
X54689850Y-93860459D01*
X54627482Y-93698045D01*
X54885930Y-93698045D01*
X54885930Y-93842637D01*
X54895830Y-93937259D01*
X54943677Y-93986306D01*
X55056691Y-94014564D01*
X55078719Y-94018185D01*
X55242586Y-94033971D01*
X55392566Y-94032232D01*
X55410076Y-94030235D01*
X55570070Y-94015499D01*
X55687211Y-94011328D01*
X55831169Y-93980483D01*
X55937060Y-93902499D01*
X55968292Y-93833930D01*
X58908035Y-93833930D01*
X58922457Y-93867462D01*
X58970778Y-93882649D01*
X59077785Y-93919925D01*
X59127296Y-93937642D01*
X59305830Y-93983245D01*
X59507209Y-94006474D01*
X59703246Y-94007419D01*
X59865751Y-93986167D01*
X59966535Y-93942807D01*
X59974103Y-93934992D01*
X60011681Y-93837341D01*
X59968920Y-93757066D01*
X59861865Y-93712801D01*
X59780885Y-93710599D01*
X59653424Y-93706207D01*
X59475003Y-93682165D01*
X59313558Y-93650080D01*
X59147399Y-93616766D01*
X59017904Y-93600401D01*
X58954443Y-93604223D01*
X58928165Y-93656861D01*
X58910849Y-93748634D01*
X58908035Y-93833930D01*
X55968292Y-93833930D01*
X55984109Y-93799207D01*
X55967515Y-93716808D01*
X55908346Y-93648084D01*
X55818392Y-93647207D01*
X55785670Y-93656193D01*
X55676086Y-93675076D01*
X55504263Y-93689342D01*
X55304335Y-93696311D01*
X55271509Y-93696572D01*
X54885930Y-93698045D01*
X54627482Y-93698045D01*
X54599832Y-93626043D01*
X54549028Y-93458982D01*
X54520825Y-93291485D01*
X54855128Y-93291485D01*
X55419651Y-93277877D01*
X55668698Y-93269788D01*
X55838371Y-93257930D01*
X55945686Y-93239627D01*
X56007657Y-93212204D01*
X56036702Y-93180828D01*
X56054812Y-93116492D01*
X58821678Y-93116492D01*
X58827314Y-93214507D01*
X58893701Y-93281619D01*
X59028440Y-93319576D01*
X59239135Y-93330127D01*
X59533389Y-93315021D01*
X59642843Y-93305395D01*
X59858271Y-93271142D01*
X59979432Y-93217817D01*
X60006603Y-93145144D01*
X59940063Y-93052849D01*
X59917165Y-93033327D01*
X59834397Y-92983149D01*
X59731842Y-92965857D01*
X59575468Y-92976730D01*
X59540687Y-92981092D01*
X59340513Y-93002392D01*
X59137942Y-93016725D01*
X59055857Y-93019666D01*
X58915349Y-93030550D01*
X58845004Y-93064060D01*
X58821678Y-93116492D01*
X56054812Y-93116492D01*
X56060760Y-93095366D01*
X56009796Y-93017953D01*
X55963285Y-92983251D01*
X55896158Y-92963630D01*
X55789102Y-92957902D01*
X55622802Y-92964877D01*
X55408146Y-92980901D01*
X54885930Y-93023283D01*
X54855128Y-93291485D01*
X54520825Y-93291485D01*
X54499623Y-93165570D01*
X54480191Y-92820380D01*
X54490140Y-92481140D01*
X54870539Y-92481140D01*
X54885411Y-92536364D01*
X54924569Y-92568958D01*
X55009044Y-92585039D01*
X55159868Y-92590727D01*
X55249891Y-92591498D01*
X55455243Y-92597985D01*
X55604922Y-92621374D01*
X55739398Y-92671608D01*
X55876457Y-92745428D01*
X56048274Y-92840566D01*
X56160157Y-92887433D01*
X56232875Y-92890471D01*
X56287198Y-92854123D01*
X56302682Y-92836602D01*
X56310902Y-92812886D01*
X58492205Y-92812886D01*
X58521013Y-92874092D01*
X58607138Y-92941448D01*
X58699268Y-92927350D01*
X58814794Y-92828972D01*
X58817661Y-92825914D01*
X58973573Y-92685163D01*
X59135423Y-92604879D01*
X59332411Y-92575623D01*
X59562934Y-92585037D01*
X59792661Y-92593649D01*
X59936941Y-92568179D01*
X60001362Y-92506239D01*
X59991510Y-92405441D01*
X59990364Y-92402410D01*
X59927793Y-92330827D01*
X59798345Y-92283544D01*
X59592111Y-92258198D01*
X59360385Y-92252125D01*
X59166878Y-92256968D01*
X59032578Y-92278009D01*
X58920513Y-92325020D01*
X58807043Y-92398357D01*
X58622442Y-92551111D01*
X58515894Y-92691952D01*
X58492205Y-92812886D01*
X56310902Y-92812886D01*
X56336487Y-92739076D01*
X56279947Y-92632377D01*
X56130868Y-92512481D01*
X56123394Y-92507639D01*
X55908029Y-92382134D01*
X55722097Y-92310521D01*
X55525378Y-92280059D01*
X55392872Y-92276224D01*
X55134757Y-92290135D01*
X54965284Y-92332863D01*
X54880658Y-92405898D01*
X54870539Y-92481140D01*
X54490140Y-92481140D01*
X54490666Y-92463227D01*
X54530984Y-92133929D01*
X54551342Y-92035968D01*
X54625546Y-91788878D01*
X54633381Y-91768959D01*
X54861831Y-91768959D01*
X54868774Y-91843631D01*
X54904002Y-91884056D01*
X54989114Y-91899000D01*
X55145710Y-91897231D01*
X55175114Y-91896128D01*
X55346841Y-91906818D01*
X55536548Y-91942637D01*
X55584791Y-91956252D01*
X55763293Y-91992784D01*
X55872775Y-91966823D01*
X55919471Y-91876109D01*
X55921354Y-91846820D01*
X58872604Y-91846820D01*
X58912086Y-91916766D01*
X58960112Y-91957025D01*
X59035003Y-91978635D01*
X59158597Y-91984205D01*
X59352734Y-91976345D01*
X59391265Y-91974049D01*
X59589474Y-91958774D01*
X59756843Y-91940141D01*
X59865146Y-91921480D01*
X59882678Y-91916063D01*
X59972402Y-91842663D01*
X59997420Y-91743750D01*
X59960471Y-91668938D01*
X59878104Y-91639158D01*
X59729086Y-91626402D01*
X59539648Y-91628575D01*
X59336016Y-91643585D01*
X59144421Y-91669336D01*
X58991091Y-91703735D01*
X58902254Y-91744689D01*
X58894161Y-91754062D01*
X58872604Y-91846820D01*
X55921354Y-91846820D01*
X55922173Y-91834087D01*
X55876040Y-91746386D01*
X55745683Y-91668858D01*
X55543161Y-91607078D01*
X55363943Y-91576060D01*
X55133081Y-91567724D01*
X54968157Y-91608631D01*
X54877345Y-91695639D01*
X54861831Y-91768959D01*
X54633381Y-91768959D01*
X54732979Y-91515764D01*
X54858733Y-91249083D01*
X54987897Y-91021291D01*
X55071719Y-90903138D01*
X55189217Y-90759084D01*
X55634504Y-91204371D01*
X55856121Y-91418279D01*
X56022955Y-91559970D01*
X56140796Y-91632215D01*
X56215433Y-91637782D01*
X56252657Y-91579442D01*
X56259554Y-91503352D01*
X56247890Y-91428341D01*
X56205619Y-91344220D01*
X56121826Y-91236559D01*
X55985592Y-91090926D01*
X55831157Y-90937033D01*
X55402760Y-90517021D01*
X55603558Y-90362973D01*
X55650051Y-90332387D01*
X56241459Y-90332387D01*
X56241608Y-90447584D01*
X56266345Y-90631580D01*
X56285301Y-90739180D01*
X56321753Y-90931250D01*
X56353817Y-91089840D01*
X56376108Y-91188655D01*
X56380459Y-91203833D01*
X56438850Y-91250438D01*
X56537369Y-91262106D01*
X56626889Y-91238631D01*
X56656796Y-91204991D01*
X56660181Y-91121686D01*
X56645951Y-90973822D01*
X56619068Y-90789857D01*
X56584495Y-90598248D01*
X56583906Y-90595550D01*
X56903483Y-90595550D01*
X56939029Y-90821378D01*
X57004085Y-91070284D01*
X57089533Y-91311940D01*
X57186255Y-91516016D01*
X57272148Y-91639037D01*
X57378011Y-91709373D01*
X57473597Y-91700536D01*
X57527292Y-91632916D01*
X57520709Y-91563727D01*
X57483561Y-91431392D01*
X57423286Y-91261351D01*
X57405069Y-91214916D01*
X57328134Y-90989893D01*
X57267209Y-90751447D01*
X57235640Y-90554352D01*
X57214680Y-90378930D01*
X57204600Y-90346234D01*
X57634399Y-90346234D01*
X57641962Y-90529791D01*
X57656511Y-90609723D01*
X57683460Y-90817531D01*
X57685512Y-91026895D01*
X57678252Y-91099420D01*
X57665014Y-91255860D01*
X57686378Y-91341347D01*
X57708655Y-91362440D01*
X57808558Y-91376777D01*
X57903705Y-91307982D01*
X57979213Y-91168784D01*
X57995226Y-91117380D01*
X58014752Y-90977875D01*
X58199845Y-90977875D01*
X58216274Y-91167206D01*
X58274440Y-91275280D01*
X58375255Y-91305341D01*
X58392753Y-91303519D01*
X58447554Y-91287011D01*
X58483699Y-91242969D01*
X58508499Y-91151244D01*
X58529267Y-90991686D01*
X58538255Y-90902599D01*
X58557489Y-90704405D01*
X58574210Y-90531137D01*
X58585280Y-90415312D01*
X58586452Y-90402841D01*
X58561733Y-90288959D01*
X58513684Y-90234967D01*
X58418297Y-90212855D01*
X58339124Y-90281251D01*
X58275149Y-90441803D01*
X58225356Y-90696160D01*
X58224241Y-90704045D01*
X58199845Y-90977875D01*
X58014752Y-90977875D01*
X58019328Y-90945186D01*
X58012933Y-90749908D01*
X57981485Y-90554870D01*
X57930427Y-90383396D01*
X57865203Y-90258811D01*
X57791258Y-90204437D01*
X57781976Y-90203738D01*
X57680697Y-90238758D01*
X57634399Y-90346234D01*
X57204600Y-90346234D01*
X57183689Y-90278413D01*
X57135180Y-90231343D01*
X57121034Y-90225909D01*
X57016754Y-90216485D01*
X56949918Y-90277614D01*
X56906796Y-90421921D01*
X56906568Y-90423131D01*
X56903483Y-90595550D01*
X56583906Y-90595550D01*
X56547196Y-90427450D01*
X56512133Y-90305920D01*
X56493251Y-90267251D01*
X56395712Y-90207487D01*
X56294118Y-90240208D01*
X56265180Y-90269255D01*
X56241459Y-90332387D01*
X55650051Y-90332387D01*
X56037499Y-90077500D01*
X56484932Y-89881365D01*
X56964297Y-89767640D01*
X57271698Y-89736266D01*
X57672765Y-89735216D01*
X58035674Y-89787550D01*
D12*
X77490000Y-137121999D02*
X77490000Y-132118001D01*
X79991999Y-134620000D02*
G75*
G03X79991999Y-134620000I-2501999J0D01*
G01*
X79971999Y-122535000D02*
X74968001Y-122535000D01*
X79971999Y-122535000D02*
G75*
G03X79971999Y-122535000I-2501999J0D01*
G01*
X47775000Y-119190000D02*
X47775000Y-124690000D01*
X50015000Y-119190000D02*
X50015000Y-124690000D01*
X50015000Y-119190000D02*
X47775000Y-119190000D01*
X50015000Y-124690000D02*
X47775000Y-124690000D01*
X44590000Y-122415000D02*
X26630000Y-122415000D01*
X44590000Y-137935000D02*
X44590000Y-122415000D01*
X44590000Y-137935000D02*
X26630000Y-137935000D01*
X26630000Y-122415000D02*
X26630000Y-137935000D01*
X44630000Y-104000000D02*
X26670000Y-104000000D01*
X44630000Y-119520000D02*
X44630000Y-104000000D01*
X44630000Y-119520000D02*
X26670000Y-119520000D01*
X26670000Y-104000000D02*
X26670000Y-119520000D01*
X80010000Y-83820000D02*
X80010000Y-86360000D01*
X80010000Y-86360000D02*
X49530000Y-86360000D01*
X49530000Y-86360000D02*
X49530000Y-83820000D01*
X49530000Y-83820000D02*
X80010000Y-83820000D01*
X80010000Y-101600000D02*
X49530000Y-101600000D01*
X49530000Y-101600000D02*
X49530000Y-100330000D01*
X49530000Y-100330000D02*
X49530000Y-99060000D01*
X49530000Y-99060000D02*
X80010000Y-99060000D01*
X80010000Y-99060000D02*
X80010000Y-101600000D01*
X80518000Y-83566000D02*
X80518000Y-83312000D01*
X80518000Y-83312000D02*
X46482000Y-83312000D01*
X46482000Y-83312000D02*
X46482000Y-102108000D01*
X46482000Y-102108000D02*
X80518000Y-102108000D01*
X80518000Y-102108000D02*
X80518000Y-83566000D01*
X77250000Y-103515000D02*
X73440000Y-103515000D01*
X81060000Y-103515000D02*
X77250000Y-103515000D01*
X77250000Y-117485000D02*
X73440000Y-117485000D01*
X81060000Y-117485000D02*
X77250000Y-117485000D01*
X73440000Y-117485000D02*
X73440000Y-103515000D01*
X81060000Y-117485000D02*
X81060000Y-103515000D01*
X74075000Y-116850000D02*
X74710000Y-116850000D01*
X74710000Y-116850000D02*
X74075000Y-116215000D01*
X74075000Y-116215000D02*
X74075000Y-115580000D01*
X74075000Y-115580000D02*
X75345000Y-116850000D01*
X75345000Y-116850000D02*
X75980000Y-116850000D01*
X75980000Y-116850000D02*
X74075000Y-114945000D01*
X74075000Y-114945000D02*
X74075000Y-114310000D01*
X74075000Y-114310000D02*
X76615000Y-116850000D01*
X76615000Y-116850000D02*
X77250000Y-116850000D01*
X77250000Y-116850000D02*
X74075000Y-113675000D01*
X74075000Y-113675000D02*
X74075000Y-113040000D01*
X74075000Y-113040000D02*
X77885000Y-116850000D01*
X77885000Y-116850000D02*
X78520000Y-116850000D01*
X78520000Y-116850000D02*
X74075000Y-112405000D01*
X74075000Y-112405000D02*
X74075000Y-111770000D01*
X74075000Y-111770000D02*
X79155000Y-116850000D01*
X79155000Y-116850000D02*
X79790000Y-116850000D01*
X79790000Y-116850000D02*
X74075000Y-111135000D01*
X74075000Y-111135000D02*
X74075000Y-110500000D01*
X74075000Y-110500000D02*
X80425000Y-116850000D01*
X80425000Y-116850000D02*
X80425000Y-116215000D01*
X80425000Y-116215000D02*
X74075000Y-109865000D01*
X74075000Y-109865000D02*
X74075000Y-109230000D01*
X74075000Y-109230000D02*
X80425000Y-115580000D01*
X80425000Y-115580000D02*
X80425000Y-114945000D01*
X80425000Y-114945000D02*
X74075000Y-108595000D01*
X74075000Y-108595000D02*
X74075000Y-107960000D01*
X74075000Y-107960000D02*
X80425000Y-114310000D01*
X80425000Y-114310000D02*
X80425000Y-113675000D01*
X80425000Y-113675000D02*
X74075000Y-107325000D01*
X74075000Y-107325000D02*
X74075000Y-106690000D01*
X74075000Y-106690000D02*
X80425000Y-113040000D01*
X80425000Y-113040000D02*
X80425000Y-112405000D01*
X80425000Y-112405000D02*
X74075000Y-106055000D01*
X74075000Y-106055000D02*
X74075000Y-105420000D01*
X74075000Y-105420000D02*
X80425000Y-111770000D01*
X80425000Y-111770000D02*
X80425000Y-111135000D01*
X80425000Y-111135000D02*
X74075000Y-104785000D01*
X74075000Y-104785000D02*
X74075000Y-104150000D01*
X74075000Y-104150000D02*
X80425000Y-110500000D01*
X80425000Y-110500000D02*
X80425000Y-109865000D01*
X80425000Y-109865000D02*
X74710000Y-104150000D01*
X74710000Y-104150000D02*
X75345000Y-104150000D01*
X75345000Y-104150000D02*
X80425000Y-109230000D01*
X80425000Y-109230000D02*
X80425000Y-108595000D01*
X80425000Y-108595000D02*
X75980000Y-104150000D01*
X75980000Y-104150000D02*
X76615000Y-104150000D01*
X76615000Y-104150000D02*
X80425000Y-107960000D01*
X80425000Y-107960000D02*
X80425000Y-107325000D01*
X80425000Y-107325000D02*
X77250000Y-104150000D01*
X77250000Y-104150000D02*
X77885000Y-104150000D01*
X77885000Y-104150000D02*
X80425000Y-106690000D01*
X80425000Y-106690000D02*
X80425000Y-106055000D01*
X80425000Y-106055000D02*
X78520000Y-104150000D01*
X78520000Y-104150000D02*
X79155000Y-104150000D01*
X79155000Y-104150000D02*
X80425000Y-105420000D01*
X80425000Y-105420000D02*
X80425000Y-104785000D01*
X80425000Y-104785000D02*
X79790000Y-104150000D01*
X79790000Y-104150000D02*
X80425000Y-104150000D01*
X39600000Y-146040000D02*
X39600000Y-146675000D01*
X38965000Y-146675000D02*
X39600000Y-146040000D01*
X38330000Y-146675000D02*
X38965000Y-146675000D01*
X39600000Y-145405000D02*
X38330000Y-146675000D01*
X39600000Y-144770000D02*
X39600000Y-145405000D01*
X37695000Y-146675000D02*
X39600000Y-144770000D01*
X37060000Y-146675000D02*
X37695000Y-146675000D01*
X39600000Y-144135000D02*
X37060000Y-146675000D01*
X39600000Y-143500000D02*
X39600000Y-144135000D01*
X36425000Y-146675000D02*
X39600000Y-143500000D01*
X35790000Y-146675000D02*
X36425000Y-146675000D01*
X39600000Y-142865000D02*
X35790000Y-146675000D01*
X39600000Y-142230000D02*
X39600000Y-142865000D01*
X35155000Y-146675000D02*
X39600000Y-142230000D01*
X34520000Y-146675000D02*
X35155000Y-146675000D01*
X39600000Y-141595000D02*
X34520000Y-146675000D01*
X39600000Y-140960000D02*
X39600000Y-141595000D01*
X33885000Y-146675000D02*
X39600000Y-140960000D01*
X33250000Y-146675000D02*
X33885000Y-146675000D01*
X39600000Y-140325000D02*
X33250000Y-146675000D01*
X38965000Y-140325000D02*
X39600000Y-140325000D01*
X32615000Y-146675000D02*
X38965000Y-140325000D01*
X31980000Y-146675000D02*
X32615000Y-146675000D01*
X38330000Y-140325000D02*
X31980000Y-146675000D01*
X37695000Y-140325000D02*
X38330000Y-140325000D01*
X31345000Y-146675000D02*
X37695000Y-140325000D01*
X30710000Y-146675000D02*
X31345000Y-146675000D01*
X37060000Y-140325000D02*
X30710000Y-146675000D01*
X36425000Y-140325000D02*
X37060000Y-140325000D01*
X30075000Y-146675000D02*
X36425000Y-140325000D01*
X29440000Y-146675000D02*
X30075000Y-146675000D01*
X35790000Y-140325000D02*
X29440000Y-146675000D01*
X35155000Y-140325000D02*
X35790000Y-140325000D01*
X28805000Y-146675000D02*
X35155000Y-140325000D01*
X28170000Y-146675000D02*
X28805000Y-146675000D01*
X34520000Y-140325000D02*
X28170000Y-146675000D01*
X33885000Y-140325000D02*
X34520000Y-140325000D01*
X27535000Y-146675000D02*
X33885000Y-140325000D01*
X26900000Y-146675000D02*
X27535000Y-146675000D01*
X33250000Y-140325000D02*
X26900000Y-146675000D01*
X32615000Y-140325000D02*
X33250000Y-140325000D01*
X26900000Y-146040000D02*
X32615000Y-140325000D01*
X26900000Y-145405000D02*
X26900000Y-146040000D01*
X31980000Y-140325000D02*
X26900000Y-145405000D01*
X31345000Y-140325000D02*
X31980000Y-140325000D01*
X26900000Y-144770000D02*
X31345000Y-140325000D01*
X26900000Y-144135000D02*
X26900000Y-144770000D01*
X30710000Y-140325000D02*
X26900000Y-144135000D01*
X30075000Y-140325000D02*
X30710000Y-140325000D01*
X26900000Y-143500000D02*
X30075000Y-140325000D01*
X26900000Y-142865000D02*
X26900000Y-143500000D01*
X29440000Y-140325000D02*
X26900000Y-142865000D01*
X28805000Y-140325000D02*
X29440000Y-140325000D01*
X26900000Y-142230000D02*
X28805000Y-140325000D01*
X26900000Y-141595000D02*
X26900000Y-142230000D01*
X28170000Y-140325000D02*
X26900000Y-141595000D01*
X27535000Y-140325000D02*
X28170000Y-140325000D01*
X26900000Y-140960000D02*
X27535000Y-140325000D01*
X26900000Y-140325000D02*
X26900000Y-140960000D01*
X26265000Y-147310000D02*
X40235000Y-147310000D01*
X26265000Y-139690000D02*
X40235000Y-139690000D01*
X26265000Y-147310000D02*
X26265000Y-143500000D01*
X26265000Y-143500000D02*
X26265000Y-139690000D01*
X40235000Y-147310000D02*
X40235000Y-143500000D01*
X40235000Y-143500000D02*
X40235000Y-139690000D01*
X54356000Y-80264000D02*
X62484000Y-80264000D01*
X62484000Y-77216000D02*
X54356000Y-77216000D01*
X54356000Y-77216000D02*
X54356000Y-80264000D01*
X70104000Y-77216000D02*
X61976000Y-77216000D01*
X70104000Y-80264000D02*
X70104000Y-77216000D01*
X61976000Y-80264000D02*
X70104000Y-80264000D01*
X79629000Y-82169000D02*
X79629000Y-74041000D01*
X76581000Y-82169000D02*
X79629000Y-82169000D01*
X76581000Y-74041000D02*
X76581000Y-82169000D01*
X79629000Y-74041000D02*
X76581000Y-74041000D01*
X75184000Y-82169000D02*
X75184000Y-74041000D01*
X72136000Y-82169000D02*
X75184000Y-82169000D01*
X72136000Y-74041000D02*
X72136000Y-82169000D01*
X75184000Y-74041000D02*
X72136000Y-74041000D01*
X57785000Y-105685000D02*
X57805000Y-144145000D01*
X73025000Y-105685000D02*
X73045000Y-144145000D01*
X60345000Y-146685000D02*
X57805000Y-146685000D01*
X70505000Y-146685000D02*
X73045000Y-146685000D01*
X70505000Y-146685000D02*
X60345000Y-146685000D01*
X57805000Y-146685000D02*
X57805000Y-144145000D01*
X60345000Y-145415000D02*
X60345000Y-144145000D01*
X60345000Y-144145000D02*
X70505000Y-144145000D01*
X60345000Y-146685000D02*
X60345000Y-145415000D01*
X73045000Y-146685000D02*
X73045000Y-144145000D01*
X70505000Y-144145000D02*
X70505000Y-146685000D01*
X57785000Y-103145000D02*
X57785000Y-105685000D01*
X60325000Y-103145000D02*
X57785000Y-103145000D01*
X73025000Y-103145000D02*
X73025000Y-105685000D01*
X70485000Y-103145000D02*
X73025000Y-103145000D01*
X70485000Y-103145000D02*
X70485000Y-104415000D01*
X60325000Y-103145000D02*
X70485000Y-103145000D01*
X60325000Y-105685000D02*
X60325000Y-103145000D01*
X70485000Y-105685000D02*
X60325000Y-105685000D01*
X70485000Y-104415000D02*
X70485000Y-105685000D01*
X47625000Y-137795000D02*
X45720000Y-137795000D01*
X45720000Y-146685000D02*
X45720000Y-126365000D01*
X57150000Y-146685000D02*
X45720000Y-146685000D01*
X57150000Y-126365000D02*
X57150000Y-146685000D01*
X57150000Y-126365000D02*
X45720000Y-126365000D01*
X55245000Y-126365000D02*
X57150000Y-126365000D01*
X45720000Y-127635000D02*
X45720000Y-129540000D01*
X57150000Y-127635000D02*
X57150000Y-130175000D01*
X56129000Y-118754759D02*
X55499000Y-118754759D01*
X55814000Y-118439759D02*
X55814000Y-119069759D01*
X54377000Y-125181000D02*
X53573000Y-125181000D01*
X54608000Y-125141000D02*
X53342000Y-125141000D01*
X54777000Y-125101000D02*
X53173000Y-125101000D01*
X54915000Y-125061000D02*
X53035000Y-125061000D01*
X55034000Y-125021000D02*
X52916000Y-125021000D01*
X55140000Y-124981000D02*
X52810000Y-124981000D01*
X55237000Y-124941000D02*
X52713000Y-124941000D01*
X55325000Y-124901000D02*
X52625000Y-124901000D01*
X55407000Y-124861000D02*
X52543000Y-124861000D01*
X55484000Y-124821000D02*
X52466000Y-124821000D01*
X55556000Y-124781000D02*
X52394000Y-124781000D01*
X55625000Y-124741000D02*
X52325000Y-124741000D01*
X55689000Y-124701000D02*
X52261000Y-124701000D01*
X55751000Y-124661000D02*
X52199000Y-124661000D01*
X55809000Y-124621000D02*
X52141000Y-124621000D01*
X55865000Y-124581000D02*
X52085000Y-124581000D01*
X55919000Y-124541000D02*
X52031000Y-124541000D01*
X55970000Y-124501000D02*
X51980000Y-124501000D01*
X56019000Y-124461000D02*
X51931000Y-124461000D01*
X56067000Y-124421000D02*
X51883000Y-124421000D01*
X56112000Y-124381000D02*
X51838000Y-124381000D01*
X56157000Y-124341000D02*
X51793000Y-124341000D01*
X56199000Y-124301000D02*
X51751000Y-124301000D01*
X56240000Y-124261000D02*
X51710000Y-124261000D01*
X52935000Y-124221000D02*
X51670000Y-124221000D01*
X56280000Y-124221000D02*
X55015000Y-124221000D01*
X52935000Y-124181000D02*
X51632000Y-124181000D01*
X56318000Y-124181000D02*
X55015000Y-124181000D01*
X52935000Y-124141000D02*
X51595000Y-124141000D01*
X56355000Y-124141000D02*
X55015000Y-124141000D01*
X52935000Y-124101000D02*
X51559000Y-124101000D01*
X56391000Y-124101000D02*
X55015000Y-124101000D01*
X52935000Y-124061000D02*
X51525000Y-124061000D01*
X56425000Y-124061000D02*
X55015000Y-124061000D01*
X52935000Y-124021000D02*
X51491000Y-124021000D01*
X56459000Y-124021000D02*
X55015000Y-124021000D01*
X52935000Y-123981000D02*
X51459000Y-123981000D01*
X56491000Y-123981000D02*
X55015000Y-123981000D01*
X52935000Y-123941000D02*
X51427000Y-123941000D01*
X56523000Y-123941000D02*
X55015000Y-123941000D01*
X52935000Y-123901000D02*
X51397000Y-123901000D01*
X56553000Y-123901000D02*
X55015000Y-123901000D01*
X52935000Y-123861000D02*
X51368000Y-123861000D01*
X56582000Y-123861000D02*
X55015000Y-123861000D01*
X52935000Y-123821000D02*
X51339000Y-123821000D01*
X56611000Y-123821000D02*
X55015000Y-123821000D01*
X52935000Y-123781000D02*
X51311000Y-123781000D01*
X56639000Y-123781000D02*
X55015000Y-123781000D01*
X52935000Y-123741000D02*
X51285000Y-123741000D01*
X56665000Y-123741000D02*
X55015000Y-123741000D01*
X52935000Y-123701000D02*
X51259000Y-123701000D01*
X56691000Y-123701000D02*
X55015000Y-123701000D01*
X52935000Y-123661000D02*
X51233000Y-123661000D01*
X56717000Y-123661000D02*
X55015000Y-123661000D01*
X52935000Y-123621000D02*
X51209000Y-123621000D01*
X56741000Y-123621000D02*
X55015000Y-123621000D01*
X52935000Y-123581000D02*
X51185000Y-123581000D01*
X56765000Y-123581000D02*
X55015000Y-123581000D01*
X52935000Y-123541000D02*
X51163000Y-123541000D01*
X56787000Y-123541000D02*
X55015000Y-123541000D01*
X52935000Y-123501000D02*
X51141000Y-123501000D01*
X56809000Y-123501000D02*
X55015000Y-123501000D01*
X52935000Y-123461000D02*
X51119000Y-123461000D01*
X56831000Y-123461000D02*
X55015000Y-123461000D01*
X52935000Y-123421000D02*
X51099000Y-123421000D01*
X56851000Y-123421000D02*
X55015000Y-123421000D01*
X52935000Y-123381000D02*
X51079000Y-123381000D01*
X56871000Y-123381000D02*
X55015000Y-123381000D01*
X52935000Y-123341000D02*
X51059000Y-123341000D01*
X56891000Y-123341000D02*
X55015000Y-123341000D01*
X52935000Y-123301000D02*
X51041000Y-123301000D01*
X56909000Y-123301000D02*
X55015000Y-123301000D01*
X52935000Y-123261000D02*
X51023000Y-123261000D01*
X56927000Y-123261000D02*
X55015000Y-123261000D01*
X52935000Y-123221000D02*
X51005000Y-123221000D01*
X56945000Y-123221000D02*
X55015000Y-123221000D01*
X52935000Y-123181000D02*
X50989000Y-123181000D01*
X56961000Y-123181000D02*
X55015000Y-123181000D01*
X52935000Y-123141000D02*
X50973000Y-123141000D01*
X56977000Y-123141000D02*
X55015000Y-123141000D01*
X52935000Y-123101000D02*
X50957000Y-123101000D01*
X56993000Y-123101000D02*
X55015000Y-123101000D01*
X52935000Y-123061000D02*
X50942000Y-123061000D01*
X57008000Y-123061000D02*
X55015000Y-123061000D01*
X52935000Y-123021000D02*
X50928000Y-123021000D01*
X57022000Y-123021000D02*
X55015000Y-123021000D01*
X52935000Y-122981000D02*
X50914000Y-122981000D01*
X57036000Y-122981000D02*
X55015000Y-122981000D01*
X52935000Y-122941000D02*
X50901000Y-122941000D01*
X57049000Y-122941000D02*
X55015000Y-122941000D01*
X52935000Y-122901000D02*
X50889000Y-122901000D01*
X57061000Y-122901000D02*
X55015000Y-122901000D01*
X52935000Y-122861000D02*
X50877000Y-122861000D01*
X57073000Y-122861000D02*
X55015000Y-122861000D01*
X52935000Y-122821000D02*
X50865000Y-122821000D01*
X57085000Y-122821000D02*
X55015000Y-122821000D01*
X52935000Y-122781000D02*
X50854000Y-122781000D01*
X57096000Y-122781000D02*
X55015000Y-122781000D01*
X52935000Y-122741000D02*
X50844000Y-122741000D01*
X57106000Y-122741000D02*
X55015000Y-122741000D01*
X52935000Y-122701000D02*
X50834000Y-122701000D01*
X57116000Y-122701000D02*
X55015000Y-122701000D01*
X52935000Y-122661000D02*
X50825000Y-122661000D01*
X57125000Y-122661000D02*
X55015000Y-122661000D01*
X52935000Y-122620000D02*
X50816000Y-122620000D01*
X57134000Y-122620000D02*
X55015000Y-122620000D01*
X52935000Y-122580000D02*
X50808000Y-122580000D01*
X57142000Y-122580000D02*
X55015000Y-122580000D01*
X52935000Y-122540000D02*
X50800000Y-122540000D01*
X57150000Y-122540000D02*
X55015000Y-122540000D01*
X52935000Y-122500000D02*
X50793000Y-122500000D01*
X57157000Y-122500000D02*
X55015000Y-122500000D01*
X52935000Y-122460000D02*
X50786000Y-122460000D01*
X57164000Y-122460000D02*
X55015000Y-122460000D01*
X52935000Y-122420000D02*
X50780000Y-122420000D01*
X57170000Y-122420000D02*
X55015000Y-122420000D01*
X52935000Y-122380000D02*
X50774000Y-122380000D01*
X57176000Y-122380000D02*
X55015000Y-122380000D01*
X52935000Y-122340000D02*
X50769000Y-122340000D01*
X57181000Y-122340000D02*
X55015000Y-122340000D01*
X52935000Y-122300000D02*
X50764000Y-122300000D01*
X57186000Y-122300000D02*
X55015000Y-122300000D01*
X52935000Y-122260000D02*
X50760000Y-122260000D01*
X57190000Y-122260000D02*
X55015000Y-122260000D01*
X52935000Y-122220000D02*
X50757000Y-122220000D01*
X57193000Y-122220000D02*
X55015000Y-122220000D01*
X52935000Y-122180000D02*
X50753000Y-122180000D01*
X57197000Y-122180000D02*
X55015000Y-122180000D01*
X57199000Y-122140000D02*
X50751000Y-122140000D01*
X57202000Y-122100000D02*
X50748000Y-122100000D01*
X57203000Y-122060000D02*
X50747000Y-122060000D01*
X57205000Y-122020000D02*
X50745000Y-122020000D01*
X57205000Y-121980000D02*
X50745000Y-121980000D01*
X57205000Y-121940000D02*
X50745000Y-121940000D01*
X57245000Y-121940000D02*
G75*
G03X57245000Y-121940000I-3270000J0D01*
G01*
X43180000Y-142890000D02*
X43180000Y-143280000D01*
X45100000Y-140970000D02*
G75*
G03X45100000Y-140970000I-1920000J0D01*
G01*
X55245000Y-108955000D02*
X55245000Y-109725000D01*
X55245000Y-117035000D02*
X55245000Y-116265000D01*
X53875000Y-109725000D02*
X53875000Y-116265000D01*
X56615000Y-109725000D02*
X53875000Y-109725000D01*
X56615000Y-116265000D02*
X56615000Y-109725000D01*
X53875000Y-116265000D02*
X56615000Y-116265000D01*
X52070000Y-108955000D02*
X52070000Y-109725000D01*
X52070000Y-117035000D02*
X52070000Y-116265000D01*
X50700000Y-109725000D02*
X50700000Y-116265000D01*
X53440000Y-109725000D02*
X50700000Y-109725000D01*
X53440000Y-116265000D02*
X53440000Y-109725000D01*
X50700000Y-116265000D02*
X53440000Y-116265000D01*
D10*
X76136666Y-131214761D02*
X76279523Y-131262380D01*
X76517619Y-131262380D01*
X76612857Y-131214761D01*
X76660476Y-131167142D01*
X76708095Y-131071904D01*
X76708095Y-130976666D01*
X76660476Y-130881428D01*
X76612857Y-130833809D01*
X76517619Y-130786190D01*
X76327142Y-130738571D01*
X76231904Y-130690952D01*
X76184285Y-130643333D01*
X76136666Y-130548095D01*
X76136666Y-130452857D01*
X76184285Y-130357619D01*
X76231904Y-130310000D01*
X76327142Y-130262380D01*
X76565238Y-130262380D01*
X76708095Y-130310000D01*
X77041428Y-130262380D02*
X77279523Y-131262380D01*
X77470000Y-130548095D01*
X77660476Y-131262380D01*
X77898571Y-130262380D01*
X78231904Y-130357619D02*
X78279523Y-130310000D01*
X78374761Y-130262380D01*
X78612857Y-130262380D01*
X78708095Y-130310000D01*
X78755714Y-130357619D01*
X78803333Y-130452857D01*
X78803333Y-130548095D01*
X78755714Y-130690952D01*
X78184285Y-131262380D01*
X78803333Y-131262380D01*
X76136666Y-126769761D02*
X76279523Y-126817380D01*
X76517619Y-126817380D01*
X76612857Y-126769761D01*
X76660476Y-126722142D01*
X76708095Y-126626904D01*
X76708095Y-126531666D01*
X76660476Y-126436428D01*
X76612857Y-126388809D01*
X76517619Y-126341190D01*
X76327142Y-126293571D01*
X76231904Y-126245952D01*
X76184285Y-126198333D01*
X76136666Y-126103095D01*
X76136666Y-126007857D01*
X76184285Y-125912619D01*
X76231904Y-125865000D01*
X76327142Y-125817380D01*
X76565238Y-125817380D01*
X76708095Y-125865000D01*
X77041428Y-125817380D02*
X77279523Y-126817380D01*
X77470000Y-126103095D01*
X77660476Y-126817380D01*
X77898571Y-125817380D01*
X78803333Y-126817380D02*
X78231904Y-126817380D01*
X78517619Y-126817380D02*
X78517619Y-125817380D01*
X78422380Y-125960238D01*
X78327142Y-126055476D01*
X78231904Y-126103095D01*
X47347142Y-122086666D02*
X47394761Y-122134285D01*
X47442380Y-122277142D01*
X47442380Y-122372380D01*
X47394761Y-122515238D01*
X47299523Y-122610476D01*
X47204285Y-122658095D01*
X47013809Y-122705714D01*
X46870952Y-122705714D01*
X46680476Y-122658095D01*
X46585238Y-122610476D01*
X46490000Y-122515238D01*
X46442380Y-122372380D01*
X46442380Y-122277142D01*
X46490000Y-122134285D01*
X46537619Y-122086666D01*
X47442380Y-121610476D02*
X47442380Y-121420000D01*
X47394761Y-121324761D01*
X47347142Y-121277142D01*
X47204285Y-121181904D01*
X47013809Y-121134285D01*
X46632857Y-121134285D01*
X46537619Y-121181904D01*
X46490000Y-121229523D01*
X46442380Y-121324761D01*
X46442380Y-121515238D01*
X46490000Y-121610476D01*
X46537619Y-121658095D01*
X46632857Y-121705714D01*
X46870952Y-121705714D01*
X46966190Y-121658095D01*
X47013809Y-121610476D01*
X47061428Y-121515238D01*
X47061428Y-121324761D01*
X47013809Y-121229523D01*
X46966190Y-121181904D01*
X46870952Y-121134285D01*
X40092380Y-136223333D02*
X40806666Y-136223333D01*
X40949523Y-136270952D01*
X41044761Y-136366190D01*
X41092380Y-136509047D01*
X41092380Y-136604285D01*
X40187619Y-135794761D02*
X40140000Y-135747142D01*
X40092380Y-135651904D01*
X40092380Y-135413809D01*
X40140000Y-135318571D01*
X40187619Y-135270952D01*
X40282857Y-135223333D01*
X40378095Y-135223333D01*
X40520952Y-135270952D01*
X41092380Y-135842380D01*
X41092380Y-135223333D01*
X39457380Y-117808333D02*
X40171666Y-117808333D01*
X40314523Y-117855952D01*
X40409761Y-117951190D01*
X40457380Y-118094047D01*
X40457380Y-118189285D01*
X40457380Y-116808333D02*
X40457380Y-117379761D01*
X40457380Y-117094047D02*
X39457380Y-117094047D01*
X39600238Y-117189285D01*
X39695476Y-117284523D01*
X39743095Y-117379761D01*
X78827380Y-90161904D02*
X79636904Y-90161904D01*
X79732142Y-90114285D01*
X79779761Y-90066666D01*
X79827380Y-89971428D01*
X79827380Y-89780952D01*
X79779761Y-89685714D01*
X79732142Y-89638095D01*
X79636904Y-89590476D01*
X78827380Y-89590476D01*
X79732142Y-88542857D02*
X79779761Y-88590476D01*
X79827380Y-88733333D01*
X79827380Y-88828571D01*
X79779761Y-88971428D01*
X79684523Y-89066666D01*
X79589285Y-89114285D01*
X79398809Y-89161904D01*
X79255952Y-89161904D01*
X79065476Y-89114285D01*
X78970238Y-89066666D01*
X78875000Y-88971428D01*
X78827380Y-88828571D01*
X78827380Y-88733333D01*
X78875000Y-88590476D01*
X78922619Y-88542857D01*
X79827380Y-87590476D02*
X79827380Y-88161904D01*
X79827380Y-87876190D02*
X78827380Y-87876190D01*
X78970238Y-87971428D01*
X79065476Y-88066666D01*
X79113095Y-88161904D01*
X48712380Y-99138571D02*
X47712380Y-99138571D01*
X47712380Y-98757619D01*
X47760000Y-98662380D01*
X47807619Y-98614761D01*
X47902857Y-98567142D01*
X48045714Y-98567142D01*
X48140952Y-98614761D01*
X48188571Y-98662380D01*
X48236190Y-98757619D01*
X48236190Y-99138571D01*
X48712380Y-97567142D02*
X48236190Y-97900476D01*
X48712380Y-98138571D02*
X47712380Y-98138571D01*
X47712380Y-97757619D01*
X47760000Y-97662380D01*
X47807619Y-97614761D01*
X47902857Y-97567142D01*
X48045714Y-97567142D01*
X48140952Y-97614761D01*
X48188571Y-97662380D01*
X48236190Y-97757619D01*
X48236190Y-98138571D01*
X47712380Y-96948095D02*
X47712380Y-96757619D01*
X47760000Y-96662380D01*
X47855238Y-96567142D01*
X48045714Y-96519523D01*
X48379047Y-96519523D01*
X48569523Y-96567142D01*
X48664761Y-96662380D01*
X48712380Y-96757619D01*
X48712380Y-96948095D01*
X48664761Y-97043333D01*
X48569523Y-97138571D01*
X48379047Y-97186190D01*
X48045714Y-97186190D01*
X47855238Y-97138571D01*
X47760000Y-97043333D01*
X47712380Y-96948095D01*
X48712380Y-95329047D02*
X47712380Y-95329047D01*
X48426666Y-94995714D01*
X47712380Y-94662380D01*
X48712380Y-94662380D01*
X48712380Y-94186190D02*
X47712380Y-94186190D01*
X48712380Y-93710000D02*
X47712380Y-93710000D01*
X48712380Y-93138571D01*
X47712380Y-93138571D01*
X48712380Y-92662380D02*
X47712380Y-92662380D01*
X48426666Y-91471904D02*
X48426666Y-90995714D01*
X48712380Y-91567142D02*
X47712380Y-91233809D01*
X48712380Y-90900476D01*
X47712380Y-90710000D02*
X47712380Y-90138571D01*
X48712380Y-90424285D02*
X47712380Y-90424285D01*
X48712380Y-89805238D02*
X47712380Y-89805238D01*
X48426666Y-89471904D01*
X47712380Y-89138571D01*
X48712380Y-89138571D01*
X48712380Y-88138571D02*
X48712380Y-88710000D01*
X48712380Y-88424285D02*
X47712380Y-88424285D01*
X47855238Y-88519523D01*
X47950476Y-88614761D01*
X47998095Y-88710000D01*
X47712380Y-87281428D02*
X47712380Y-87471904D01*
X47760000Y-87567142D01*
X47807619Y-87614761D01*
X47950476Y-87710000D01*
X48140952Y-87757619D01*
X48521904Y-87757619D01*
X48617142Y-87710000D01*
X48664761Y-87662380D01*
X48712380Y-87567142D01*
X48712380Y-87376666D01*
X48664761Y-87281428D01*
X48617142Y-87233809D01*
X48521904Y-87186190D01*
X48283809Y-87186190D01*
X48188571Y-87233809D01*
X48140952Y-87281428D01*
X48093333Y-87376666D01*
X48093333Y-87567142D01*
X48140952Y-87662380D01*
X48188571Y-87710000D01*
X48283809Y-87757619D01*
X48140952Y-86614761D02*
X48093333Y-86710000D01*
X48045714Y-86757619D01*
X47950476Y-86805238D01*
X47902857Y-86805238D01*
X47807619Y-86757619D01*
X47760000Y-86710000D01*
X47712380Y-86614761D01*
X47712380Y-86424285D01*
X47760000Y-86329047D01*
X47807619Y-86281428D01*
X47902857Y-86233809D01*
X47950476Y-86233809D01*
X48045714Y-86281428D01*
X48093333Y-86329047D01*
X48140952Y-86424285D01*
X48140952Y-86614761D01*
X48188571Y-86710000D01*
X48236190Y-86757619D01*
X48331428Y-86805238D01*
X48521904Y-86805238D01*
X48617142Y-86757619D01*
X48664761Y-86710000D01*
X48712380Y-86614761D01*
X48712380Y-86424285D01*
X48664761Y-86329047D01*
X48617142Y-86281428D01*
X48521904Y-86233809D01*
X48331428Y-86233809D01*
X48236190Y-86281428D01*
X48188571Y-86329047D01*
X48140952Y-86424285D01*
X61896666Y-75652380D02*
X61896666Y-76366666D01*
X61849047Y-76509523D01*
X61753809Y-76604761D01*
X61610952Y-76652380D01*
X61515714Y-76652380D01*
X62515714Y-76080952D02*
X62420476Y-76033333D01*
X62372857Y-75985714D01*
X62325238Y-75890476D01*
X62325238Y-75842857D01*
X62372857Y-75747619D01*
X62420476Y-75700000D01*
X62515714Y-75652380D01*
X62706190Y-75652380D01*
X62801428Y-75700000D01*
X62849047Y-75747619D01*
X62896666Y-75842857D01*
X62896666Y-75890476D01*
X62849047Y-75985714D01*
X62801428Y-76033333D01*
X62706190Y-76080952D01*
X62515714Y-76080952D01*
X62420476Y-76128571D01*
X62372857Y-76176190D01*
X62325238Y-76271428D01*
X62325238Y-76461904D01*
X62372857Y-76557142D01*
X62420476Y-76604761D01*
X62515714Y-76652380D01*
X62706190Y-76652380D01*
X62801428Y-76604761D01*
X62849047Y-76557142D01*
X62896666Y-76461904D01*
X62896666Y-76271428D01*
X62849047Y-76176190D01*
X62801428Y-76128571D01*
X62706190Y-76080952D01*
X70786666Y-77557380D02*
X70786666Y-78271666D01*
X70739047Y-78414523D01*
X70643809Y-78509761D01*
X70500952Y-78557380D01*
X70405714Y-78557380D01*
X71691428Y-77557380D02*
X71500952Y-77557380D01*
X71405714Y-77605000D01*
X71358095Y-77652619D01*
X71262857Y-77795476D01*
X71215238Y-77985952D01*
X71215238Y-78366904D01*
X71262857Y-78462142D01*
X71310476Y-78509761D01*
X71405714Y-78557380D01*
X71596190Y-78557380D01*
X71691428Y-78509761D01*
X71739047Y-78462142D01*
X71786666Y-78366904D01*
X71786666Y-78128809D01*
X71739047Y-78033571D01*
X71691428Y-77985952D01*
X71596190Y-77938333D01*
X71405714Y-77938333D01*
X71310476Y-77985952D01*
X71262857Y-78033571D01*
X71215238Y-78128809D01*
X71067380Y-106576904D02*
X71876904Y-106576904D01*
X71972142Y-106529285D01*
X72019761Y-106481666D01*
X72067380Y-106386428D01*
X72067380Y-106195952D01*
X72019761Y-106100714D01*
X71972142Y-106053095D01*
X71876904Y-106005476D01*
X71067380Y-106005476D01*
X71400714Y-105100714D02*
X72067380Y-105100714D01*
X71019761Y-105338809D02*
X71734047Y-105576904D01*
X71734047Y-104957857D01*
X53427380Y-145541904D02*
X54236904Y-145541904D01*
X54332142Y-145494285D01*
X54379761Y-145446666D01*
X54427380Y-145351428D01*
X54427380Y-145160952D01*
X54379761Y-145065714D01*
X54332142Y-145018095D01*
X54236904Y-144970476D01*
X53427380Y-144970476D01*
X54427380Y-143970476D02*
X54427380Y-144541904D01*
X54427380Y-144256190D02*
X53427380Y-144256190D01*
X53570238Y-144351428D01*
X53665476Y-144446666D01*
X53713095Y-144541904D01*
X56332380Y-145303333D02*
X55332380Y-145303333D01*
X55332380Y-145065238D01*
X55380000Y-144922380D01*
X55475238Y-144827142D01*
X55570476Y-144779523D01*
X55760952Y-144731904D01*
X55903809Y-144731904D01*
X56094285Y-144779523D01*
X56189523Y-144827142D01*
X56284761Y-144922380D01*
X56332380Y-145065238D01*
X56332380Y-145303333D01*
X56237142Y-143731904D02*
X56284761Y-143779523D01*
X56332380Y-143922380D01*
X56332380Y-144017619D01*
X56284761Y-144160476D01*
X56189523Y-144255714D01*
X56094285Y-144303333D01*
X55903809Y-144350952D01*
X55760952Y-144350952D01*
X55570476Y-144303333D01*
X55475238Y-144255714D01*
X55380000Y-144160476D01*
X55332380Y-144017619D01*
X55332380Y-143922380D01*
X55380000Y-143779523D01*
X55427619Y-143731904D01*
X56332380Y-143303333D02*
X55332380Y-143303333D01*
X55332380Y-143065238D01*
X55380000Y-142922380D01*
X55475238Y-142827142D01*
X55570476Y-142779523D01*
X55760952Y-142731904D01*
X55903809Y-142731904D01*
X56094285Y-142779523D01*
X56189523Y-142827142D01*
X56284761Y-142922380D01*
X56332380Y-143065238D01*
X56332380Y-143303333D01*
X56237142Y-141731904D02*
X56284761Y-141779523D01*
X56332380Y-141922380D01*
X56332380Y-142017619D01*
X56284761Y-142160476D01*
X56189523Y-142255714D01*
X56094285Y-142303333D01*
X55903809Y-142350952D01*
X55760952Y-142350952D01*
X55570476Y-142303333D01*
X55475238Y-142255714D01*
X55380000Y-142160476D01*
X55332380Y-142017619D01*
X55332380Y-141922380D01*
X55380000Y-141779523D01*
X55427619Y-141731904D01*
X55427619Y-140589047D02*
X55380000Y-140541428D01*
X55332380Y-140446190D01*
X55332380Y-140208095D01*
X55380000Y-140112857D01*
X55427619Y-140065238D01*
X55522857Y-140017619D01*
X55618095Y-140017619D01*
X55760952Y-140065238D01*
X56332380Y-140636666D01*
X56332380Y-140017619D01*
X56046666Y-139636666D02*
X56046666Y-139160476D01*
X56332380Y-139731904D02*
X55332380Y-139398571D01*
X56332380Y-139065238D01*
X55332380Y-137493809D02*
X55332380Y-137970000D01*
X55808571Y-138017619D01*
X55760952Y-137970000D01*
X55713333Y-137874761D01*
X55713333Y-137636666D01*
X55760952Y-137541428D01*
X55808571Y-137493809D01*
X55903809Y-137446190D01*
X56141904Y-137446190D01*
X56237142Y-137493809D01*
X56284761Y-137541428D01*
X56332380Y-137636666D01*
X56332380Y-137874761D01*
X56284761Y-137970000D01*
X56237142Y-138017619D01*
X55332380Y-137160476D02*
X56332380Y-136827142D01*
X55332380Y-136493809D01*
X47077380Y-133320119D02*
X48077380Y-132986785D01*
X47077380Y-132653452D01*
X47077380Y-132129642D02*
X47077380Y-131939166D01*
X47125000Y-131843928D01*
X47220238Y-131748690D01*
X47410714Y-131701071D01*
X47744047Y-131701071D01*
X47934523Y-131748690D01*
X48029761Y-131843928D01*
X48077380Y-131939166D01*
X48077380Y-132129642D01*
X48029761Y-132224880D01*
X47934523Y-132320119D01*
X47744047Y-132367738D01*
X47410714Y-132367738D01*
X47220238Y-132320119D01*
X47125000Y-132224880D01*
X47077380Y-132129642D01*
X47696428Y-131272500D02*
X47696428Y-130510595D01*
X48077380Y-130891547D02*
X47315476Y-130891547D01*
X49665000Y-132558214D02*
X49617380Y-132653452D01*
X49617380Y-132796309D01*
X49665000Y-132939166D01*
X49760238Y-133034404D01*
X49855476Y-133082023D01*
X50045952Y-133129642D01*
X50188809Y-133129642D01*
X50379285Y-133082023D01*
X50474523Y-133034404D01*
X50569761Y-132939166D01*
X50617380Y-132796309D01*
X50617380Y-132701071D01*
X50569761Y-132558214D01*
X50522142Y-132510595D01*
X50188809Y-132510595D01*
X50188809Y-132701071D01*
X50617380Y-132082023D02*
X49617380Y-132082023D01*
X50617380Y-131510595D01*
X49617380Y-131510595D01*
X50617380Y-131034404D02*
X49617380Y-131034404D01*
X49617380Y-130796309D01*
X49665000Y-130653452D01*
X49760238Y-130558214D01*
X49855476Y-130510595D01*
X50045952Y-130462976D01*
X50188809Y-130462976D01*
X50379285Y-130510595D01*
X50474523Y-130558214D01*
X50569761Y-130653452D01*
X50617380Y-130796309D01*
X50617380Y-131034404D01*
X53157380Y-132796309D02*
X52157380Y-132796309D01*
X53157380Y-132320119D02*
X52157380Y-132320119D01*
X53157380Y-131748690D01*
X52157380Y-131748690D01*
X52776428Y-131272500D02*
X52776428Y-130510595D01*
X53157380Y-130891547D02*
X52395476Y-130891547D01*
X55173571Y-131986785D02*
X55173571Y-131653452D01*
X55697380Y-131510595D02*
X55697380Y-131986785D01*
X54697380Y-131986785D01*
X54697380Y-131510595D01*
X55697380Y-131082023D02*
X54697380Y-131082023D01*
X55697380Y-130510595D01*
X54697380Y-130510595D01*
X60047142Y-122106666D02*
X60094761Y-122154285D01*
X60142380Y-122297142D01*
X60142380Y-122392380D01*
X60094761Y-122535238D01*
X59999523Y-122630476D01*
X59904285Y-122678095D01*
X59713809Y-122725714D01*
X59570952Y-122725714D01*
X59380476Y-122678095D01*
X59285238Y-122630476D01*
X59190000Y-122535238D01*
X59142380Y-122392380D01*
X59142380Y-122297142D01*
X59190000Y-122154285D01*
X59237619Y-122106666D01*
X59570952Y-121535238D02*
X59523333Y-121630476D01*
X59475714Y-121678095D01*
X59380476Y-121725714D01*
X59332857Y-121725714D01*
X59237619Y-121678095D01*
X59190000Y-121630476D01*
X59142380Y-121535238D01*
X59142380Y-121344761D01*
X59190000Y-121249523D01*
X59237619Y-121201904D01*
X59332857Y-121154285D01*
X59380476Y-121154285D01*
X59475714Y-121201904D01*
X59523333Y-121249523D01*
X59570952Y-121344761D01*
X59570952Y-121535238D01*
X59618571Y-121630476D01*
X59666190Y-121678095D01*
X59761428Y-121725714D01*
X59951904Y-121725714D01*
X60047142Y-121678095D01*
X60094761Y-121630476D01*
X60142380Y-121535238D01*
X60142380Y-121344761D01*
X60094761Y-121249523D01*
X60047142Y-121201904D01*
X59951904Y-121154285D01*
X59761428Y-121154285D01*
X59666190Y-121201904D01*
X59618571Y-121249523D01*
X59570952Y-121344761D01*
X42441904Y-137612380D02*
X42441904Y-136612380D01*
X42680000Y-136612380D01*
X42822857Y-136660000D01*
X42918095Y-136755238D01*
X42965714Y-136850476D01*
X43013333Y-137040952D01*
X43013333Y-137183809D01*
X42965714Y-137374285D01*
X42918095Y-137469523D01*
X42822857Y-137564761D01*
X42680000Y-137612380D01*
X42441904Y-137612380D01*
X43965714Y-137612380D02*
X43394285Y-137612380D01*
X43680000Y-137612380D02*
X43680000Y-136612380D01*
X43584761Y-136755238D01*
X43489523Y-136850476D01*
X43394285Y-136898095D01*
X44832380Y-143141904D02*
X43832380Y-143141904D01*
X44832380Y-142570476D02*
X44260952Y-142999047D01*
X43832380Y-142570476D02*
X44403809Y-143141904D01*
X55697380Y-113161666D02*
X55221190Y-113495000D01*
X55697380Y-113733095D02*
X54697380Y-113733095D01*
X54697380Y-113352142D01*
X54745000Y-113256904D01*
X54792619Y-113209285D01*
X54887857Y-113161666D01*
X55030714Y-113161666D01*
X55125952Y-113209285D01*
X55173571Y-113256904D01*
X55221190Y-113352142D01*
X55221190Y-113733095D01*
X54792619Y-112780714D02*
X54745000Y-112733095D01*
X54697380Y-112637857D01*
X54697380Y-112399761D01*
X54745000Y-112304523D01*
X54792619Y-112256904D01*
X54887857Y-112209285D01*
X54983095Y-112209285D01*
X55125952Y-112256904D01*
X55697380Y-112828333D01*
X55697380Y-112209285D01*
X52522380Y-113161666D02*
X52046190Y-113495000D01*
X52522380Y-113733095D02*
X51522380Y-113733095D01*
X51522380Y-113352142D01*
X51570000Y-113256904D01*
X51617619Y-113209285D01*
X51712857Y-113161666D01*
X51855714Y-113161666D01*
X51950952Y-113209285D01*
X51998571Y-113256904D01*
X52046190Y-113352142D01*
X52046190Y-113733095D01*
X52522380Y-112209285D02*
X52522380Y-112780714D01*
X52522380Y-112495000D02*
X51522380Y-112495000D01*
X51665238Y-112590238D01*
X51760476Y-112685476D01*
X51808095Y-112780714D01*
M02*
