G04 #@! TF.GenerationSoftware,KiCad,Pcbnew,5.1.5+dfsg1-2build2*
G04 #@! TF.CreationDate,2022-10-31T13:26:34+01:00*
G04 #@! TF.ProjectId,DHTBreakout,44485442-7265-4616-9b6f-75742e6b6963,rev?*
G04 #@! TF.SameCoordinates,Original*
G04 #@! TF.FileFunction,Soldermask,Bot*
G04 #@! TF.FilePolarity,Negative*
%FSLAX46Y46*%
G04 Gerber Fmt 4.6, Leading zero omitted, Abs format (unit mm)*
G04 Created by KiCad (PCBNEW 5.1.5+dfsg1-2build2) date 2022-10-31 13:26:34*
%MOMM*%
%LPD*%
G04 APERTURE LIST*
%ADD10C,0.150000*%
G04 APERTURE END LIST*
D10*
G36*
X82078210Y-46173489D02*
G01*
X82164950Y-46199802D01*
X82244889Y-46242530D01*
X82314962Y-46300038D01*
X82372470Y-46370111D01*
X82415198Y-46450050D01*
X82441511Y-46536790D01*
X82451000Y-46633140D01*
X82451000Y-47796860D01*
X82441511Y-47893210D01*
X82415198Y-47979950D01*
X82372470Y-48059889D01*
X82314962Y-48129962D01*
X82244889Y-48187470D01*
X82164950Y-48230198D01*
X82078210Y-48256511D01*
X81981860Y-48266000D01*
X76818140Y-48266000D01*
X76721790Y-48256511D01*
X76635050Y-48230198D01*
X76555111Y-48187470D01*
X76485038Y-48129962D01*
X76427530Y-48059889D01*
X76384802Y-47979950D01*
X76358489Y-47893210D01*
X76349000Y-47796860D01*
X76349000Y-46633140D01*
X76358489Y-46536790D01*
X76384802Y-46450050D01*
X76427530Y-46370111D01*
X76485038Y-46300038D01*
X76555111Y-46242530D01*
X76635050Y-46199802D01*
X76721790Y-46173489D01*
X76818140Y-46164000D01*
X81981860Y-46164000D01*
X82078210Y-46173489D01*
G37*
G36*
X52288254Y-43337818D02*
G01*
X52661511Y-43492426D01*
X52661513Y-43492427D01*
X52997436Y-43716884D01*
X53283116Y-44002564D01*
X53482155Y-44300446D01*
X53507574Y-44338489D01*
X53662182Y-44711746D01*
X53741000Y-45107993D01*
X53741000Y-45512007D01*
X53662182Y-45908254D01*
X53516070Y-46261000D01*
X53507573Y-46281513D01*
X53283116Y-46617436D01*
X52997436Y-46903116D01*
X52661513Y-47127573D01*
X52661512Y-47127574D01*
X52661511Y-47127574D01*
X52288254Y-47282182D01*
X51892007Y-47361000D01*
X51487993Y-47361000D01*
X51091746Y-47282182D01*
X50718489Y-47127574D01*
X50718488Y-47127574D01*
X50718487Y-47127573D01*
X50382564Y-46903116D01*
X50096884Y-46617436D01*
X49872427Y-46281513D01*
X49863930Y-46261000D01*
X49717818Y-45908254D01*
X49639000Y-45512007D01*
X49639000Y-45107993D01*
X49717818Y-44711746D01*
X49872426Y-44338489D01*
X49897846Y-44300446D01*
X50096884Y-44002564D01*
X50382564Y-43716884D01*
X50718487Y-43492427D01*
X50718489Y-43492426D01*
X51091746Y-43337818D01*
X51487993Y-43259000D01*
X51892007Y-43259000D01*
X52288254Y-43337818D01*
G37*
G36*
X60766425Y-44157760D02*
G01*
X60766428Y-44157761D01*
X60766429Y-44157761D01*
X60945693Y-44212140D01*
X60945696Y-44212142D01*
X60945697Y-44212142D01*
X61110903Y-44300446D01*
X61255712Y-44419288D01*
X61374554Y-44564097D01*
X61462859Y-44729305D01*
X61462860Y-44729307D01*
X61484608Y-44801000D01*
X61517240Y-44908574D01*
X61531000Y-45048283D01*
X61531000Y-45841718D01*
X61517240Y-45981425D01*
X61517239Y-45981428D01*
X61517239Y-45981429D01*
X61462860Y-46160693D01*
X61462858Y-46160696D01*
X61462858Y-46160697D01*
X61374554Y-46325903D01*
X61255712Y-46470712D01*
X61110903Y-46589554D01*
X60945696Y-46677858D01*
X60945692Y-46677860D01*
X60766428Y-46732239D01*
X60766427Y-46732239D01*
X60766424Y-46732240D01*
X60580000Y-46750601D01*
X60393575Y-46732240D01*
X60393572Y-46732239D01*
X60393571Y-46732239D01*
X60214307Y-46677860D01*
X60214303Y-46677858D01*
X60049097Y-46589554D01*
X59904288Y-46470712D01*
X59785446Y-46325903D01*
X59697142Y-46160696D01*
X59697141Y-46160693D01*
X59697140Y-46160692D01*
X59642761Y-45981428D01*
X59642761Y-45981427D01*
X59642760Y-45981424D01*
X59629000Y-45841717D01*
X59629000Y-45048282D01*
X59642760Y-44908570D01*
X59697140Y-44729308D01*
X59785447Y-44564097D01*
X59904289Y-44419288D01*
X60049098Y-44300446D01*
X60214304Y-44212142D01*
X60214305Y-44212142D01*
X60214308Y-44212140D01*
X60393572Y-44157761D01*
X60393573Y-44157761D01*
X60393576Y-44157760D01*
X60580000Y-44139399D01*
X60766425Y-44157760D01*
G37*
G36*
X65041425Y-44372760D02*
G01*
X65041428Y-44372761D01*
X65041429Y-44372761D01*
X65220693Y-44427140D01*
X65220696Y-44427142D01*
X65220697Y-44427142D01*
X65385903Y-44515446D01*
X65530712Y-44634288D01*
X65649554Y-44779097D01*
X65737858Y-44944303D01*
X65737860Y-44944307D01*
X65787513Y-45107993D01*
X65792240Y-45123575D01*
X65810601Y-45310000D01*
X65792240Y-45496425D01*
X65792239Y-45496428D01*
X65792239Y-45496429D01*
X65737860Y-45675693D01*
X65737858Y-45675696D01*
X65737858Y-45675697D01*
X65649554Y-45840903D01*
X65530712Y-45985712D01*
X65385903Y-46104554D01*
X65220697Y-46192858D01*
X65220693Y-46192860D01*
X65041429Y-46247239D01*
X65041428Y-46247239D01*
X65041425Y-46247240D01*
X64901718Y-46261000D01*
X63608282Y-46261000D01*
X63468575Y-46247240D01*
X63468572Y-46247239D01*
X63468571Y-46247239D01*
X63289307Y-46192860D01*
X63289303Y-46192858D01*
X63124097Y-46104554D01*
X62979288Y-45985712D01*
X62860446Y-45840903D01*
X62772142Y-45675697D01*
X62772142Y-45675696D01*
X62772140Y-45675693D01*
X62717761Y-45496429D01*
X62717761Y-45496428D01*
X62717760Y-45496425D01*
X62699399Y-45310000D01*
X62717760Y-45123575D01*
X62722487Y-45107993D01*
X62772140Y-44944307D01*
X62772142Y-44944303D01*
X62860446Y-44779097D01*
X62979288Y-44634288D01*
X63124097Y-44515446D01*
X63289303Y-44427142D01*
X63289304Y-44427142D01*
X63289307Y-44427140D01*
X63468571Y-44372761D01*
X63468572Y-44372761D01*
X63468575Y-44372760D01*
X63608282Y-44359000D01*
X64901718Y-44359000D01*
X65041425Y-44372760D01*
G37*
G36*
X69486425Y-44372760D02*
G01*
X69486428Y-44372761D01*
X69486429Y-44372761D01*
X69665693Y-44427140D01*
X69665696Y-44427142D01*
X69665697Y-44427142D01*
X69830903Y-44515446D01*
X69975712Y-44634288D01*
X70094554Y-44779097D01*
X70182858Y-44944303D01*
X70182860Y-44944307D01*
X70232513Y-45107993D01*
X70237240Y-45123575D01*
X70255601Y-45310000D01*
X70237240Y-45496425D01*
X70237239Y-45496428D01*
X70237239Y-45496429D01*
X70182860Y-45675693D01*
X70182858Y-45675696D01*
X70182858Y-45675697D01*
X70094554Y-45840903D01*
X69975712Y-45985712D01*
X69830903Y-46104554D01*
X69665697Y-46192858D01*
X69665693Y-46192860D01*
X69486429Y-46247239D01*
X69486428Y-46247239D01*
X69486425Y-46247240D01*
X69346718Y-46261000D01*
X68053282Y-46261000D01*
X67913575Y-46247240D01*
X67913572Y-46247239D01*
X67913571Y-46247239D01*
X67734307Y-46192860D01*
X67734303Y-46192858D01*
X67569097Y-46104554D01*
X67424288Y-45985712D01*
X67305446Y-45840903D01*
X67217142Y-45675697D01*
X67217142Y-45675696D01*
X67217140Y-45675693D01*
X67162761Y-45496429D01*
X67162761Y-45496428D01*
X67162760Y-45496425D01*
X67144399Y-45310000D01*
X67162760Y-45123575D01*
X67167487Y-45107993D01*
X67217140Y-44944307D01*
X67217142Y-44944303D01*
X67305446Y-44779097D01*
X67424288Y-44634288D01*
X67569097Y-44515446D01*
X67734303Y-44427142D01*
X67734304Y-44427142D01*
X67734307Y-44427140D01*
X67913571Y-44372761D01*
X67913572Y-44372761D01*
X67913575Y-44372760D01*
X68053282Y-44359000D01*
X69346718Y-44359000D01*
X69486425Y-44372760D01*
G37*
G36*
X73446000Y-45891000D02*
G01*
X71844000Y-45891000D01*
X71844000Y-43489000D01*
X73446000Y-43489000D01*
X73446000Y-45891000D01*
G37*
G36*
X88212865Y-38325855D02*
G01*
X88813608Y-38574691D01*
X88813610Y-38574692D01*
X89354265Y-38935946D01*
X89814054Y-39395735D01*
X90175308Y-39936390D01*
X90175309Y-39936392D01*
X90424145Y-40537135D01*
X90551000Y-41174879D01*
X90551000Y-41825121D01*
X90424145Y-42462865D01*
X90182366Y-43046570D01*
X90175308Y-43063610D01*
X89814054Y-43604265D01*
X89354265Y-44064054D01*
X88813610Y-44425308D01*
X88813609Y-44425309D01*
X88813608Y-44425309D01*
X88212865Y-44674145D01*
X87575121Y-44801000D01*
X86924879Y-44801000D01*
X86287135Y-44674145D01*
X85686392Y-44425309D01*
X85686391Y-44425309D01*
X85686390Y-44425308D01*
X85145735Y-44064054D01*
X84685946Y-43604265D01*
X84324692Y-43063610D01*
X84317634Y-43046570D01*
X84075855Y-42462865D01*
X83949000Y-41825121D01*
X83949000Y-41174879D01*
X84075855Y-40537135D01*
X84324691Y-39936392D01*
X84324692Y-39936390D01*
X84685946Y-39395735D01*
X85145735Y-38935946D01*
X85686390Y-38574692D01*
X85686392Y-38574691D01*
X86287135Y-38325855D01*
X86924879Y-38199000D01*
X87575121Y-38199000D01*
X88212865Y-38325855D01*
G37*
G36*
X56389943Y-38566248D02*
G01*
X56945189Y-38796238D01*
X57125607Y-38916790D01*
X57444899Y-39130134D01*
X57869866Y-39555101D01*
X57994080Y-39741000D01*
X58203762Y-40054811D01*
X58433752Y-40610057D01*
X58551000Y-41199501D01*
X58551000Y-41800499D01*
X58433752Y-42389943D01*
X58203762Y-42945189D01*
X58194241Y-42959438D01*
X57869866Y-43444899D01*
X57444899Y-43869866D01*
X57354154Y-43930500D01*
X56945189Y-44203762D01*
X56389943Y-44433752D01*
X55800499Y-44551000D01*
X55199501Y-44551000D01*
X54610057Y-44433752D01*
X54054811Y-44203762D01*
X53645846Y-43930500D01*
X53555101Y-43869866D01*
X53130134Y-43444899D01*
X52805759Y-42959438D01*
X52796238Y-42945189D01*
X52566248Y-42389943D01*
X52449000Y-41800499D01*
X52449000Y-41199501D01*
X52566248Y-40610057D01*
X52796238Y-40054811D01*
X53005920Y-39741000D01*
X53130134Y-39555101D01*
X53555101Y-39130134D01*
X53874393Y-38916790D01*
X54054811Y-38796238D01*
X54610057Y-38566248D01*
X55199501Y-38449000D01*
X55800499Y-38449000D01*
X56389943Y-38566248D01*
G37*
G36*
X82078210Y-42363489D02*
G01*
X82164950Y-42389802D01*
X82244889Y-42432530D01*
X82314962Y-42490038D01*
X82372470Y-42560111D01*
X82415198Y-42640050D01*
X82441511Y-42726790D01*
X82451000Y-42823140D01*
X82451000Y-43986860D01*
X82441511Y-44083210D01*
X82415198Y-44169950D01*
X82372470Y-44249889D01*
X82314962Y-44319962D01*
X82244889Y-44377470D01*
X82164950Y-44420198D01*
X82078210Y-44446511D01*
X81981860Y-44456000D01*
X76818140Y-44456000D01*
X76721790Y-44446511D01*
X76635050Y-44420198D01*
X76555111Y-44377470D01*
X76485038Y-44319962D01*
X76427530Y-44249889D01*
X76384802Y-44169950D01*
X76358489Y-44083210D01*
X76349000Y-43986860D01*
X76349000Y-42823140D01*
X76358489Y-42726790D01*
X76384802Y-42640050D01*
X76427530Y-42560111D01*
X76485038Y-42490038D01*
X76555111Y-42432530D01*
X76635050Y-42389802D01*
X76721790Y-42363489D01*
X76818140Y-42354000D01*
X81981860Y-42354000D01*
X82078210Y-42363489D01*
G37*
G36*
X69486425Y-41832760D02*
G01*
X69486428Y-41832761D01*
X69486429Y-41832761D01*
X69665693Y-41887140D01*
X69665696Y-41887142D01*
X69665697Y-41887142D01*
X69830903Y-41975446D01*
X69975712Y-42094288D01*
X70094554Y-42239097D01*
X70175107Y-42389802D01*
X70182860Y-42404307D01*
X70237239Y-42583571D01*
X70237240Y-42583575D01*
X70255601Y-42770000D01*
X70237240Y-42956425D01*
X70237239Y-42956428D01*
X70237239Y-42956429D01*
X70182860Y-43135693D01*
X70182858Y-43135696D01*
X70182858Y-43135697D01*
X70094554Y-43300903D01*
X69975712Y-43445712D01*
X69830903Y-43564554D01*
X69665697Y-43652858D01*
X69665693Y-43652860D01*
X69486429Y-43707239D01*
X69486428Y-43707239D01*
X69486425Y-43707240D01*
X69346718Y-43721000D01*
X68053282Y-43721000D01*
X67913575Y-43707240D01*
X67913572Y-43707239D01*
X67913571Y-43707239D01*
X67734307Y-43652860D01*
X67734303Y-43652858D01*
X67569097Y-43564554D01*
X67424288Y-43445712D01*
X67305446Y-43300903D01*
X67217142Y-43135697D01*
X67217142Y-43135696D01*
X67217140Y-43135693D01*
X67162761Y-42956429D01*
X67162761Y-42956428D01*
X67162760Y-42956425D01*
X67144399Y-42770000D01*
X67162760Y-42583575D01*
X67162761Y-42583571D01*
X67217140Y-42404307D01*
X67224893Y-42389802D01*
X67305446Y-42239097D01*
X67424288Y-42094288D01*
X67569097Y-41975446D01*
X67734303Y-41887142D01*
X67734304Y-41887142D01*
X67734307Y-41887140D01*
X67913571Y-41832761D01*
X67913572Y-41832761D01*
X67913575Y-41832760D01*
X68053282Y-41819000D01*
X69346718Y-41819000D01*
X69486425Y-41832760D01*
G37*
G36*
X65041425Y-41832760D02*
G01*
X65041428Y-41832761D01*
X65041429Y-41832761D01*
X65220693Y-41887140D01*
X65220696Y-41887142D01*
X65220697Y-41887142D01*
X65385903Y-41975446D01*
X65530712Y-42094288D01*
X65649554Y-42239097D01*
X65730107Y-42389802D01*
X65737860Y-42404307D01*
X65792239Y-42583571D01*
X65792240Y-42583575D01*
X65810601Y-42770000D01*
X65792240Y-42956425D01*
X65792239Y-42956428D01*
X65792239Y-42956429D01*
X65737860Y-43135693D01*
X65737858Y-43135696D01*
X65737858Y-43135697D01*
X65649554Y-43300903D01*
X65530712Y-43445712D01*
X65385903Y-43564554D01*
X65220697Y-43652858D01*
X65220693Y-43652860D01*
X65041429Y-43707239D01*
X65041428Y-43707239D01*
X65041425Y-43707240D01*
X64901718Y-43721000D01*
X63608282Y-43721000D01*
X63468575Y-43707240D01*
X63468572Y-43707239D01*
X63468571Y-43707239D01*
X63289307Y-43652860D01*
X63289303Y-43652858D01*
X63124097Y-43564554D01*
X62979288Y-43445712D01*
X62860446Y-43300903D01*
X62772142Y-43135697D01*
X62772142Y-43135696D01*
X62772140Y-43135693D01*
X62717761Y-42956429D01*
X62717761Y-42956428D01*
X62717760Y-42956425D01*
X62699399Y-42770000D01*
X62717760Y-42583575D01*
X62717761Y-42583571D01*
X62772140Y-42404307D01*
X62779893Y-42389802D01*
X62860446Y-42239097D01*
X62979288Y-42094288D01*
X63124097Y-41975446D01*
X63289303Y-41887142D01*
X63289304Y-41887142D01*
X63289307Y-41887140D01*
X63468571Y-41832761D01*
X63468572Y-41832761D01*
X63468575Y-41832760D01*
X63608282Y-41819000D01*
X64901718Y-41819000D01*
X65041425Y-41832760D01*
G37*
G36*
X69486425Y-39292760D02*
G01*
X69486428Y-39292761D01*
X69486429Y-39292761D01*
X69665693Y-39347140D01*
X69665696Y-39347142D01*
X69665697Y-39347142D01*
X69830903Y-39435446D01*
X69975712Y-39554288D01*
X70094554Y-39699097D01*
X70182858Y-39864303D01*
X70182860Y-39864307D01*
X70209895Y-39953430D01*
X70237240Y-40043575D01*
X70255601Y-40230000D01*
X70237240Y-40416425D01*
X70237239Y-40416428D01*
X70237239Y-40416429D01*
X70182860Y-40595693D01*
X70182858Y-40595696D01*
X70182858Y-40595697D01*
X70094554Y-40760903D01*
X69975712Y-40905712D01*
X69830903Y-41024554D01*
X69689137Y-41100329D01*
X69665693Y-41112860D01*
X69486429Y-41167239D01*
X69486428Y-41167239D01*
X69486425Y-41167240D01*
X69346718Y-41181000D01*
X68053282Y-41181000D01*
X67913575Y-41167240D01*
X67913572Y-41167239D01*
X67913571Y-41167239D01*
X67734307Y-41112860D01*
X67710863Y-41100329D01*
X67569097Y-41024554D01*
X67424288Y-40905712D01*
X67305446Y-40760903D01*
X67217142Y-40595697D01*
X67217142Y-40595696D01*
X67217140Y-40595693D01*
X67162761Y-40416429D01*
X67162761Y-40416428D01*
X67162760Y-40416425D01*
X67144399Y-40230000D01*
X67162760Y-40043575D01*
X67190105Y-39953430D01*
X67217140Y-39864307D01*
X67217142Y-39864303D01*
X67305446Y-39699097D01*
X67424288Y-39554288D01*
X67569097Y-39435446D01*
X67734303Y-39347142D01*
X67734304Y-39347142D01*
X67734307Y-39347140D01*
X67913571Y-39292761D01*
X67913572Y-39292761D01*
X67913575Y-39292760D01*
X68053282Y-39279000D01*
X69346718Y-39279000D01*
X69486425Y-39292760D01*
G37*
G36*
X65041425Y-39292760D02*
G01*
X65041428Y-39292761D01*
X65041429Y-39292761D01*
X65220693Y-39347140D01*
X65220696Y-39347142D01*
X65220697Y-39347142D01*
X65385903Y-39435446D01*
X65530712Y-39554288D01*
X65649554Y-39699097D01*
X65737858Y-39864303D01*
X65737860Y-39864307D01*
X65764895Y-39953430D01*
X65792240Y-40043575D01*
X65810601Y-40230000D01*
X65792240Y-40416425D01*
X65792239Y-40416428D01*
X65792239Y-40416429D01*
X65737860Y-40595693D01*
X65737858Y-40595696D01*
X65737858Y-40595697D01*
X65649554Y-40760903D01*
X65530712Y-40905712D01*
X65385903Y-41024554D01*
X65244137Y-41100329D01*
X65220693Y-41112860D01*
X65041429Y-41167239D01*
X65041428Y-41167239D01*
X65041425Y-41167240D01*
X64901718Y-41181000D01*
X63608282Y-41181000D01*
X63468575Y-41167240D01*
X63468572Y-41167239D01*
X63468571Y-41167239D01*
X63289307Y-41112860D01*
X63265863Y-41100329D01*
X63124097Y-41024554D01*
X62979288Y-40905712D01*
X62860446Y-40760903D01*
X62772142Y-40595697D01*
X62772142Y-40595696D01*
X62772140Y-40595693D01*
X62717761Y-40416429D01*
X62717761Y-40416428D01*
X62717760Y-40416425D01*
X62699399Y-40230000D01*
X62717760Y-40043575D01*
X62745105Y-39953430D01*
X62772140Y-39864307D01*
X62772142Y-39864303D01*
X62860446Y-39699097D01*
X62979288Y-39554288D01*
X63124097Y-39435446D01*
X63289303Y-39347142D01*
X63289304Y-39347142D01*
X63289307Y-39347140D01*
X63468571Y-39292761D01*
X63468572Y-39292761D01*
X63468575Y-39292760D01*
X63608282Y-39279000D01*
X64901718Y-39279000D01*
X65041425Y-39292760D01*
G37*
G36*
X82078210Y-38553489D02*
G01*
X82164950Y-38579802D01*
X82244889Y-38622530D01*
X82314962Y-38680038D01*
X82372470Y-38750111D01*
X82415198Y-38830050D01*
X82441511Y-38916790D01*
X82451000Y-39013140D01*
X82451000Y-40176860D01*
X82441511Y-40273210D01*
X82415198Y-40359950D01*
X82372470Y-40439889D01*
X82314962Y-40509962D01*
X82244889Y-40567470D01*
X82164950Y-40610198D01*
X82078210Y-40636511D01*
X81981860Y-40646000D01*
X76818140Y-40646000D01*
X76721790Y-40636511D01*
X76635050Y-40610198D01*
X76555111Y-40567470D01*
X76485038Y-40509962D01*
X76427530Y-40439889D01*
X76384802Y-40359950D01*
X76358489Y-40273210D01*
X76349000Y-40176860D01*
X76349000Y-39013140D01*
X76358489Y-38916790D01*
X76384802Y-38830050D01*
X76427530Y-38750111D01*
X76485038Y-38680038D01*
X76555111Y-38622530D01*
X76635050Y-38579802D01*
X76721790Y-38553489D01*
X76818140Y-38544000D01*
X81981860Y-38544000D01*
X82078210Y-38553489D01*
G37*
G36*
X52288254Y-35717818D02*
G01*
X52661511Y-35872426D01*
X52661513Y-35872427D01*
X52997436Y-36096884D01*
X53283116Y-36382564D01*
X53448374Y-36629889D01*
X53507574Y-36718489D01*
X53662182Y-37091746D01*
X53741000Y-37487993D01*
X53741000Y-37892007D01*
X53662182Y-38288254D01*
X53516070Y-38641000D01*
X53507573Y-38661513D01*
X53283116Y-38997436D01*
X52997436Y-39283116D01*
X52661513Y-39507573D01*
X52661512Y-39507574D01*
X52661511Y-39507574D01*
X52288254Y-39662182D01*
X51892007Y-39741000D01*
X51487993Y-39741000D01*
X51091746Y-39662182D01*
X50718489Y-39507574D01*
X50718488Y-39507574D01*
X50718487Y-39507573D01*
X50382564Y-39283116D01*
X50096884Y-38997436D01*
X49872427Y-38661513D01*
X49863930Y-38641000D01*
X49717818Y-38288254D01*
X49639000Y-37892007D01*
X49639000Y-37487993D01*
X49717818Y-37091746D01*
X49872426Y-36718489D01*
X49931627Y-36629889D01*
X50096884Y-36382564D01*
X50382564Y-36096884D01*
X50718487Y-35872427D01*
X50718489Y-35872426D01*
X51091746Y-35717818D01*
X51487993Y-35639000D01*
X51892007Y-35639000D01*
X52288254Y-35717818D01*
G37*
G36*
X60766425Y-36157760D02*
G01*
X60766428Y-36157761D01*
X60766429Y-36157761D01*
X60945693Y-36212140D01*
X60945696Y-36212142D01*
X60945697Y-36212142D01*
X61110903Y-36300446D01*
X61255712Y-36419288D01*
X61374554Y-36564097D01*
X61447175Y-36699962D01*
X61462860Y-36729307D01*
X61471403Y-36757470D01*
X61517240Y-36908574D01*
X61531000Y-37048283D01*
X61531000Y-37841718D01*
X61517240Y-37981425D01*
X61517239Y-37981428D01*
X61517239Y-37981429D01*
X61462860Y-38160693D01*
X61462858Y-38160696D01*
X61462858Y-38160697D01*
X61374554Y-38325903D01*
X61255712Y-38470712D01*
X61110903Y-38589554D01*
X60945696Y-38677858D01*
X60945692Y-38677860D01*
X60766428Y-38732239D01*
X60766427Y-38732239D01*
X60766424Y-38732240D01*
X60580000Y-38750601D01*
X60393575Y-38732240D01*
X60393572Y-38732239D01*
X60393571Y-38732239D01*
X60214307Y-38677860D01*
X60183720Y-38661511D01*
X60049097Y-38589554D01*
X59904288Y-38470712D01*
X59785446Y-38325903D01*
X59697142Y-38160696D01*
X59697141Y-38160693D01*
X59697140Y-38160692D01*
X59642761Y-37981428D01*
X59642761Y-37981427D01*
X59642760Y-37981424D01*
X59629000Y-37841717D01*
X59629000Y-37048282D01*
X59642760Y-36908570D01*
X59697140Y-36729308D01*
X59785447Y-36564097D01*
X59904289Y-36419288D01*
X60049098Y-36300446D01*
X60214304Y-36212142D01*
X60214305Y-36212142D01*
X60214308Y-36212140D01*
X60393572Y-36157761D01*
X60393573Y-36157761D01*
X60393576Y-36157760D01*
X60580000Y-36139399D01*
X60766425Y-36157760D01*
G37*
G36*
X65041425Y-36752760D02*
G01*
X65041428Y-36752761D01*
X65041429Y-36752761D01*
X65220693Y-36807140D01*
X65220696Y-36807142D01*
X65220697Y-36807142D01*
X65385903Y-36895446D01*
X65530712Y-37014288D01*
X65649554Y-37159097D01*
X65737858Y-37324303D01*
X65737860Y-37324307D01*
X65787513Y-37487993D01*
X65792240Y-37503575D01*
X65810601Y-37690000D01*
X65792240Y-37876425D01*
X65792239Y-37876428D01*
X65792239Y-37876429D01*
X65737860Y-38055693D01*
X65737858Y-38055696D01*
X65737858Y-38055697D01*
X65649554Y-38220903D01*
X65530712Y-38365712D01*
X65385903Y-38484554D01*
X65220697Y-38572858D01*
X65220693Y-38572860D01*
X65041429Y-38627239D01*
X65041428Y-38627239D01*
X65041425Y-38627240D01*
X64901718Y-38641000D01*
X63608282Y-38641000D01*
X63468575Y-38627240D01*
X63468572Y-38627239D01*
X63468571Y-38627239D01*
X63289307Y-38572860D01*
X63289303Y-38572858D01*
X63124097Y-38484554D01*
X62979288Y-38365712D01*
X62860446Y-38220903D01*
X62772142Y-38055697D01*
X62772142Y-38055696D01*
X62772140Y-38055693D01*
X62717761Y-37876429D01*
X62717761Y-37876428D01*
X62717760Y-37876425D01*
X62699399Y-37690000D01*
X62717760Y-37503575D01*
X62722487Y-37487993D01*
X62772140Y-37324307D01*
X62772142Y-37324303D01*
X62860446Y-37159097D01*
X62979288Y-37014288D01*
X63124097Y-36895446D01*
X63289303Y-36807142D01*
X63289304Y-36807142D01*
X63289307Y-36807140D01*
X63468571Y-36752761D01*
X63468572Y-36752761D01*
X63468575Y-36752760D01*
X63608282Y-36739000D01*
X64901718Y-36739000D01*
X65041425Y-36752760D01*
G37*
G36*
X69486425Y-36752760D02*
G01*
X69486428Y-36752761D01*
X69486429Y-36752761D01*
X69665693Y-36807140D01*
X69665696Y-36807142D01*
X69665697Y-36807142D01*
X69830903Y-36895446D01*
X69975712Y-37014288D01*
X70094554Y-37159097D01*
X70182858Y-37324303D01*
X70182860Y-37324307D01*
X70232513Y-37487993D01*
X70237240Y-37503575D01*
X70255601Y-37690000D01*
X70237240Y-37876425D01*
X70237239Y-37876428D01*
X70237239Y-37876429D01*
X70182860Y-38055693D01*
X70182858Y-38055696D01*
X70182858Y-38055697D01*
X70094554Y-38220903D01*
X69975712Y-38365712D01*
X69830903Y-38484554D01*
X69665697Y-38572858D01*
X69665693Y-38572860D01*
X69486429Y-38627239D01*
X69486428Y-38627239D01*
X69486425Y-38627240D01*
X69346718Y-38641000D01*
X68053282Y-38641000D01*
X67913575Y-38627240D01*
X67913572Y-38627239D01*
X67913571Y-38627239D01*
X67734307Y-38572860D01*
X67734303Y-38572858D01*
X67569097Y-38484554D01*
X67424288Y-38365712D01*
X67305446Y-38220903D01*
X67217142Y-38055697D01*
X67217142Y-38055696D01*
X67217140Y-38055693D01*
X67162761Y-37876429D01*
X67162761Y-37876428D01*
X67162760Y-37876425D01*
X67144399Y-37690000D01*
X67162760Y-37503575D01*
X67167487Y-37487993D01*
X67217140Y-37324307D01*
X67217142Y-37324303D01*
X67305446Y-37159097D01*
X67424288Y-37014288D01*
X67569097Y-36895446D01*
X67734303Y-36807142D01*
X67734304Y-36807142D01*
X67734307Y-36807140D01*
X67913571Y-36752761D01*
X67913572Y-36752761D01*
X67913575Y-36752760D01*
X68053282Y-36739000D01*
X69346718Y-36739000D01*
X69486425Y-36752760D01*
G37*
G36*
X82078210Y-34743489D02*
G01*
X82164950Y-34769802D01*
X82244889Y-34812530D01*
X82314962Y-34870038D01*
X82372470Y-34940111D01*
X82415198Y-35020050D01*
X82441511Y-35106790D01*
X82451000Y-35203140D01*
X82451000Y-36366860D01*
X82441511Y-36463210D01*
X82415198Y-36549950D01*
X82372470Y-36629889D01*
X82314962Y-36699962D01*
X82244889Y-36757470D01*
X82164950Y-36800198D01*
X82078210Y-36826511D01*
X81981860Y-36836000D01*
X76818140Y-36836000D01*
X76721790Y-36826511D01*
X76635050Y-36800198D01*
X76555111Y-36757470D01*
X76485038Y-36699962D01*
X76427530Y-36629889D01*
X76384802Y-36549950D01*
X76358489Y-36463210D01*
X76349000Y-36366860D01*
X76349000Y-35203140D01*
X76358489Y-35106790D01*
X76384802Y-35020050D01*
X76427530Y-34940111D01*
X76485038Y-34870038D01*
X76555111Y-34812530D01*
X76635050Y-34769802D01*
X76721790Y-34743489D01*
X76818140Y-34734000D01*
X81981860Y-34734000D01*
X82078210Y-34743489D01*
G37*
M02*
