G04 #@! TF.GenerationSoftware,KiCad,Pcbnew,5.1.5+dfsg1-2build2*
G04 #@! TF.CreationDate,2022-10-31T13:26:34+01:00*
G04 #@! TF.ProjectId,DHTBreakout,44485442-7265-4616-9b6f-75742e6b6963,rev?*
G04 #@! TF.SameCoordinates,Original*
G04 #@! TF.FileFunction,Legend,Top*
G04 #@! TF.FilePolarity,Positive*
%FSLAX46Y46*%
G04 Gerber Fmt 4.6, Leading zero omitted, Abs format (unit mm)*
G04 Created by KiCad (PCBNEW 5.1.5+dfsg1-2build2) date 2022-10-31 13:26:34*
%MOMM*%
%LPD*%
G04 APERTURE LIST*
%ADD10C,0.150000*%
%ADD11C,0.010000*%
%ADD12C,0.120000*%
G04 APERTURE END LIST*
D10*
X70564761Y-46124761D02*
X70707619Y-46172380D01*
X70945714Y-46172380D01*
X71040952Y-46124761D01*
X71088571Y-46077142D01*
X71136190Y-45981904D01*
X71136190Y-45886666D01*
X71088571Y-45791428D01*
X71040952Y-45743809D01*
X70945714Y-45696190D01*
X70755238Y-45648571D01*
X70660000Y-45600952D01*
X70612380Y-45553333D01*
X70564761Y-45458095D01*
X70564761Y-45362857D01*
X70612380Y-45267619D01*
X70660000Y-45220000D01*
X70755238Y-45172380D01*
X70993333Y-45172380D01*
X71136190Y-45220000D01*
X72136190Y-46077142D02*
X72088571Y-46124761D01*
X71945714Y-46172380D01*
X71850476Y-46172380D01*
X71707619Y-46124761D01*
X71612380Y-46029523D01*
X71564761Y-45934285D01*
X71517142Y-45743809D01*
X71517142Y-45600952D01*
X71564761Y-45410476D01*
X71612380Y-45315238D01*
X71707619Y-45220000D01*
X71850476Y-45172380D01*
X71945714Y-45172380D01*
X72088571Y-45220000D01*
X72136190Y-45267619D01*
X73040952Y-46172380D02*
X72564761Y-46172380D01*
X72564761Y-45172380D01*
X74660000Y-45220000D02*
X74564761Y-45172380D01*
X74421904Y-45172380D01*
X74279047Y-45220000D01*
X74183809Y-45315238D01*
X74136190Y-45410476D01*
X74088571Y-45600952D01*
X74088571Y-45743809D01*
X74136190Y-45934285D01*
X74183809Y-46029523D01*
X74279047Y-46124761D01*
X74421904Y-46172380D01*
X74517142Y-46172380D01*
X74660000Y-46124761D01*
X74707619Y-46077142D01*
X74707619Y-45743809D01*
X74517142Y-45743809D01*
X75136190Y-46172380D02*
X75136190Y-45172380D01*
X75707619Y-46172380D01*
X75707619Y-45172380D01*
X76183809Y-46172380D02*
X76183809Y-45172380D01*
X76421904Y-45172380D01*
X76564761Y-45220000D01*
X76660000Y-45315238D01*
X76707619Y-45410476D01*
X76755238Y-45600952D01*
X76755238Y-45743809D01*
X76707619Y-45934285D01*
X76660000Y-46029523D01*
X76564761Y-46124761D01*
X76421904Y-46172380D01*
X76183809Y-46172380D01*
X70993095Y-43950000D02*
X70897857Y-43902380D01*
X70755000Y-43902380D01*
X70612142Y-43950000D01*
X70516904Y-44045238D01*
X70469285Y-44140476D01*
X70421666Y-44330952D01*
X70421666Y-44473809D01*
X70469285Y-44664285D01*
X70516904Y-44759523D01*
X70612142Y-44854761D01*
X70755000Y-44902380D01*
X70850238Y-44902380D01*
X70993095Y-44854761D01*
X71040714Y-44807142D01*
X71040714Y-44473809D01*
X70850238Y-44473809D01*
X71469285Y-44902380D02*
X71469285Y-43902380D01*
X72040714Y-44902380D01*
X72040714Y-43902380D01*
X72516904Y-44902380D02*
X72516904Y-43902380D01*
X72755000Y-43902380D01*
X72897857Y-43950000D01*
X72993095Y-44045238D01*
X73040714Y-44140476D01*
X73088333Y-44330952D01*
X73088333Y-44473809D01*
X73040714Y-44664285D01*
X72993095Y-44759523D01*
X72897857Y-44854761D01*
X72755000Y-44902380D01*
X72516904Y-44902380D01*
X70382142Y-38804761D02*
X70525000Y-38852380D01*
X70763095Y-38852380D01*
X70858333Y-38804761D01*
X70905952Y-38757142D01*
X70953571Y-38661904D01*
X70953571Y-38566666D01*
X70905952Y-38471428D01*
X70858333Y-38423809D01*
X70763095Y-38376190D01*
X70572619Y-38328571D01*
X70477380Y-38280952D01*
X70429761Y-38233333D01*
X70382142Y-38138095D01*
X70382142Y-38042857D01*
X70429761Y-37947619D01*
X70477380Y-37900000D01*
X70572619Y-37852380D01*
X70810714Y-37852380D01*
X70953571Y-37900000D01*
X71382142Y-38852380D02*
X71382142Y-37852380D01*
X71620238Y-37852380D01*
X71763095Y-37900000D01*
X71858333Y-37995238D01*
X71905952Y-38090476D01*
X71953571Y-38280952D01*
X71953571Y-38423809D01*
X71905952Y-38614285D01*
X71858333Y-38709523D01*
X71763095Y-38804761D01*
X71620238Y-38852380D01*
X71382142Y-38852380D01*
X72334523Y-38566666D02*
X72810714Y-38566666D01*
X72239285Y-38852380D02*
X72572619Y-37852380D01*
X72905952Y-38852380D01*
X74525000Y-38852380D02*
X73953571Y-38852380D01*
X74239285Y-38852380D02*
X74239285Y-37852380D01*
X74144047Y-37995238D01*
X74048809Y-38090476D01*
X73953571Y-38138095D01*
X74858333Y-37852380D02*
X75096428Y-38852380D01*
X75286904Y-38138095D01*
X75477380Y-38852380D01*
X75715476Y-37852380D01*
X70421666Y-36282380D02*
X70755000Y-37282380D01*
X71088333Y-36282380D01*
X71993095Y-37187142D02*
X71945476Y-37234761D01*
X71802619Y-37282380D01*
X71707380Y-37282380D01*
X71564523Y-37234761D01*
X71469285Y-37139523D01*
X71421666Y-37044285D01*
X71374047Y-36853809D01*
X71374047Y-36710952D01*
X71421666Y-36520476D01*
X71469285Y-36425238D01*
X71564523Y-36330000D01*
X71707380Y-36282380D01*
X71802619Y-36282380D01*
X71945476Y-36330000D01*
X71993095Y-36377619D01*
X72993095Y-37187142D02*
X72945476Y-37234761D01*
X72802619Y-37282380D01*
X72707380Y-37282380D01*
X72564523Y-37234761D01*
X72469285Y-37139523D01*
X72421666Y-37044285D01*
X72374047Y-36853809D01*
X72374047Y-36710952D01*
X72421666Y-36520476D01*
X72469285Y-36425238D01*
X72564523Y-36330000D01*
X72707380Y-36282380D01*
X72802619Y-36282380D01*
X72945476Y-36330000D01*
X72993095Y-36377619D01*
X52916666Y-47452380D02*
X53488095Y-47452380D01*
X53202380Y-48452380D02*
X53202380Y-47452380D01*
X53821428Y-47928571D02*
X54154761Y-47928571D01*
X54297619Y-48452380D02*
X53821428Y-48452380D01*
X53821428Y-47452380D01*
X54297619Y-47452380D01*
X54726190Y-48452380D02*
X54726190Y-47452380D01*
X55059523Y-48166666D01*
X55392857Y-47452380D01*
X55392857Y-48452380D01*
X55869047Y-48452380D02*
X55869047Y-47452380D01*
X56249999Y-47452380D01*
X56345238Y-47500000D01*
X56392857Y-47547619D01*
X56440476Y-47642857D01*
X56440476Y-47785714D01*
X56392857Y-47880952D01*
X56345238Y-47928571D01*
X56249999Y-47976190D01*
X55869047Y-47976190D01*
X56869047Y-48071428D02*
X57630952Y-48071428D01*
X58107142Y-48452380D02*
X58107142Y-47452380D01*
X58107142Y-47928571D02*
X58678571Y-47928571D01*
X58678571Y-48452380D02*
X58678571Y-47452380D01*
X59154761Y-47452380D02*
X59154761Y-48261904D01*
X59202380Y-48357142D01*
X59249999Y-48404761D01*
X59345238Y-48452380D01*
X59535714Y-48452380D01*
X59630952Y-48404761D01*
X59678571Y-48357142D01*
X59726190Y-48261904D01*
X59726190Y-47452380D01*
X60202380Y-48452380D02*
X60202380Y-47452380D01*
X60535714Y-48166666D01*
X60869047Y-47452380D01*
X60869047Y-48452380D01*
X61345238Y-48452380D02*
X61345238Y-47452380D01*
X61821428Y-48452380D02*
X61821428Y-47452380D01*
X62059523Y-47452380D01*
X62202380Y-47500000D01*
X62297619Y-47595238D01*
X62345238Y-47690476D01*
X62392857Y-47880952D01*
X62392857Y-48023809D01*
X62345238Y-48214285D01*
X62297619Y-48309523D01*
X62202380Y-48404761D01*
X62059523Y-48452380D01*
X61821428Y-48452380D01*
X62821428Y-48452380D02*
X62821428Y-47452380D01*
X63154761Y-47452380D02*
X63726190Y-47452380D01*
X63440476Y-48452380D02*
X63440476Y-47452380D01*
X64249999Y-47976190D02*
X64249999Y-48452380D01*
X63916666Y-47452380D02*
X64249999Y-47976190D01*
X64583333Y-47452380D01*
X53154761Y-35452380D02*
X53154761Y-34452380D01*
X53392857Y-34452380D01*
X53535714Y-34500000D01*
X53630952Y-34595238D01*
X53678571Y-34690476D01*
X53726190Y-34880952D01*
X53726190Y-35023809D01*
X53678571Y-35214285D01*
X53630952Y-35309523D01*
X53535714Y-35404761D01*
X53392857Y-35452380D01*
X53154761Y-35452380D01*
X54154761Y-35452380D02*
X54154761Y-34452380D01*
X54154761Y-34928571D02*
X54726190Y-34928571D01*
X54726190Y-35452380D02*
X54726190Y-34452380D01*
X55059523Y-34452380D02*
X55630952Y-34452380D01*
X55345238Y-35452380D02*
X55345238Y-34452380D01*
X56678571Y-35404761D02*
X56821428Y-35452380D01*
X57059523Y-35452380D01*
X57154761Y-35404761D01*
X57202380Y-35357142D01*
X57250000Y-35261904D01*
X57250000Y-35166666D01*
X57202380Y-35071428D01*
X57154761Y-35023809D01*
X57059523Y-34976190D01*
X56869047Y-34928571D01*
X56773809Y-34880952D01*
X56726190Y-34833333D01*
X56678571Y-34738095D01*
X56678571Y-34642857D01*
X56726190Y-34547619D01*
X56773809Y-34500000D01*
X56869047Y-34452380D01*
X57107142Y-34452380D01*
X57250000Y-34500000D01*
X57678571Y-34928571D02*
X58011904Y-34928571D01*
X58154761Y-35452380D02*
X57678571Y-35452380D01*
X57678571Y-34452380D01*
X58154761Y-34452380D01*
X58583333Y-35452380D02*
X58583333Y-34452380D01*
X59154761Y-35452380D01*
X59154761Y-34452380D01*
X59583333Y-35404761D02*
X59726190Y-35452380D01*
X59964285Y-35452380D01*
X60059523Y-35404761D01*
X60107142Y-35357142D01*
X60154761Y-35261904D01*
X60154761Y-35166666D01*
X60107142Y-35071428D01*
X60059523Y-35023809D01*
X59964285Y-34976190D01*
X59773809Y-34928571D01*
X59678571Y-34880952D01*
X59630952Y-34833333D01*
X59583333Y-34738095D01*
X59583333Y-34642857D01*
X59630952Y-34547619D01*
X59678571Y-34500000D01*
X59773809Y-34452380D01*
X60011904Y-34452380D01*
X60154761Y-34500000D01*
X60583333Y-35357142D02*
X60630952Y-35404761D01*
X60583333Y-35452380D01*
X60535714Y-35404761D01*
X60583333Y-35357142D01*
X60583333Y-35452380D01*
X62154761Y-34928571D02*
X62297619Y-34976190D01*
X62345238Y-35023809D01*
X62392857Y-35119047D01*
X62392857Y-35261904D01*
X62345238Y-35357142D01*
X62297619Y-35404761D01*
X62202380Y-35452380D01*
X61821428Y-35452380D01*
X61821428Y-34452380D01*
X62154761Y-34452380D01*
X62250000Y-34500000D01*
X62297619Y-34547619D01*
X62345238Y-34642857D01*
X62345238Y-34738095D01*
X62297619Y-34833333D01*
X62250000Y-34880952D01*
X62154761Y-34928571D01*
X61821428Y-34928571D01*
X63392857Y-35452380D02*
X63059523Y-34976190D01*
X62821428Y-35452380D02*
X62821428Y-34452380D01*
X63202380Y-34452380D01*
X63297619Y-34500000D01*
X63345238Y-34547619D01*
X63392857Y-34642857D01*
X63392857Y-34785714D01*
X63345238Y-34880952D01*
X63297619Y-34928571D01*
X63202380Y-34976190D01*
X62821428Y-34976190D01*
X63821428Y-35452380D02*
X63821428Y-34452380D01*
X64059523Y-34452380D01*
X64202380Y-34500000D01*
X64297619Y-34595238D01*
X64345238Y-34690476D01*
X64392857Y-34880952D01*
X64392857Y-35023809D01*
X64345238Y-35214285D01*
X64297619Y-35309523D01*
X64202380Y-35404761D01*
X64059523Y-35452380D01*
X63821428Y-35452380D01*
D11*
G36*
X81039767Y-45799080D02*
G01*
X80980237Y-45872892D01*
X80870954Y-45900922D01*
X80836491Y-45901945D01*
X80749489Y-45879769D01*
X80672122Y-45804698D01*
X80595976Y-45663919D01*
X80512635Y-45444617D01*
X80488296Y-45371774D01*
X80419061Y-45165106D01*
X80359471Y-45032070D01*
X80286788Y-44955508D01*
X80178273Y-44918261D01*
X80011187Y-44903172D01*
X79859214Y-44897072D01*
X79424101Y-44880244D01*
X79495946Y-45083871D01*
X79557092Y-45318877D01*
X79550549Y-45485366D01*
X79476333Y-45583283D01*
X79347164Y-45612761D01*
X79261335Y-45598510D01*
X79194735Y-45544056D01*
X79134370Y-45431846D01*
X79067244Y-45244327D01*
X79061717Y-45227182D01*
X79007000Y-45071335D01*
X78955685Y-44949269D01*
X78928945Y-44901850D01*
X78867611Y-44873132D01*
X78731884Y-44854047D01*
X78513903Y-44843856D01*
X78288101Y-44841604D01*
X78024697Y-44839167D01*
X77841158Y-44830615D01*
X77721050Y-44814087D01*
X77647935Y-44787723D01*
X77619240Y-44765865D01*
X77550930Y-44644343D01*
X77565509Y-44520179D01*
X77617883Y-44454294D01*
X77687808Y-44436027D01*
X77838290Y-44421671D01*
X78053575Y-44411158D01*
X78317908Y-44404422D01*
X78615534Y-44401393D01*
X78930699Y-44402005D01*
X79247647Y-44406189D01*
X79550623Y-44413877D01*
X79823874Y-44425003D01*
X80051643Y-44439498D01*
X80218176Y-44457294D01*
X80265821Y-44465683D01*
X80479237Y-44538222D01*
X80648698Y-44662559D01*
X80786604Y-44852387D01*
X80905355Y-45121400D01*
X80933708Y-45203248D01*
X81015115Y-45474227D01*
X81050930Y-45669514D01*
X81039767Y-45799080D01*
G37*
X81039767Y-45799080D02*
X80980237Y-45872892D01*
X80870954Y-45900922D01*
X80836491Y-45901945D01*
X80749489Y-45879769D01*
X80672122Y-45804698D01*
X80595976Y-45663919D01*
X80512635Y-45444617D01*
X80488296Y-45371774D01*
X80419061Y-45165106D01*
X80359471Y-45032070D01*
X80286788Y-44955508D01*
X80178273Y-44918261D01*
X80011187Y-44903172D01*
X79859214Y-44897072D01*
X79424101Y-44880244D01*
X79495946Y-45083871D01*
X79557092Y-45318877D01*
X79550549Y-45485366D01*
X79476333Y-45583283D01*
X79347164Y-45612761D01*
X79261335Y-45598510D01*
X79194735Y-45544056D01*
X79134370Y-45431846D01*
X79067244Y-45244327D01*
X79061717Y-45227182D01*
X79007000Y-45071335D01*
X78955685Y-44949269D01*
X78928945Y-44901850D01*
X78867611Y-44873132D01*
X78731884Y-44854047D01*
X78513903Y-44843856D01*
X78288101Y-44841604D01*
X78024697Y-44839167D01*
X77841158Y-44830615D01*
X77721050Y-44814087D01*
X77647935Y-44787723D01*
X77619240Y-44765865D01*
X77550930Y-44644343D01*
X77565509Y-44520179D01*
X77617883Y-44454294D01*
X77687808Y-44436027D01*
X77838290Y-44421671D01*
X78053575Y-44411158D01*
X78317908Y-44404422D01*
X78615534Y-44401393D01*
X78930699Y-44402005D01*
X79247647Y-44406189D01*
X79550623Y-44413877D01*
X79823874Y-44425003D01*
X80051643Y-44439498D01*
X80218176Y-44457294D01*
X80265821Y-44465683D01*
X80479237Y-44538222D01*
X80648698Y-44662559D01*
X80786604Y-44852387D01*
X80905355Y-45121400D01*
X80933708Y-45203248D01*
X81015115Y-45474227D01*
X81050930Y-45669514D01*
X81039767Y-45799080D01*
G36*
X80383574Y-43845618D02*
G01*
X80349680Y-43888344D01*
X80231682Y-43956089D01*
X80112887Y-43930322D01*
X79999999Y-43813634D01*
X79954739Y-43735751D01*
X79891474Y-43630835D01*
X79815722Y-43561144D01*
X79707424Y-43519628D01*
X79546521Y-43499236D01*
X79312955Y-43492920D01*
X79263308Y-43492736D01*
X79075323Y-43493926D01*
X78965680Y-43501769D01*
X78916335Y-43521450D01*
X78909247Y-43558155D01*
X78918222Y-43591927D01*
X78910640Y-43706180D01*
X78839758Y-43812552D01*
X78734059Y-43873708D01*
X78700237Y-43877657D01*
X78604590Y-43841308D01*
X78511524Y-43757489D01*
X78460815Y-43664044D01*
X78459251Y-43648367D01*
X78428156Y-43574520D01*
X78383512Y-43519619D01*
X78328291Y-43484947D01*
X78233922Y-43462200D01*
X78083375Y-43449310D01*
X77859621Y-43444208D01*
X77759680Y-43443881D01*
X77521023Y-43442611D01*
X77359851Y-43436638D01*
X77257266Y-43422712D01*
X77194368Y-43397583D01*
X77152259Y-43358004D01*
X77136557Y-43336762D01*
X77075890Y-43239700D01*
X77071913Y-43172659D01*
X77123280Y-43088689D01*
X77129221Y-43080544D01*
X77168880Y-43039187D01*
X77227663Y-43013357D01*
X77324940Y-43000452D01*
X77480077Y-42997873D01*
X77707589Y-43002875D01*
X78218264Y-43017783D01*
X78218264Y-42899352D01*
X78253003Y-42765554D01*
X78339780Y-42691348D01*
X78452438Y-42679959D01*
X78564817Y-42734614D01*
X78645756Y-42846637D01*
X78711767Y-42996452D01*
X79277353Y-43022511D01*
X79578910Y-43042032D01*
X79803944Y-43073007D01*
X79972202Y-43121928D01*
X80103429Y-43195287D01*
X80217369Y-43299578D01*
X80256827Y-43344600D01*
X80376689Y-43530004D01*
X80419800Y-43702059D01*
X80383574Y-43845618D01*
G37*
X80383574Y-43845618D02*
X80349680Y-43888344D01*
X80231682Y-43956089D01*
X80112887Y-43930322D01*
X79999999Y-43813634D01*
X79954739Y-43735751D01*
X79891474Y-43630835D01*
X79815722Y-43561144D01*
X79707424Y-43519628D01*
X79546521Y-43499236D01*
X79312955Y-43492920D01*
X79263308Y-43492736D01*
X79075323Y-43493926D01*
X78965680Y-43501769D01*
X78916335Y-43521450D01*
X78909247Y-43558155D01*
X78918222Y-43591927D01*
X78910640Y-43706180D01*
X78839758Y-43812552D01*
X78734059Y-43873708D01*
X78700237Y-43877657D01*
X78604590Y-43841308D01*
X78511524Y-43757489D01*
X78460815Y-43664044D01*
X78459251Y-43648367D01*
X78428156Y-43574520D01*
X78383512Y-43519619D01*
X78328291Y-43484947D01*
X78233922Y-43462200D01*
X78083375Y-43449310D01*
X77859621Y-43444208D01*
X77759680Y-43443881D01*
X77521023Y-43442611D01*
X77359851Y-43436638D01*
X77257266Y-43422712D01*
X77194368Y-43397583D01*
X77152259Y-43358004D01*
X77136557Y-43336762D01*
X77075890Y-43239700D01*
X77071913Y-43172659D01*
X77123280Y-43088689D01*
X77129221Y-43080544D01*
X77168880Y-43039187D01*
X77227663Y-43013357D01*
X77324940Y-43000452D01*
X77480077Y-42997873D01*
X77707589Y-43002875D01*
X78218264Y-43017783D01*
X78218264Y-42899352D01*
X78253003Y-42765554D01*
X78339780Y-42691348D01*
X78452438Y-42679959D01*
X78564817Y-42734614D01*
X78645756Y-42846637D01*
X78711767Y-42996452D01*
X79277353Y-43022511D01*
X79578910Y-43042032D01*
X79803944Y-43073007D01*
X79972202Y-43121928D01*
X80103429Y-43195287D01*
X80217369Y-43299578D01*
X80256827Y-43344600D01*
X80376689Y-43530004D01*
X80419800Y-43702059D01*
X80383574Y-43845618D01*
G36*
X82297450Y-40255674D02*
G01*
X82184200Y-40616477D01*
X82051744Y-40913520D01*
X81932172Y-41134991D01*
X81806197Y-41331986D01*
X81686282Y-41487943D01*
X81584890Y-41586299D01*
X81525894Y-41612382D01*
X81448965Y-41578411D01*
X81330297Y-41489138D01*
X81189615Y-41363519D01*
X81046643Y-41220509D01*
X80921103Y-41079065D01*
X80832720Y-40958144D01*
X80818131Y-40932150D01*
X80722822Y-40798464D01*
X80622243Y-40745028D01*
X80530584Y-40776126D01*
X80488197Y-40832520D01*
X80477789Y-40948131D01*
X80537194Y-41103876D01*
X80656366Y-41285898D01*
X80825261Y-41480340D01*
X81033835Y-41673347D01*
X81180485Y-41787530D01*
X81322249Y-41890382D01*
X81040622Y-42070536D01*
X80565414Y-42320329D01*
X80062032Y-42484633D01*
X79543164Y-42562644D01*
X79021501Y-42553559D01*
X78509731Y-42456574D01*
X78020544Y-42270886D01*
X78004036Y-42262795D01*
X77812256Y-42160693D01*
X77632132Y-42052355D01*
X77500035Y-41959782D01*
X77491462Y-41952738D01*
X77326613Y-41814496D01*
X77447106Y-41684830D01*
X77543713Y-41590900D01*
X77687121Y-41463043D01*
X77848391Y-41326961D01*
X77868833Y-41310271D01*
X78045900Y-41153245D01*
X78142668Y-41031600D01*
X78164076Y-40935702D01*
X78115065Y-40855917D01*
X78105889Y-40847961D01*
X78021591Y-40838824D01*
X77882150Y-40898354D01*
X77695049Y-41021942D01*
X77467776Y-41204977D01*
X77336745Y-41321621D01*
X77196154Y-41448067D01*
X77107377Y-41516839D01*
X77052222Y-41536528D01*
X77012497Y-41515726D01*
X76987765Y-41486428D01*
X76687005Y-41019971D01*
X76477662Y-40538248D01*
X76410890Y-40331274D01*
X76369582Y-40153139D01*
X76348045Y-39966466D01*
X76340581Y-39733874D01*
X76340239Y-39636290D01*
X76345012Y-39373605D01*
X76362663Y-39168809D01*
X76398878Y-38983665D01*
X76459342Y-38779937D01*
X76474177Y-38735567D01*
X76549054Y-38545590D01*
X76647423Y-38339264D01*
X76758147Y-38135250D01*
X76870093Y-37952211D01*
X76878783Y-37939998D01*
X76878783Y-38450823D01*
X76776260Y-38479421D01*
X76733798Y-38548240D01*
X76733394Y-38613017D01*
X76746891Y-38673404D01*
X76782769Y-38716203D01*
X76859756Y-38750051D01*
X76982692Y-38780179D01*
X76982692Y-39125884D01*
X76825102Y-39146411D01*
X76732780Y-39190911D01*
X76725932Y-39199917D01*
X76695312Y-39297885D01*
X76744954Y-39370693D01*
X76879531Y-39421172D01*
X77103715Y-39452153D01*
X77147755Y-39455458D01*
X77400951Y-39488603D01*
X77632377Y-39547602D01*
X77754168Y-39597816D01*
X77754168Y-39785913D01*
X77660344Y-39833945D01*
X77648087Y-39841129D01*
X77497440Y-39905361D01*
X77328783Y-39921215D01*
X77113305Y-39890019D01*
X77027485Y-39869745D01*
X76887977Y-39839882D01*
X76808288Y-39843113D01*
X76756583Y-39882676D01*
X76744367Y-39898529D01*
X76702294Y-39999307D01*
X76743184Y-40082336D01*
X76872339Y-40154209D01*
X76978892Y-40190181D01*
X77290137Y-40253781D01*
X77547100Y-40244835D01*
X77633582Y-40209655D01*
X77633582Y-40490897D01*
X77531444Y-40499294D01*
X77365971Y-40511280D01*
X77170038Y-40524491D01*
X77136923Y-40526633D01*
X76941230Y-40546001D01*
X76795378Y-40573788D01*
X76721406Y-40605641D01*
X76718559Y-40609278D01*
X76707641Y-40704306D01*
X76772215Y-40795678D01*
X76893565Y-40859331D01*
X76917887Y-40865532D01*
X77052867Y-40875412D01*
X77232255Y-40863350D01*
X77426265Y-40834556D01*
X77605110Y-40794241D01*
X77739004Y-40747614D01*
X77791083Y-40712785D01*
X77822244Y-40618303D01*
X77778606Y-40535063D01*
X77680244Y-40491350D01*
X77633582Y-40490897D01*
X77633582Y-40209655D01*
X77745796Y-40164006D01*
X77863504Y-40042960D01*
X77904117Y-39952309D01*
X77874702Y-39870668D01*
X77860238Y-39850171D01*
X77808064Y-39790779D01*
X77754168Y-39785913D01*
X77754168Y-39597816D01*
X77818932Y-39624518D01*
X77937513Y-39711416D01*
X77952753Y-39731996D01*
X78019553Y-39769848D01*
X78100615Y-39780882D01*
X78191130Y-39759605D01*
X78218040Y-39678059D01*
X78218264Y-39663832D01*
X78191644Y-39547039D01*
X78103580Y-39441276D01*
X77941766Y-39334993D01*
X77785270Y-39257421D01*
X77606839Y-39195098D01*
X77397584Y-39151532D01*
X77181528Y-39128026D01*
X76982692Y-39125884D01*
X76982692Y-38780179D01*
X76996579Y-38783583D01*
X77181701Y-38819754D01*
X77414179Y-38860619D01*
X77570406Y-38878433D01*
X77668000Y-38872073D01*
X77724576Y-38840412D01*
X77757494Y-38783001D01*
X77764906Y-38703589D01*
X77711848Y-38638366D01*
X77587493Y-38580741D01*
X77381016Y-38524125D01*
X77303861Y-38506874D01*
X77051329Y-38460592D01*
X76878783Y-38450823D01*
X76878783Y-37939998D01*
X76972123Y-37808810D01*
X77053104Y-37723709D01*
X77087055Y-37708397D01*
X77147188Y-37742668D01*
X77250890Y-37833496D01*
X77380601Y-37962902D01*
X77518765Y-38112908D01*
X77647823Y-38265535D01*
X77710728Y-38347012D01*
X77836597Y-38480125D01*
X77951328Y-38527727D01*
X77953742Y-38527752D01*
X78060266Y-38498831D01*
X78093442Y-38415728D01*
X78055629Y-38283936D01*
X77949186Y-38108943D01*
X77776470Y-37896241D01*
X77604816Y-37715228D01*
X77345093Y-37455505D01*
X77455913Y-37337543D01*
X77572825Y-37244717D01*
X77756530Y-37134413D01*
X77982084Y-37018750D01*
X78224541Y-36909850D01*
X78386955Y-36847482D01*
X78386955Y-37105930D01*
X78242363Y-37105930D01*
X78147741Y-37115830D01*
X78098694Y-37163677D01*
X78070436Y-37276691D01*
X78066815Y-37298719D01*
X78051029Y-37462586D01*
X78052768Y-37612566D01*
X78054765Y-37630076D01*
X78069501Y-37790070D01*
X78073672Y-37907211D01*
X78104517Y-38051169D01*
X78182501Y-38157060D01*
X78251070Y-38188292D01*
X78251070Y-41128035D01*
X78217538Y-41142457D01*
X78202351Y-41190778D01*
X78165075Y-41297785D01*
X78147358Y-41347296D01*
X78101755Y-41525830D01*
X78078526Y-41727209D01*
X78077581Y-41923246D01*
X78098833Y-42085751D01*
X78142193Y-42186535D01*
X78150008Y-42194103D01*
X78247659Y-42231681D01*
X78327934Y-42188920D01*
X78372199Y-42081865D01*
X78374401Y-42000885D01*
X78378793Y-41873424D01*
X78402835Y-41695003D01*
X78434920Y-41533558D01*
X78468234Y-41367399D01*
X78484599Y-41237904D01*
X78480777Y-41174443D01*
X78428139Y-41148165D01*
X78336366Y-41130849D01*
X78251070Y-41128035D01*
X78251070Y-38188292D01*
X78285793Y-38204109D01*
X78368192Y-38187515D01*
X78436916Y-38128346D01*
X78437793Y-38038392D01*
X78428807Y-38005670D01*
X78409924Y-37896086D01*
X78395658Y-37724263D01*
X78388689Y-37524335D01*
X78388428Y-37491509D01*
X78386955Y-37105930D01*
X78386955Y-36847482D01*
X78458957Y-36819832D01*
X78626018Y-36769028D01*
X78793515Y-36740825D01*
X78793515Y-37075128D01*
X78807123Y-37639651D01*
X78815212Y-37888698D01*
X78827070Y-38058371D01*
X78845373Y-38165686D01*
X78872796Y-38227657D01*
X78904172Y-38256702D01*
X78968508Y-38274812D01*
X78968508Y-41041678D01*
X78870493Y-41047314D01*
X78803381Y-41113701D01*
X78765424Y-41248440D01*
X78754873Y-41459135D01*
X78769979Y-41753389D01*
X78779605Y-41862843D01*
X78813858Y-42078271D01*
X78867183Y-42199432D01*
X78939856Y-42226603D01*
X79032151Y-42160063D01*
X79051673Y-42137165D01*
X79101851Y-42054397D01*
X79119143Y-41951842D01*
X79108270Y-41795468D01*
X79103908Y-41760687D01*
X79082608Y-41560513D01*
X79068275Y-41357942D01*
X79065334Y-41275857D01*
X79054450Y-41135349D01*
X79020940Y-41065004D01*
X78968508Y-41041678D01*
X78968508Y-38274812D01*
X78989634Y-38280760D01*
X79067047Y-38229796D01*
X79101749Y-38183285D01*
X79121370Y-38116158D01*
X79127098Y-38009102D01*
X79120123Y-37842802D01*
X79104099Y-37628146D01*
X79061717Y-37105930D01*
X78793515Y-37075128D01*
X78793515Y-36740825D01*
X78919430Y-36719623D01*
X79264620Y-36700191D01*
X79603860Y-36710140D01*
X79603860Y-37090539D01*
X79548636Y-37105411D01*
X79516042Y-37144569D01*
X79499961Y-37229044D01*
X79494273Y-37379868D01*
X79493502Y-37469891D01*
X79487015Y-37675243D01*
X79463626Y-37824922D01*
X79413392Y-37959398D01*
X79339572Y-38096457D01*
X79244434Y-38268274D01*
X79197567Y-38380157D01*
X79194529Y-38452875D01*
X79230877Y-38507198D01*
X79248398Y-38522682D01*
X79272114Y-38530902D01*
X79272114Y-40712205D01*
X79210908Y-40741013D01*
X79143552Y-40827138D01*
X79157650Y-40919268D01*
X79256028Y-41034794D01*
X79259086Y-41037661D01*
X79399837Y-41193573D01*
X79480121Y-41355423D01*
X79509377Y-41552411D01*
X79499963Y-41782934D01*
X79491351Y-42012661D01*
X79516821Y-42156941D01*
X79578761Y-42221362D01*
X79679559Y-42211510D01*
X79682590Y-42210364D01*
X79754173Y-42147793D01*
X79801456Y-42018345D01*
X79826802Y-41812111D01*
X79832875Y-41580385D01*
X79828032Y-41386878D01*
X79806991Y-41252578D01*
X79759980Y-41140513D01*
X79686643Y-41027043D01*
X79533889Y-40842442D01*
X79393048Y-40735894D01*
X79272114Y-40712205D01*
X79272114Y-38530902D01*
X79345924Y-38556487D01*
X79452623Y-38499947D01*
X79572519Y-38350868D01*
X79577361Y-38343394D01*
X79702866Y-38128029D01*
X79774479Y-37942097D01*
X79804941Y-37745378D01*
X79808776Y-37612872D01*
X79794865Y-37354757D01*
X79752137Y-37185284D01*
X79679102Y-37100658D01*
X79603860Y-37090539D01*
X79603860Y-36710140D01*
X79621773Y-36710666D01*
X79951071Y-36750984D01*
X80049032Y-36771342D01*
X80296122Y-36845546D01*
X80316041Y-36853381D01*
X80316041Y-37081831D01*
X80241369Y-37088774D01*
X80200944Y-37124002D01*
X80186000Y-37209114D01*
X80187769Y-37365710D01*
X80188872Y-37395114D01*
X80178182Y-37566841D01*
X80142363Y-37756548D01*
X80128748Y-37804791D01*
X80092216Y-37983293D01*
X80118177Y-38092775D01*
X80208891Y-38139471D01*
X80238180Y-38141354D01*
X80238180Y-41092604D01*
X80168234Y-41132086D01*
X80127975Y-41180112D01*
X80106365Y-41255003D01*
X80100795Y-41378597D01*
X80108655Y-41572734D01*
X80110951Y-41611265D01*
X80126226Y-41809474D01*
X80144859Y-41976843D01*
X80163520Y-42085146D01*
X80168937Y-42102678D01*
X80242337Y-42192402D01*
X80341250Y-42217420D01*
X80416062Y-42180471D01*
X80445842Y-42098104D01*
X80458598Y-41949086D01*
X80456425Y-41759648D01*
X80441415Y-41556016D01*
X80415664Y-41364421D01*
X80381265Y-41211091D01*
X80340311Y-41122254D01*
X80330938Y-41114161D01*
X80238180Y-41092604D01*
X80238180Y-38141354D01*
X80250913Y-38142173D01*
X80338614Y-38096040D01*
X80416142Y-37965683D01*
X80477922Y-37763161D01*
X80508940Y-37583943D01*
X80517276Y-37353081D01*
X80476369Y-37188157D01*
X80389361Y-37097345D01*
X80316041Y-37081831D01*
X80316041Y-36853381D01*
X80569236Y-36952979D01*
X80835917Y-37078733D01*
X81063709Y-37207897D01*
X81181862Y-37291719D01*
X81325916Y-37409217D01*
X80880629Y-37854504D01*
X80666721Y-38076121D01*
X80525030Y-38242955D01*
X80452785Y-38360796D01*
X80447218Y-38435433D01*
X80505558Y-38472657D01*
X80581648Y-38479554D01*
X80656659Y-38467890D01*
X80740780Y-38425619D01*
X80848441Y-38341826D01*
X80994074Y-38205592D01*
X81147967Y-38051157D01*
X81567979Y-37622760D01*
X81722027Y-37823558D01*
X81752613Y-37870051D01*
X81752613Y-38461459D01*
X81637416Y-38461608D01*
X81453420Y-38486345D01*
X81345820Y-38505301D01*
X81153750Y-38541753D01*
X80995160Y-38573817D01*
X80896345Y-38596108D01*
X80881167Y-38600459D01*
X80834562Y-38658850D01*
X80822894Y-38757369D01*
X80846369Y-38846889D01*
X80880009Y-38876796D01*
X80963314Y-38880181D01*
X81111178Y-38865951D01*
X81295143Y-38839068D01*
X81486752Y-38804495D01*
X81489450Y-38803906D01*
X81489450Y-39123483D01*
X81263622Y-39159029D01*
X81014716Y-39224085D01*
X80773060Y-39309533D01*
X80568984Y-39406255D01*
X80445963Y-39492148D01*
X80375627Y-39598011D01*
X80384464Y-39693597D01*
X80452084Y-39747292D01*
X80521273Y-39740709D01*
X80653608Y-39703561D01*
X80823649Y-39643286D01*
X80870084Y-39625069D01*
X81095107Y-39548134D01*
X81333553Y-39487209D01*
X81530648Y-39455640D01*
X81706070Y-39434680D01*
X81738766Y-39424600D01*
X81738766Y-39854399D01*
X81555209Y-39861962D01*
X81475277Y-39876511D01*
X81267469Y-39903460D01*
X81058105Y-39905512D01*
X80985580Y-39898252D01*
X80829140Y-39885014D01*
X80743653Y-39906378D01*
X80722560Y-39928655D01*
X80708223Y-40028558D01*
X80777018Y-40123705D01*
X80916216Y-40199213D01*
X80967620Y-40215226D01*
X81107125Y-40234752D01*
X81107125Y-40419845D01*
X80917794Y-40436274D01*
X80809720Y-40494440D01*
X80779659Y-40595255D01*
X80781481Y-40612753D01*
X80797989Y-40667554D01*
X80842031Y-40703699D01*
X80933756Y-40728499D01*
X81093314Y-40749267D01*
X81182401Y-40758255D01*
X81380595Y-40777489D01*
X81553863Y-40794210D01*
X81669688Y-40805280D01*
X81682159Y-40806452D01*
X81796041Y-40781733D01*
X81850033Y-40733684D01*
X81872145Y-40638297D01*
X81803749Y-40559124D01*
X81643197Y-40495149D01*
X81388840Y-40445356D01*
X81380955Y-40444241D01*
X81107125Y-40419845D01*
X81107125Y-40234752D01*
X81139814Y-40239328D01*
X81335092Y-40232933D01*
X81530130Y-40201485D01*
X81701604Y-40150427D01*
X81826189Y-40085203D01*
X81880563Y-40011258D01*
X81881262Y-40001976D01*
X81846242Y-39900697D01*
X81738766Y-39854399D01*
X81738766Y-39424600D01*
X81806587Y-39403689D01*
X81853657Y-39355180D01*
X81859091Y-39341034D01*
X81868515Y-39236754D01*
X81807386Y-39169918D01*
X81663079Y-39126796D01*
X81661869Y-39126568D01*
X81489450Y-39123483D01*
X81489450Y-38803906D01*
X81657550Y-38767196D01*
X81779080Y-38732133D01*
X81817749Y-38713251D01*
X81877513Y-38615712D01*
X81844792Y-38514118D01*
X81815745Y-38485180D01*
X81752613Y-38461459D01*
X81752613Y-37870051D01*
X82007500Y-38257499D01*
X82203635Y-38704932D01*
X82317360Y-39184297D01*
X82348734Y-39491698D01*
X82349784Y-39892765D01*
X82297450Y-40255674D01*
G37*
X82297450Y-40255674D02*
X82184200Y-40616477D01*
X82051744Y-40913520D01*
X81932172Y-41134991D01*
X81806197Y-41331986D01*
X81686282Y-41487943D01*
X81584890Y-41586299D01*
X81525894Y-41612382D01*
X81448965Y-41578411D01*
X81330297Y-41489138D01*
X81189615Y-41363519D01*
X81046643Y-41220509D01*
X80921103Y-41079065D01*
X80832720Y-40958144D01*
X80818131Y-40932150D01*
X80722822Y-40798464D01*
X80622243Y-40745028D01*
X80530584Y-40776126D01*
X80488197Y-40832520D01*
X80477789Y-40948131D01*
X80537194Y-41103876D01*
X80656366Y-41285898D01*
X80825261Y-41480340D01*
X81033835Y-41673347D01*
X81180485Y-41787530D01*
X81322249Y-41890382D01*
X81040622Y-42070536D01*
X80565414Y-42320329D01*
X80062032Y-42484633D01*
X79543164Y-42562644D01*
X79021501Y-42553559D01*
X78509731Y-42456574D01*
X78020544Y-42270886D01*
X78004036Y-42262795D01*
X77812256Y-42160693D01*
X77632132Y-42052355D01*
X77500035Y-41959782D01*
X77491462Y-41952738D01*
X77326613Y-41814496D01*
X77447106Y-41684830D01*
X77543713Y-41590900D01*
X77687121Y-41463043D01*
X77848391Y-41326961D01*
X77868833Y-41310271D01*
X78045900Y-41153245D01*
X78142668Y-41031600D01*
X78164076Y-40935702D01*
X78115065Y-40855917D01*
X78105889Y-40847961D01*
X78021591Y-40838824D01*
X77882150Y-40898354D01*
X77695049Y-41021942D01*
X77467776Y-41204977D01*
X77336745Y-41321621D01*
X77196154Y-41448067D01*
X77107377Y-41516839D01*
X77052222Y-41536528D01*
X77012497Y-41515726D01*
X76987765Y-41486428D01*
X76687005Y-41019971D01*
X76477662Y-40538248D01*
X76410890Y-40331274D01*
X76369582Y-40153139D01*
X76348045Y-39966466D01*
X76340581Y-39733874D01*
X76340239Y-39636290D01*
X76345012Y-39373605D01*
X76362663Y-39168809D01*
X76398878Y-38983665D01*
X76459342Y-38779937D01*
X76474177Y-38735567D01*
X76549054Y-38545590D01*
X76647423Y-38339264D01*
X76758147Y-38135250D01*
X76870093Y-37952211D01*
X76878783Y-37939998D01*
X76878783Y-38450823D01*
X76776260Y-38479421D01*
X76733798Y-38548240D01*
X76733394Y-38613017D01*
X76746891Y-38673404D01*
X76782769Y-38716203D01*
X76859756Y-38750051D01*
X76982692Y-38780179D01*
X76982692Y-39125884D01*
X76825102Y-39146411D01*
X76732780Y-39190911D01*
X76725932Y-39199917D01*
X76695312Y-39297885D01*
X76744954Y-39370693D01*
X76879531Y-39421172D01*
X77103715Y-39452153D01*
X77147755Y-39455458D01*
X77400951Y-39488603D01*
X77632377Y-39547602D01*
X77754168Y-39597816D01*
X77754168Y-39785913D01*
X77660344Y-39833945D01*
X77648087Y-39841129D01*
X77497440Y-39905361D01*
X77328783Y-39921215D01*
X77113305Y-39890019D01*
X77027485Y-39869745D01*
X76887977Y-39839882D01*
X76808288Y-39843113D01*
X76756583Y-39882676D01*
X76744367Y-39898529D01*
X76702294Y-39999307D01*
X76743184Y-40082336D01*
X76872339Y-40154209D01*
X76978892Y-40190181D01*
X77290137Y-40253781D01*
X77547100Y-40244835D01*
X77633582Y-40209655D01*
X77633582Y-40490897D01*
X77531444Y-40499294D01*
X77365971Y-40511280D01*
X77170038Y-40524491D01*
X77136923Y-40526633D01*
X76941230Y-40546001D01*
X76795378Y-40573788D01*
X76721406Y-40605641D01*
X76718559Y-40609278D01*
X76707641Y-40704306D01*
X76772215Y-40795678D01*
X76893565Y-40859331D01*
X76917887Y-40865532D01*
X77052867Y-40875412D01*
X77232255Y-40863350D01*
X77426265Y-40834556D01*
X77605110Y-40794241D01*
X77739004Y-40747614D01*
X77791083Y-40712785D01*
X77822244Y-40618303D01*
X77778606Y-40535063D01*
X77680244Y-40491350D01*
X77633582Y-40490897D01*
X77633582Y-40209655D01*
X77745796Y-40164006D01*
X77863504Y-40042960D01*
X77904117Y-39952309D01*
X77874702Y-39870668D01*
X77860238Y-39850171D01*
X77808064Y-39790779D01*
X77754168Y-39785913D01*
X77754168Y-39597816D01*
X77818932Y-39624518D01*
X77937513Y-39711416D01*
X77952753Y-39731996D01*
X78019553Y-39769848D01*
X78100615Y-39780882D01*
X78191130Y-39759605D01*
X78218040Y-39678059D01*
X78218264Y-39663832D01*
X78191644Y-39547039D01*
X78103580Y-39441276D01*
X77941766Y-39334993D01*
X77785270Y-39257421D01*
X77606839Y-39195098D01*
X77397584Y-39151532D01*
X77181528Y-39128026D01*
X76982692Y-39125884D01*
X76982692Y-38780179D01*
X76996579Y-38783583D01*
X77181701Y-38819754D01*
X77414179Y-38860619D01*
X77570406Y-38878433D01*
X77668000Y-38872073D01*
X77724576Y-38840412D01*
X77757494Y-38783001D01*
X77764906Y-38703589D01*
X77711848Y-38638366D01*
X77587493Y-38580741D01*
X77381016Y-38524125D01*
X77303861Y-38506874D01*
X77051329Y-38460592D01*
X76878783Y-38450823D01*
X76878783Y-37939998D01*
X76972123Y-37808810D01*
X77053104Y-37723709D01*
X77087055Y-37708397D01*
X77147188Y-37742668D01*
X77250890Y-37833496D01*
X77380601Y-37962902D01*
X77518765Y-38112908D01*
X77647823Y-38265535D01*
X77710728Y-38347012D01*
X77836597Y-38480125D01*
X77951328Y-38527727D01*
X77953742Y-38527752D01*
X78060266Y-38498831D01*
X78093442Y-38415728D01*
X78055629Y-38283936D01*
X77949186Y-38108943D01*
X77776470Y-37896241D01*
X77604816Y-37715228D01*
X77345093Y-37455505D01*
X77455913Y-37337543D01*
X77572825Y-37244717D01*
X77756530Y-37134413D01*
X77982084Y-37018750D01*
X78224541Y-36909850D01*
X78386955Y-36847482D01*
X78386955Y-37105930D01*
X78242363Y-37105930D01*
X78147741Y-37115830D01*
X78098694Y-37163677D01*
X78070436Y-37276691D01*
X78066815Y-37298719D01*
X78051029Y-37462586D01*
X78052768Y-37612566D01*
X78054765Y-37630076D01*
X78069501Y-37790070D01*
X78073672Y-37907211D01*
X78104517Y-38051169D01*
X78182501Y-38157060D01*
X78251070Y-38188292D01*
X78251070Y-41128035D01*
X78217538Y-41142457D01*
X78202351Y-41190778D01*
X78165075Y-41297785D01*
X78147358Y-41347296D01*
X78101755Y-41525830D01*
X78078526Y-41727209D01*
X78077581Y-41923246D01*
X78098833Y-42085751D01*
X78142193Y-42186535D01*
X78150008Y-42194103D01*
X78247659Y-42231681D01*
X78327934Y-42188920D01*
X78372199Y-42081865D01*
X78374401Y-42000885D01*
X78378793Y-41873424D01*
X78402835Y-41695003D01*
X78434920Y-41533558D01*
X78468234Y-41367399D01*
X78484599Y-41237904D01*
X78480777Y-41174443D01*
X78428139Y-41148165D01*
X78336366Y-41130849D01*
X78251070Y-41128035D01*
X78251070Y-38188292D01*
X78285793Y-38204109D01*
X78368192Y-38187515D01*
X78436916Y-38128346D01*
X78437793Y-38038392D01*
X78428807Y-38005670D01*
X78409924Y-37896086D01*
X78395658Y-37724263D01*
X78388689Y-37524335D01*
X78388428Y-37491509D01*
X78386955Y-37105930D01*
X78386955Y-36847482D01*
X78458957Y-36819832D01*
X78626018Y-36769028D01*
X78793515Y-36740825D01*
X78793515Y-37075128D01*
X78807123Y-37639651D01*
X78815212Y-37888698D01*
X78827070Y-38058371D01*
X78845373Y-38165686D01*
X78872796Y-38227657D01*
X78904172Y-38256702D01*
X78968508Y-38274812D01*
X78968508Y-41041678D01*
X78870493Y-41047314D01*
X78803381Y-41113701D01*
X78765424Y-41248440D01*
X78754873Y-41459135D01*
X78769979Y-41753389D01*
X78779605Y-41862843D01*
X78813858Y-42078271D01*
X78867183Y-42199432D01*
X78939856Y-42226603D01*
X79032151Y-42160063D01*
X79051673Y-42137165D01*
X79101851Y-42054397D01*
X79119143Y-41951842D01*
X79108270Y-41795468D01*
X79103908Y-41760687D01*
X79082608Y-41560513D01*
X79068275Y-41357942D01*
X79065334Y-41275857D01*
X79054450Y-41135349D01*
X79020940Y-41065004D01*
X78968508Y-41041678D01*
X78968508Y-38274812D01*
X78989634Y-38280760D01*
X79067047Y-38229796D01*
X79101749Y-38183285D01*
X79121370Y-38116158D01*
X79127098Y-38009102D01*
X79120123Y-37842802D01*
X79104099Y-37628146D01*
X79061717Y-37105930D01*
X78793515Y-37075128D01*
X78793515Y-36740825D01*
X78919430Y-36719623D01*
X79264620Y-36700191D01*
X79603860Y-36710140D01*
X79603860Y-37090539D01*
X79548636Y-37105411D01*
X79516042Y-37144569D01*
X79499961Y-37229044D01*
X79494273Y-37379868D01*
X79493502Y-37469891D01*
X79487015Y-37675243D01*
X79463626Y-37824922D01*
X79413392Y-37959398D01*
X79339572Y-38096457D01*
X79244434Y-38268274D01*
X79197567Y-38380157D01*
X79194529Y-38452875D01*
X79230877Y-38507198D01*
X79248398Y-38522682D01*
X79272114Y-38530902D01*
X79272114Y-40712205D01*
X79210908Y-40741013D01*
X79143552Y-40827138D01*
X79157650Y-40919268D01*
X79256028Y-41034794D01*
X79259086Y-41037661D01*
X79399837Y-41193573D01*
X79480121Y-41355423D01*
X79509377Y-41552411D01*
X79499963Y-41782934D01*
X79491351Y-42012661D01*
X79516821Y-42156941D01*
X79578761Y-42221362D01*
X79679559Y-42211510D01*
X79682590Y-42210364D01*
X79754173Y-42147793D01*
X79801456Y-42018345D01*
X79826802Y-41812111D01*
X79832875Y-41580385D01*
X79828032Y-41386878D01*
X79806991Y-41252578D01*
X79759980Y-41140513D01*
X79686643Y-41027043D01*
X79533889Y-40842442D01*
X79393048Y-40735894D01*
X79272114Y-40712205D01*
X79272114Y-38530902D01*
X79345924Y-38556487D01*
X79452623Y-38499947D01*
X79572519Y-38350868D01*
X79577361Y-38343394D01*
X79702866Y-38128029D01*
X79774479Y-37942097D01*
X79804941Y-37745378D01*
X79808776Y-37612872D01*
X79794865Y-37354757D01*
X79752137Y-37185284D01*
X79679102Y-37100658D01*
X79603860Y-37090539D01*
X79603860Y-36710140D01*
X79621773Y-36710666D01*
X79951071Y-36750984D01*
X80049032Y-36771342D01*
X80296122Y-36845546D01*
X80316041Y-36853381D01*
X80316041Y-37081831D01*
X80241369Y-37088774D01*
X80200944Y-37124002D01*
X80186000Y-37209114D01*
X80187769Y-37365710D01*
X80188872Y-37395114D01*
X80178182Y-37566841D01*
X80142363Y-37756548D01*
X80128748Y-37804791D01*
X80092216Y-37983293D01*
X80118177Y-38092775D01*
X80208891Y-38139471D01*
X80238180Y-38141354D01*
X80238180Y-41092604D01*
X80168234Y-41132086D01*
X80127975Y-41180112D01*
X80106365Y-41255003D01*
X80100795Y-41378597D01*
X80108655Y-41572734D01*
X80110951Y-41611265D01*
X80126226Y-41809474D01*
X80144859Y-41976843D01*
X80163520Y-42085146D01*
X80168937Y-42102678D01*
X80242337Y-42192402D01*
X80341250Y-42217420D01*
X80416062Y-42180471D01*
X80445842Y-42098104D01*
X80458598Y-41949086D01*
X80456425Y-41759648D01*
X80441415Y-41556016D01*
X80415664Y-41364421D01*
X80381265Y-41211091D01*
X80340311Y-41122254D01*
X80330938Y-41114161D01*
X80238180Y-41092604D01*
X80238180Y-38141354D01*
X80250913Y-38142173D01*
X80338614Y-38096040D01*
X80416142Y-37965683D01*
X80477922Y-37763161D01*
X80508940Y-37583943D01*
X80517276Y-37353081D01*
X80476369Y-37188157D01*
X80389361Y-37097345D01*
X80316041Y-37081831D01*
X80316041Y-36853381D01*
X80569236Y-36952979D01*
X80835917Y-37078733D01*
X81063709Y-37207897D01*
X81181862Y-37291719D01*
X81325916Y-37409217D01*
X80880629Y-37854504D01*
X80666721Y-38076121D01*
X80525030Y-38242955D01*
X80452785Y-38360796D01*
X80447218Y-38435433D01*
X80505558Y-38472657D01*
X80581648Y-38479554D01*
X80656659Y-38467890D01*
X80740780Y-38425619D01*
X80848441Y-38341826D01*
X80994074Y-38205592D01*
X81147967Y-38051157D01*
X81567979Y-37622760D01*
X81722027Y-37823558D01*
X81752613Y-37870051D01*
X81752613Y-38461459D01*
X81637416Y-38461608D01*
X81453420Y-38486345D01*
X81345820Y-38505301D01*
X81153750Y-38541753D01*
X80995160Y-38573817D01*
X80896345Y-38596108D01*
X80881167Y-38600459D01*
X80834562Y-38658850D01*
X80822894Y-38757369D01*
X80846369Y-38846889D01*
X80880009Y-38876796D01*
X80963314Y-38880181D01*
X81111178Y-38865951D01*
X81295143Y-38839068D01*
X81486752Y-38804495D01*
X81489450Y-38803906D01*
X81489450Y-39123483D01*
X81263622Y-39159029D01*
X81014716Y-39224085D01*
X80773060Y-39309533D01*
X80568984Y-39406255D01*
X80445963Y-39492148D01*
X80375627Y-39598011D01*
X80384464Y-39693597D01*
X80452084Y-39747292D01*
X80521273Y-39740709D01*
X80653608Y-39703561D01*
X80823649Y-39643286D01*
X80870084Y-39625069D01*
X81095107Y-39548134D01*
X81333553Y-39487209D01*
X81530648Y-39455640D01*
X81706070Y-39434680D01*
X81738766Y-39424600D01*
X81738766Y-39854399D01*
X81555209Y-39861962D01*
X81475277Y-39876511D01*
X81267469Y-39903460D01*
X81058105Y-39905512D01*
X80985580Y-39898252D01*
X80829140Y-39885014D01*
X80743653Y-39906378D01*
X80722560Y-39928655D01*
X80708223Y-40028558D01*
X80777018Y-40123705D01*
X80916216Y-40199213D01*
X80967620Y-40215226D01*
X81107125Y-40234752D01*
X81107125Y-40419845D01*
X80917794Y-40436274D01*
X80809720Y-40494440D01*
X80779659Y-40595255D01*
X80781481Y-40612753D01*
X80797989Y-40667554D01*
X80842031Y-40703699D01*
X80933756Y-40728499D01*
X81093314Y-40749267D01*
X81182401Y-40758255D01*
X81380595Y-40777489D01*
X81553863Y-40794210D01*
X81669688Y-40805280D01*
X81682159Y-40806452D01*
X81796041Y-40781733D01*
X81850033Y-40733684D01*
X81872145Y-40638297D01*
X81803749Y-40559124D01*
X81643197Y-40495149D01*
X81388840Y-40445356D01*
X81380955Y-40444241D01*
X81107125Y-40419845D01*
X81107125Y-40234752D01*
X81139814Y-40239328D01*
X81335092Y-40232933D01*
X81530130Y-40201485D01*
X81701604Y-40150427D01*
X81826189Y-40085203D01*
X81880563Y-40011258D01*
X81881262Y-40001976D01*
X81846242Y-39900697D01*
X81738766Y-39854399D01*
X81738766Y-39424600D01*
X81806587Y-39403689D01*
X81853657Y-39355180D01*
X81859091Y-39341034D01*
X81868515Y-39236754D01*
X81807386Y-39169918D01*
X81663079Y-39126796D01*
X81661869Y-39126568D01*
X81489450Y-39123483D01*
X81489450Y-38803906D01*
X81657550Y-38767196D01*
X81779080Y-38732133D01*
X81817749Y-38713251D01*
X81877513Y-38615712D01*
X81844792Y-38514118D01*
X81815745Y-38485180D01*
X81752613Y-38461459D01*
X81752613Y-37870051D01*
X82007500Y-38257499D01*
X82203635Y-38704932D01*
X82317360Y-39184297D01*
X82348734Y-39491698D01*
X82349784Y-39892765D01*
X82297450Y-40255674D01*
D12*
X84710000Y-49120000D02*
X85345000Y-48485000D01*
X84710000Y-33880000D02*
X85345000Y-34515000D01*
X88669903Y-41500000D02*
G75*
G03X88669903Y-41500000I-1419903J0D01*
G01*
X65025000Y-48485000D02*
X65660000Y-49120000D01*
X65025000Y-34515000D02*
X65660000Y-33880000D01*
X65025000Y-48485000D02*
X65025000Y-46580000D01*
X65025000Y-36420000D02*
X65025000Y-34515000D01*
X87250000Y-48485000D02*
X91060000Y-48485000D01*
X83440000Y-48485000D02*
X87250000Y-48485000D01*
X87250000Y-34515000D02*
X91060000Y-34515000D01*
X83440000Y-34515000D02*
X87250000Y-34515000D01*
X91060000Y-34515000D02*
X91060000Y-48485000D01*
X83440000Y-34515000D02*
X83440000Y-48485000D01*
X90425000Y-35150000D02*
X89790000Y-35150000D01*
X89790000Y-35150000D02*
X90425000Y-35785000D01*
X90425000Y-35785000D02*
X90425000Y-36420000D01*
X90425000Y-36420000D02*
X89155000Y-35150000D01*
X89155000Y-35150000D02*
X88520000Y-35150000D01*
X88520000Y-35150000D02*
X90425000Y-37055000D01*
X90425000Y-37055000D02*
X90425000Y-37690000D01*
X90425000Y-37690000D02*
X87885000Y-35150000D01*
X87885000Y-35150000D02*
X87250000Y-35150000D01*
X87250000Y-35150000D02*
X90425000Y-38325000D01*
X90425000Y-38325000D02*
X90425000Y-38960000D01*
X90425000Y-38960000D02*
X86615000Y-35150000D01*
X86615000Y-35150000D02*
X85980000Y-35150000D01*
X85980000Y-35150000D02*
X90425000Y-39595000D01*
X90425000Y-39595000D02*
X90425000Y-40230000D01*
X90425000Y-40230000D02*
X85345000Y-35150000D01*
X85345000Y-35150000D02*
X84710000Y-35150000D01*
X84710000Y-35150000D02*
X90425000Y-40865000D01*
X90425000Y-40865000D02*
X90425000Y-41500000D01*
X90425000Y-41500000D02*
X84075000Y-35150000D01*
X84075000Y-35150000D02*
X84075000Y-35785000D01*
X84075000Y-35785000D02*
X90425000Y-42135000D01*
X90425000Y-42135000D02*
X90425000Y-42770000D01*
X90425000Y-42770000D02*
X84075000Y-36420000D01*
X84075000Y-36420000D02*
X84075000Y-37055000D01*
X84075000Y-37055000D02*
X90425000Y-43405000D01*
X90425000Y-43405000D02*
X90425000Y-44040000D01*
X90425000Y-44040000D02*
X84075000Y-37690000D01*
X84075000Y-37690000D02*
X84075000Y-38325000D01*
X84075000Y-38325000D02*
X90425000Y-44675000D01*
X90425000Y-44675000D02*
X90425000Y-45310000D01*
X90425000Y-45310000D02*
X84075000Y-38960000D01*
X84075000Y-38960000D02*
X84075000Y-39595000D01*
X84075000Y-39595000D02*
X90425000Y-45945000D01*
X90425000Y-45945000D02*
X90425000Y-46580000D01*
X90425000Y-46580000D02*
X84075000Y-40230000D01*
X84075000Y-40230000D02*
X84075000Y-40865000D01*
X84075000Y-40865000D02*
X90425000Y-47215000D01*
X90425000Y-47215000D02*
X90425000Y-47850000D01*
X90425000Y-47850000D02*
X84075000Y-41500000D01*
X84075000Y-41500000D02*
X84075000Y-42135000D01*
X84075000Y-42135000D02*
X89790000Y-47850000D01*
X89790000Y-47850000D02*
X89155000Y-47850000D01*
X89155000Y-47850000D02*
X84075000Y-42770000D01*
X84075000Y-42770000D02*
X84075000Y-43405000D01*
X84075000Y-43405000D02*
X88520000Y-47850000D01*
X88520000Y-47850000D02*
X87885000Y-47850000D01*
X87885000Y-47850000D02*
X84075000Y-44040000D01*
X84075000Y-44040000D02*
X84075000Y-44675000D01*
X84075000Y-44675000D02*
X87250000Y-47850000D01*
X87250000Y-47850000D02*
X86615000Y-47850000D01*
X86615000Y-47850000D02*
X84075000Y-45310000D01*
X84075000Y-45310000D02*
X84075000Y-45945000D01*
X84075000Y-45945000D02*
X85980000Y-47850000D01*
X85980000Y-47850000D02*
X85345000Y-47850000D01*
X85345000Y-47850000D02*
X84075000Y-46580000D01*
X84075000Y-46580000D02*
X84075000Y-47215000D01*
X84075000Y-47215000D02*
X84710000Y-47850000D01*
X84710000Y-47850000D02*
X84075000Y-47850000D01*
X61950000Y-38155000D02*
X59210000Y-38155000D01*
X59210000Y-38155000D02*
X59210000Y-44695000D01*
X59210000Y-44695000D02*
X61950000Y-44695000D01*
X61950000Y-44695000D02*
X61950000Y-38155000D01*
X60580000Y-37385000D02*
X60580000Y-38155000D01*
X60580000Y-45465000D02*
X60580000Y-44695000D01*
X68200000Y-35150000D02*
X80900000Y-35150000D01*
X80900000Y-47850000D02*
X68200000Y-47850000D01*
X68200000Y-35150000D02*
X83440000Y-35150000D01*
X83440000Y-35150000D02*
X83440000Y-47850000D01*
X83440000Y-47850000D02*
X80900000Y-47850000D01*
X82170000Y-47215000D02*
X82805000Y-47215000D01*
X82805000Y-47215000D02*
X82805000Y-46580000D01*
X82170000Y-35785000D02*
X82805000Y-35785000D01*
X82805000Y-35785000D02*
X82805000Y-36420000D01*
X68835000Y-36420000D02*
X68835000Y-35785000D01*
X68835000Y-35785000D02*
X69470000Y-35785000D01*
X68835000Y-47215000D02*
X69470000Y-47215000D01*
X69470000Y-47215000D02*
X68835000Y-47215000D01*
X68835000Y-47215000D02*
X68835000Y-46580000D01*
X68200000Y-47850000D02*
X68200000Y-46580000D01*
X68200000Y-35150000D02*
X68200000Y-36420000D01*
X81535000Y-35785000D02*
X80265000Y-35785000D01*
X82805000Y-37055000D02*
X82805000Y-38325000D01*
X70105000Y-35785000D02*
X71375000Y-35785000D01*
X82805000Y-45945000D02*
X82805000Y-44675000D01*
X81535000Y-47215000D02*
X80265000Y-47215000D01*
X70105000Y-47215000D02*
X71375000Y-47215000D01*
D10*
X70270952Y-42652380D02*
X70270952Y-41652380D01*
X70509047Y-41652380D01*
X70651904Y-41700000D01*
X70747142Y-41795238D01*
X70794761Y-41890476D01*
X70842380Y-42080952D01*
X70842380Y-42223809D01*
X70794761Y-42414285D01*
X70747142Y-42509523D01*
X70651904Y-42604761D01*
X70509047Y-42652380D01*
X70270952Y-42652380D01*
X71270952Y-42652380D02*
X71270952Y-41652380D01*
X71270952Y-42128571D02*
X71842380Y-42128571D01*
X71842380Y-42652380D02*
X71842380Y-41652380D01*
X72175714Y-41652380D02*
X72747142Y-41652380D01*
X72461428Y-42652380D02*
X72461428Y-41652380D01*
X73032857Y-41747619D02*
X73080476Y-41700000D01*
X73175714Y-41652380D01*
X73413809Y-41652380D01*
X73509047Y-41700000D01*
X73556666Y-41747619D01*
X73604285Y-41842857D01*
X73604285Y-41938095D01*
X73556666Y-42080952D01*
X72985238Y-42652380D01*
X73604285Y-42652380D01*
X73985238Y-41747619D02*
X74032857Y-41700000D01*
X74128095Y-41652380D01*
X74366190Y-41652380D01*
X74461428Y-41700000D01*
X74509047Y-41747619D01*
X74556666Y-41842857D01*
X74556666Y-41938095D01*
X74509047Y-42080952D01*
X73937619Y-42652380D01*
X74556666Y-42652380D01*
X61032380Y-41591666D02*
X60556190Y-41925000D01*
X61032380Y-42163095D02*
X60032380Y-42163095D01*
X60032380Y-41782142D01*
X60080000Y-41686904D01*
X60127619Y-41639285D01*
X60222857Y-41591666D01*
X60365714Y-41591666D01*
X60460952Y-41639285D01*
X60508571Y-41686904D01*
X60556190Y-41782142D01*
X60556190Y-42163095D01*
X61032380Y-40639285D02*
X61032380Y-41210714D01*
X61032380Y-40925000D02*
X60032380Y-40925000D01*
X60175238Y-41020238D01*
X60270476Y-41115476D01*
X60318095Y-41210714D01*
X70310714Y-40966666D02*
X70786904Y-40966666D01*
X70215476Y-41252380D02*
X70548809Y-40252380D01*
X70882142Y-41252380D01*
X71215476Y-41252380D02*
X71215476Y-40252380D01*
X71548809Y-40966666D01*
X71882142Y-40252380D01*
X71882142Y-41252380D01*
X72310714Y-40347619D02*
X72358333Y-40300000D01*
X72453571Y-40252380D01*
X72691666Y-40252380D01*
X72786904Y-40300000D01*
X72834523Y-40347619D01*
X72882142Y-40442857D01*
X72882142Y-40538095D01*
X72834523Y-40680952D01*
X72263095Y-41252380D01*
X72882142Y-41252380D01*
X73215476Y-40252380D02*
X73834523Y-40252380D01*
X73501190Y-40633333D01*
X73644047Y-40633333D01*
X73739285Y-40680952D01*
X73786904Y-40728571D01*
X73834523Y-40823809D01*
X73834523Y-41061904D01*
X73786904Y-41157142D01*
X73739285Y-41204761D01*
X73644047Y-41252380D01*
X73358333Y-41252380D01*
X73263095Y-41204761D01*
X73215476Y-41157142D01*
X74215476Y-40347619D02*
X74263095Y-40300000D01*
X74358333Y-40252380D01*
X74596428Y-40252380D01*
X74691666Y-40300000D01*
X74739285Y-40347619D01*
X74786904Y-40442857D01*
X74786904Y-40538095D01*
X74739285Y-40680952D01*
X74167857Y-41252380D01*
X74786904Y-41252380D01*
X75405952Y-40252380D02*
X75501190Y-40252380D01*
X75596428Y-40300000D01*
X75644047Y-40347619D01*
X75691666Y-40442857D01*
X75739285Y-40633333D01*
X75739285Y-40871428D01*
X75691666Y-41061904D01*
X75644047Y-41157142D01*
X75596428Y-41204761D01*
X75501190Y-41252380D01*
X75405952Y-41252380D01*
X75310714Y-41204761D01*
X75263095Y-41157142D01*
X75215476Y-41061904D01*
X75167857Y-40871428D01*
X75167857Y-40633333D01*
X75215476Y-40442857D01*
X75263095Y-40347619D01*
X75310714Y-40300000D01*
X75405952Y-40252380D01*
M02*
